<svg width="60" height="60" viewBox="0 0 60 60" fill="none" xmlns="http://www.w3.org/2000/svg">
<rect width="60" height="60" rx="7" fill="url(#paint0_radial_98_7229)"/>
<path d="M24.24 26.312H24.048C23.856 26.9093 23.6427 27.56 23.408 28.264C23.1733 28.968 22.928 29.7147 22.672 30.504C22.416 31.272 22.1707 32.072 21.936 32.904L21.232 36.52C21.104 36.9467 20.9867 37.3627 20.88 37.768C20.7947 38.1733 20.6987 38.5573 20.592 38.92C20.5067 39.2827 20.4213 39.6347 20.336 39.976C20.2507 40.3173 20.1653 40.648 20.08 40.968C19.8027 41.0533 19.4933 41.1387 19.152 41.224C18.8107 41.3093 18.4053 41.352 17.936 41.352C16.8693 41.352 16.0693 41.1707 15.536 40.808C15.0027 40.424 14.736 39.9013 14.736 39.24C14.736 38.9413 14.7787 38.6427 14.864 38.344C14.9493 38.0453 15.0453 37.6933 15.152 37.288C15.3227 36.6053 15.5787 35.7307 15.92 34.664C16.2613 33.576 16.6347 32.4133 17.04 31.176C17.4667 29.9173 17.8827 28.6907 18.288 27.496C18.7147 26.3013 19.0987 25.2347 19.44 24.296C19.7813 23.336 20.0373 22.632 20.208 22.184C20.5707 21.9707 21.1253 21.768 21.872 21.576C22.6187 21.384 23.3547 21.288 24.08 21.288C25.1467 21.288 26.096 21.448 26.928 21.768C27.76 22.0667 28.2827 22.5573 28.496 23.24C28.88 24.328 29.2853 25.608 29.712 27.08C30.16 28.5307 30.608 30.056 31.056 31.656C31.5253 33.2347 31.9733 34.7813 32.4 36.296C32.8267 37.7893 33.2 39.1333 33.52 40.328C33.264 40.6053 32.88 40.84 32.368 41.032C31.856 41.224 31.248 41.32 30.544 41.32C29.4987 41.32 28.7733 41.1493 28.368 40.808C27.9627 40.4453 27.664 39.9013 27.472 39.176L26.672 36.104L26.032 32.808C25.8187 31.976 25.6053 31.176 25.392 30.408C25.1787 29.64 24.976 28.9147 24.784 28.232C24.592 27.528 24.4107 26.888 24.24 26.312ZM18.832 36.968L21.04 32.648H28.08L28.752 36.968H18.832ZM43.1813 36.808H37.7413V26.728L34.5413 27.72C34.2213 27.5067 33.9013 27.208 33.5813 26.824C33.2613 26.44 33.1013 25.9067 33.1013 25.224C33.1013 23.944 33.8799 23.048 35.4373 22.536L39.0213 21.32H40.2053C41.1226 21.32 41.8479 21.5867 42.3813 22.12C42.9146 22.6533 43.1813 23.3787 43.1813 24.296V36.808ZM37.7413 32.552H43.1813V40.968C42.9466 41.032 42.6053 41.096 42.1573 41.16C41.7306 41.224 41.2613 41.256 40.7493 41.256C39.7039 41.256 38.9359 41.0747 38.4453 40.712C37.9759 40.3493 37.7413 39.6773 37.7413 38.696V32.552Z" fill="white"/>
<defs>
<radialGradient id="paint0_radial_98_7229" cx="0" cy="0" r="1" gradientUnits="userSpaceOnUse" gradientTransform="translate(30 30) rotate(90) scale(30)">
<stop stop-color="#FF7171"/>
<stop offset="1" stop-color="#B63535"/>
</radialGradient>
</defs>
</svg>
