<svg width="60" height="60" viewBox="0 0 60 60" fill="none" xmlns="http://www.w3.org/2000/svg">
<rect width="60" height="60" rx="7" fill="url(#paint0_radial_128_14)"/>
<path d="M21.24 26.312H21.048C20.856 26.9093 20.6427 27.56 20.408 28.264C20.1733 28.968 19.928 29.7147 19.672 30.504C19.416 31.272 19.1707 32.072 18.936 32.904L18.232 36.52C18.104 36.9467 17.9867 37.3627 17.88 37.768C17.7947 38.1733 17.6987 38.5573 17.592 38.92C17.5067 39.2827 17.4213 39.6347 17.336 39.976C17.2507 40.3173 17.1653 40.648 17.08 40.968C16.8027 41.0533 16.4933 41.1387 16.152 41.224C15.8107 41.3093 15.4053 41.352 14.936 41.352C13.8693 41.352 13.0693 41.1707 12.536 40.808C12.0027 40.424 11.736 39.9013 11.736 39.24C11.736 38.9413 11.7787 38.6427 11.864 38.344C11.9493 38.0453 12.0453 37.6933 12.152 37.288C12.3227 36.6053 12.5787 35.7307 12.92 34.664C13.2613 33.576 13.6347 32.4133 14.04 31.176C14.4667 29.9173 14.8827 28.6907 15.288 27.496C15.7147 26.3013 16.0987 25.2347 16.44 24.296C16.7813 23.336 17.0373 22.632 17.208 22.184C17.5707 21.9707 18.1253 21.768 18.872 21.576C19.6187 21.384 20.3547 21.288 21.08 21.288C22.1467 21.288 23.096 21.448 23.928 21.768C24.76 22.0667 25.2827 22.5573 25.496 23.24C25.88 24.328 26.2853 25.608 26.712 27.08C27.16 28.5307 27.608 30.056 28.056 31.656C28.5253 33.2347 28.9733 34.7813 29.4 36.296C29.8267 37.7893 30.2 39.1333 30.52 40.328C30.264 40.6053 29.88 40.84 29.368 41.032C28.856 41.224 28.248 41.32 27.544 41.32C26.4987 41.32 25.7733 41.1493 25.368 40.808C24.9627 40.4453 24.664 39.9013 24.472 39.176L23.672 36.104L23.032 32.808C22.8187 31.976 22.6053 31.176 22.392 30.408C22.1787 29.64 21.976 28.9147 21.784 28.232C21.592 27.528 21.4107 26.888 21.24 26.312ZM15.832 36.968L18.04 32.648H25.08L25.752 36.968H15.832ZM32.9825 24.36C32.9825 23.6133 33.2172 23.0053 33.6865 22.536C34.1772 22.0453 34.8492 21.6827 35.7025 21.448C36.5772 21.192 37.6012 21.064 38.7745 21.064C40.4598 21.064 41.8678 21.3307 42.9985 21.864C44.1292 22.376 44.9825 23.08 45.5585 23.976C46.1345 24.872 46.4225 25.8853 46.4225 27.016C46.4225 28.1467 46.1025 29.2453 45.4625 30.312C44.8438 31.3573 43.8945 32.392 42.6145 33.416L38.4225 36.776H46.1025C46.2305 36.9893 46.3478 37.288 46.4545 37.672C46.5825 38.0347 46.6465 38.4293 46.6465 38.856C46.6465 39.624 46.4758 40.1787 46.1345 40.52C45.7932 40.84 45.3452 41 44.7905 41H33.6865C33.2172 40.68 32.8438 40.264 32.5665 39.752C32.3105 39.24 32.1825 38.6533 32.1825 37.992C32.1825 37.2667 32.3318 36.6587 32.6305 36.168C32.9505 35.656 33.2812 35.2507 33.6225 34.952L38.0385 31.176C39.1478 30.2373 39.9052 29.48 40.3105 28.904C40.7158 28.328 40.9185 27.8053 40.9185 27.336C40.9185 26.7387 40.6732 26.2693 40.1825 25.928C39.7132 25.5867 39.0518 25.416 38.1985 25.416C37.3452 25.416 36.5772 25.5547 35.8945 25.832C35.2332 26.088 34.6785 26.3653 34.2305 26.664C33.8892 26.408 33.5905 26.088 33.3345 25.704C33.0998 25.32 32.9825 24.872 32.9825 24.36Z" fill="white"/>
<defs>
<radialGradient id="paint0_radial_128_14" cx="0" cy="0" r="1" gradientUnits="userSpaceOnUse" gradientTransform="translate(30 30) rotate(90) scale(30)">
<stop stop-color="#FFE41B"/>
<stop offset="1" stop-color="#D8900A"/>
</radialGradient>
</defs>
</svg>
