<svg width="60" height="60" viewBox="0 0 60 60" fill="none" xmlns="http://www.w3.org/2000/svg">
<rect width="60" height="60" rx="7" fill="url(#paint0_radial_128_15)"/>
<path d="M25.9405 29.192V33.096H19.3485V29.192H25.9405ZM23.9565 33.096L24.1165 30.088C25.9938 30.088 27.5512 30.2907 28.7885 30.696C30.0258 31.1013 30.9538 31.688 31.5725 32.456C32.2125 33.224 32.5325 34.1733 32.5325 35.304C32.5325 37.3947 31.7432 38.952 30.1645 39.976C28.5858 41 26.3352 41.512 23.4125 41.512C22.9218 41.512 22.3352 41.4907 21.6525 41.448C20.9698 41.4053 20.2765 41.32 19.5725 41.192C18.8685 41.0853 18.2285 40.9253 17.6525 40.712C16.4792 40.264 15.8925 39.4853 15.8925 38.376V23.432C15.8925 22.984 16.0205 22.6427 16.2765 22.408C16.5325 22.152 16.8632 21.9493 17.2685 21.8C17.9938 21.544 18.9005 21.3627 19.9885 21.256C21.0978 21.128 22.2178 21.064 23.3485 21.064C26.0578 21.064 28.1485 21.5333 29.6205 22.472C31.1138 23.3893 31.8605 24.7973 31.8605 26.696C31.8605 27.7627 31.5298 28.6587 30.8685 29.384C30.2285 30.088 29.3112 30.6213 28.1165 30.984C26.9218 31.3253 25.5032 31.496 23.8605 31.496L23.6685 29.192C24.5858 29.192 25.2472 29.0213 25.6525 28.68C26.0792 28.3387 26.2925 27.8373 26.2925 27.176C26.2925 26.6 26.0472 26.1413 25.5565 25.8C25.0872 25.4587 24.3725 25.288 23.4125 25.288C23.0925 25.288 22.7192 25.2987 22.2925 25.32C21.8872 25.3413 21.5672 25.3733 21.3325 25.416V37C21.6312 37.0853 22.0152 37.1493 22.4845 37.192C22.9752 37.2133 23.4232 37.224 23.8285 37.224C24.6818 37.224 25.3858 37.0533 25.9405 36.712C26.5165 36.3493 26.8045 35.7947 26.8045 35.048C26.8045 34.344 26.5592 33.8427 26.0685 33.544C25.5992 33.2453 24.8952 33.096 23.9565 33.096ZM44.025 36.808H38.585V26.728L35.385 27.72C35.065 27.5067 34.745 27.208 34.425 26.824C34.105 26.44 33.945 25.9067 33.945 25.224C33.945 23.944 34.7237 23.048 36.281 22.536L39.865 21.32H41.049C41.9663 21.32 42.6917 21.5867 43.225 22.12C43.7583 22.6533 44.025 23.3787 44.025 24.296V36.808ZM38.585 32.552H44.025V40.968C43.7903 41.032 43.449 41.096 43.001 41.16C42.5743 41.224 42.105 41.256 41.593 41.256C40.5477 41.256 39.7797 41.0747 39.289 40.712C38.8197 40.3493 38.585 39.6773 38.585 38.696V32.552Z" fill="white"/>
<defs>
<radialGradient id="paint0_radial_128_15" cx="0" cy="0" r="1" gradientUnits="userSpaceOnUse" gradientTransform="translate(30 30) rotate(90) scale(30)">
<stop stop-color="#6FFBA9"/>
<stop offset="1" stop-color="#0DB152"/>
</radialGradient>
</defs>
</svg>
