<svg width="60" height="60" viewBox="0 0 60 60" fill="none" xmlns="http://www.w3.org/2000/svg">
<rect width="60" height="60" rx="7" fill="url(#paint0_radial_128_16)"/>
<path d="M23.9405 29.192V33.096H17.3485V29.192H23.9405ZM21.9565 33.096L22.1165 30.088C23.9938 30.088 25.5512 30.2907 26.7885 30.696C28.0258 31.1013 28.9538 31.688 29.5725 32.456C30.2125 33.224 30.5325 34.1733 30.5325 35.304C30.5325 37.3947 29.7432 38.952 28.1645 39.976C26.5858 41 24.3352 41.512 21.4125 41.512C20.9218 41.512 20.3352 41.4907 19.6525 41.448C18.9698 41.4053 18.2765 41.32 17.5725 41.192C16.8685 41.0853 16.2285 40.9253 15.6525 40.712C14.4792 40.264 13.8925 39.4853 13.8925 38.376V23.432C13.8925 22.984 14.0205 22.6427 14.2765 22.408C14.5325 22.152 14.8632 21.9493 15.2685 21.8C15.9938 21.544 16.9005 21.3627 17.9885 21.256C19.0978 21.128 20.2178 21.064 21.3485 21.064C24.0578 21.064 26.1485 21.5333 27.6205 22.472C29.1138 23.3893 29.8605 24.7973 29.8605 26.696C29.8605 27.7627 29.5298 28.6587 28.8685 29.384C28.2285 30.088 27.3112 30.6213 26.1165 30.984C24.9218 31.3253 23.5032 31.496 21.8605 31.496L21.6685 29.192C22.5858 29.192 23.2472 29.0213 23.6525 28.68C24.0792 28.3387 24.2925 27.8373 24.2925 27.176C24.2925 26.6 24.0472 26.1413 23.5565 25.8C23.0872 25.4587 22.3725 25.288 21.4125 25.288C21.0925 25.288 20.7192 25.2987 20.2925 25.32C19.8872 25.3413 19.5672 25.3733 19.3325 25.416V37C19.6312 37.0853 20.0152 37.1493 20.4845 37.192C20.9752 37.2133 21.4232 37.224 21.8285 37.224C22.6818 37.224 23.3858 37.0533 23.9405 36.712C24.5165 36.3493 24.8045 35.7947 24.8045 35.048C24.8045 34.344 24.5592 33.8427 24.0685 33.544C23.5992 33.2453 22.8952 33.096 21.9565 33.096ZM33.3888 24.36C33.3888 23.6133 33.6234 23.0053 34.0928 22.536C34.5834 22.0453 35.2554 21.6827 36.1088 21.448C36.9834 21.192 38.0074 21.064 39.1808 21.064C40.8661 21.064 42.2741 21.3307 43.4048 21.864C44.5354 22.376 45.3888 23.08 45.9648 23.976C46.5408 24.872 46.8288 25.8853 46.8288 27.016C46.8288 28.1467 46.5088 29.2453 45.8688 30.312C45.2501 31.3573 44.3008 32.392 43.0208 33.416L38.8288 36.776H46.5088C46.6368 36.9893 46.7541 37.288 46.8608 37.672C46.9888 38.0347 47.0528 38.4293 47.0528 38.856C47.0528 39.624 46.8821 40.1787 46.5408 40.52C46.1994 40.84 45.7514 41 45.1968 41H34.0928C33.6234 40.68 33.2501 40.264 32.9728 39.752C32.7168 39.24 32.5888 38.6533 32.5888 37.992C32.5888 37.2667 32.7381 36.6587 33.0368 36.168C33.3568 35.656 33.6874 35.2507 34.0288 34.952L38.4448 31.176C39.5541 30.2373 40.3114 29.48 40.7168 28.904C41.1221 28.328 41.3248 27.8053 41.3248 27.336C41.3248 26.7387 41.0794 26.2693 40.5888 25.928C40.1194 25.5867 39.4581 25.416 38.6048 25.416C37.7514 25.416 36.9834 25.5547 36.3008 25.832C35.6394 26.088 35.0848 26.3653 34.6368 26.664C34.2954 26.408 33.9968 26.088 33.7408 25.704C33.5061 25.32 33.3888 24.872 33.3888 24.36Z" fill="white"/>
<defs>
<radialGradient id="paint0_radial_128_16" cx="0" cy="0" r="1" gradientUnits="userSpaceOnUse" gradientTransform="translate(30 30) rotate(90) scale(30)">
<stop stop-color="#71E0FF"/>
<stop offset="1" stop-color="#009B8E"/>
</radialGradient>
</defs>
</svg>
