<svg width="28" height="26" viewBox="0 0 28 26" fill="none" xmlns="http://www.w3.org/2000/svg">
<path fill-rule="evenodd" clip-rule="evenodd" d="M26.61 1.31618C25.6459 0.302079 24.0825 0.302079 23.1183 1.31618L12.6133 12.3718L16.0825 16.0685L26.61 4.98984C27.5742 3.97486 27.5742 2.33027 26.61 1.31618ZM10.2174 22.2357C9.3974 23.0464 5.73321 24.8535 3.57569 23.1015C3.57569 23.1015 4.32653 22.4772 4.89487 21.2243C6.25238 17.3819 9.63574 17.9511 9.63574 17.9511L10.7991 19.1748C10.8107 19.1872 11.6683 20.8025 10.2174 22.2357ZM11.4274 13.6203L8.80323 16.3776C7.05072 16.3349 4.6232 16.9965 3.57569 20.6533C2.77485 22.5874 0.666504 22.4897 0.666504 22.4897C5.04404 27.6641 10.2032 24.7319 11.3808 23.4603C12.4166 22.3432 12.5658 20.9756 12.4549 19.8816L14.8966 17.3171L11.4274 13.6203Z" fill="#01CEB6"/>
</svg>
