<svg width="60" height="60" viewBox="0 0 60 60" fill="none" xmlns="http://www.w3.org/2000/svg">
<rect width="60" height="60" rx="7" fill="url(#paint0_radial_128_17)"/>
<path d="M31.7651 24.424C31.7651 24.9573 31.6265 25.4373 31.3491 25.864C31.0718 26.2693 30.7518 26.5893 30.3891 26.824C29.8558 26.4613 29.2691 26.152 28.6291 25.896C27.9891 25.64 27.2531 25.512 26.4211 25.512C25.3331 25.512 24.4051 25.7467 23.6371 26.216C22.8905 26.664 22.3145 27.3253 21.9091 28.2C21.5251 29.0533 21.3331 30.088 21.3331 31.304C21.3331 33.1813 21.8025 34.6107 22.7411 35.592C23.7011 36.5733 25.0238 37.064 26.7091 37.064C27.5838 37.064 28.3198 36.9467 28.9171 36.712C29.5358 36.4773 30.1225 36.2107 30.6771 35.912C31.0398 36.1893 31.3171 36.5413 31.5091 36.968C31.7225 37.3947 31.8291 37.8853 31.8291 38.44C31.8291 38.9307 31.7011 39.3787 31.4451 39.784C31.1891 40.1893 30.7518 40.5307 30.1331 40.808C29.7491 40.9787 29.2051 41.1493 28.5011 41.32C27.7971 41.4907 26.9438 41.576 25.9411 41.576C24.0211 41.576 22.2718 41.2133 20.6931 40.488C19.1358 39.7627 17.8878 38.6427 16.9491 37.128C16.0318 35.6133 15.5731 33.672 15.5731 31.304C15.5731 29.0853 16.0211 27.2187 16.9171 25.704C17.8131 24.168 19.0185 23.0053 20.5331 22.216C22.0691 21.4053 23.7545 21 25.5891 21C26.8905 21 27.9998 21.1493 28.9171 21.448C29.8345 21.7467 30.5385 22.152 31.0291 22.664C31.5198 23.176 31.7651 23.7627 31.7651 24.424ZM43.3844 36.808H37.9444V26.728L34.7444 27.72C34.4244 27.5067 34.1044 27.208 33.7844 26.824C33.4644 26.44 33.3044 25.9067 33.3044 25.224C33.3044 23.944 34.083 23.048 35.6404 22.536L39.2244 21.32H40.4084C41.3257 21.32 42.051 21.5867 42.5844 22.12C43.1177 22.6533 43.3844 23.3787 43.3844 24.296V36.808ZM37.9444 32.552H43.3844V40.968C43.1497 41.032 42.8084 41.096 42.3604 41.16C41.9337 41.224 41.4644 41.256 40.9524 41.256C39.907 41.256 39.139 41.0747 38.6484 40.712C38.179 40.3493 37.9444 39.6773 37.9444 38.696V32.552Z" fill="white"/>
<defs>
<radialGradient id="paint0_radial_128_17" cx="0" cy="0" r="1" gradientUnits="userSpaceOnUse" gradientTransform="translate(30 30) rotate(90) scale(30)">
<stop stop-color="#966FB0"/>
<stop offset="1" stop-color="#441389"/>
</radialGradient>
</defs>
</svg>
