<svg width="12" height="12" viewBox="0 0 12 12" fill="none" xmlns="http://www.w3.org/2000/svg">
<path d="M1.2 12C0.84 12 0.6 11.88 0.36 11.64C-0.12 11.16 -0.12 10.44 0.36 9.96L9.96 0.36C10.44 -0.12 11.16 -0.12 11.64 0.36C12.12 0.84 12.12 1.56 11.64 2.04L2.04 11.64C1.8 11.88 1.56 12 1.2 12Z" fill="white"/>
<path d="M10.8 12C10.44 12 10.2 11.88 9.96 11.64L0.36 2.04C-0.12 1.56 -0.12 0.84 0.36 0.36C0.84 -0.12 1.56 -0.12 2.04 0.36L11.64 9.96C12.12 10.44 12.12 11.16 11.64 11.64C11.4 11.88 11.16 12 10.8 12Z" fill="white"/>
</svg>
