<svg width="26" height="18" viewBox="0 0 26 18" fill="none" xmlns="http://www.w3.org/2000/svg">
<path d="M1.85794 4.44865H24.1421C25.3771 4.44865 26 3.79361 26 2.69851V1.75013C26 0.655074 25.3771 0 24.1421 0H1.85794C0.688498 0 0 0.655074 0 1.75013V2.69851C0 3.79361 0.622936 4.44865 1.85794 4.44865ZM7.26777 18H18.7323C20.8854 18 21.7487 16.9832 22.0656 15.0864L23.6286 5.7784H2.38249L3.93444 15.0864C4.2623 16.993 5.11475 18 7.26777 18ZM9.85795 14.9788C9.36614 14.9788 8.98363 14.6171 8.98363 14.1869C8.98363 13.9718 9.08197 13.7958 9.24593 13.6491L11.7596 11.3808L9.24593 9.10266C9.08197 8.96579 8.98363 8.78003 8.98363 8.56494C8.98363 8.14448 9.37705 7.80228 9.85795 7.80228C10.0875 7.80228 10.2842 7.89026 10.4481 8.02717L12.9945 10.2955L15.5519 8.01737C15.7378 7.87073 15.9235 7.78271 16.1421 7.78271C16.6339 7.78271 17.0274 8.12491 17.0274 8.56494C17.0274 8.77023 16.929 8.93647 16.7541 9.0929L14.2296 11.3808L16.7432 13.6393C16.9072 13.7958 17.0165 13.962 17.0165 14.1869C17.0165 14.6171 16.623 14.9788 16.1421 14.9788C15.8908 14.9788 15.694 14.8713 15.5301 14.7344L12.9945 12.4758L10.459 14.7344C10.306 14.8811 10.0875 14.9788 9.85795 14.9788Z" fill="#01CEB6"/>
</svg>
