<svg width="17" height="17" viewBox="0 0 17 17" fill="none" xmlns="http://www.w3.org/2000/svg">
<path fill-rule="evenodd" clip-rule="evenodd" d="M1.22536 12.9351L0.0428057 16.0885C-0.00260385 16.2098 -0.0121224 16.3417 0.0153873 16.4683C0.0428969 16.595 0.106272 16.711 0.197943 16.8026C0.289615 16.8941 0.405708 16.9574 0.532358 16.9848C0.659009 17.0121 0.790863 17.0025 0.912174 16.9569L4.06476 15.7744C4.4256 15.6393 4.75333 15.4285 5.02593 15.1561L14.1579 6.0243C14.1579 6.0243 13.8393 5.06945 12.8853 4.1146C11.9314 3.16064 10.9756 2.84206 10.9756 2.84206L1.84364 11.9739C1.57132 12.2465 1.36051 12.5742 1.22536 12.9351ZM12.2491 1.56863L13.4937 0.323988C13.7169 0.100799 14.0148 -0.0413935 14.3262 0.0108039C14.7645 0.0828003 15.435 0.300589 16.0667 0.933257C16.6994 1.56593 16.9172 2.23549 16.9892 2.67377C17.0414 2.98515 16.8992 3.28304 16.676 3.50623L15.4305 4.75086C15.4305 4.75086 15.1128 3.79691 14.1579 2.84296C13.2039 1.88721 12.2491 1.56863 12.2491 1.56863Z" fill="#01CEB6"/>
</svg>
