<svg width="22" height="21" viewBox="0 0 22 21" fill="none" xmlns="http://www.w3.org/2000/svg">
<path d="M21.9558 19.7337L18.1413 9.25254C17.8734 8.56299 17.2738 8.13672 16.5849 8.13672C15.896 8.13672 15.3091 8.56298 15.0157 9.27761L11.2139 19.7337C11.0353 20.2227 11.2905 20.7618 11.788 20.9373C12.2856 21.1128 12.8341 20.8621 13.0127 20.3731L13.8037 18.2042H19.3533L20.1442 20.3731C20.2846 20.7618 20.6545 21 21.05 21C21.1521 21 21.2669 20.9875 21.369 20.9499C21.8665 20.7743 22.1217 20.2352 21.943 19.7463L21.9558 19.7337ZM14.5054 16.311L16.5976 10.5564L18.6899 16.311H14.5054ZM11.2522 5.29075C8.36896 9.76657 5.76643 12.4746 2.60255 14.28C2.44946 14.3678 2.28361 14.4054 2.13052 14.4054C1.79882 14.4054 1.47988 14.2424 1.30127 13.9415C1.03336 13.4901 1.18646 12.9134 1.64573 12.6627C4.32481 11.1331 6.51913 8.93911 8.98134 5.30328H0.956819C0.433758 5.30328 0 4.87702 0 4.36299C0 3.84896 0.433758 3.42269 0.956819 3.42269H5.74091V0.940299C5.74091 0.426269 6.17467 0 6.69773 0C7.22078 0 7.65455 0.426269 7.65455 0.940299V3.42269H12.4386C12.9617 3.42269 13.3955 3.84896 13.3955 4.36299C13.3955 4.87702 12.9617 5.30328 12.4386 5.30328H11.2394L11.2522 5.29075ZM11.3032 14.4054C11.1374 14.4054 10.9715 14.3678 10.8184 14.28C9.98919 13.8036 9.18546 13.277 8.43275 12.7254C8.01175 12.4119 7.92246 11.8227 8.2414 11.409C8.56034 10.9952 9.15995 10.9075 9.58095 11.2209C10.2699 11.7349 11.0226 12.2113 11.788 12.6501C12.2473 12.9134 12.4004 13.4901 12.1325 13.9415C11.9539 14.2424 11.6349 14.4054 11.3032 14.4054Z" fill="#01CEB6"/>
</svg>
