<svg width="17" height="21" viewBox="0 0 17 21" fill="none" xmlns="http://www.w3.org/2000/svg">
<path fill-rule="evenodd" clip-rule="evenodd" d="M2.38458 0.118366C1.53442 0.231574 1.08421 0.438648 0.763539 0.756244C0.44288 1.07385 0.233814 1.51975 0.119511 2.3618C0.00184808 3.2286 0 4.37743 0 6.02465V15.12C0.408104 14.8375 0.868077 14.6226 1.36394 14.4911C1.91852 14.3438 2.5652 14.3441 3.51291 14.3444H16.8V6.02465C16.8 4.37743 16.7981 3.2286 16.6805 2.36179C16.5662 1.51975 16.3571 1.07385 16.0364 0.756244C15.7158 0.438648 15.2656 0.231574 14.4155 0.118366C13.5403 0.0018258 12.3803 0 10.7172 0H6.08276C4.41966 0 3.25975 0.0018258 2.38458 0.118366ZM2.89655 4.87709C2.89655 4.40176 3.2856 4.01642 3.76552 4.01642H13.0345C13.5144 4.01642 13.9035 4.40176 13.9035 4.87709C13.9035 5.35242 13.5144 5.73776 13.0345 5.73776H3.76552C3.2856 5.73776 2.89655 5.35242 2.89655 4.87709ZM3.76552 8.03286C3.2856 8.03286 2.89655 8.41819 2.89655 8.89354C2.89655 9.36888 3.2856 9.7542 3.76552 9.7542H9.55857C10.0385 9.7542 10.4276 9.36888 10.4276 8.89354C10.4276 8.41819 10.0385 8.03286 9.55857 8.03286H3.76552Z" fill="#01CEB6"/>
<path d="M4.90246 15.96H3.62297C2.48738 15.96 2.09038 15.9672 1.78615 16.0459C0.951145 16.2618 0.285471 16.8606 0 17.639C0.0176526 18.0352 0.0453097 18.3837 0.0886837 18.6949C0.203204 19.5168 0.412668 19.952 0.733938 20.262C1.05522 20.5719 1.50629 20.7739 2.35807 20.8845C3.2349 20.9982 4.39702 21 6.06329 21H10.7066C12.3729 21 13.535 20.9982 14.4119 20.8845C15.2637 20.7739 15.7147 20.5719 16.0359 20.262C16.3572 19.952 16.5667 19.5168 16.6812 18.6949C16.7774 18.0047 16.7963 17.1313 16.8 15.96H9.54572V19.0748C9.54572 19.3835 9.54572 19.5378 9.43568 19.6002C9.32554 19.6625 9.175 19.5935 8.87381 19.4555L7.43173 18.7947C7.3299 18.748 7.27887 18.7246 7.22417 18.7246C7.16936 18.7246 7.11834 18.748 7.0165 18.7947L5.57444 19.4555C5.27327 19.5935 5.12268 19.6625 5.01257 19.6002C4.90246 19.5378 4.90246 19.3835 4.90246 19.0748V15.96Z" fill="#01CEB6"/>
</svg>
