<svg width="19" height="23" viewBox="0 0 19 23" fill="none" xmlns="http://www.w3.org/2000/svg">
<path d="M13 3.5H18H13ZM15.5 1V6V1Z" fill="#01CEB6"/>
<path d="M13 3.5H18M15.5 1V6" stroke="#01CEB6" stroke-width="1.5" stroke-linecap="round" stroke-linejoin="round"/>
<path fill-rule="evenodd" clip-rule="evenodd" d="M0.763539 2.75624C1.08421 2.43865 1.53442 2.23157 2.38458 2.11837C3.25975 2.00183 4.41966 2 6.08276 2H10.7172C12.3803 2 13.5403 2.00183 14.4155 2.11837C15.2656 2.23157 15.7158 2.43865 16.0364 2.75624C16.3571 3.07385 16.5662 3.51975 16.6805 4.36179C16.7981 5.2286 16.8 6.37743 16.8 8.02465V16.3444H3.51291C2.5652 16.3441 1.91852 16.3438 1.36394 16.4911C0.868077 16.6226 0.408104 16.8375 0 17.12V8.02465C0 6.37743 0.00184808 5.2286 0.119511 4.3618C0.233814 3.51975 0.44288 3.07385 0.763539 2.75624ZM3.76552 6.01642C3.2856 6.01642 2.89655 6.40176 2.89655 6.87709C2.89655 7.35242 3.2856 7.73776 3.76552 7.73776H13.0345C13.5144 7.73776 13.9035 7.35242 13.9035 6.87709C13.9035 6.40176 13.5144 6.01642 13.0345 6.01642H3.76552ZM2.89655 10.8935C2.89655 10.4182 3.2856 10.0329 3.76552 10.0329H9.55857C10.0385 10.0329 10.4276 10.4182 10.4276 10.8935C10.4276 11.3689 10.0385 11.7542 9.55857 11.7542H3.76552C3.2856 11.7542 2.89655 11.3689 2.89655 10.8935ZM3.62297 17.96H4.90246V21.0748C4.90246 21.3835 4.90246 21.5378 5.01257 21.6002C5.12268 21.6625 5.27325 21.5935 5.57441 21.4556L5.57444 21.4555L7.0165 20.7947C7.11834 20.748 7.16936 20.7246 7.22417 20.7246C7.27887 20.7246 7.3299 20.748 7.43173 20.7947L8.87381 21.4555L8.87402 21.4556C9.17507 21.5936 9.32557 21.6625 9.43568 21.6002C9.54572 21.5378 9.54572 21.3835 9.54572 21.0748V17.96H16.8C16.7963 19.1313 16.7774 20.0047 16.6812 20.6949C16.5667 21.5168 16.3572 21.952 16.0359 22.2619C15.7147 22.5719 15.2637 22.7739 14.4119 22.8845C13.535 22.9982 12.3729 23 10.7066 23H6.06329C4.39702 23 3.2349 22.9982 2.35807 22.8845C1.50629 22.7739 1.05522 22.5719 0.733938 22.2619C0.412668 21.952 0.203204 21.5168 0.0886837 20.6949C0.0453097 20.3837 0.0176526 20.0352 0 19.639C0.285471 18.8606 0.951145 18.2618 1.78615 18.0459C2.09038 17.9672 2.48738 17.96 3.62297 17.96Z" fill="#01CEB6"/>
<mask id="mask0_8_238" style="mask-type:alpha" maskUnits="userSpaceOnUse" x="0" y="2" width="17" height="21">
<path fill-rule="evenodd" clip-rule="evenodd" d="M0.763539 2.75624C1.08421 2.43865 1.53442 2.23157 2.38458 2.11837C3.25975 2.00183 4.41966 2 6.08276 2H10.7172C12.3803 2 13.5403 2.00183 14.4155 2.11837C15.2656 2.23157 15.7158 2.43865 16.0364 2.75624C16.3571 3.07385 16.5662 3.51975 16.6805 4.36179C16.7981 5.2286 16.8 6.37743 16.8 8.02465V16.3444H3.51291C2.5652 16.3441 1.91852 16.3438 1.36394 16.4911C0.868077 16.6226 0.408104 16.8375 0 17.12V8.02465C0 6.37743 0.00184808 5.2286 0.119511 4.3618C0.233814 3.51975 0.44288 3.07385 0.763539 2.75624ZM3.76552 6.01642C3.2856 6.01642 2.89655 6.40176 2.89655 6.87709C2.89655 7.35242 3.2856 7.73776 3.76552 7.73776H13.0345C13.5144 7.73776 13.9035 7.35242 13.9035 6.87709C13.9035 6.40176 13.5144 6.01642 13.0345 6.01642H3.76552ZM2.89655 10.8935C2.89655 10.4182 3.2856 10.0329 3.76552 10.0329H9.55857C10.0385 10.0329 10.4276 10.4182 10.4276 10.8935C10.4276 11.3689 10.0385 11.7542 9.55857 11.7542H3.76552C3.2856 11.7542 2.89655 11.3689 2.89655 10.8935ZM3.62297 17.96H4.90246V21.0748C4.90246 21.3835 4.90246 21.5378 5.01257 21.6002C5.12268 21.6625 5.27325 21.5935 5.57441 21.4556L5.57444 21.4555L7.0165 20.7947C7.11834 20.748 7.16936 20.7246 7.22417 20.7246C7.27887 20.7246 7.3299 20.748 7.43173 20.7947L8.87381 21.4555L8.87402 21.4556C9.17507 21.5936 9.32557 21.6625 9.43568 21.6002C9.54572 21.5378 9.54572 21.3835 9.54572 21.0748V17.96H16.8C16.7963 19.1313 16.7774 20.0047 16.6812 20.6949C16.5667 21.5168 16.3572 21.952 16.0359 22.2619C15.7147 22.5719 15.2637 22.7739 14.4119 22.8845C13.535 22.9982 12.3729 23 10.7066 23H6.06329C4.39702 23 3.2349 22.9982 2.35807 22.8845C1.50629 22.7739 1.05522 22.5719 0.733938 22.2619C0.412668 21.952 0.203204 21.5168 0.0886837 20.6949C0.0453097 20.3837 0.0176526 20.0352 0 19.639C0.285471 18.8606 0.951145 18.2618 1.78615 18.0459C2.09038 17.9672 2.48738 17.96 3.62297 17.96Z" fill="#01CEB6"/>
</mask>
<g mask="url(#mask0_8_238)">
<path d="M13 3.5H18H13ZM15.5 1V6V1Z" fill="#01CEB6"/>
<path d="M13 3.5H18M15.5 1V6" stroke="white" stroke-width="1.5" stroke-linecap="round" stroke-linejoin="round"/>
</g>
</svg>
