<svg width="19" height="19" viewBox="0 0 19 19" fill="none" xmlns="http://www.w3.org/2000/svg">
<path d="M0 3.8C0 2.00866 -5.66244e-08 1.11299 0.5565 0.5565C1.11299 -5.66244e-08 2.00866 0 3.8 0C5.59134 0 6.48701 -5.66244e-08 7.0435 0.5565C7.6 1.11299 7.6 2.00866 7.6 3.8V15.2C7.6 16.9913 7.6 17.887 7.0435 18.4435C6.48701 19 5.59134 19 3.8 19C2.00866 19 1.11299 19 0.5565 18.4435C-5.66244e-08 17.887 0 16.9913 0 15.2V3.8Z" fill="#01CEB6"/>
<path d="M11.3999 3.8C11.3999 2.00866 11.3999 1.11299 11.9564 0.5565C12.5129 -5.66244e-08 13.4086 0 15.1999 0C16.9912 0 17.8869 -5.66244e-08 18.4434 0.5565C18.9999 1.11299 18.9999 2.00866 18.9999 3.8V15.2C18.9999 16.9913 18.9999 17.887 18.4434 18.4435C17.8869 19 16.9912 19 15.1999 19C13.4086 19 12.5129 19 11.9564 18.4435C11.3999 17.887 11.3999 16.9913 11.3999 15.2V3.8Z" fill="#01CEB6"/>
</svg>
