<svg width="20" height="20" viewBox="0 0 20 20" fill="none" xmlns="http://www.w3.org/2000/svg">
<path d="M0 3.91489C0 2.06939 -5.83364e-08 1.14664 0.573326 0.573326C1.14664 -5.83364e-08 2.06939 0 3.91489 0C5.76039 0 6.68314 -5.83364e-08 7.25646 0.573326C7.82978 1.14664 7.82978 2.06939 7.82978 3.91489V15.6596C7.82978 17.505 7.82978 18.4278 7.25646 19.0011C6.68314 19.5745 5.76039 19.5745 3.91489 19.5745C2.06939 19.5745 1.14664 19.5745 0.573326 19.0011C-5.83364e-08 18.4278 0 17.505 0 15.6596V3.91489Z" fill="#01CEB6"/>
<path d="M11.7446 3.91489C11.7446 2.06939 11.7446 1.14664 12.318 0.573326C12.8913 -5.83364e-08 13.814 0 15.6595 0C17.505 0 18.4277 -5.83364e-08 19.0011 0.573326C19.5744 1.14664 19.5744 2.06939 19.5744 3.91489V15.6596C19.5744 17.505 19.5744 18.4278 19.0011 19.0011C18.4277 19.5745 17.505 19.5745 15.6595 19.5745C13.814 19.5745 12.8913 19.5745 12.318 19.0011C11.7446 18.4278 11.7446 17.505 11.7446 15.6596V3.91489Z" fill="#01CEB6"/>
</svg>
