<svg width="22" height="24" viewBox="0 0 22 24" fill="none" xmlns="http://www.w3.org/2000/svg">
<path d="M20.8994 3.93272L16.4377 0.571355C15.8415 0.125504 15.0897 -0.0714899 14.346 0.0232703C13.6023 0.118031 12.9269 0.49687 12.4669 1.07729L0.584313 16.182C0.12853 16.7648 -0.0730352 17.5009 0.0237324 18.2291C0.1205 18.9573 0.507719 19.6182 1.10064 20.0673L5.56087 23.4286C6.15705 23.8745 6.90885 24.0715 7.65256 23.9767C8.39627 23.882 9.07166 23.5031 9.53165 22.9227L21.4157 7.81804C21.8715 7.23516 22.073 6.49908 21.9763 5.77091C21.8795 5.04275 21.4923 4.3818 20.8994 3.93272ZM8.946 20.9641L8.18636 21.9081C8.07963 22.043 7.94252 22.1521 7.78573 22.2266C7.62894 22.3011 7.4567 22.3392 7.28244 22.3378C7.03438 22.3384 6.79311 22.2585 6.59636 22.1104L2.13613 18.7491C2.01863 18.6605 1.92025 18.5499 1.84667 18.4238C1.7731 18.2977 1.72579 18.1586 1.7075 18.0144C1.68734 17.8707 1.69659 17.7245 1.73472 17.5843C1.77285 17.4441 1.8391 17.3128 1.9296 17.198L2.68924 16.254C2.79604 16.1187 2.93333 16.0094 3.09037 15.9346C3.24742 15.8598 3.41998 15.8216 3.59458 15.8229C3.76999 15.8229 4.03169 15.8631 4.28066 16.0503L8.7423 19.4116C8.97829 19.5918 9.1321 19.856 9.17025 20.1468C9.2084 20.4375 9.1278 20.7313 8.946 20.9641Z" fill="white"/>
</svg>
