<svg width="20" height="20" viewBox="0 0 20 20" fill="none" xmlns="http://www.w3.org/2000/svg">
<path fill-rule="evenodd" clip-rule="evenodd" d="M4.38945 0C3.90727 0 3.44482 0.191555 3.10382 0.532536L0.532545 3.10383C0.191545 3.44481 -5.96046e-07 3.90726 -5.96046e-07 4.38948V17.2727C-5.96046e-07 18.779 1.221 20 2.72727 20H17.2727C18.779 20 20 18.779 20 17.2727V2.72727C20 1.22105 18.779 0 17.2727 0H4.38945ZM17.2727 1.81818C17.7748 1.81818 18.1818 2.2252 18.1818 2.72727V17.2727C18.1818 17.7748 17.7748 18.1818 17.2727 18.1818H16.3636V12.7273C16.3636 11.221 15.1426 10 13.6364 10H6.36364C4.85736 10 3.63636 11.221 3.63636 12.7273V18.1818H2.72727C2.22518 18.1818 1.81818 17.7748 1.81818 17.2727V5.29857C1.81818 4.81635 2.00973 4.3539 2.35073 4.01292L4.01291 2.35072C4.35391 2.00974 4.81636 1.81818 5.29854 1.81818H5.45455V3.63636C5.45455 5.14259 6.67555 6.36364 8.18182 6.36364H11.8182C13.3244 6.36364 14.5455 5.14259 14.5455 3.63636V1.81818H17.2727ZM5.45455 18.1818V12.7273C5.45455 12.2252 5.86155 11.8182 6.36364 11.8182H13.6364C14.1384 11.8182 14.5455 12.2252 14.5455 12.7273V18.1818H5.45455ZM12.7273 1.81818H7.27273V3.63636C7.27273 4.13844 7.67973 4.54545 8.18182 4.54545H11.8182C12.3203 4.54545 12.7273 4.13844 12.7273 3.63636V1.81818Z" fill="#01CEB6"/>
</svg>
