<svg width="23" height="19" viewBox="0 0 23 19" fill="none" xmlns="http://www.w3.org/2000/svg">
<path d="M18.4067 17.7797C18.1116 17.7784 17.8287 17.6612 17.6192 17.4534C17.4096 17.2426 17.292 16.9574 17.292 16.6602C17.292 16.3629 17.4096 16.0778 17.6192 15.867C18.456 15.031 19.1199 14.0383 19.5729 12.9457C20.0259 11.853 20.259 10.6817 20.259 9.49886C20.259 8.316 20.0259 7.14475 19.5729 6.05206C19.1199 4.95938 18.456 3.96668 17.6192 3.13075C17.4348 2.91551 17.3385 2.63865 17.3495 2.35549C17.3604 2.07232 17.4778 1.80372 17.6782 1.60334C17.8785 1.40297 18.1471 1.28558 18.4303 1.27464C18.7135 1.26371 18.9903 1.36002 19.2056 1.54434C21.3148 3.65423 22.4997 6.51547 22.4997 9.49886C22.4997 12.4822 21.3148 15.3435 19.2056 17.4534C19.1004 17.5576 18.9758 17.6401 18.8387 17.6961C18.7016 17.7521 18.5548 17.7805 18.4067 17.7797Z" fill="#01CEB6"/>
<path d="M15.2339 14.6069C15.085 14.6063 14.9378 14.5761 14.8007 14.5182C14.6635 14.4602 14.5393 14.3757 14.4351 14.2693C14.2255 14.0585 14.1079 13.7734 14.1079 13.4761C14.1079 13.1789 14.2255 12.8937 14.4351 12.6829C14.8535 12.265 15.1855 11.7686 15.4119 11.2223C15.6384 10.6759 15.755 10.0903 15.755 9.49888C15.755 8.90746 15.6384 8.32183 15.4119 7.77549C15.1855 7.22914 14.8535 6.7328 14.4351 6.31483C14.2508 6.09959 14.1544 5.82273 14.1654 5.53957C14.1763 5.25641 14.2937 4.9878 14.4941 4.78742C14.6945 4.58705 14.9631 4.46966 15.2462 4.45872C15.5294 4.44779 15.8063 4.5441 16.0215 4.72843C17.2857 5.99418 17.9957 7.70996 17.9957 9.49888C17.9957 11.2878 17.2857 13.0036 16.0215 14.2693C15.8138 14.4813 15.5307 14.6026 15.2339 14.6069Z" fill="#01CEB6"/>
<path d="M10.5535 0.587968C10.3486 0.501808 10.1228 0.478268 9.90453 0.520318C9.68628 0.562368 9.48536 0.668123 9.32714 0.824241L5.16425 4.99839H2.25022C1.65342 4.99839 1.08107 5.23547 0.659073 5.65746C0.237076 6.07946 0 6.65181 0 7.24861V11.749C0 12.3458 0.237076 12.9182 0.659073 13.3402C1.08107 13.7622 1.65342 13.9993 2.25022 13.9993H5.16425L9.32714 18.1734C9.43227 18.2777 9.55695 18.3602 9.69403 18.4162C9.83111 18.4722 9.9779 18.5005 10.126 18.4997C10.2736 18.5035 10.42 18.4727 10.5535 18.4097C10.759 18.3253 10.9349 18.1819 11.059 17.9977C11.1831 17.8135 11.25 17.5967 11.2511 17.3746V1.62307C11.25 1.40094 11.1831 1.18412 11.059 0.999913C10.9349 0.81571 10.759 0.672374 10.5535 0.587968Z" fill="#01CEB6"/>
</svg>
