<svg width="25" height="21" viewBox="0 0 25 21" fill="none" xmlns="http://www.w3.org/2000/svg">
<path d="M17.2759 1.23496L13.4882 5.01724C13.0714 5.43339 12.7448 5.9296 12.5273 6.4748L12.4278 6.75133L11.5152 9.58539C11.3427 10.1212 11.337 10.6968 11.4988 11.2359C11.9208 12.6418 13.3566 13.4659 14.7669 13.1488L14.959 13.0984L17.8335 12.2356C18.4195 12.0597 18.9604 11.7617 19.4211 11.3625L19.6446 11.1546L24.6993 6.10812V16.9864C24.6993 19.203 22.9024 21 20.6857 21H4.01374C1.79708 21 0 19.203 0 16.9864L0.000477431 11.8003L0.0938939 11.7613L0.184276 11.7112L4.82705 8.79296L4.94827 8.72863C5.36162 8.54696 5.85665 8.69053 6.10412 9.08425C6.25507 9.32441 6.28636 9.61797 6.19485 9.8812L6.13884 10.0099L4.64734 12.8323L4.56079 13.011C3.97702 14.3335 4.50798 15.9014 5.80579 16.5873C6.57152 16.9919 7.47764 17.0145 8.25754 16.6585L8.46692 16.552L10.6465 15.3216L10.7515 15.2521C11.1142 14.9753 11.2255 14.4662 10.9936 14.0586C10.7618 13.651 10.2673 13.4864 9.84405 13.6566L9.73062 13.7114L7.55834 14.9377L7.4374 14.9947C7.18955 15.0903 6.90997 15.0756 6.6713 14.9494C6.25673 14.7304 6.07691 14.2412 6.23391 13.8129L6.28515 13.6978L7.77666 10.8754L7.87477 10.6698C8.23153 9.83605 8.16018 8.87437 7.67248 8.09846C6.89295 6.85824 5.29461 6.44539 4.02089 7.1207L3.84126 7.2246L0 9.63887V5.24858C0 3.10836 1.67529 1.35939 3.78599 1.24131L4.01374 1.23496H17.2759ZM23.6811 0.672882L23.8419 0.821859L23.9907 0.982701C24.9332 2.08384 24.8831 3.74259 23.8406 4.78437L18.5539 10.0622C18.2292 10.3864 17.8292 10.6251 17.3896 10.757L14.5152 11.6199C13.8619 11.8159 13.1734 11.4453 12.9773 10.7921C12.9054 10.5525 12.9079 10.2967 12.9846 10.0585L13.8972 7.22447C14.0326 6.80397 14.2663 6.42181 14.5789 6.1097L19.8777 0.8196C20.921 -0.222001 22.5802 -0.270684 23.6811 0.672882Z" fill="#01CEB6"/>
</svg>
