<svg width="66" height="48" viewBox="0 0 66 48" fill="none" xmlns="http://www.w3.org/2000/svg">
<g clip-path="url(#clip0_55_680)">
<path d="M20.1645 30.1503C20.6761 30.1503 21.0909 29.6979 21.0909 29.1397C21.0909 28.5816 20.6761 28.1292 20.1645 28.1292C19.6529 28.1292 19.2381 28.5816 19.2381 29.1397C19.2381 29.6979 19.6529 30.1503 20.1645 30.1503Z" fill="#61ACD2"/>
<path d="M22.5917 25.4411C23.1033 25.4411 23.5181 24.9887 23.5181 24.4306C23.5181 23.8724 23.1033 23.42 22.5917 23.42C22.0801 23.42 21.6653 23.8724 21.6653 24.4306C21.6653 24.9887 22.0801 25.4411 22.5917 25.4411Z" fill="#61ACD2"/>
<path d="M22.1483 42.3681C21.9356 42.3681 21.7632 42.18 21.7632 41.948C21.7632 40.9264 21.4403 40.4409 21.0664 39.8789C20.6709 39.2844 20.2227 38.6105 20.2227 37.3162C20.2227 36.0219 20.671 35.348 21.0664 34.7535C21.4403 34.1914 21.7632 33.7059 21.7632 32.6843C21.7632 32.4523 21.9356 32.2642 22.1483 32.2642C22.361 32.2642 22.5334 32.4523 22.5334 32.6843C22.5334 33.9786 22.0852 34.6525 21.6898 35.247C21.3159 35.8091 20.993 36.2946 20.993 37.3162C20.993 38.3378 21.3159 38.8233 21.6898 39.3854C22.0853 39.9798 22.5334 40.6536 22.5334 41.948C22.5334 42.1801 22.361 42.3681 22.1483 42.3681Z" fill="#6ABE71"/>
<path d="M17.4442 42.3681C17.2315 42.3681 17.0591 42.18 17.0591 41.948C17.0591 40.9264 16.7362 40.441 16.3623 39.8789C15.9668 39.2844 15.5186 38.6105 15.5186 37.3162C15.5186 36.0219 15.9669 35.348 16.3623 34.7535C16.7362 34.1914 17.0591 33.7059 17.0591 32.6843C17.0591 31.6627 16.7362 31.1771 16.3623 30.615C15.9668 30.0205 15.5186 29.3466 15.5186 28.0522C15.5186 27.8202 15.6911 27.6321 15.9038 27.6321C16.1165 27.6321 16.2889 27.8202 16.2889 28.0522C16.2889 29.0739 16.6118 29.5594 16.9857 30.1215C17.3812 30.716 17.8294 31.3899 17.8294 32.6843C17.8294 33.9786 17.3811 34.6525 16.9857 35.247C16.6118 35.8091 16.2889 36.2946 16.2889 37.3162C16.2889 38.3378 16.6118 38.8233 16.9857 39.3854C17.3812 39.9798 17.8294 40.6537 17.8294 41.948C17.8293 42.1801 17.6569 42.3681 17.4442 42.3681Z" fill="#6ABE71"/>
<path d="M12.3869 42.3681C12.1742 42.3681 12.0017 42.18 12.0017 41.948C12.0017 40.9264 11.6788 40.441 11.3049 39.8789C10.9094 39.2844 10.4613 38.6105 10.4613 37.3162C10.4613 36.0219 10.9095 35.348 11.3049 34.7535C11.6788 34.1914 12.0017 33.7059 12.0017 32.6843C12.0017 31.6627 11.6788 31.1771 11.3049 30.615C10.9095 30.0205 10.4613 29.3466 10.4613 28.0522C10.4613 26.7578 10.9095 26.0839 11.3049 25.4894C11.6788 24.9273 12.0017 24.4417 12.0017 23.4201C12.0017 23.188 12.1742 22.9999 12.3869 22.9999C12.5995 22.9999 12.772 23.188 12.772 23.4201C12.772 24.7144 12.3237 25.3884 11.9283 25.9829C11.5544 26.545 11.2315 27.0305 11.2315 28.0522C11.2315 29.0738 11.5544 29.5593 11.9283 30.1215C12.3238 30.716 12.772 31.3899 12.772 32.6843C12.772 33.9786 12.3237 34.6525 11.9283 35.247C11.5544 35.8091 11.2315 36.2946 11.2315 37.3162C11.2315 38.3378 11.5544 38.8233 11.9283 39.3853C12.3238 39.9798 12.772 40.6536 12.772 41.9479C12.772 42.1801 12.5996 42.3681 12.3869 42.3681Z" fill="#6ABE71"/>
<path d="M22.7064 47H16.8665C15.7642 47 14.5613 46.4056 13.5664 45.3693C12.5867 44.3487 12.0017 43.0697 12.0017 41.9481C12.0017 41.7161 12.1742 41.528 12.3869 41.528C12.5995 41.528 12.772 41.7161 12.772 41.9481C12.772 43.8768 14.9914 46.1598 16.8665 46.1598H22.7064C22.9191 46.1598 23.0916 46.3479 23.0916 46.58C23.0916 46.812 22.9191 47 22.7064 47Z" fill="#6ABE71"/>
<path d="M27.1861 42.3681C26.9734 42.3681 26.8009 42.18 26.8009 41.948C26.8009 40.9264 26.478 40.441 26.1041 39.8789C25.7086 39.2844 25.2605 38.6105 25.2605 37.3162C25.2605 36.0219 25.7087 35.348 26.1041 34.7535C26.478 34.1914 26.8009 33.7059 26.8009 32.6843C26.8009 31.6627 26.478 31.1771 26.1041 30.615C25.7086 30.0205 25.2605 29.3466 25.2605 28.0522C25.2605 26.7578 25.7087 26.0839 26.1041 25.4894C26.478 24.9273 26.8009 24.4417 26.8009 23.4201C26.8009 23.188 26.9734 22.9999 27.1861 22.9999C27.3988 22.9999 27.5712 23.188 27.5712 23.4201C27.5712 24.7144 27.1229 25.3884 26.7275 25.9829C26.3536 26.545 26.0307 27.0305 26.0307 28.0522C26.0307 29.0738 26.3536 29.5593 26.7275 30.1215C27.123 30.716 27.5712 31.3899 27.5712 32.6843C27.5712 33.9786 27.1229 34.6525 26.7275 35.247C26.3536 35.8091 26.0307 36.2946 26.0307 37.3162C26.0307 38.3378 26.3536 38.8233 26.7275 39.3853C27.123 39.9798 27.5712 40.6536 27.5712 41.9479C27.5712 42.1801 27.3988 42.3681 27.1861 42.3681Z" fill="#6ABE71"/>
<path d="M22.7064 47C22.4937 47 22.3213 46.8119 22.3213 46.5798C22.3213 46.3478 22.4937 46.1597 22.7064 46.1597C24.5815 46.1597 26.8009 43.8767 26.8009 41.948C26.8009 41.7159 26.9734 41.5278 27.1861 41.5278C27.3988 41.5278 27.5712 41.7159 27.5712 41.948C27.5712 43.0696 26.9863 44.3486 26.0065 45.3692C25.0116 46.4056 23.8088 47 22.7064 47Z" fill="#6ABE71"/>
<path d="M19.7963 47C19.5836 47 19.4111 46.8118 19.4111 46.5798C19.4111 46.3478 19.5836 46.1597 19.7963 46.1597C21.0186 46.1597 21.7483 44.6052 21.7483 42.0014C21.7483 41.7694 21.9207 41.5813 22.1334 41.5813C22.3461 41.5813 22.5185 41.7694 22.5185 42.0014C22.5185 43.7694 22.2186 45.0996 21.6269 45.9553C20.9984 46.8643 20.2101 47 19.7963 47Z" fill="#6ABE71"/>
<path d="M19.7962 47C19.3823 47 18.5942 46.8643 17.9656 45.9553C17.374 45.0996 17.074 43.7694 17.074 42.0014C17.074 41.7694 17.2464 41.5813 17.4591 41.5813C17.6718 41.5813 17.8443 41.7694 17.8443 42.0014C17.8443 44.6052 18.574 46.1597 19.7963 46.1597C20.009 46.1597 20.1814 46.3478 20.1814 46.5798C20.1814 46.8118 20.0089 47 19.7962 47Z" fill="#6ABE71"/>
<path d="M13.9697 42.4311H10.804C10.5913 42.4311 10.4189 42.243 10.4189 42.011C10.4189 41.7789 10.5913 41.5908 10.804 41.5908H13.9697C14.1824 41.5908 14.3549 41.7789 14.3549 42.011C14.3549 42.243 14.1825 42.4311 13.9697 42.4311Z" fill="#3B804B"/>
<path d="M12.4617 37.7362H9.23109C9.0184 37.7362 8.84596 37.548 8.84596 37.316C8.84596 37.084 9.0184 36.8959 9.23109 36.8959H12.4617C12.6744 36.8959 12.8469 37.084 12.8469 37.316C12.8469 37.548 12.6744 37.7362 12.4617 37.7362Z" fill="#3B804B"/>
<path d="M14.0671 33.1039H10.7067C10.494 33.1039 10.3216 32.9158 10.3216 32.6838C10.3216 32.4517 10.494 32.2636 10.7067 32.2636H14.0671C14.2798 32.2636 14.4522 32.4517 14.4522 32.6838C14.4522 32.9158 14.2798 33.1039 14.0671 33.1039Z" fill="#3B804B"/>
<path d="M12.559 28.4724H9.13377C8.92108 28.4724 8.74864 28.2843 8.74864 28.0522C8.74864 27.8202 8.92108 27.6321 9.13377 27.6321H12.559C12.7717 27.6321 12.9442 27.8202 12.9442 28.0522C12.9442 28.2843 12.7717 28.4724 12.559 28.4724Z" fill="#3B804B"/>
<path d="M23.7312 42.4311H20.5655C20.3528 42.4311 20.1803 42.243 20.1803 42.011C20.1803 41.7789 20.3528 41.5908 20.5655 41.5908H23.7312C23.9439 41.5908 24.1163 41.7789 24.1163 42.011C24.1163 42.243 23.9439 42.4311 23.7312 42.4311Z" fill="#3B804B"/>
<path d="M22.2231 37.7362H18.9925C18.7798 37.7362 18.6073 37.548 18.6073 37.316C18.6073 37.084 18.7798 36.8959 18.9925 36.8959H22.2231C22.4358 36.8959 22.6083 37.084 22.6083 37.316C22.6083 37.548 22.4358 37.7362 22.2231 37.7362Z" fill="#3B804B"/>
<path d="M19.0271 42.4311H15.8613C15.6486 42.4311 15.4762 42.243 15.4762 42.011C15.4762 41.7789 15.6486 41.5908 15.8613 41.5908H19.0271C19.2398 41.5908 19.4122 41.7789 19.4122 42.011C19.4122 42.243 19.2398 42.4311 19.0271 42.4311Z" fill="#3B804B"/>
<path d="M17.519 37.7362H14.2884C14.0757 37.7362 13.9033 37.548 13.9033 37.316C13.9033 37.084 14.0757 36.8959 14.2884 36.8959H17.519C17.7317 36.8959 17.9042 37.084 17.9042 37.316C17.9042 37.548 17.7317 37.7362 17.519 37.7362Z" fill="#3B804B"/>
<path d="M19.1243 33.1039H15.764C15.5513 33.1039 15.3789 32.9158 15.3789 32.6838C15.3789 32.4517 15.5513 32.2636 15.764 32.2636H19.1244C19.3371 32.2636 19.5095 32.4517 19.5095 32.6838C19.5095 32.9158 19.337 33.1039 19.1243 33.1039Z" fill="#3B804B"/>
<path d="M28.7689 42.4311H25.6032C25.3905 42.4311 25.218 42.243 25.218 42.011C25.218 41.7789 25.3905 41.5908 25.6032 41.5908H28.7689C28.9816 41.5908 29.1541 41.7789 29.1541 42.011C29.1541 42.243 28.9816 42.4311 28.7689 42.4311Z" fill="#3B804B"/>
<path d="M27.2609 37.7362H24.0303C23.8176 37.7362 23.6452 37.548 23.6452 37.316C23.6452 37.084 23.8176 36.8959 24.0303 36.8959H27.2609C27.4736 36.8959 27.646 37.084 27.646 37.316C27.646 37.548 27.4736 37.7362 27.2609 37.7362Z" fill="#3B804B"/>
<path d="M28.8662 33.1039H25.5059C25.2932 33.1039 25.1207 32.9158 25.1207 32.6838C25.1207 32.4517 25.2932 32.2636 25.5059 32.2636H28.8662C29.0789 32.2636 29.2514 32.4517 29.2514 32.6838C29.2514 32.9158 29.0789 33.1039 28.8662 33.1039Z" fill="#3B804B"/>
<path d="M28.6716 42.4311H25.5059C25.2932 42.4311 25.1207 42.243 25.1207 42.011C25.1207 41.7789 25.2932 41.5908 25.5059 41.5908H28.6716C28.8843 41.5908 29.0568 41.7789 29.0568 42.011C29.0568 42.243 28.8843 42.4311 28.6716 42.4311Z" fill="#3B804B"/>
<path d="M27.1636 37.7362H23.9329C23.7202 37.7362 23.5478 37.548 23.5478 37.316C23.5478 37.084 23.7202 36.8959 23.9329 36.8959H27.1636C27.3763 36.8959 27.5487 37.084 27.5487 37.316C27.5487 37.548 27.3763 37.7362 27.1636 37.7362Z" fill="#3B804B"/>
</g>
<path d="M16 37.6014C16 38.2038 16.4858 38.6921 17.085 38.6921H27.4407H28.1257V40.7514H19.0704C18.4761 40.7514 17.9699 41.216 17.9488 41.813C17.9267 42.4398 18.4256 42.9549 19.0441 42.9549H28.1258V45.6633C28.1258 46.2607 28.5879 46.7694 29.1818 46.7907C29.8054 46.8129 30.3178 46.3114 30.3178 45.6897V38.6921H34.7839C35.9225 38.6921 36.8455 37.7643 36.8455 36.6197V32.2456H39.9383C41.077 32.2456 42 31.3178 42 30.1732V25.6286C42 25.0312 41.5379 24.5225 40.944 24.5012C40.3204 24.479 39.808 24.9805 39.808 25.6022V30.0422H37.9994V25.6286C37.9994 25.0312 37.5373 24.5225 36.9433 24.5012C36.3198 24.479 35.8074 24.9805 35.8074 25.6022V30.0422H34.3028V28.96C34.3028 27.8548 33.4375 26.9488 32.3521 26.8907V23.2415C32.3521 22.6441 31.8899 22.1354 31.296 22.1141C30.6725 22.0919 30.16 22.5933 30.16 23.2151V27.0187C30.16 28.124 31.0253 29.03 32.1108 29.0881V30.1732C32.1108 31.3177 33.0338 32.2456 34.1725 32.2456H34.6536V36.4887H31.9719V35.2722C31.9719 34.6749 31.5098 34.1661 30.9158 34.1449C30.2923 34.1226 29.7798 34.6241 29.7798 35.2459V36.4887H28.2564H28.1305V23.2415C28.1305 22.6441 27.6684 22.1354 27.0744 22.1141C26.4509 22.0919 25.9385 22.5933 25.9385 23.2151V36.4887H20.3868V32.1177H22.0994C23.238 32.1177 24.1611 31.1899 24.1611 30.0453V28.1436C24.1611 27.5462 23.699 27.0375 23.105 27.0162C22.4815 26.994 21.9691 27.4955 21.9691 28.1172V29.9142H20.3868V26.1402C20.3868 25.5428 19.9247 25.0341 19.3307 25.0128C18.7072 24.9905 18.1948 25.492 18.1948 26.1138V36.4886H17.085C16.4858 36.4886 16 36.977 16 37.5793V37.6014Z" fill="#4EA963"/>
<path d="M20.3867 32.0641H19.6891V36.4125H20.3867V32.0641Z" fill="#408A51"/>
<path d="M37.3016 25.6084V29.9991H37.9992V25.6084C37.9992 25.0141 37.5371 24.508 36.9432 24.4869C36.8065 24.482 36.6758 24.5035 36.5541 24.5444C36.992 24.6952 37.3016 25.1221 37.3016 25.6084Z" fill="#408A51"/>
<path d="M31.274 35.2021V36.4122H31.9716V35.2021C31.9716 34.6078 31.5095 34.1016 30.9156 34.0805C30.7789 34.0756 30.6482 34.0971 30.5264 34.1381C30.9643 34.2889 31.274 34.7158 31.274 35.2021Z" fill="#408A51"/>
<path d="M27.4326 23.2336V36.4123H27.5585H28.1302V23.2336C28.1302 22.6393 27.6681 22.1332 27.0742 22.1121C26.9375 22.1072 26.8068 22.1287 26.6851 22.1696C27.1229 22.3204 27.4326 22.7472 27.4326 23.2336Z" fill="#408A51"/>
<path d="M31.6543 23.2336V26.8639C32.7398 26.9217 33.6051 27.823 33.6051 28.9225V29.999H34.3027V28.9225C34.3027 27.823 33.4374 26.9216 32.352 26.8639V23.2336C32.352 22.6393 31.8899 22.1332 31.2959 22.1121C31.1593 22.1072 31.0286 22.1287 30.9068 22.1696C31.3447 22.3204 31.6543 22.7472 31.6543 23.2336Z" fill="#408A51"/>
<path d="M36.1478 36.5426C36.1478 37.6812 35.2248 38.6042 34.0862 38.6042H34.7838C35.9225 38.6042 36.8455 37.6812 36.8455 36.5426V32.1911H36.1478V36.5426Z" fill="#408A51"/>
<path d="M40.9438 24.4868C40.8072 24.482 40.6765 24.5034 40.5547 24.5444C40.9926 24.6951 41.3023 25.122 41.3023 25.6084V30.1294C41.3023 31.268 40.3793 32.1911 39.2406 32.1911H39.9383C41.0769 32.1911 41.9999 31.2681 41.9999 30.1294V25.6084C41.9999 25.0141 41.5378 24.5079 40.9438 24.4868Z" fill="#408A51"/>
<path d="M23.4633 28.1105V30.0022C23.4633 31.1409 22.5404 32.0639 21.4017 32.0639H22.0993C23.2379 32.0639 24.161 31.1409 24.161 30.0022V28.1105C24.161 27.5162 23.6989 27.01 23.1049 26.9889C22.9683 26.984 22.8376 27.0055 22.7158 27.0464C23.1536 27.1972 23.4633 27.6241 23.4633 28.1105Z" fill="#408A51"/>
<path d="M19.6891 26.1173V29.8719H20.3867V26.1173C20.3867 25.5231 19.9246 25.0169 19.3307 24.9958C19.194 24.9909 19.0633 25.0124 18.9416 25.0533C19.3794 25.2041 19.6891 25.631 19.6891 26.1173Z" fill="#408A51"/>
<path d="M29.6202 45.5656C29.6202 46.0486 29.3071 46.4573 28.8733 46.6033C28.9705 46.6368 29.0739 46.657 29.1818 46.6609C29.8054 46.683 30.3178 46.1841 30.3178 45.5656V38.6042H29.6202V45.5656Z" fill="#408A51"/>
<path d="M16 37.6014C16 38.2038 16.4858 38.6921 17.085 38.6921H27.4407H28.1257V40.7514H19.0704C18.4761 40.7514 17.9699 41.216 17.9488 41.813C17.9267 42.4398 18.4256 42.9549 19.0441 42.9549H28.1258V45.6633C28.1258 46.2607 28.5879 46.7694 29.1818 46.7907C29.8054 46.8129 30.3178 46.3114 30.3178 45.6897V38.6921H34.7839C35.9225 38.6921 36.8455 37.7643 36.8455 36.6197V32.2456H39.9383C41.077 32.2456 42 31.3178 42 30.1732V25.6286C42 25.0312 41.5379 24.5225 40.944 24.5012C40.3204 24.479 39.808 24.9805 39.808 25.6022V30.0422H37.9994V25.6286C37.9994 25.0312 37.5373 24.5225 36.9433 24.5012C36.3198 24.479 35.8074 24.9805 35.8074 25.6022V30.0422H34.3028V28.96C34.3028 27.8548 33.4375 26.9488 32.3521 26.8907V23.2415C32.3521 22.6441 31.8899 22.1354 31.296 22.1141C30.6725 22.0919 30.16 22.5933 30.16 23.2151V27.0187C30.16 28.124 31.0253 29.03 32.1108 29.0881V30.1732C32.1108 31.3177 33.0338 32.2456 34.1725 32.2456H34.6536V36.4887H31.9719V35.2722C31.9719 34.6749 31.5098 34.1661 30.9158 34.1449C30.2923 34.1226 29.7798 34.6241 29.7798 35.2459V36.4887H28.2564H28.1305V23.2415C28.1305 22.6441 27.6684 22.1354 27.0744 22.1141C26.4509 22.0919 25.9385 22.5933 25.9385 23.2151V36.4887H20.3868V32.1177H22.0994C23.238 32.1177 24.1611 31.1899 24.1611 30.0453V28.1436C24.1611 27.5462 23.699 27.0375 23.105 27.0162C22.4815 26.994 21.9691 27.4955 21.9691 28.1172V29.9142H20.3868V26.1402C20.3868 25.5428 19.9247 25.0341 19.3307 25.0128C18.7072 24.9905 18.1948 25.492 18.1948 26.1138V36.4886H17.085C16.4858 36.4886 16 36.977 16 37.5793V37.6014Z" fill="#4EA963"/>
<path d="M20.3867 32.0641H19.6891V36.4125H20.3867V32.0641Z" fill="#408A51"/>
<path d="M37.3016 25.6084V29.9991H37.9992V25.6084C37.9992 25.0141 37.5371 24.508 36.9432 24.4869C36.8065 24.482 36.6758 24.5035 36.5541 24.5444C36.992 24.6952 37.3016 25.1221 37.3016 25.6084Z" fill="#408A51"/>
<path d="M31.274 35.2021V36.4122H31.9716V35.2021C31.9716 34.6078 31.5095 34.1016 30.9156 34.0805C30.7789 34.0756 30.6482 34.0971 30.5264 34.1381C30.9643 34.2889 31.274 34.7158 31.274 35.2021Z" fill="#408A51"/>
<path d="M27.4326 23.2336V36.4123H27.5585H28.1302V23.2336C28.1302 22.6393 27.6681 22.1332 27.0742 22.1121C26.9375 22.1072 26.8068 22.1287 26.6851 22.1696C27.1229 22.3204 27.4326 22.7472 27.4326 23.2336Z" fill="#408A51"/>
<path d="M31.6543 23.2336V26.8639C32.7398 26.9217 33.6051 27.823 33.6051 28.9225V29.999H34.3027V28.9225C34.3027 27.823 33.4374 26.9216 32.352 26.8639V23.2336C32.352 22.6393 31.8899 22.1332 31.2959 22.1121C31.1593 22.1072 31.0286 22.1287 30.9068 22.1696C31.3447 22.3204 31.6543 22.7472 31.6543 23.2336Z" fill="#408A51"/>
<path d="M36.1478 36.5426C36.1478 37.6812 35.2248 38.6042 34.0862 38.6042H34.7838C35.9225 38.6042 36.8455 37.6812 36.8455 36.5426V32.1911H36.1478V36.5426Z" fill="#408A51"/>
<path d="M40.9438 24.4868C40.8072 24.482 40.6765 24.5034 40.5547 24.5444C40.9926 24.6951 41.3023 25.122 41.3023 25.6084V30.1294C41.3023 31.268 40.3793 32.1911 39.2406 32.1911H39.9383C41.0769 32.1911 41.9999 31.2681 41.9999 30.1294V25.6084C41.9999 25.0141 41.5378 24.5079 40.9438 24.4868Z" fill="#408A51"/>
<path d="M23.4633 28.1105V30.0022C23.4633 31.1409 22.5404 32.0639 21.4017 32.0639H22.0993C23.2379 32.0639 24.161 31.1409 24.161 30.0022V28.1105C24.161 27.5162 23.6989 27.01 23.1049 26.9889C22.9683 26.984 22.8376 27.0055 22.7158 27.0464C23.1536 27.1972 23.4633 27.6241 23.4633 28.1105Z" fill="#408A51"/>
<path d="M19.6891 26.1173V29.8719H20.3867V26.1173C20.3867 25.5231 19.9246 25.0169 19.3307 24.9958C19.194 24.9909 19.0633 25.0124 18.9416 25.0533C19.3794 25.2041 19.6891 25.631 19.6891 26.1173Z" fill="#408A51"/>
<path d="M29.6202 45.5656C29.6202 46.0486 29.3071 46.4573 28.8733 46.6033C28.9705 46.6368 29.0739 46.657 29.1818 46.6609C29.8054 46.683 30.3178 46.1841 30.3178 45.5656V38.6042H29.6202V45.5656Z" fill="#408A51"/>
<path d="M22.7816 25.1694C23.5437 25.1694 24.1615 24.5516 24.1615 23.7895C24.1615 23.0274 23.5437 22.4096 22.7816 22.4096C22.0195 22.4096 21.4017 23.0274 21.4017 23.7895C21.4017 24.5516 22.0195 25.1694 22.7816 25.1694Z" fill="#61ACD2"/>
<path d="M35.0317 44.0478C35.4554 44.0478 35.7988 43.7043 35.7988 43.2806C35.7988 42.8569 35.4554 42.5134 35.0317 42.5134C34.6079 42.5134 34.2645 42.8569 34.2645 43.2806C34.2645 43.7043 34.6079 44.0478 35.0317 44.0478Z" fill="#61ACD2"/>
<path d="M30.9069 32.759C31.2204 32.759 31.4746 32.5048 31.4746 32.1913C31.4746 31.8777 31.2204 31.6235 30.9069 31.6235C30.5933 31.6235 30.3391 31.8777 30.3391 32.1913C30.3391 32.5048 30.5933 32.759 30.9069 32.759Z" fill="#61ACD2"/>
<path d="M37.9991 23.7894C38.4932 23.7894 38.8938 23.3888 38.8938 22.8947C38.8938 22.4006 38.4932 22 37.9991 22C37.505 22 37.1044 22.4006 37.1044 22.8947C37.1044 23.3888 37.505 23.7894 37.9991 23.7894Z" fill="#61ACD2"/>
<path d="M19.4382 45.38C19.9621 45.38 20.3868 44.9553 20.3868 44.4314C20.3868 43.9075 19.9621 43.4828 19.4382 43.4828C18.9143 43.4828 18.4896 43.9075 18.4896 44.4314C18.4896 44.9553 18.9143 45.38 19.4382 45.38Z" fill="#61ACD2"/>
<path d="M39.2409 39.1706C39.9067 39.1706 40.4465 38.6308 40.4465 37.965C40.4465 37.2992 39.9067 36.7594 39.2409 36.7594C38.5751 36.7594 38.0353 37.2992 38.0353 37.965C38.0353 38.6308 38.5751 39.1706 39.2409 39.1706Z" fill="#61ACD2"/>
<path d="M22.7816 36.9797C23.4178 36.9797 23.9335 36.4639 23.9335 35.8278C23.9335 35.1916 23.4178 34.6758 22.7816 34.6758C22.1454 34.6758 21.6297 35.1916 21.6297 35.8278C21.6297 36.4639 22.1454 36.9797 22.7816 36.9797Z" fill="#61ACD2"/>
<g clip-path="url(#clip1_55_680)">
<path d="M16.379 37.4675C16.6986 37.3283 17.07 37.4734 17.2091 37.793C17.2329 37.8463 17.6501 38.7498 18.6283 39.2621C18.3364 38.8496 18.1054 38.4473 17.9244 38.0746C17.0638 36.3029 17.0952 34.8038 17.097 34.7408C17.1068 34.3923 17.3967 34.1158 17.7457 34.1274C18.0943 34.1372 18.3689 34.4276 18.3591 34.7762C18.3581 34.8129 18.3226 37.4746 20.6687 39.6829C21.6017 38.5714 21.487 37.0297 21.4851 37.0068C21.4547 36.6605 21.7101 36.3545 22.0565 36.3227C22.4043 36.2908 22.711 36.5467 22.7427 36.894C22.7507 36.9809 22.9134 38.9549 21.6517 40.475C22.2554 40.8913 22.9706 41.2729 23.8159 41.5946C23.9018 40.4123 24.1938 39.1139 24.834 37.7756C25.0915 37.2371 25.3292 36.7145 25.5485 36.2093C23.2816 35.2063 22.2882 33.4706 21.8543 32.138C21.8519 32.1305 21.8497 32.1231 21.8473 32.1157C19.7374 32.0803 18.5084 30.4048 18.2207 29.46C18.1192 29.1265 18.3067 28.7722 18.6402 28.6706C18.9741 28.5687 19.326 28.7556 19.4276 29.089C19.4504 29.1613 19.9606 30.7113 21.5534 30.8445C21.4172 29.9159 21.4821 29.2501 21.4861 29.211C21.522 28.8649 21.8305 28.6144 22.1774 28.6488C22.5236 28.6837 22.7762 28.9931 22.7422 29.3395C22.7411 29.3509 22.6358 30.4912 23.0691 31.7897C23.1972 32.1739 23.3592 32.5298 23.551 32.8598C24.3009 32.306 24.6934 30.8293 24.7797 30.2762C24.833 29.9319 25.1544 29.6956 25.4992 29.7486C25.8439 29.8014 26.0805 30.1236 26.0276 30.4683C25.9841 30.7523 25.616 32.8973 24.3161 33.8676C24.7888 34.3505 25.3627 34.7431 26.0355 35.0434C27.714 30.8593 28.0624 28.1363 28.0663 28.1038C28.1083 27.7579 28.4222 27.5117 28.7684 27.5528C29.1146 27.5944 29.3615 27.9088 29.32 28.255C29.2998 28.4223 28.7952 32.4214 25.9732 38.3206C25.1234 40.0971 24.8608 42.0112 25.193 44.0101C25.199 44.0463 25.2052 44.082 25.2115 44.1175C25.2274 44.068 25.2439 44.0179 25.261 43.9675C25.7631 42.4869 26.895 40.3578 29.4362 38.6232C29.6344 38.4879 29.8247 38.3449 30.0094 38.1962C29.2706 37.5438 28.8842 36.587 28.8842 35.39C28.8842 34.3536 29.1809 33.4906 29.1935 33.4544C29.3082 33.1252 29.6684 32.9514 29.9974 33.0661C30.3266 33.1809 30.5005 33.5408 30.3857 33.87C30.377 33.895 29.577 36.252 30.942 37.3275C31.9172 36.2742 32.6354 34.9767 33.0852 33.4501C33.5837 31.7588 33.5475 30.4071 33.5471 30.3947C33.5349 30.0462 33.8077 29.7539 34.1561 29.7418C34.505 29.7283 34.7969 30.0024 34.8089 30.3508C34.8111 30.4126 34.8552 31.8846 34.3095 33.7622C33.5829 36.2622 32.1438 38.3038 30.1479 39.6662C30.1378 39.6731 30.1283 39.6803 30.1182 39.6873C30.6124 39.6746 31.2044 39.6188 31.8219 39.4698C33.8804 38.9728 35.2054 37.7003 35.7599 35.6876C35.8525 35.3515 36.2002 35.1542 36.5362 35.2466C36.8724 35.3392 37.0698 35.6868 36.9772 36.0229C36.3011 38.4766 34.621 40.0929 32.1183 40.697C31.2901 40.897 30.5049 40.9528 29.886 40.9528C29.2872 40.9528 28.8451 40.9007 28.6697 40.876C28.0091 41.5261 27.466 42.2449 27.0434 43.0279C27.9626 43.2525 30.5892 43.6818 32.6757 41.9485C32.9438 41.7258 33.3418 41.7625 33.5647 42.0308C33.7875 42.2989 33.7507 42.6969 33.4825 42.9198C31.9576 44.1866 30.2442 44.5169 28.8719 44.5169C27.7883 44.5169 26.9177 44.311 26.5201 44.1975C26.5054 44.238 26.4894 44.2778 26.4753 44.3186C25.99 45.7191 26.0359 46.7761 26.0364 46.7845C26.0531 47.0807 25.8614 47.3486 25.5756 47.4283C25.5193 47.444 25.4623 47.4516 25.4061 47.4516C25.1769 47.4516 24.9598 47.3263 24.8482 47.1158C24.8259 47.0736 24.6882 46.8079 24.5192 46.3646C20.8654 46.2352 18.5028 44.0929 18.3962 43.9944C18.1406 43.7581 18.1249 43.3601 18.3605 43.1039C18.5961 42.8478 18.9951 42.831 19.252 43.0661C19.2736 43.0858 21.1886 44.8053 24.1175 45.0724C23.9674 44.4619 23.8427 43.7378 23.8019 42.9323C22.2146 42.3898 21.0108 41.6579 20.0984 40.8727C20.0929 40.8727 20.0873 40.8727 20.0818 40.8727C17.2053 40.8727 16.0987 38.4056 16.0527 38.3001C15.9135 37.98 16.0593 37.6066 16.379 37.4675Z" fill="#EBB521"/>
<path d="M16.379 37.4675C16.6987 37.3284 17.07 37.4734 17.2091 37.793C17.2329 37.8463 17.6501 38.7498 18.6283 39.2621C18.3364 38.8496 18.1054 38.4474 17.9244 38.0747C17.0638 36.303 17.0952 34.8038 17.097 34.7408C17.1068 34.3923 17.3967 34.1158 17.7457 34.1275C18.0943 34.1372 18.3689 34.4276 18.3591 34.7762C18.3581 34.813 18.3226 37.4746 20.6687 39.683C21.6017 38.5714 21.487 37.0297 21.4852 37.0068C21.4547 36.6605 21.7101 36.3545 22.0565 36.3228C22.4043 36.2908 22.711 36.5467 22.7427 36.894C22.7507 36.9809 22.9134 38.9549 21.6517 40.475C22.2554 40.8913 22.9706 41.2729 23.8159 41.5946C23.9018 40.4123 24.1938 39.1139 24.834 37.7756C25.0916 37.2371 25.3292 36.7145 25.5485 36.2093C23.2816 35.2063 22.2882 33.4707 21.8543 32.138C21.8519 32.1306 21.8497 32.1231 21.8473 32.1157C19.7374 32.0803 18.5084 30.4048 18.2207 29.46C18.1192 29.1265 18.3067 28.7722 18.6402 28.6707C18.9741 28.5687 19.326 28.7556 19.4276 29.089C19.4504 29.1613 19.9606 30.7113 21.5534 30.8445C21.4172 29.9159 21.4821 29.2502 21.4861 29.2111C21.522 28.8649 21.8305 28.6144 22.1774 28.6488C22.5236 28.6837 22.7762 28.9931 22.7422 29.3395C22.7411 29.3509 22.6358 30.4912 23.0691 31.7897C23.1972 32.174 23.3592 32.5298 23.551 32.8598C24.3009 32.306 24.6934 30.8293 24.7797 30.2762C24.833 29.9319 25.1544 29.6956 25.4992 29.7486C25.8439 29.8014 26.0805 30.1236 26.0276 30.4683C25.9841 30.7523 25.616 32.8973 24.3161 33.8676C24.7888 34.3505 25.3627 34.7431 26.0355 35.0435C26.2389 34.5364 26.4226 34.0511 26.5887 33.5892V36.9833C26.3969 37.417 26.192 37.863 25.9731 38.3206C25.1233 40.0971 24.8608 42.0113 25.1929 44.0101C25.199 44.0463 25.2051 44.0821 25.2114 44.1176C25.2274 44.068 25.2439 44.0179 25.2609 43.9675C25.5125 43.2254 25.9225 42.3205 26.5887 41.384V44.2166C26.5647 44.21 26.5414 44.2036 26.5201 44.1975C26.5054 44.238 26.4894 44.2778 26.4753 44.3186C25.99 45.7191 26.0359 46.7761 26.0364 46.7845C26.0531 47.0807 25.8614 47.3486 25.5756 47.4283C25.5193 47.444 25.4623 47.4516 25.4061 47.4516C25.1769 47.4516 24.9598 47.3263 24.8483 47.1158C24.8259 47.0737 24.6882 46.8079 24.5192 46.3646C20.8654 46.2352 18.5028 44.0929 18.3963 43.9944C18.1406 43.7582 18.1249 43.3601 18.3605 43.1039C18.5961 42.8478 18.9951 42.831 19.252 43.0661C19.2736 43.0858 21.1886 44.8053 24.1175 45.0724C23.9674 44.462 23.8427 43.7379 23.8019 42.9323C22.2146 42.3898 21.0108 41.6579 20.0984 40.8727C20.0929 40.8727 20.0873 40.8727 20.0818 40.8727C17.2053 40.8727 16.0987 38.4056 16.0527 38.3001C15.9135 37.9801 16.0593 37.6066 16.379 37.4675Z" fill="#E89145"/>
</g>
<g clip-path="url(#clip2_55_680)">
<path d="M43.0028 29.0435C43.7232 29.0435 44.3071 29.6275 44.3071 30.3478V30.6125L43.6521 31.2753L44.3071 31.9168C44.3071 32.7362 44.8706 33.4263 45.6304 33.6203V28.3043C45.6304 27.584 46.2144 27 46.9348 27C47.6551 27 48.2391 27.584 48.2391 28.3043V30.6125L47.5942 31.2753L48.2391 31.9168V33.2211L47.5362 33.884L48.2391 34.5255V37.1342C48.2391 37.7584 48.1071 38.3524 47.8701 38.89C48.8003 38.8457 49.5435 38.0752 49.5435 37.1342L50.1739 36.5217L49.5435 35.8298V32.9565C49.5435 32.2361 50.1275 31.6521 50.8478 31.6521C51.5682 31.6521 52.1521 32.2361 52.1521 32.9565V33.3043L51.4782 33.9709L52.1521 34.6086V37.1341C52.1521 39.5419 50.1932 41.5009 47.7854 41.5009L47.1304 40.8985L46.4811 41.5009H44.3043L44.3043 41.4795C44.3027 41.4797 44.3012 41.4798 44.2997 41.48L42.9275 40.1449L44.2975 38.8399C45.0621 38.6493 45.6304 37.957 45.6304 37.1342L46.2899 36.5508L45.6304 36.262C43.426 36.0431 41.6985 34.1779 41.6985 31.9169V30.3478C41.6985 29.6275 42.2825 29.0435 43.0028 29.0435Z" fill="#FB5858"/>
<path d="M35.1522 34.2608C35.8725 34.2608 36.4565 34.8448 36.4565 35.5652L35.7391 36.2608L36.4565 36.8695V39.7429C36.4565 40.6839 37.1997 41.4544 38.1299 41.4988C37.8929 40.9611 37.7609 40.3672 37.7609 39.7429V36.8695L38.3479 36.2608L37.7609 35.5652V34.2608L38.3768 33.6811L37.7609 32.9565C37.7609 32.2361 38.3449 31.6522 39.0652 31.6522C39.7856 31.6522 40.3696 32.2361 40.3696 32.9565V38.4385L39.7101 39.1014L40.3696 39.7429C40.3696 40.5616 40.9321 41.2513 41.691 41.446L41.6884 38.3052C41.6884 37.5849 42.2724 37.0009 42.9927 37.0009C43.7131 37.0009 44.2971 37.5849 44.2971 38.3052L44.2975 38.8399L44.2975 38.8922C44.2971 38.8922 44.2978 39.1438 44.2978 39.1438L44.2997 41.4799V41.5009H44.3043L43.5073 42.1738L44.3043 42.8052H44.3008L44.3019 44.0876H44.3043L43.6232 44.7826L44.3043 45.3919H44.303L44.3043 47H41.6956L41.6932 44.1096H39.5189L38.8986 43.4782L38.2146 44.1096C35.8068 44.1096 33.8478 42.1507 33.8478 39.7429L34.4638 39.1014L33.8478 38.4385V35.5652C33.8478 34.8449 34.4318 34.2608 35.1522 34.2608Z" fill="#F72349"/>
<path d="M43 44.0878H44.3043V45.3922H43V44.0878Z" fill="#FB5858"/>
<path d="M38.2148 42.8052H39.5191V44.1096H38.2148V42.8052Z" fill="#FB5858"/>
<path d="M37.7609 32.9565H39.0652V34.2609H37.7609V32.9565Z" fill="#FB5858"/>
<path d="M37.7609 35.5652H39.0652V36.8696H37.7609V35.5652Z" fill="#FB5858"/>
<path d="M35.1522 35.5652H36.4565V36.8696H35.1522V35.5652Z" fill="#FB5858"/>
<path d="M33.8479 38.4387H35.1522V39.7431H33.8479V38.4387Z" fill="#FB5858"/>
<path d="M39.0652 38.4387H40.3696V39.7431H39.0652V38.4387Z" fill="#FB5858"/>
<path d="M43 41.5009H44.3043V42.8052H43V41.5009Z" fill="#FB5858"/>
<path d="M46.4809 40.1965H47.7852V41.5009H46.4809V40.1965Z" fill="#F72349"/>
<path d="M49.5435 35.83H50.8478V37.1344H49.5435V35.83Z" fill="#F72349"/>
<path d="M43.0026 30.6126H44.307V31.9169H43.0026V30.6126Z" fill="#F72349"/>
<path d="M46.9348 30.6126H48.2392V31.9169H46.9348V30.6126Z" fill="#F72349"/>
<path d="M46.9348 33.2213H48.2392V34.5256H46.9348V33.2213Z" fill="#F72349"/>
<path d="M45.6304 35.83H46.9348V37.1344H45.6304V35.83Z" fill="#F72349"/>
<path d="M50.8479 33.3043H52.1522V34.6087H50.8479V33.3043Z" fill="#F72349"/>
<g clip-path="url(#clip3_55_680)">
<path d="M45.1812 40.9685L47.4625 41.0874C47.8235 41.1062 48.1485 40.8701 48.2421 40.521L48.834 38.3145C48.8796 38.1448 49.1204 38.1448 49.1659 38.3145L49.7579 40.521C49.8515 40.8701 50.1765 41.1062 50.5375 41.0874L52.8188 40.9685C52.9943 40.9594 53.0687 41.1884 52.9214 41.2841L51.0059 42.5289C50.7028 42.7259 50.5787 43.1079 50.7081 43.4454L51.5261 45.5784C51.589 45.7425 51.3942 45.884 51.2576 45.7735L49.4818 44.3364C49.2008 44.109 48.7991 44.109 48.5182 44.3364L46.7424 45.7735C46.6058 45.884 46.4109 45.7425 46.4739 45.5784L47.2919 43.4454C47.4213 43.108 47.2972 42.7259 46.9941 42.529L45.0786 41.2842C44.9312 41.1884 45.0057 40.9594 45.1812 40.9685Z" fill="#FF9150"/>
<path d="M47.7976 42.6891L48.7897 42.3558L48.171 41.5309C48.1282 41.4739 48.1397 41.393 48.1968 41.3503C48.2538 41.3077 48.3346 41.319 48.3774 41.3761L49 42.2063L49.6226 41.3761C49.6655 41.3189 49.7462 41.3075 49.8032 41.3503C49.8602 41.393 49.8718 41.4739 49.829 41.5309L49.2103 42.3558L50.2024 42.6891C50.2699 42.7118 50.3063 42.785 50.2837 42.8526C50.2655 42.9065 50.2152 42.9405 50.1613 42.9405C50.1477 42.9405 50.1338 42.9384 50.1202 42.9338L49.129 42.6008V43.5826C49.129 43.6539 49.0713 43.7116 49 43.7116C48.9287 43.7116 48.871 43.6539 48.871 43.5826V42.6008L47.8798 42.9338C47.8662 42.9384 47.8523 42.9405 47.8387 42.9405C47.7848 42.9405 47.7345 42.9065 47.7164 42.8526C47.6937 42.785 47.7301 42.7118 47.7976 42.6891Z" fill="#FF7841"/>
<path d="M45.1812 40.9685L45.2673 40.973L48.6096 42.0871C48.6629 42.0249 48.7293 41.9746 48.8065 41.9434V38.4174L48.8341 38.3145C48.8796 38.1448 49.1204 38.1448 49.166 38.3145L49.1936 38.4174V41.9434C49.2707 41.9746 49.3371 42.0249 49.3904 42.0871L52.7327 40.973L52.8188 40.9685C52.9943 40.9594 53.0688 41.1884 52.9214 41.2842L52.8142 41.3539L49.5128 42.4543C49.5072 42.5413 49.4809 42.6223 49.4375 42.6923C49.438 42.693 49.4386 42.6934 49.4391 42.6941L51.5033 45.5187L51.5261 45.5784C51.589 45.7425 51.3942 45.884 51.2576 45.7735L51.1412 45.6792L49.1266 42.9224C49.1261 42.9217 49.1259 42.9209 49.1253 42.9202C49.085 42.9303 49.0435 42.9373 49 42.9373C48.9565 42.9373 48.915 42.9303 48.8747 42.9202C48.8741 42.9209 48.8739 42.9217 48.8734 42.9224L46.8588 45.6792L46.7424 45.7735C46.6058 45.884 46.4109 45.7425 46.4739 45.5784L46.4967 45.5187L48.5609 42.6941C48.5614 42.6934 48.562 42.693 48.5625 42.6923C48.5191 42.6223 48.4928 42.5413 48.4872 42.4543L45.1858 41.3538L45.0786 41.2842C44.9313 41.1884 45.0057 40.9594 45.1812 40.9685Z" fill="#FFC387"/>
<path d="M49 43.0664C48.6437 43.0664 48.3548 42.7776 48.3548 42.4213C48.3548 42.065 48.6437 41.7761 49 41.7761C49.3563 41.7761 49.6451 42.065 49.6451 42.4213C49.6451 42.7776 49.3563 43.0664 49 43.0664Z" fill="#FFA263"/>
</g>
</g>
<path d="M11.6136 29C11.6288 29.384 11.6478 29.7692 11.6668 30.1548C11.8112 30.1399 11.9595 30.0611 12.1343 29.9284C12.3966 29.7286 12.6665 29.4129 12.9401 29.1362L13.4191 29.6388C13.1758 29.8835 12.8907 30.2242 12.5448 30.4912C12.3054 30.6742 12.0089 30.8256 11.6858 30.851C11.7276 32.3148 11.701 33.7743 11.4235 35.191C11.8378 35.7529 12.1685 36.4007 12.4118 37.072C12.4498 37.1773 12.484 37.2827 12.522 37.3881C13.0314 37.1539 13.5749 36.7793 14.1033 36.3422C14.624 35.0153 14.6582 33.6651 13.9132 32.6075C13.5407 32.3733 13.3583 31.9144 13.305 31.4442L13.9854 31.3626C14.0234 31.7271 14.2287 31.9987 14.3237 32.0299C14.3313 32.0338 14.3389 32.0338 14.3465 32.0377L14.3503 32.0338C14.3503 32.0377 14.3541 32.0377 14.3541 32.0416C14.3921 32.0494 14.434 32.0377 14.5252 31.9753C14.6392 31.8949 14.8027 31.7037 14.9775 31.363L15.5857 31.6877C15.3804 32.0924 15.1638 32.3733 14.9167 32.5529C14.8597 32.5919 14.8027 32.6231 14.7456 32.6504C15.1828 33.5129 15.255 34.4885 15.0687 35.4602C15.1029 35.429 15.1334 35.3939 15.1676 35.3627C16.1064 34.4066 16.8134 33.4817 17.319 33.0173C17.3532 32.6309 17.376 32.3187 17.3532 32.0611C17.319 31.6424 17.2125 31.3673 16.8628 31.0188L17.3418 30.5161C17.7827 30.9595 17.9918 31.459 18.0374 32.0026C18.064 32.3655 18.0336 32.7714 17.988 33.2124C18.7976 32.748 19.5593 32.385 20.5142 32.1392L20.6791 32.8221C19.7251 33.068 18.9956 33.427 18.1438 33.9304C17.8815 34.1685 17.0301 35.2222 16.0228 36.2485C15.1029 37.1852 14.0158 38.1491 12.7995 38.6213C12.9211 39.5462 12.8337 40.4633 12.4232 41.236C12.6665 41.4974 12.8793 41.7745 13.0656 42.0633C13.1682 42.2233 13.2594 42.3833 13.3468 42.5472C14.1907 42.2467 15.3272 41.5091 16.2661 40.6818C16.2927 40.6584 16.3193 40.6311 16.3497 40.6077C16.3383 40.3267 16.2281 39.995 16.0532 39.6711C15.8328 39.2613 15.5135 38.8749 15.2322 38.6135L15.6921 38.0905C16.0304 38.4066 16.3877 38.8398 16.65 39.3276C16.7716 39.554 16.878 39.792 16.9465 40.0379C17.2163 39.7647 17.4596 39.4954 17.6573 39.2496C18.0108 38.8047 18.2122 38.3832 18.2274 38.2935C18.5049 36.7871 18.6341 36.2993 19.749 34.7461L20.7285 35.4876C20.4556 35.8661 20.2557 36.1549 20.104 36.3929C20.6293 36.4515 21.2067 36.3071 21.5401 35.9949L22 36.5178C21.4093 37.0681 20.5362 37.232 19.7593 37.0486C19.616 37.4154 19.5597 37.7978 19.4248 38.5276C19.4141 38.5862 19.4004 38.6408 19.3849 38.6993H19.424C20.1808 38.7306 20.8509 39.152 21.3683 39.7374L20.862 40.2096C20.3268 39.6047 19.757 39.2808 19.05 39.4213C18.923 39.6242 18.771 39.8233 18.5999 40.0379C18.1856 40.5569 17.6535 41.1072 17.0605 41.6301C16.6462 41.9931 16.2053 42.3443 15.7567 42.6604C16.5626 42.9765 17.7561 43.1482 18.6646 42.9921L18.7786 43.6829C18.3377 43.7609 17.8663 43.7843 17.3988 43.7531C17.4482 43.9365 17.452 44.1277 17.4178 44.3034C17.3418 44.6975 17.0871 45.0331 16.745 45.2712L16.3611 44.6936C16.5816 44.5375 16.7146 44.3346 16.7488 44.1629C16.783 43.9912 16.7564 43.839 16.5664 43.6516C16.0076 43.5424 15.4831 43.3628 15.0573 43.1131C14.6506 43.3511 14.2401 43.5541 13.8372 43.6985C14.2629 44.9707 14.3313 46.2195 14.3579 47H13.1416C13.1074 45.9346 12.9667 44.1785 12.0507 42.7541C11.6782 42.1765 11.1916 41.6418 10.5112 41.2204C9.61419 41.3999 8.73994 41.5989 7.94172 41.8838C8.01013 42.2584 8.242 42.4497 8.51948 42.7775C8.66392 42.9531 8.81976 43.1677 8.89198 43.4526C8.96801 43.7375 8.9566 44.077 8.83497 44.4634L8.18118 44.2526C8.27621 43.956 8.26861 43.7765 8.2344 43.636C8.19639 43.4955 8.12037 43.3785 7.99873 43.238C7.79347 42.9921 7.43617 42.676 7.29933 42.1453C6.91162 42.3209 6.54672 42.5238 6.21223 42.7697L5.81691 42.196C6.88122 41.4155 8.15458 41.0174 9.46595 40.7247C8.6069 40.4203 7.5312 40.2642 6.16281 40.3111C5.95755 40.7599 5.55084 41.1579 5.0529 41.4818L4.68419 40.8886C5.34178 40.4594 5.65347 39.9559 5.62306 39.6164C5.60405 39.4447 5.51283 39.2691 5.26576 39.074C5.01489 38.8788 4.60437 38.6798 4 38.5276L4.16725 37.8447C4.82863 38.0125 5.32277 38.2349 5.68388 38.5159C5.88153 38.6759 6.04498 38.8593 6.14761 39.0584C6.33386 39.0545 6.50491 39.0506 6.67596 39.0545C7.1853 39.0584 7.66424 39.0935 8.11657 39.152C7.36395 38.2154 6.90782 37.1266 6.74438 35.9129L7.41717 35.8154C7.48939 36.3227 7.61102 36.7988 7.79347 37.2515C8.00253 37.2281 8.18879 37.1383 8.34843 37.0095C8.56889 36.8261 8.72474 36.5568 8.77035 36.3188L9.44314 36.4593C9.35952 36.8769 9.12385 37.271 8.77795 37.5559C8.5879 37.712 8.35223 37.8369 8.10516 37.9032C8.40165 38.4418 8.79316 38.9335 9.2797 39.3901C10.1349 39.6203 10.8571 39.9677 11.4615 40.3891C11.7162 39.6359 11.6516 38.5549 11.2753 37.5091C10.8723 36.4007 10.1387 35.3939 9.37852 34.9061C9.19227 34.988 8.98321 35.0271 8.78175 35.0388C8.36364 35.0622 7.91891 34.988 7.50079 34.8827C6.66075 34.6758 5.91954 34.3402 5.91954 34.3402L6.19322 33.6963C6.19322 33.6963 6.89642 34.0124 7.66044 34.1997C8.04054 34.2934 8.43586 34.3558 8.74374 34.3363C9.04783 34.3207 9.21888 34.2387 9.2987 34.1139C9.32911 34.0631 9.34431 33.9656 9.27589 33.7783C9.20747 33.587 9.06303 33.349 8.89959 33.1265C8.5765 32.6855 8.19259 32.3148 8.19259 32.3148L8.65632 31.8012C8.65632 31.8012 9.07824 32.2016 9.44694 32.7051C9.63319 32.9587 9.80804 33.2358 9.91447 33.5324C9.94868 33.6261 9.97529 33.7236 9.9905 33.8251C10.2984 34.0124 10.5873 34.2427 10.8495 34.508C11.108 32.7714 11.013 30.913 10.9332 29.032L11.6136 29Z" fill="#582F91"/>
<path d="M26.1778 6.84279C25.1363 6.84279 24.2921 5.99851 24.2921 4.95707C24.2921 3.91561 25.1363 3.07135 26.1778 3.07135C27.2192 3.07135 28.0635 3.91561 28.0635 4.95707C28.0635 5.99851 27.2192 6.84279 26.1778 6.84279Z" fill="url(#paint0_linear_55_680)"/>
<path d="M26.1778 6.84279C25.1363 6.84279 24.2921 5.99851 24.2921 4.95707C24.2921 3.91561 25.1363 3.07135 26.1778 3.07135C27.2192 3.07135 28.0635 3.91561 28.0635 4.95707C28.0635 5.99851 27.2192 6.84279 26.1778 6.84279Z" fill="url(#paint1_radial_55_680)"/>
<path d="M26.1778 6.84279C25.1363 6.84279 24.2921 5.99851 24.2921 4.95707C24.2921 3.91561 25.1363 3.07135 26.1778 3.07135C27.2192 3.07135 28.0635 3.91561 28.0635 4.95707C28.0635 5.99851 27.2192 6.84279 26.1778 6.84279Z" fill="url(#paint2_radial_55_680)"/>
<path d="M25.7707 3.46985C25.5585 3.79343 25.8157 4.33771 26.3449 4.68271C26.8742 5.02771 27.4742 5.04914 27.6864 4.72557C27.8985 4.402 27.6414 3.85771 27.1121 3.51271C26.5828 3.16771 25.9828 3.14628 25.7707 3.46985Z" fill="url(#paint3_radial_55_680)"/>
<path d="M26.1778 6.84279C25.1363 6.84279 24.2921 5.99851 24.2921 4.95707C24.2921 3.91561 25.1363 3.07135 26.1778 3.07135C27.2192 3.07135 28.0635 3.91561 28.0635 4.95707C28.0635 5.99851 27.2192 6.84279 26.1778 6.84279Z" fill="url(#paint4_radial_55_680)"/>
<path d="M26.782 5.95145C27.247 5.70501 27.9306 4.93787 27.7485 3.91144C27.9478 4.21144 28.0656 4.56929 28.0656 4.95715C28.0656 5.99859 27.2213 6.84286 26.1799 6.84286C25.7128 6.84286 25.2842 6.67145 24.9542 6.39072C25.5778 5.95359 25.9249 6.40786 26.782 5.95145Z" fill="url(#paint5_linear_55_680)"/>
<path d="M26.1178 3.07355C26.09 3.07569 26.0643 3.07998 26.0364 3.08641C25.9914 3.09926 25.9464 3.11855 25.9036 3.14212C25.82 3.19141 25.7493 3.25783 25.685 3.33069C25.5607 3.47855 25.4728 3.65212 25.4064 3.83212C25.3721 3.92212 25.3443 4.01426 25.3207 4.10641C25.2971 4.19855 25.2778 4.29283 25.2628 4.38712C25.2478 4.48141 25.2371 4.57569 25.2286 4.67212C25.2221 4.76641 25.2178 4.86283 25.2178 4.95926C25.2178 5.05569 25.2221 5.14997 25.2286 5.24641C25.2371 5.34069 25.2457 5.43712 25.2628 5.53141C25.2778 5.62569 25.2971 5.71997 25.3207 5.8121C25.3443 5.90428 25.3721 5.99641 25.4064 6.08641C25.4728 6.26428 25.5628 6.43783 25.685 6.58783C25.7471 6.66069 25.82 6.7271 25.9036 6.77641C25.9443 6.79996 25.9893 6.81928 26.0364 6.8321C26.0621 6.83855 26.09 6.84283 26.1157 6.84496C25.4343 6.79783 24.8921 5.97283 24.8921 4.96141C24.8921 3.94569 25.4364 3.12069 26.1178 3.07355Z" fill="url(#paint6_radial_55_680)"/>
<path d="M29.3857 8.28061C28.6519 8.28061 28.0571 7.68579 28.0571 6.95206C28.0571 6.2183 28.6519 5.62347 29.3857 5.62347C30.1194 5.62347 30.7142 6.2183 30.7142 6.95206C30.7142 7.68579 30.1194 8.28061 29.3857 8.28061Z" fill="url(#paint7_linear_55_680)"/>
<path d="M29.3857 8.28061C28.6519 8.28061 28.0571 7.68579 28.0571 6.95206C28.0571 6.2183 28.6519 5.62347 29.3857 5.62347C30.1194 5.62347 30.7142 6.2183 30.7142 6.95206C30.7142 7.68579 30.1194 8.28061 29.3857 8.28061Z" fill="url(#paint8_radial_55_680)"/>
<path d="M29.3857 8.28061C28.6519 8.28061 28.0571 7.68579 28.0571 6.95206C28.0571 6.2183 28.6519 5.62347 29.3857 5.62347C30.1194 5.62347 30.7142 6.2183 30.7142 6.95206C30.7142 7.68579 30.1194 8.28061 29.3857 8.28061Z" fill="url(#paint9_radial_55_680)"/>
<path d="M29.0985 5.9063C28.9485 6.13344 29.1307 6.51702 29.5035 6.7613C29.8764 7.00557 30.3007 7.01844 30.4485 6.7913C30.5985 6.56416 30.4164 6.18057 30.0435 5.9363C29.6707 5.692 29.2485 5.67915 29.0985 5.9063Z" fill="url(#paint10_radial_55_680)"/>
<path d="M29.3857 8.28061C28.6519 8.28061 28.0571 7.68579 28.0571 6.95206C28.0571 6.2183 28.6519 5.62347 29.3857 5.62347C30.1194 5.62347 30.7142 6.2183 30.7142 6.95206C30.7142 7.68579 30.1194 8.28061 29.3857 8.28061Z" fill="url(#paint11_radial_55_680)"/>
<path d="M29.8121 7.65277C30.1399 7.47922 30.6199 6.93922 30.4914 6.2149C30.6328 6.42708 30.7142 6.6799 30.7142 6.95208C30.7142 7.6849 30.1185 8.28063 29.3857 8.28063C29.0557 8.28063 28.7535 8.16063 28.5221 7.96135C28.9614 7.6549 29.2078 7.97422 29.8121 7.65277Z" fill="url(#paint12_linear_55_680)"/>
<path d="M29.3428 5.62567C29.3235 5.62781 29.3042 5.62996 29.2871 5.63424C29.2549 5.64281 29.2228 5.65781 29.1949 5.67281C29.1371 5.7071 29.0856 5.75424 29.0406 5.80569C28.9528 5.91069 28.8906 6.03282 28.8435 6.15924C28.8199 6.22137 28.7985 6.28782 28.7835 6.3521C28.7663 6.41637 28.7535 6.48282 28.7428 6.54924C28.7321 6.61569 28.7256 6.6821 28.7192 6.75069C28.7149 6.8171 28.7128 6.88569 28.7106 6.9521C28.7106 7.01851 28.7128 7.0871 28.7192 7.15351C28.7256 7.21996 28.7321 7.28851 28.7428 7.35496C28.7535 7.42137 28.7685 7.48782 28.7835 7.5521C28.8006 7.61851 28.8199 7.68282 28.8435 7.74496C28.8906 7.87137 28.9528 7.99351 29.0406 8.09851C29.0856 8.14996 29.1349 8.1971 29.1949 8.23137C29.2249 8.24851 29.2549 8.26137 29.2871 8.26996C29.3063 8.27424 29.3235 8.27851 29.3428 8.27851C28.8628 8.24424 28.4792 7.66351 28.4792 6.9521C28.4792 6.24069 28.8628 5.65996 29.3428 5.62567Z" fill="url(#paint13_radial_55_680)"/>
<path d="M26.2142 9.92845C25.6225 9.92845 25.1428 9.44875 25.1428 8.85703C25.1428 8.26528 25.6225 7.78558 26.2142 7.78558C26.806 7.78558 27.2857 8.26528 27.2857 8.85703C27.2857 9.44875 26.806 9.92845 26.2142 9.92845Z" fill="url(#paint14_linear_55_680)"/>
<path d="M26.2142 9.92845C25.6225 9.92845 25.1428 9.44875 25.1428 8.85703C25.1428 8.26528 25.6225 7.78558 26.2142 7.78558C26.806 7.78558 27.2857 8.26528 27.2857 8.85703C27.2857 9.44875 26.806 9.92845 26.2142 9.92845Z" fill="url(#paint15_radial_55_680)"/>
<path d="M26.2142 9.92845C25.6225 9.92845 25.1428 9.44875 25.1428 8.85703C25.1428 8.26528 25.6225 7.78558 26.2142 7.78558C26.806 7.78558 27.2857 8.26528 27.2857 8.85703C27.2857 9.44875 26.806 9.92845 26.2142 9.92845Z" fill="url(#paint16_radial_55_680)"/>
<path d="M25.9828 8.01272C25.8628 8.197 26.0085 8.50558 26.3085 8.70272C26.6085 8.89986 26.9513 8.91058 27.0713 8.72627C27.1913 8.542 27.0456 8.23341 26.7456 8.03627C26.4456 7.83913 26.1028 7.82841 25.9828 8.01272Z" fill="url(#paint17_radial_55_680)"/>
<path d="M26.2142 9.92845C25.6225 9.92845 25.1428 9.44875 25.1428 8.85703C25.1428 8.26528 25.6225 7.78558 26.2142 7.78558C26.806 7.78558 27.2857 8.26528 27.2857 8.85703C27.2857 9.44875 26.806 9.92845 26.2142 9.92845Z" fill="url(#paint18_radial_55_680)"/>
<path d="M26.5571 9.4228C26.8207 9.28349 27.2086 8.84635 27.1057 8.26349C27.2192 8.4328 27.2857 8.63849 27.2857 8.85708C27.2857 9.44849 26.8057 9.92849 26.2142 9.92849C25.9485 9.92849 25.7042 9.83208 25.5178 9.67135C25.8735 9.4228 26.0707 9.68208 26.5571 9.4228Z" fill="url(#paint19_linear_55_680)"/>
<path d="M26.18 7.78778C26.165 7.78992 26.15 7.79206 26.135 7.79633C26.1093 7.80492 26.0835 7.81564 26.06 7.82851C26.0129 7.85633 25.9721 7.89492 25.9357 7.93564C25.865 8.01919 25.8157 8.11778 25.7771 8.22064C25.7579 8.27206 25.7407 8.32351 25.7279 8.37706C25.715 8.43064 25.7043 8.48206 25.6957 8.53564C25.6871 8.58919 25.6807 8.64278 25.6764 8.69633C25.6721 8.74992 25.67 8.80564 25.67 8.85919C25.67 8.91278 25.6721 8.96851 25.6764 9.02206C25.6807 9.07564 25.6871 9.12919 25.6957 9.18278C25.7043 9.23633 25.715 9.28992 25.7279 9.34133C25.7407 9.39492 25.7579 9.44633 25.7771 9.49778C25.8157 9.59851 25.865 9.69706 25.9357 9.78278C25.9721 9.82351 26.0129 9.86206 26.06 9.88992C26.0835 9.90278 26.1093 9.91351 26.135 9.92206C26.15 9.92633 26.165 9.92851 26.18 9.93064C25.7921 9.90278 25.4835 9.43564 25.4835 8.86133C25.4835 8.28278 25.7921 7.81351 26.18 7.78778Z" fill="url(#paint20_radial_55_680)"/>
<g clip-path="url(#clip4_55_680)">
<path d="M56.9724 47H57.4355C57.4355 46.0459 57.1974 45.5638 56.9671 45.0975C56.7508 44.6596 56.5466 44.246 56.5466 43.4001C56.5466 42.5542 56.7509 42.1406 56.9671 41.7027C57.1974 41.2364 57.4355 40.7543 57.4355 39.8002C57.4355 38.8461 57.1974 38.364 56.9671 37.8977C56.7509 37.4598 56.5466 37.0462 56.5466 36.2002C56.5466 35.3542 56.7509 34.9406 56.9671 34.5027C57.1974 34.0364 57.4355 33.5542 57.4355 32.6001C57.4355 31.646 57.1974 31.1638 56.9671 30.6975C56.7509 30.2596 56.5466 29.8459 56.5466 29H56.0834C56.0834 29.9541 56.3216 30.4363 56.5518 30.9026C56.7681 31.3405 56.9724 31.7542 56.9724 32.6001C56.9724 33.446 56.7681 33.8597 56.5518 34.2976C56.3216 34.7639 56.0834 35.2461 56.0834 36.2002C56.0834 37.1543 56.3216 37.6365 56.5518 38.1028C56.7681 38.5406 56.9724 38.9543 56.9724 39.8002C56.9724 40.6461 56.7681 41.0597 56.5518 41.4976C56.3216 41.9639 56.0834 42.446 56.0834 43.4001C56.0834 44.3541 56.3216 44.8363 56.5518 45.3026C56.7681 45.7404 56.9724 46.1541 56.9724 47Z" fill="#2C819E"/>
<path d="M57.2034 32.2211C58.4591 32.2211 59.477 31.2031 59.477 29.9474C58.2214 29.9474 57.2034 30.9653 57.2034 32.2211Z" fill="#2C819E"/>
<path d="M57.2034 39.0737C58.4591 39.0737 59.477 38.0557 59.477 36.8C58.2214 36.8 57.2034 37.8179 57.2034 39.0737Z" fill="#2C819E"/>
<path d="M56.4455 44.6631C57.7012 44.6631 58.7191 43.6452 58.7191 42.3895C57.4634 42.3895 56.4455 43.4074 56.4455 44.6631Z" fill="#2C819E"/>
<path d="M56.8244 34.1789C55.5687 34.1789 54.5508 33.161 54.5508 31.9053C55.8064 31.9052 56.8244 32.9232 56.8244 34.1789Z" fill="#2C819E"/>
<path d="M56.8244 41.0316C55.5687 41.0316 54.5508 40.0137 54.5508 38.7579C55.8064 38.7579 56.8244 39.7759 56.8244 41.0316Z" fill="#2C819E"/>
<path d="M62.692 47H63.1552C63.1552 46.0459 62.917 45.5638 62.6867 45.0975C62.4705 44.6596 62.2662 44.246 62.2662 43.4001C62.2662 42.5542 62.4705 42.1406 62.6867 41.7027C62.917 41.2364 63.1552 40.7543 63.1552 39.8002C63.1552 38.8461 62.917 38.364 62.6867 37.8977C62.4705 37.4598 62.2662 37.0462 62.2662 36.2002C62.2662 35.3543 62.4705 34.9406 62.6867 34.5027C62.917 34.0364 63.1552 33.5542 63.1552 32.6001H62.692C62.692 33.4461 62.4877 33.8597 62.2714 34.2976C62.0412 34.764 61.803 35.2461 61.803 36.2002C61.803 37.1543 62.0412 37.6365 62.2714 38.1028C62.4877 38.5406 62.692 38.9543 62.692 39.8002C62.692 40.6461 62.4877 41.0597 62.2714 41.4976C62.0412 41.9639 61.803 42.446 61.803 43.4001C61.803 44.3541 62.0412 44.8363 62.2714 45.3026C62.4877 45.7404 62.692 46.1541 62.692 47Z" fill="#2C819E"/>
<path d="M62.923 39.0737C64.1787 39.0737 65.1966 38.0557 65.1966 36.8C63.9409 36.8 62.923 37.8179 62.923 39.0737Z" fill="#2C819E"/>
<path d="M62.1304 44.5368C63.3862 44.5368 64.4041 43.5188 64.4041 42.2631C63.1484 42.2631 62.1304 43.2811 62.1304 44.5368Z" fill="#2C819E"/>
<path d="M62.544 34.1789C61.2883 34.1789 60.2703 33.161 60.2703 31.9053C61.5261 31.9052 62.544 32.9232 62.544 34.1789Z" fill="#2C819E"/>
<path d="M62.544 41.0316C61.2883 41.0316 60.2703 40.0137 60.2703 38.7579C61.5261 38.7579 62.544 39.7759 62.544 41.0316Z" fill="#2C819E"/>
<path d="M51.3513 47H51.8145C51.8145 46.046 51.5764 45.5638 51.3461 45.0975C51.1298 44.6596 50.9256 44.246 50.9256 43.4001C50.9256 42.5542 51.1299 42.1406 51.3461 41.7027C51.5764 41.2364 51.8145 40.7543 51.8145 39.8002C51.8145 38.8462 51.5764 38.364 51.3461 37.8977C51.1298 37.4598 50.9256 37.0462 50.9256 36.2003H50.4624C50.4624 37.1543 50.7005 37.6365 50.9308 38.1028C51.1471 38.5407 51.3513 38.9543 51.3513 39.8002C51.3513 40.6461 51.147 41.0597 50.9308 41.4976C50.7005 41.9639 50.4624 42.446 50.4624 43.4001C50.4624 44.3542 50.7005 44.8363 50.9308 45.3026C51.147 45.7405 51.3513 46.1541 51.3513 47Z" fill="#2C819E"/>
<path d="M51.5823 39.0737C52.8381 39.0737 53.856 38.0557 53.856 36.8C52.6003 36.8 51.5823 37.8179 51.5823 39.0737Z" fill="#2C819E"/>
<path d="M51.0139 44.7263C52.2697 44.7263 53.2876 43.7084 53.2876 42.4526C52.0319 42.4526 51.0139 43.4706 51.0139 44.7263Z" fill="#2C819E"/>
<path d="M51.077 41.7263C49.8213 41.7263 48.8034 40.7084 48.8034 39.4526C50.0591 39.4526 51.077 40.4706 51.077 41.7263Z" fill="#2C819E"/>
</g>
<g clip-path="url(#clip5_55_680)">
<path d="M6.52511 22.4217C7.35261 19.2839 4.96266 19.0189 7.72184 17.019C8.88329 18.8413 8.34753 21.2603 6.52511 22.4217Z" fill="#51CAF4"/>
<path d="M2.47297 16.0638C5.66672 16.6387 4.89777 18.917 7.87575 17.2605C6.71428 15.4381 4.29539 14.9023 2.47297 16.0638Z" fill="#51CAF4"/>
<path d="M25.4003 12.0978C25.0046 12.1899 24.6002 11.9831 24.4432 11.6084L23.855 10.2042C23.3608 9.02321 22.0868 8.37175 20.84 8.66206C20.84 8.66206 20.4682 8.74888 20.0037 8.85757C19.0758 9.07464 18.0929 8.95364 17.2648 8.48203C16.4332 8.00851 15.4082 7.89407 14.4596 8.24605C14.0162 8.41055 13.6313 8.65731 13.3132 8.96114C13.1759 9.09237 13.2409 9.32518 13.4276 9.36039C14.098 9.48683 14.7211 9.81861 15.2034 10.3169C11.9524 11.7471 9.1389 14.051 7.09145 16.9943C6.91355 17.2505 7.68287 17.8052 7.68287 17.8052L25.7286 13.6036C26.133 13.5095 26.4084 13.1175 26.333 12.7092C26.2525 12.2737 25.8264 11.9986 25.4003 12.0978Z" fill="#51CAF4"/>
<path d="M26.3256 12.6735C26.422 13.0877 26.1641 13.5022 25.7498 13.5987L10.4713 17.156C11.6276 15.8656 13.1622 14.9471 14.8788 14.5475L25.4003 12.0977C25.8146 12.0013 26.229 12.2587 26.3256 12.6735Z" fill="#85E1F9"/>
<path d="M23.1167 12.4905C23.3061 12.4465 23.4239 12.2572 23.3798 12.0678C23.3357 11.8784 23.1464 11.7607 22.9571 11.8047C22.7677 11.8488 22.6499 12.0381 22.694 12.2275C22.7381 12.4169 22.9274 12.5346 23.1167 12.4905Z" fill="#4D4D4D"/>
<path d="M16.6539 15.6667L15.8872 16.8988L15.8994 16.9064C16.7073 17.4091 17.7697 17.1618 18.2724 16.3539L19.0467 15.1096C18.2321 14.6027 17.1608 14.8521 16.6539 15.6667Z" fill="#51CAF4"/>
</g>
<g clip-path="url(#clip6_55_680)">
<path d="M33.9443 16.5H33.2527C32.4411 16.5 31.7831 15.8421 31.7831 15.0305H32.4747C33.2863 15.0305 33.9443 15.6884 33.9443 16.5Z" fill="#5394F2"/>
<path d="M33.9443 16.5H33.2527C32.4411 16.5 31.7831 17.158 31.7831 17.9696H32.4747C33.2863 17.9696 33.9443 17.3116 33.9443 16.5Z" fill="#5394F2"/>
<path d="M37.2169 16.5C37.2169 16.6025 37.2125 16.704 37.2037 16.8044H37.1906C37.0749 16.8044 36.9701 16.8513 36.8941 16.9272C36.8183 17.003 36.7713 17.1079 36.7713 17.2237H37.142C37.0185 17.8107 36.7481 18.3434 36.3709 18.7817C35.729 19.5276 34.7782 20 33.7169 20V13C34.7782 13 35.729 13.4724 36.3709 14.2183C36.8981 14.831 37.2169 15.6281 37.2169 16.5Z" fill="#3380DD"/>
<path d="M37.2169 16.5C37.2169 16.6026 37.2125 16.704 37.2037 16.8044H37.1906C37.0749 16.8044 36.9702 16.8513 36.8941 16.9272C36.8183 17.003 36.7713 17.108 36.7713 17.2237H37.142C37.0185 17.8107 36.7481 18.3434 36.3709 18.7817C35.8435 18.1691 35.5247 17.3719 35.5247 16.5C35.5247 15.6281 35.8435 14.831 36.3709 14.2184C36.8981 14.831 37.2169 15.6281 37.2169 16.5Z" fill="#5394F2"/>
<path d="M35.3592 18.1246H34.9475C34.4642 18.1246 34.0725 18.5163 34.0725 18.9995H34.4843C34.9675 18.9996 35.3592 18.6078 35.3592 18.1246Z" fill="#5394F2"/>
<path d="M36.2735 16.8869C36.4872 16.8869 36.6605 16.7137 36.6605 16.5C36.6605 16.2863 36.4872 16.1131 36.2735 16.1131C36.0599 16.1131 35.8866 16.2863 35.8866 16.5C35.8866 16.7137 36.0599 16.8869 36.2735 16.8869Z" fill="white"/>
<path d="M36.2736 16.7368C36.4043 16.7368 36.5103 16.6308 36.5103 16.5C36.5103 16.3693 36.4043 16.2633 36.2736 16.2633C36.1428 16.2633 36.0368 16.3693 36.0368 16.5C36.0368 16.6308 36.1428 16.7368 36.2736 16.7368Z" fill="#4D4D4D"/>
</g>
<g clip-path="url(#clip7_55_680)">
<path fill-rule="evenodd" clip-rule="evenodd" d="M44.7631 7.62823C44.7631 7.62823 46.1855 8.65529 45.0912 9.49399C43.9968 10.3327 44.7631 7.62823 44.7631 7.62823Z" fill="#FFDD95"/>
<path fill-rule="evenodd" clip-rule="evenodd" d="M41.083 8.82111L42.2448 7.18387L42.4163 7.42253L44.2678 6.15302L44.2523 6.8832L41.083 8.82111Z" fill="#FFDD95"/>
<path fill-rule="evenodd" clip-rule="evenodd" d="M46.6315 8.84375C46.6315 8.84375 45.1767 9.01075 44.7031 10.0983C44.7031 10.0983 44.7742 11.3201 46.1123 11.3311C45.6673 9.50346 46.6315 8.84375 46.6315 8.84375Z" fill="#FFDD95"/>
<path fill-rule="evenodd" clip-rule="evenodd" d="M40.2583 9.26719C40.2583 9.26719 42.3017 8.2109 42.853 7.48325C43.4042 6.75559 45.8407 6.45135 45.8407 6.45135C45.8407 6.45135 44.5623 7.51084 44.8511 9.11332C45.1398 10.7158 44.07 11.9582 44.07 11.9582C44.07 11.9582 42.6533 11.4674 42.0413 11.0353C41.4292 10.6032 40.2583 9.26719 40.2583 9.26719Z" fill="#FFAF40"/>
<path d="M41.5312 9.60938C41.7125 9.60938 41.8594 9.46247 41.8594 9.28125C41.8594 9.10003 41.7125 8.95312 41.5312 8.95312C41.35 8.95312 41.2031 9.10003 41.2031 9.28125C41.2031 9.46247 41.35 9.60938 41.5312 9.60938Z" fill="#595959"/>
<path fill-rule="evenodd" clip-rule="evenodd" d="M41.5312 10.2656C41.5312 10.2656 41.7636 10.8136 41.9696 11.3851C42.1756 11.9565 43.0494 12.4535 43.2514 12.2997C43.4534 12.1459 43.0282 11.6494 42.9271 11.1457C42.826 10.6419 41.5312 10.2656 41.5312 10.2656Z" fill="#FFDD95"/>
</g>
<defs>
<linearGradient id="paint0_linear_55_680" x1="27.8556" y1="2.3103" x2="21.075" y2="13.0114" gradientUnits="userSpaceOnUse">
<stop stop-color="#80DAFE" stop-opacity="0"/>
<stop offset="1" stop-color="#008EE6"/>
</linearGradient>
<radialGradient id="paint1_radial_55_680" cx="0" cy="0" r="1" gradientUnits="userSpaceOnUse" gradientTransform="translate(26.6938 3.33586) rotate(180) scale(4.41476)">
<stop offset="0.5839" stop-color="#FB9DC1" stop-opacity="0"/>
<stop offset="0.6244" stop-color="#F59EC3" stop-opacity="0.0730316"/>
<stop offset="0.6809" stop-color="#E2A0C8" stop-opacity="0.1749"/>
<stop offset="0.7469" stop-color="#C5A4D0" stop-opacity="0.2938"/>
<stop offset="0.82" stop-color="#9BAADB" stop-opacity="0.4256"/>
<stop offset="0.899" stop-color="#66B1E9" stop-opacity="0.568"/>
<stop offset="0.9818" stop-color="#26B9FA" stop-opacity="0.7172"/>
<stop offset="1" stop-color="#17BBFE" stop-opacity="0.75"/>
</radialGradient>
<radialGradient id="paint2_radial_55_680" cx="0" cy="0" r="1" gradientUnits="userSpaceOnUse" gradientTransform="translate(25.7995 4.98767) rotate(180) scale(4.90234)">
<stop stop-color="#D1F2FF" stop-opacity="0"/>
<stop offset="0.1913" stop-color="#CBF0FF" stop-opacity="0.1435"/>
<stop offset="0.458" stop-color="#B8EBFF" stop-opacity="0.3435"/>
<stop offset="0.7676" stop-color="#9BE2FE" stop-opacity="0.5757"/>
<stop offset="1" stop-color="#80DAFE" stop-opacity="0.75"/>
</radialGradient>
<radialGradient id="paint3_radial_55_680" cx="0" cy="0" r="1" gradientUnits="userSpaceOnUse" gradientTransform="translate(26.7282 4.09794) rotate(-146.75) scale(0.949515 0.631313)">
<stop stop-color="white"/>
<stop offset="1" stop-color="white" stop-opacity="0"/>
</radialGradient>
<radialGradient id="paint4_radial_55_680" cx="0" cy="0" r="1" gradientUnits="userSpaceOnUse" gradientTransform="translate(25.7995 4.98767) rotate(180) scale(4.90234)">
<stop stop-color="#D1F2FF" stop-opacity="0"/>
<stop offset="0.1913" stop-color="#CBF0FF" stop-opacity="0.1435"/>
<stop offset="0.458" stop-color="#B8EBFF" stop-opacity="0.3435"/>
<stop offset="0.7676" stop-color="#9BE2FE" stop-opacity="0.5757"/>
<stop offset="1" stop-color="#80DAFE" stop-opacity="0.75"/>
</radialGradient>
<linearGradient id="paint5_linear_55_680" x1="26.0879" y1="4.45053" x2="27.6906" y2="8.40552" gradientUnits="userSpaceOnUse">
<stop stop-color="#17BBFE" stop-opacity="0"/>
<stop offset="1" stop-color="#17BBFE" stop-opacity="0.75"/>
</linearGradient>
<radialGradient id="paint6_radial_55_680" cx="0" cy="0" r="1" gradientUnits="userSpaceOnUse" gradientTransform="translate(25.2482 4.0141) rotate(-178.558) scale(1.40029 0.586312)">
<stop stop-color="white"/>
<stop offset="1" stop-color="white" stop-opacity="0"/>
</radialGradient>
<linearGradient id="paint7_linear_55_680" x1="30.5673" y1="5.08852" x2="25.7901" y2="12.6279" gradientUnits="userSpaceOnUse">
<stop stop-color="#80DAFE" stop-opacity="0"/>
<stop offset="1" stop-color="#008EE6"/>
</linearGradient>
<radialGradient id="paint8_radial_55_680" cx="0" cy="0" r="1" gradientUnits="userSpaceOnUse" gradientTransform="translate(29.7488 5.81105) rotate(180) scale(3.1104)">
<stop offset="0.5839" stop-color="#FB9DC1" stop-opacity="0"/>
<stop offset="0.6244" stop-color="#F59EC3" stop-opacity="0.0730316"/>
<stop offset="0.6809" stop-color="#E2A0C8" stop-opacity="0.1749"/>
<stop offset="0.7469" stop-color="#C5A4D0" stop-opacity="0.2938"/>
<stop offset="0.82" stop-color="#9BAADB" stop-opacity="0.4256"/>
<stop offset="0.899" stop-color="#66B1E9" stop-opacity="0.568"/>
<stop offset="0.9818" stop-color="#26B9FA" stop-opacity="0.7172"/>
<stop offset="1" stop-color="#17BBFE" stop-opacity="0.75"/>
</radialGradient>
<radialGradient id="paint9_radial_55_680" cx="0" cy="0" r="1" gradientUnits="userSpaceOnUse" gradientTransform="translate(29.1187 6.97482) rotate(180) scale(3.45391)">
<stop stop-color="#D1F2FF" stop-opacity="0"/>
<stop offset="0.1913" stop-color="#CBF0FF" stop-opacity="0.1435"/>
<stop offset="0.458" stop-color="#B8EBFF" stop-opacity="0.3435"/>
<stop offset="0.7676" stop-color="#9BE2FE" stop-opacity="0.5757"/>
<stop offset="1" stop-color="#80DAFE" stop-opacity="0.75"/>
</radialGradient>
<radialGradient id="paint10_radial_55_680" cx="0" cy="0" r="1" gradientUnits="userSpaceOnUse" gradientTransform="translate(29.773 6.3479) rotate(-146.75) scale(0.668978 0.444791)">
<stop stop-color="white"/>
<stop offset="1" stop-color="white" stop-opacity="0"/>
</radialGradient>
<radialGradient id="paint11_radial_55_680" cx="0" cy="0" r="1" gradientUnits="userSpaceOnUse" gradientTransform="translate(29.1187 6.97482) rotate(180) scale(3.45391)">
<stop stop-color="#D1F2FF" stop-opacity="0"/>
<stop offset="0.1913" stop-color="#CBF0FF" stop-opacity="0.1435"/>
<stop offset="0.458" stop-color="#B8EBFF" stop-opacity="0.3435"/>
<stop offset="0.7676" stop-color="#9BE2FE" stop-opacity="0.5757"/>
<stop offset="1" stop-color="#80DAFE" stop-opacity="0.75"/>
</radialGradient>
<linearGradient id="paint12_linear_55_680" x1="29.3219" y1="6.59635" x2="30.4511" y2="9.38283" gradientUnits="userSpaceOnUse">
<stop stop-color="#17BBFE" stop-opacity="0"/>
<stop offset="1" stop-color="#17BBFE" stop-opacity="0.75"/>
</linearGradient>
<radialGradient id="paint13_radial_55_680" cx="0" cy="0" r="1" gradientUnits="userSpaceOnUse" gradientTransform="translate(28.7303 6.28906) rotate(-178.558) scale(0.986569 0.413085)">
<stop stop-color="white"/>
<stop offset="1" stop-color="white" stop-opacity="0"/>
</radialGradient>
<linearGradient id="paint14_linear_55_680" x1="27.1678" y1="7.35358" x2="23.3152" y2="13.4337" gradientUnits="userSpaceOnUse">
<stop stop-color="#80DAFE" stop-opacity="0"/>
<stop offset="1" stop-color="#008EE6"/>
</linearGradient>
<radialGradient id="paint15_radial_55_680" cx="0" cy="0" r="1" gradientUnits="userSpaceOnUse" gradientTransform="translate(26.5078 7.93641) rotate(180) scale(2.50842)">
<stop offset="0.5839" stop-color="#FB9DC1" stop-opacity="0"/>
<stop offset="0.6244" stop-color="#F59EC3" stop-opacity="0.0730316"/>
<stop offset="0.6809" stop-color="#E2A0C8" stop-opacity="0.1749"/>
<stop offset="0.7469" stop-color="#C5A4D0" stop-opacity="0.2938"/>
<stop offset="0.82" stop-color="#9BAADB" stop-opacity="0.4256"/>
<stop offset="0.899" stop-color="#66B1E9" stop-opacity="0.568"/>
<stop offset="0.9818" stop-color="#26B9FA" stop-opacity="0.7172"/>
<stop offset="1" stop-color="#17BBFE" stop-opacity="0.75"/>
</radialGradient>
<radialGradient id="paint16_radial_55_680" cx="0" cy="0" r="1" gradientUnits="userSpaceOnUse" gradientTransform="translate(25.9996 8.87496) rotate(180) scale(2.78544)">
<stop stop-color="#D1F2FF" stop-opacity="0"/>
<stop offset="0.1913" stop-color="#CBF0FF" stop-opacity="0.1435"/>
<stop offset="0.458" stop-color="#B8EBFF" stop-opacity="0.3435"/>
<stop offset="0.7676" stop-color="#9BE2FE" stop-opacity="0.5757"/>
<stop offset="1" stop-color="#80DAFE" stop-opacity="0.75"/>
</radialGradient>
<radialGradient id="paint17_radial_55_680" cx="0" cy="0" r="1" gradientUnits="userSpaceOnUse" gradientTransform="translate(26.5245 8.37238) rotate(-146.754) scale(0.539479 0.358667)">
<stop stop-color="white"/>
<stop offset="1" stop-color="white" stop-opacity="0"/>
</radialGradient>
<radialGradient id="paint18_radial_55_680" cx="0" cy="0" r="1" gradientUnits="userSpaceOnUse" gradientTransform="translate(25.9996 8.87496) rotate(180) scale(2.78544)">
<stop stop-color="#D1F2FF" stop-opacity="0"/>
<stop offset="0.1913" stop-color="#CBF0FF" stop-opacity="0.1435"/>
<stop offset="0.458" stop-color="#B8EBFF" stop-opacity="0.3435"/>
<stop offset="0.7676" stop-color="#9BE2FE" stop-opacity="0.5757"/>
<stop offset="1" stop-color="#80DAFE" stop-opacity="0.75"/>
</radialGradient>
<linearGradient id="paint19_linear_55_680" x1="26.1635" y1="8.5696" x2="27.0741" y2="10.8168" gradientUnits="userSpaceOnUse">
<stop stop-color="#17BBFE" stop-opacity="0"/>
<stop offset="1" stop-color="#17BBFE" stop-opacity="0.75"/>
</linearGradient>
<radialGradient id="paint20_radial_55_680" cx="0" cy="0" r="1" gradientUnits="userSpaceOnUse" gradientTransform="translate(25.6868 8.32062) rotate(-178.558) scale(0.795573 0.333133)">
<stop stop-color="white"/>
<stop offset="1" stop-color="white" stop-opacity="0"/>
</radialGradient>
<clipPath id="clip0_55_680">
<rect width="22" height="24" fill="white" transform="translate(8 23)"/>
</clipPath>
<clipPath id="clip1_55_680">
<rect width="21" height="21" fill="white" transform="matrix(-1 0 0 1 37 27)"/>
</clipPath>
<clipPath id="clip2_55_680">
<rect width="20" height="20" fill="white" transform="matrix(-1 0 0 1 53 27)"/>
</clipPath>
<clipPath id="clip3_55_680">
<rect width="8" height="8" fill="white" transform="matrix(-1 0 0 1 53 38)"/>
</clipPath>
<clipPath id="clip4_55_680">
<rect width="18" height="18" fill="white" transform="matrix(-1 0 0 1 66 29)"/>
</clipPath>
<clipPath id="clip5_55_680">
<rect width="24" height="24" fill="white" transform="translate(0 5.44232) rotate(-13.1066)"/>
</clipPath>
<clipPath id="clip6_55_680">
<rect width="7" height="7" fill="white" transform="translate(31 13)"/>
</clipPath>
<clipPath id="clip7_55_680">
<rect width="7" height="7" fill="white" transform="translate(40 6)"/>
</clipPath>
</defs>
</svg>
