<svg width="52" height="46" viewBox="0 0 52 46" fill="none" xmlns="http://www.w3.org/2000/svg">
<g clip-path="url(#clip0_55_679)">
<path d="M35.8355 28.1503C35.3239 28.1503 34.9091 27.6979 34.9091 27.1397C34.9091 26.5816 35.3239 26.1292 35.8355 26.1292C36.3471 26.1292 36.7619 26.5816 36.7619 27.1397C36.7619 27.6979 36.3471 28.1503 35.8355 28.1503Z" fill="#61ACD2"/>
<path d="M33.4083 23.4411C32.8967 23.4411 32.4819 22.9887 32.4819 22.4306C32.4819 21.8724 32.8967 21.42 33.4083 21.42C33.9199 21.42 34.3347 21.8724 34.3347 22.4306C34.3347 22.9887 33.9199 23.4411 33.4083 23.4411Z" fill="#61ACD2"/>
<path d="M33.8517 40.3681C34.0644 40.3681 34.2368 40.18 34.2368 39.948C34.2368 38.9264 34.5597 38.4409 34.9336 37.8789C35.3291 37.2844 35.7773 36.6105 35.7773 35.3162C35.7773 34.0219 35.329 33.348 34.9336 32.7535C34.5597 32.1914 34.2368 31.7059 34.2368 30.6843C34.2368 30.4523 34.0644 30.2642 33.8517 30.2642C33.639 30.2642 33.4666 30.4523 33.4666 30.6843C33.4666 31.9786 33.9148 32.6525 34.3102 33.247C34.6841 33.8091 35.007 34.2946 35.007 35.3162C35.007 36.3378 34.6841 36.8233 34.3102 37.3854C33.9147 37.9798 33.4666 38.6536 33.4666 39.948C33.4666 40.1801 33.639 40.3681 33.8517 40.3681Z" fill="#6ABE71"/>
<path d="M38.5558 40.3681C38.7685 40.3681 38.9409 40.18 38.9409 39.948C38.9409 38.9264 39.2638 38.441 39.6377 37.8789C40.0332 37.2844 40.4814 36.6105 40.4814 35.3162C40.4814 34.0219 40.0331 33.348 39.6377 32.7535C39.2638 32.1914 38.9409 31.7059 38.9409 30.6843C38.9409 29.6627 39.2638 29.1771 39.6377 28.615C40.0332 28.0205 40.4814 27.3466 40.4814 26.0522C40.4814 25.8202 40.309 25.6321 40.0963 25.6321C39.8836 25.6321 39.7111 25.8202 39.7111 26.0522C39.7111 27.0739 39.3882 27.5594 39.0143 28.1215C38.6189 28.716 38.1707 29.3899 38.1707 30.6843C38.1707 31.9786 38.6189 32.6525 39.0143 33.247C39.3882 33.8091 39.7111 34.2946 39.7111 35.3162C39.7111 36.3378 39.3882 36.8233 39.0143 37.3854C38.6189 37.9798 38.1707 38.6537 38.1707 39.948C38.1707 40.1801 38.3431 40.3681 38.5558 40.3681Z" fill="#6ABE71"/>
<path d="M43.6132 40.3681C43.8259 40.3681 43.9983 40.18 43.9983 39.948C43.9983 38.9264 44.3212 38.441 44.6951 37.8789C45.0906 37.2844 45.5388 36.6105 45.5388 35.3162C45.5388 34.0219 45.0905 33.348 44.6951 32.7535C44.3212 32.1914 43.9983 31.7059 43.9983 30.6843C43.9983 29.6627 44.3212 29.1771 44.6951 28.615C45.0906 28.0205 45.5388 27.3466 45.5388 26.0522C45.5388 24.7578 45.0905 24.0839 44.6951 23.4894C44.3212 22.9273 43.9983 22.4417 43.9983 21.4201C43.9983 21.188 43.8259 20.9999 43.6132 20.9999C43.4005 20.9999 43.228 21.188 43.228 21.4201C43.228 22.7144 43.6763 23.3884 44.0717 23.9829C44.4456 24.545 44.7685 25.0305 44.7685 26.0522C44.7685 27.0738 44.4456 27.5593 44.0717 28.1215C43.6762 28.716 43.228 29.3899 43.228 30.6843C43.228 31.9786 43.6763 32.6525 44.0717 33.247C44.4456 33.8091 44.7685 34.2946 44.7685 35.3162C44.7685 36.3378 44.4456 36.8233 44.0717 37.3853C43.6762 37.9798 43.228 38.6536 43.228 39.9479C43.228 40.1801 43.4004 40.3681 43.6132 40.3681Z" fill="#6ABE71"/>
<path d="M33.2936 45H39.1335C40.2359 45 41.4387 44.4056 42.4336 43.3693C43.4133 42.3487 43.9983 41.0697 43.9983 39.9481C43.9983 39.7161 43.8259 39.528 43.6132 39.528C43.4005 39.528 43.228 39.7161 43.228 39.9481C43.228 41.8768 41.0086 44.1598 39.1335 44.1598H33.2936C33.0809 44.1598 32.9084 44.3479 32.9084 44.58C32.9084 44.812 33.0809 45 33.2936 45Z" fill="#6ABE71"/>
<path d="M28.814 40.3681C29.0267 40.3681 29.1991 40.18 29.1991 39.948C29.1991 38.9264 29.522 38.441 29.8959 37.8789C30.2914 37.2844 30.7396 36.6105 30.7396 35.3162C30.7396 34.0219 30.2913 33.348 29.8959 32.7535C29.522 32.1914 29.1991 31.7059 29.1991 30.6843C29.1991 29.6627 29.522 29.1771 29.8959 28.615C30.2914 28.0205 30.7396 27.3466 30.7396 26.0522C30.7396 24.7578 30.2913 24.0839 29.8959 23.4894C29.522 22.9273 29.1991 22.4417 29.1991 21.4201C29.1991 21.188 29.0267 20.9999 28.814 20.9999C28.6013 20.9999 28.4288 21.188 28.4288 21.4201C28.4288 22.7144 28.8771 23.3884 29.2725 23.9829C29.6464 24.545 29.9693 25.0305 29.9693 26.0522C29.9693 27.0738 29.6464 27.5593 29.2725 28.1215C28.877 28.716 28.4288 29.3899 28.4288 30.6843C28.4288 31.9786 28.8771 32.6525 29.2725 33.247C29.6464 33.8091 29.9693 34.2946 29.9693 35.3162C29.9693 36.3378 29.6464 36.8233 29.2725 37.3853C28.877 37.9798 28.4288 38.6536 28.4288 39.9479C28.4288 40.1801 28.6013 40.3681 28.814 40.3681Z" fill="#6ABE71"/>
<path d="M33.2936 45C33.5063 45 33.6787 44.8119 33.6787 44.5798C33.6787 44.3478 33.5063 44.1597 33.2936 44.1597C31.4185 44.1597 29.1991 41.8767 29.1991 39.948C29.1991 39.7159 29.0266 39.5278 28.8139 39.5278C28.6013 39.5278 28.4288 39.7159 28.4288 39.948C28.4288 41.0696 29.0137 42.3486 29.9935 43.3692C30.9884 44.4056 32.1912 45 33.2936 45Z" fill="#6ABE71"/>
<path d="M36.2037 45C36.4164 45 36.5889 44.8118 36.5889 44.5798C36.5889 44.3478 36.4164 44.1597 36.2037 44.1597C34.9814 44.1597 34.2517 42.6052 34.2517 40.0014C34.2517 39.7694 34.0793 39.5813 33.8666 39.5813C33.6539 39.5813 33.4815 39.7694 33.4815 40.0014C33.4815 41.7694 33.7814 43.0996 34.3731 43.9553C35.0016 44.8643 35.7899 45 36.2037 45Z" fill="#6ABE71"/>
<path d="M36.2038 45C36.6177 45 37.4058 44.8643 38.0344 43.9553C38.626 43.0996 38.926 41.7694 38.926 40.0014C38.926 39.7694 38.7536 39.5813 38.5409 39.5813C38.3282 39.5813 38.1557 39.7694 38.1557 40.0014C38.1557 42.6052 37.426 44.1597 36.2037 44.1597C35.991 44.1597 35.8186 44.3478 35.8186 44.5798C35.8186 44.8118 35.9911 45 36.2038 45Z" fill="#6ABE71"/>
<path d="M42.0303 40.4311H45.196C45.4087 40.4311 45.5811 40.243 45.5811 40.011C45.5811 39.7789 45.4087 39.5908 45.196 39.5908H42.0303C41.8176 39.5908 41.6451 39.7789 41.6451 40.011C41.6451 40.243 41.8175 40.4311 42.0303 40.4311Z" fill="#3B804B"/>
<path d="M43.5383 35.7362H46.7689C46.9816 35.7362 47.154 35.548 47.154 35.316C47.154 35.084 46.9816 34.8959 46.7689 34.8959H43.5382C43.3255 34.8959 43.1531 35.084 43.1531 35.316C43.1531 35.548 43.3256 35.7362 43.5383 35.7362Z" fill="#3B804B"/>
<path d="M41.9329 31.1039H45.2933C45.506 31.1039 45.6784 30.9158 45.6784 30.6838C45.6784 30.4517 45.506 30.2636 45.2933 30.2636H41.9329C41.7202 30.2636 41.5478 30.4517 41.5478 30.6838C41.5478 30.9158 41.7202 31.1039 41.9329 31.1039Z" fill="#3B804B"/>
<path d="M43.441 26.4724H46.8662C47.0789 26.4724 47.2513 26.2843 47.2513 26.0522C47.2513 25.8202 47.0789 25.6321 46.8662 25.6321H43.441C43.2283 25.6321 43.0558 25.8202 43.0558 26.0522C43.0558 26.2843 43.2283 26.4724 43.441 26.4724Z" fill="#3B804B"/>
<path d="M32.2688 40.4311H35.4345C35.6472 40.4311 35.8196 40.243 35.8196 40.011C35.8196 39.7789 35.6472 39.5908 35.4345 39.5908H32.2688C32.0561 39.5908 31.8837 39.7789 31.8837 40.011C31.8837 40.243 32.0561 40.4311 32.2688 40.4311Z" fill="#3B804B"/>
<path d="M33.7769 35.7362H37.0075C37.2202 35.7362 37.3926 35.548 37.3926 35.316C37.3926 35.084 37.2202 34.8959 37.0075 34.8959H33.7769C33.5642 34.8959 33.3917 35.084 33.3917 35.316C33.3917 35.548 33.5642 35.7362 33.7769 35.7362Z" fill="#3B804B"/>
<path d="M36.9729 40.4311H40.1386C40.3513 40.4311 40.5238 40.243 40.5238 40.011C40.5238 39.7789 40.3513 39.5908 40.1386 39.5908H36.9729C36.7602 39.5908 36.5878 39.7789 36.5878 40.011C36.5878 40.243 36.7602 40.4311 36.9729 40.4311Z" fill="#3B804B"/>
<path d="M38.481 35.7362H41.7116C41.9243 35.7362 42.0967 35.548 42.0967 35.316C42.0967 35.084 41.9243 34.8959 41.7116 34.8959H38.481C38.2683 34.8959 38.0958 35.084 38.0958 35.316C38.0958 35.548 38.2683 35.7362 38.481 35.7362Z" fill="#3B804B"/>
<path d="M36.8756 31.1039H40.236C40.4487 31.1039 40.6211 30.9158 40.6211 30.6838C40.6211 30.4517 40.4487 30.2636 40.236 30.2636H36.8756C36.6629 30.2636 36.4905 30.4517 36.4905 30.6838C36.4905 30.9158 36.6629 31.1039 36.8756 31.1039Z" fill="#3B804B"/>
<path d="M27.231 40.4311H30.3968C30.6095 40.4311 30.7819 40.243 30.7819 40.011C30.7819 39.7789 30.6095 39.5908 30.3968 39.5908H27.231C27.0183 39.5908 26.8459 39.7789 26.8459 40.011C26.8459 40.243 27.0183 40.4311 27.231 40.4311Z" fill="#3B804B"/>
<path d="M28.7391 35.7362H31.9697C32.1824 35.7362 32.3548 35.548 32.3548 35.316C32.3548 35.084 32.1824 34.8959 31.9697 34.8959H28.7391C28.5264 34.8959 28.354 35.084 28.354 35.316C28.354 35.548 28.5264 35.7362 28.7391 35.7362Z" fill="#3B804B"/>
<path d="M27.1338 31.1039H30.4941C30.7068 31.1039 30.8793 30.9158 30.8793 30.6838C30.8793 30.4517 30.7068 30.2636 30.4941 30.2636H27.1338C26.9211 30.2636 26.7486 30.4517 26.7486 30.6838C26.7486 30.9158 26.9211 31.1039 27.1338 31.1039Z" fill="#3B804B"/>
<path d="M27.3284 40.4311H30.4941C30.7068 40.4311 30.8793 40.243 30.8793 40.011C30.8793 39.7789 30.7068 39.5908 30.4941 39.5908H27.3284C27.1157 39.5908 26.9432 39.7789 26.9432 40.011C26.9432 40.243 27.1157 40.4311 27.3284 40.4311Z" fill="#3B804B"/>
<path d="M28.8364 35.7362H32.067C32.2797 35.7362 32.4522 35.548 32.4522 35.316C32.4522 35.084 32.2797 34.8959 32.067 34.8959H28.8364C28.6237 34.8959 28.4513 35.084 28.4513 35.316C28.4513 35.548 28.6237 35.7362 28.8364 35.7362Z" fill="#3B804B"/>
</g>
<path d="M40 35.6014C40 36.2038 39.5142 36.6921 38.915 36.6921H28.5593H27.8743V38.7514H36.9296C37.5239 38.7514 38.0301 39.216 38.0512 39.813C38.0733 40.4398 37.5744 40.9549 36.9559 40.9549H27.8742V43.6633C27.8742 44.2607 27.4121 44.7694 26.8182 44.7907C26.1946 44.8129 25.6822 44.3114 25.6822 43.6897V36.6921H21.2161C20.0775 36.6921 19.1545 35.7643 19.1545 34.6197V30.2456H16.0617C14.923 30.2456 14 29.3178 14 28.1732V23.6286C14 23.0312 14.4621 22.5225 15.056 22.5012C15.6796 22.479 16.192 22.9805 16.192 23.6022V28.0422H18.0006V23.6286C18.0006 23.0312 18.4627 22.5225 19.0567 22.5012C19.6802 22.479 20.1926 22.9805 20.1926 23.6022V28.0422H21.6972V26.96C21.6972 25.8548 22.5625 24.9488 23.6479 24.8907V21.2415C23.6479 20.6441 24.1101 20.1354 24.704 20.1141C25.3275 20.0919 25.84 20.5933 25.84 21.2151V25.0187C25.84 26.124 24.9747 27.03 23.8892 27.0881V28.1732C23.8892 29.3177 22.9662 30.2456 21.8275 30.2456H21.3464V34.4887H24.0281V33.2722C24.0281 32.6749 24.4902 32.1661 25.0842 32.1449C25.7077 32.1226 26.2202 32.6241 26.2202 33.2459V34.4887H27.7436H27.8695V21.2415C27.8695 20.6441 28.3316 20.1354 28.9256 20.1141C29.5491 20.0919 30.0615 20.5933 30.0615 21.2151V34.4887H35.6132V30.1177H33.9006C32.762 30.1177 31.8389 29.1899 31.8389 28.0453V26.1436C31.8389 25.5462 32.301 25.0375 32.895 25.0162C33.5185 24.994 34.0309 25.4955 34.0309 26.1172V27.9142H35.6132V24.1402C35.6132 23.5428 36.0753 23.0341 36.6693 23.0128C37.2928 22.9905 37.8052 23.492 37.8052 24.1138V34.4886H38.915C39.5142 34.4886 40 34.977 40 35.5793V35.6014Z" fill="#4EA963"/>
<path d="M35.6132 30.0641H36.3109V34.4125H35.6132V30.0641Z" fill="#408A51"/>
<path d="M18.6984 23.6084V27.9991H18.0007V23.6084C18.0007 23.0141 18.4629 22.508 19.0568 22.4869C19.1934 22.482 19.3241 22.5035 19.4459 22.5444C19.008 22.6952 18.6984 23.1221 18.6984 23.6084Z" fill="#408A51"/>
<path d="M24.726 33.2021V34.4122H24.0284V33.2021C24.0284 32.6078 24.4905 32.1016 25.0844 32.0805C25.2211 32.0756 25.3518 32.0971 25.4735 32.1381C25.0357 32.2889 24.726 32.7158 24.726 33.2021Z" fill="#408A51"/>
<path d="M28.5674 21.2336V34.4123H28.4414H27.8697V21.2336C27.8697 20.6393 28.3319 20.1332 28.9258 20.1121C29.0624 20.1072 29.1932 20.1287 29.3149 20.1696C28.8771 20.3204 28.5674 20.7472 28.5674 21.2336Z" fill="#408A51"/>
<path d="M24.3456 21.2336V24.8639C23.2602 24.9217 22.3949 25.823 22.3949 26.9225V27.999H21.6973V26.9225C21.6973 25.823 22.5626 24.9216 23.648 24.8639V21.2336C23.648 20.6393 24.1101 20.1332 24.7041 20.1121C24.8407 20.1072 24.9714 20.1287 25.0932 20.1696C24.6553 20.3204 24.3456 20.7472 24.3456 21.2336Z" fill="#408A51"/>
<path d="M19.8522 34.5426C19.8522 35.6812 20.7752 36.6042 21.9138 36.6042H21.2161C20.0775 36.6042 19.1545 35.6812 19.1545 34.5426V30.1911H19.8522V34.5426Z" fill="#408A51"/>
<path d="M15.0562 22.4868C15.1928 22.482 15.3235 22.5034 15.4453 22.5444C15.0074 22.6951 14.6977 23.122 14.6977 23.6084V28.1294C14.6977 29.268 15.6207 30.1911 16.7594 30.1911H16.0617C14.9231 30.1911 14.0001 29.2681 14.0001 28.1294V23.6084C14.0001 23.0141 14.4622 22.5079 15.0562 22.4868Z" fill="#408A51"/>
<path d="M32.5366 26.1105V28.0022C32.5366 29.1409 33.4596 30.0639 34.5983 30.0639H33.9007C32.7621 30.0639 31.839 29.1409 31.839 28.0022V26.1105C31.839 25.5162 32.3011 25.01 32.895 24.9889C33.0317 24.984 33.1624 25.0055 33.2842 25.0464C32.8464 25.1972 32.5366 25.6241 32.5366 26.1105Z" fill="#408A51"/>
<path d="M36.3109 24.1173V27.8719H35.6132V24.1173C35.6132 23.5231 36.0753 23.0169 36.6693 22.9958C36.8059 22.9909 36.9366 23.0124 37.0584 23.0533C36.6205 23.2041 36.3109 23.631 36.3109 24.1173Z" fill="#408A51"/>
<path d="M26.3798 43.5656C26.3798 44.0486 26.6928 44.4573 27.1267 44.6033C27.0295 44.6368 26.9261 44.657 26.8182 44.6609C26.1946 44.683 25.6822 44.1841 25.6822 43.5656V36.6042H26.3798V43.5656Z" fill="#408A51"/>
<path d="M40 35.6014C40 36.2038 39.5142 36.6921 38.915 36.6921H28.5593H27.8743V38.7514H36.9296C37.5239 38.7514 38.0301 39.216 38.0512 39.813C38.0733 40.4398 37.5744 40.9549 36.9559 40.9549H27.8742V43.6633C27.8742 44.2607 27.4121 44.7694 26.8182 44.7907C26.1946 44.8129 25.6822 44.3114 25.6822 43.6897V36.6921H21.2161C20.0775 36.6921 19.1545 35.7643 19.1545 34.6197V30.2456H16.0617C14.923 30.2456 14 29.3178 14 28.1732V23.6286C14 23.0312 14.4621 22.5225 15.056 22.5012C15.6796 22.479 16.192 22.9805 16.192 23.6022V28.0422H18.0006V23.6286C18.0006 23.0312 18.4627 22.5225 19.0567 22.5012C19.6802 22.479 20.1926 22.9805 20.1926 23.6022V28.0422H21.6972V26.96C21.6972 25.8548 22.5625 24.9488 23.6479 24.8907V21.2415C23.6479 20.6441 24.1101 20.1354 24.704 20.1141C25.3275 20.0919 25.84 20.5933 25.84 21.2151V25.0187C25.84 26.124 24.9747 27.03 23.8892 27.0881V28.1732C23.8892 29.3177 22.9662 30.2456 21.8275 30.2456H21.3464V34.4887H24.0281V33.2722C24.0281 32.6749 24.4902 32.1661 25.0842 32.1449C25.7077 32.1226 26.2202 32.6241 26.2202 33.2459V34.4887H27.7436H27.8695V21.2415C27.8695 20.6441 28.3316 20.1354 28.9256 20.1141C29.5491 20.0919 30.0615 20.5933 30.0615 21.2151V34.4887H35.6132V30.1177H33.9006C32.762 30.1177 31.8389 29.1899 31.8389 28.0453V26.1436C31.8389 25.5462 32.301 25.0375 32.895 25.0162C33.5185 24.994 34.0309 25.4955 34.0309 26.1172V27.9142H35.6132V24.1402C35.6132 23.5428 36.0753 23.0341 36.6693 23.0128C37.2928 22.9905 37.8052 23.492 37.8052 24.1138V34.4886H38.915C39.5142 34.4886 40 34.977 40 35.5793V35.6014Z" fill="#4EA963"/>
<path d="M35.6132 30.0641H36.3109V34.4125H35.6132V30.0641Z" fill="#408A51"/>
<path d="M18.6984 23.6084V27.9991H18.0007V23.6084C18.0007 23.0141 18.4629 22.508 19.0568 22.4869C19.1934 22.482 19.3241 22.5035 19.4459 22.5444C19.008 22.6952 18.6984 23.1221 18.6984 23.6084Z" fill="#408A51"/>
<path d="M24.726 33.2021V34.4122H24.0284V33.2021C24.0284 32.6078 24.4905 32.1016 25.0844 32.0805C25.2211 32.0756 25.3518 32.0971 25.4735 32.1381C25.0357 32.2889 24.726 32.7158 24.726 33.2021Z" fill="#408A51"/>
<path d="M28.5674 21.2336V34.4123H28.4414H27.8697V21.2336C27.8697 20.6393 28.3319 20.1332 28.9258 20.1121C29.0624 20.1072 29.1932 20.1287 29.3149 20.1696C28.8771 20.3204 28.5674 20.7472 28.5674 21.2336Z" fill="#408A51"/>
<path d="M24.3456 21.2336V24.8639C23.2602 24.9217 22.3949 25.823 22.3949 26.9225V27.999H21.6973V26.9225C21.6973 25.823 22.5626 24.9216 23.648 24.8639V21.2336C23.648 20.6393 24.1101 20.1332 24.7041 20.1121C24.8407 20.1072 24.9714 20.1287 25.0932 20.1696C24.6553 20.3204 24.3456 20.7472 24.3456 21.2336Z" fill="#408A51"/>
<path d="M19.8522 34.5426C19.8522 35.6812 20.7752 36.6042 21.9138 36.6042H21.2161C20.0775 36.6042 19.1545 35.6812 19.1545 34.5426V30.1911H19.8522V34.5426Z" fill="#408A51"/>
<path d="M15.0562 22.4868C15.1928 22.482 15.3235 22.5034 15.4453 22.5444C15.0074 22.6951 14.6977 23.122 14.6977 23.6084V28.1294C14.6977 29.268 15.6207 30.1911 16.7594 30.1911H16.0617C14.9231 30.1911 14.0001 29.2681 14.0001 28.1294V23.6084C14.0001 23.0141 14.4622 22.5079 15.0562 22.4868Z" fill="#408A51"/>
<path d="M32.5366 26.1105V28.0022C32.5366 29.1409 33.4596 30.0639 34.5983 30.0639H33.9007C32.7621 30.0639 31.839 29.1409 31.839 28.0022V26.1105C31.839 25.5162 32.3011 25.01 32.895 24.9889C33.0317 24.984 33.1624 25.0055 33.2842 25.0464C32.8464 25.1972 32.5366 25.6241 32.5366 26.1105Z" fill="#408A51"/>
<path d="M36.3109 24.1173V27.8719H35.6132V24.1173C35.6132 23.5231 36.0753 23.0169 36.6693 22.9958C36.8059 22.9909 36.9366 23.0124 37.0584 23.0533C36.6205 23.2041 36.3109 23.631 36.3109 24.1173Z" fill="#408A51"/>
<path d="M26.3798 43.5656C26.3798 44.0486 26.6928 44.4573 27.1267 44.6033C27.0295 44.6368 26.9261 44.657 26.8182 44.6609C26.1946 44.683 25.6822 44.1841 25.6822 43.5656V36.6042H26.3798V43.5656Z" fill="#408A51"/>
<path d="M33.2184 23.1694C32.4563 23.1694 31.8386 22.5516 31.8386 21.7895C31.8386 21.0274 32.4563 20.4096 33.2184 20.4096C33.9805 20.4096 34.5983 21.0274 34.5983 21.7895C34.5983 22.5516 33.9805 23.1694 33.2184 23.1694Z" fill="#61ACD2"/>
<path d="M20.9684 42.0478C20.5447 42.0478 20.2012 41.7043 20.2012 41.2806C20.2012 40.8569 20.5447 40.5134 20.9684 40.5134C21.3921 40.5134 21.7356 40.8569 21.7356 41.2806C21.7356 41.7043 21.3921 42.0478 20.9684 42.0478Z" fill="#61ACD2"/>
<path d="M25.0932 30.759C24.7796 30.759 24.5254 30.5048 24.5254 30.1913C24.5254 29.8777 24.7796 29.6235 25.0932 29.6235C25.4067 29.6235 25.6609 29.8777 25.6609 30.1913C25.6609 30.5048 25.4067 30.759 25.0932 30.759Z" fill="#61ACD2"/>
<path d="M18.0009 21.7894C17.5068 21.7894 17.1062 21.3888 17.1062 20.8947C17.1062 20.4006 17.5068 20 18.0009 20C18.4951 20 18.8956 20.4006 18.8956 20.8947C18.8956 21.3888 18.4951 21.7894 18.0009 21.7894Z" fill="#61ACD2"/>
<path d="M36.5618 43.38C36.0379 43.38 35.6132 42.9553 35.6132 42.4314C35.6132 41.9075 36.0379 41.4828 36.5618 41.4828C37.0857 41.4828 37.5104 41.9075 37.5104 42.4314C37.5104 42.9553 37.0857 43.38 36.5618 43.38Z" fill="#61ACD2"/>
<path d="M16.7591 37.1706C16.0933 37.1706 15.5535 36.6308 15.5535 35.965C15.5535 35.2992 16.0933 34.7594 16.7591 34.7594C17.425 34.7594 17.9647 35.2992 17.9647 35.965C17.9647 36.6308 17.425 37.1706 16.7591 37.1706Z" fill="#61ACD2"/>
<path d="M33.2184 34.9797C32.5822 34.9797 32.0665 34.4639 32.0665 33.8278C32.0665 33.1916 32.5822 32.6758 33.2184 32.6758C33.8546 32.6758 34.3703 33.1916 34.3703 33.8278C34.3703 34.4639 33.8546 34.9797 33.2184 34.9797Z" fill="#61ACD2"/>
<g clip-path="url(#clip1_55_679)">
<path d="M39.621 35.4675C39.3014 35.3283 38.93 35.4734 38.7909 35.793C38.7671 35.8463 38.3499 36.7498 37.3717 37.2621C37.6636 36.8496 37.8946 36.4473 38.0756 36.0746C38.9362 34.3029 38.9048 32.8038 38.903 32.7408C38.8932 32.3923 38.6033 32.1158 38.2543 32.1274C37.9057 32.1372 37.6311 32.4276 37.6409 32.7762C37.6419 32.8129 37.6774 35.4746 35.3313 37.6829C34.3983 36.5714 34.513 35.0297 34.5149 35.0068C34.5453 34.6605 34.2899 34.3545 33.9435 34.3227C33.5957 34.2908 33.289 34.5467 33.2573 34.894C33.2493 34.9809 33.0866 36.9549 34.3483 38.475C33.7446 38.8913 33.0294 39.2729 32.1841 39.5946C32.0982 38.4123 31.8062 37.1139 31.166 35.7756C30.9085 35.2371 30.6708 34.7145 30.4515 34.2093C32.7184 33.2063 33.7118 31.4706 34.1457 30.138C34.1481 30.1305 34.1503 30.1231 34.1527 30.1157C36.2626 30.0803 37.4916 28.4048 37.7793 27.46C37.8808 27.1265 37.6933 26.7722 37.3598 26.6706C37.0259 26.5687 36.674 26.7556 36.5724 27.089C36.5496 27.1613 36.0394 28.7113 34.4466 28.8445C34.5828 27.9159 34.5179 27.2501 34.5139 27.211C34.478 26.8649 34.1695 26.6144 33.8226 26.6488C33.4764 26.6837 33.2238 26.9931 33.2578 27.3395C33.2589 27.3509 33.3642 28.4912 32.9309 29.7897C32.8028 30.1739 32.6408 30.5298 32.449 30.8598C31.6991 30.306 31.3066 28.8293 31.2203 28.2762C31.167 27.9319 30.8456 27.6956 30.5008 27.7486C30.1561 27.8014 29.9195 28.1236 29.9724 28.4683C30.0159 28.7523 30.384 30.8973 31.6839 31.8676C31.2112 32.3505 30.6373 32.7431 29.9645 33.0434C28.286 28.8593 27.9376 26.1363 27.9337 26.1038C27.8917 25.7579 27.5778 25.5117 27.2316 25.5528C26.8854 25.5944 26.6385 25.9088 26.68 26.255C26.7002 26.4223 27.2048 30.4214 30.0268 36.3206C30.8766 38.0971 31.1392 40.0112 30.807 42.0101C30.801 42.0463 30.7948 42.082 30.7885 42.1175C30.7726 42.068 30.7561 42.0179 30.739 41.9675C30.2369 40.4869 29.105 38.3578 26.5638 36.6232C26.3656 36.4879 26.1753 36.3449 25.9906 36.1962C26.7294 35.5438 27.1158 34.587 27.1158 33.39C27.1158 32.3536 26.8191 31.4906 26.8065 31.4544C26.6918 31.1252 26.3316 30.9514 26.0026 31.0661C25.6734 31.1809 25.4995 31.5408 25.6143 31.87C25.623 31.895 26.423 34.252 25.058 35.3275C24.0828 34.2742 23.3646 32.9767 22.9148 31.4501C22.4163 29.7588 22.4525 28.4071 22.4529 28.3947C22.4651 28.0462 22.1923 27.7539 21.8439 27.7418C21.495 27.7283 21.2031 28.0024 21.1911 28.3508C21.1889 28.4126 21.1448 29.8846 21.6905 31.7622C22.4171 34.2622 23.8562 36.3038 25.8521 37.6662C25.8622 37.6731 25.8717 37.6803 25.8818 37.6873C25.3876 37.6746 24.7956 37.6188 24.1781 37.4698C22.1196 36.9728 20.7946 35.7003 20.2401 33.6876C20.1475 33.3515 19.7998 33.1542 19.4638 33.2466C19.1276 33.3392 18.9302 33.6868 19.0228 34.0229C19.6989 36.4766 21.379 38.0929 23.8817 38.697C24.7099 38.897 25.4951 38.9528 26.114 38.9528C26.7128 38.9528 27.1549 38.9007 27.3303 38.876C27.9909 39.5261 28.534 40.2449 28.9566 41.0279C28.0374 41.2525 25.4108 41.6818 23.3243 39.9485C23.0562 39.7258 22.6582 39.7625 22.4353 40.0308C22.2125 40.2989 22.2493 40.6969 22.5175 40.9198C24.0424 42.1866 25.7558 42.5169 27.1281 42.5169C28.2117 42.5169 29.0823 42.311 29.4799 42.1975C29.4946 42.238 29.5106 42.2778 29.5247 42.3186C30.01 43.7191 29.9641 44.7761 29.9636 44.7845C29.9469 45.0807 30.1386 45.3486 30.4244 45.4283C30.4807 45.444 30.5377 45.4516 30.5939 45.4516C30.8231 45.4516 31.0402 45.3263 31.1518 45.1158C31.1741 45.0736 31.3118 44.8079 31.4808 44.3646C35.1346 44.2352 37.4972 42.0929 37.6038 41.9944C37.8594 41.7581 37.8751 41.3601 37.6395 41.1039C37.4039 40.8478 37.0049 40.831 36.748 41.0661C36.7264 41.0858 34.8114 42.8053 31.8825 43.0724C32.0326 42.4619 32.1573 41.7378 32.1981 40.9323C33.7854 40.3898 34.9892 39.6579 35.9016 38.8727C35.9071 38.8727 35.9127 38.8727 35.9182 38.8727C38.7947 38.8727 39.9013 36.4056 39.9473 36.3001C40.0865 35.98 39.9407 35.6066 39.621 35.4675Z" fill="#EBB521"/>
<path d="M39.621 35.4675C39.3013 35.3284 38.93 35.4734 38.7909 35.793C38.7671 35.8463 38.3499 36.7498 37.3717 37.2621C37.6636 36.8496 37.8946 36.4474 38.0756 36.0747C38.9362 34.303 38.9048 32.8038 38.903 32.7408C38.8932 32.3923 38.6033 32.1158 38.2543 32.1275C37.9057 32.1372 37.6311 32.4276 37.6409 32.7762C37.6419 32.813 37.6774 35.4746 35.3313 37.683C34.3983 36.5714 34.513 35.0297 34.5148 35.0068C34.5453 34.6605 34.2899 34.3545 33.9435 34.3228C33.5957 34.2908 33.289 34.5467 33.2573 34.894C33.2493 34.9809 33.0866 36.9549 34.3483 38.475C33.7446 38.8913 33.0294 39.2729 32.1841 39.5946C32.0982 38.4123 31.8062 37.1139 31.166 35.7756C30.9084 35.2371 30.6708 34.7145 30.4515 34.2093C32.7184 33.2063 33.7118 31.4707 34.1457 30.138C34.1481 30.1306 34.1503 30.1231 34.1527 30.1157C36.2626 30.0803 37.4916 28.4048 37.7793 27.46C37.8808 27.1265 37.6933 26.7722 37.3598 26.6707C37.0259 26.5687 36.674 26.7556 36.5724 27.089C36.5496 27.1613 36.0394 28.7113 34.4466 28.8445C34.5828 27.9159 34.5179 27.2502 34.5139 27.2111C34.478 26.8649 34.1695 26.6144 33.8226 26.6488C33.4764 26.6837 33.2238 26.9931 33.2578 27.3395C33.2589 27.3509 33.3642 28.4912 32.9309 29.7897C32.8028 30.174 32.6408 30.5298 32.449 30.8598C31.6991 30.306 31.3066 28.8293 31.2203 28.2762C31.167 27.9319 30.8456 27.6956 30.5008 27.7486C30.1561 27.8014 29.9195 28.1236 29.9724 28.4683C30.0159 28.7523 30.384 30.8973 31.6839 31.8676C31.2112 32.3505 30.6373 32.7431 29.9645 33.0435C29.7611 32.5364 29.5774 32.0511 29.4113 31.5892V34.9833C29.6031 35.417 29.808 35.863 30.0269 36.3206C30.8767 38.0971 31.1392 40.0113 30.8071 42.0101C30.801 42.0463 30.7949 42.0821 30.7886 42.1176C30.7726 42.068 30.7561 42.0179 30.7391 41.9675C30.4875 41.2254 30.0775 40.3205 29.4113 39.384V42.2166C29.4353 42.21 29.4586 42.2036 29.4799 42.1975C29.4946 42.238 29.5106 42.2778 29.5247 42.3186C30.01 43.7191 29.9641 44.7761 29.9636 44.7845C29.9469 45.0807 30.1386 45.3486 30.4244 45.4283C30.4807 45.444 30.5377 45.4516 30.5939 45.4516C30.8231 45.4516 31.0402 45.3263 31.1517 45.1158C31.1741 45.0737 31.3118 44.8079 31.4808 44.3646C35.1346 44.2352 37.4972 42.0929 37.6037 41.9944C37.8594 41.7582 37.8751 41.3601 37.6395 41.1039C37.4039 40.8478 37.0049 40.831 36.748 41.0661C36.7264 41.0858 34.8114 42.8053 31.8825 43.0724C32.0326 42.462 32.1573 41.7379 32.1981 40.9323C33.7854 40.3898 34.9892 39.6579 35.9016 38.8727C35.9071 38.8727 35.9127 38.8727 35.9182 38.8727C38.7947 38.8727 39.9013 36.4056 39.9473 36.3001C40.0865 35.9801 39.9407 35.6066 39.621 35.4675Z" fill="#E89145"/>
</g>
<g clip-path="url(#clip2_55_679)">
<path d="M12.9972 27.0435C12.2768 27.0435 11.6929 27.6275 11.6929 28.3478V28.6125L12.3479 29.2753L11.6929 29.9168C11.6929 30.7362 11.1294 31.4263 10.3696 31.6203V26.3043C10.3696 25.584 9.78555 25 9.06524 25C8.34492 25 7.7609 25.584 7.7609 26.3043V28.6125L8.40582 29.2753L7.7609 29.9168V31.2211L8.46383 31.884L7.7609 32.5255V35.1342C7.7609 35.7584 7.89285 36.3524 8.12989 36.89C7.19965 36.8457 6.45653 36.0752 6.45653 35.1342L5.8261 34.5217L6.45653 33.8298V30.9565C6.45653 30.2361 5.87254 29.6521 5.15219 29.6521C4.43184 29.6521 3.84785 30.2361 3.84785 30.9565V31.3043L4.52176 31.9709L3.84785 32.6086V35.1341C3.84785 37.5419 5.80676 39.5009 8.21461 39.5009L8.86961 38.8985L9.51895 39.5009H11.6957L11.6957 39.4795C11.6973 39.4797 11.6988 39.4798 11.7003 39.48L13.0725 38.1449L11.7025 36.8399C10.9379 36.6493 10.3696 35.957 10.3696 35.1342L9.71012 34.5508L10.3696 34.262C12.574 34.0431 14.3015 32.1779 14.3015 29.9169V28.3478C14.3015 27.6275 13.7175 27.0435 12.9972 27.0435Z" fill="#FB5858"/>
<path d="M20.8478 32.2608C20.1275 32.2608 19.5435 32.8448 19.5435 33.5652L20.2609 34.2608L19.5435 34.8695V37.7429C19.5435 38.6839 18.8003 39.4544 17.8701 39.4988C18.1071 38.9611 18.2391 38.3672 18.2391 37.7429V34.8695L17.6521 34.2608L18.2391 33.5652V32.2608L17.6232 31.6811L18.2391 30.9565C18.2391 30.2361 17.6551 29.6522 16.9348 29.6522C16.2144 29.6522 15.6304 30.2361 15.6304 30.9565V36.4385L16.2899 37.1014L15.6304 37.7429C15.6304 38.5616 15.0679 39.2513 14.309 39.446L14.3116 36.3052C14.3116 35.5849 13.7276 35.0009 13.0073 35.0009C12.2869 35.0009 11.7029 35.5849 11.7029 36.3052L11.7025 36.8399L11.7025 36.8922C11.7029 36.8922 11.7022 37.1438 11.7022 37.1438L11.7003 39.4799V39.5009H11.6957L12.4927 40.1738L11.6957 40.8052H11.6992L11.6981 42.0876H11.6957L12.3768 42.7826L11.6957 43.3919H11.697L11.6957 45H14.3044L14.3068 42.1096H16.4811L17.1014 41.4782L17.7854 42.1096C20.1932 42.1096 22.1522 40.1507 22.1522 37.7429L21.5362 37.1014L22.1522 36.4385V33.5652C22.1522 32.8449 21.5682 32.2608 20.8478 32.2608Z" fill="#F72349"/>
<path d="M13 42.0878H11.6957V43.3922H13V42.0878Z" fill="#FB5858"/>
<path d="M17.7852 40.8052H16.4809V42.1096H17.7852V40.8052Z" fill="#FB5858"/>
<path d="M18.2391 30.9565H16.9348V32.2609H18.2391V30.9565Z" fill="#FB5858"/>
<path d="M18.2391 33.5652H16.9348V34.8696H18.2391V33.5652Z" fill="#FB5858"/>
<path d="M20.8478 33.5652H19.5435V34.8696H20.8478V33.5652Z" fill="#FB5858"/>
<path d="M22.1521 36.4387H20.8478V37.7431H22.1521V36.4387Z" fill="#FB5858"/>
<path d="M16.9348 36.4387H15.6304V37.7431H16.9348V36.4387Z" fill="#FB5858"/>
<path d="M13 39.5009H11.6957V40.8052H13V39.5009Z" fill="#FB5858"/>
<path d="M9.5191 38.1965H8.21477V39.5009H9.5191V38.1965Z" fill="#F72349"/>
<path d="M6.45653 33.83H5.15219V35.1344H6.45653V33.83Z" fill="#F72349"/>
<path d="M12.9974 28.6126H11.693V29.9169H12.9974V28.6126Z" fill="#F72349"/>
<path d="M9.06518 28.6126H7.76085V29.9169H9.06518V28.6126Z" fill="#F72349"/>
<path d="M9.06518 31.2213H7.76085V32.5256H9.06518V31.2213Z" fill="#F72349"/>
<path d="M10.3696 33.83H9.06523V35.1344H10.3696V33.83Z" fill="#F72349"/>
<path d="M5.15214 31.3043H3.84781V32.6087H5.15214V31.3043Z" fill="#F72349"/>
<g clip-path="url(#clip3_55_679)">
<path d="M10.8188 38.9685L8.53749 39.0874C8.17652 39.1062 7.85154 38.8701 7.75788 38.521L7.16596 36.3145C7.12043 36.1448 6.87959 36.1448 6.83406 36.3145L6.24212 38.521C6.14847 38.8701 5.82348 39.1062 5.46251 39.0874L3.18117 38.9685C3.00568 38.9594 2.93125 39.1884 3.07861 39.2841L4.99412 40.5289C5.2972 40.7259 5.42133 41.1079 5.29192 41.4454L4.47388 43.5784C4.41095 43.7425 4.60578 43.884 4.74239 43.7735L6.51818 42.3364C6.79915 42.109 7.20085 42.109 7.48182 42.3364L9.25763 43.7735C9.39423 43.884 9.58907 43.7425 9.52615 43.5784L8.70812 41.4454C8.57868 41.108 8.7028 40.7259 9.00591 40.529L10.9214 39.2842C11.0688 39.1884 10.9943 38.9594 10.8188 38.9685Z" fill="#FF9150"/>
<path d="M8.20236 40.6891L7.21033 40.3558L7.829 39.5309C7.87184 39.4739 7.86027 39.393 7.80316 39.3503C7.7462 39.3077 7.66544 39.319 7.62259 39.3761L7 40.2063L6.37739 39.3761C6.33455 39.3189 6.25378 39.3075 6.19683 39.3503C6.13975 39.393 6.12816 39.4739 6.17099 39.5309L6.78966 40.3558L5.79763 40.6891C5.73008 40.7118 5.69368 40.785 5.71635 40.8526C5.73449 40.9065 5.78477 40.9405 5.83871 40.9405C5.85232 40.9405 5.86618 40.9384 5.87978 40.9338L6.87095 40.6008V41.5826C6.87095 41.6539 6.92866 41.7116 6.99999 41.7116C7.07131 41.7116 7.12902 41.6539 7.12902 41.5826V40.6008L8.12019 40.9338C8.1338 40.9384 8.14766 40.9405 8.16126 40.9405C8.2152 40.9405 8.26547 40.9065 8.28362 40.8526C8.30631 40.785 8.26989 40.7118 8.20236 40.6891Z" fill="#FF7841"/>
<path d="M10.8188 38.9685L10.7327 38.973L7.39038 40.0871C7.33707 40.0249 7.27068 39.9746 7.19354 39.9434V36.4174L7.16595 36.3145C7.12041 36.1448 6.87959 36.1448 6.83404 36.3145L6.80645 36.4174V39.9434C6.72932 39.9746 6.66291 40.0249 6.6096 40.0871L3.2673 38.973L3.18116 38.9685C3.00567 38.9594 2.93123 39.1884 3.07859 39.2842L3.18583 39.3539L6.4872 40.4543C6.49281 40.5413 6.51906 40.6223 6.56252 40.6923C6.56202 40.693 6.56137 40.6934 6.56087 40.6941L4.49675 43.5187L4.47387 43.5784C4.41095 43.7425 4.60578 43.884 4.74237 43.7735L4.85881 43.6792L6.87335 40.9224C6.87387 40.9217 6.87415 40.9209 6.87466 40.9202C6.91499 40.9303 6.95652 40.9373 6.99999 40.9373C7.04346 40.9373 7.08499 40.9303 7.12534 40.9202C7.12585 40.9209 7.12613 40.9217 7.12665 40.9224L9.14121 43.6792L9.25763 43.7735C9.39424 43.884 9.58907 43.7425 9.52614 43.5784L9.50327 43.5187L7.43913 40.6941C7.43863 40.6934 7.43798 40.693 7.43748 40.6923C7.48094 40.6223 7.50718 40.5413 7.5128 40.4543L10.8142 39.3538L10.9214 39.2842C11.0687 39.1884 10.9943 38.9594 10.8188 38.9685Z" fill="#FFC387"/>
<path d="M7.00001 41.0664C7.35632 41.0664 7.64517 40.7776 7.64517 40.4213C7.64517 40.065 7.35632 39.7761 7.00001 39.7761C6.6437 39.7761 6.35486 40.065 6.35486 40.4213C6.35486 40.7776 6.6437 41.0664 7.00001 41.0664Z" fill="#FFA263"/>
</g>
</g>
<g clip-path="url(#clip4_55_679)">
<path d="M46.1962 14.3918L46.5825 16.1154C46.8335 17.2356 47.8781 17.9945 49.021 17.8871L50.7796 17.7219C50.9933 17.7018 51.0856 17.9857 50.9009 18.0951L49.381 18.995C48.3932 19.5799 47.9942 20.8079 48.4496 21.8617L49.1502 23.4832C49.2353 23.6802 48.9938 23.8557 48.8327 23.7138L47.5071 22.5464C46.6456 21.7878 45.3544 21.7878 44.4929 22.5464L43.1673 23.7138C43.0062 23.8557 42.7647 23.6802 42.8499 23.4832L43.5505 21.8617C44.0058 20.8079 43.6068 19.5799 42.619 18.995L41.0992 18.095C40.9145 17.9857 41.0067 17.7018 41.2204 17.7219L42.979 17.8871C44.1219 17.9945 45.1665 17.2356 45.4176 16.1154L45.8038 14.3918C45.8507 14.1824 46.1493 14.1824 46.1962 14.3918Z" fill="#F74B4B"/>
<path d="M46.0001 19.614C45.9022 19.614 45.8114 19.5514 45.7771 19.4597C45.7419 19.3658 45.7704 19.2566 45.8479 19.1926C45.9217 19.1315 46.0278 19.1208 46.1123 19.1658C46.201 19.213 46.2518 19.3153 46.235 19.4146C46.2157 19.528 46.1155 19.614 46.0001 19.614Z" fill="#C11C06"/>
<path d="M45.7618 18.5641C45.7618 18.4325 45.8683 18.3258 46.0001 18.3258C46.1316 18.3258 46.2383 18.4325 46.2383 18.5641C46.2383 18.6958 46.1316 18.8023 46.0001 18.8023C45.8683 18.8023 45.7618 18.6958 45.7618 18.5641ZM45.7618 17.7526C45.7618 17.6211 45.8683 17.5144 46.0001 17.5144C46.1316 17.5144 46.2383 17.6211 46.2383 17.7526C46.2383 17.8841 46.1316 17.9909 46.0001 17.9909C45.8683 17.9909 45.7618 17.8841 45.7618 17.7526ZM45.7618 16.9409C45.7618 16.8094 45.8683 16.7027 46.0001 16.7027C46.1316 16.7027 46.2383 16.8094 46.2383 16.9409C46.2383 17.0727 46.1316 17.1792 46.0001 17.1792C45.8683 17.1792 45.7618 17.0727 45.7618 16.9409ZM45.7618 16.1295C45.7618 15.9977 45.8683 15.8912 46.0001 15.8912C46.1316 15.8912 46.2383 15.9977 46.2383 16.1295C46.2383 16.261 46.1316 16.3677 46.0001 16.3677C45.8683 16.3677 45.7618 16.261 45.7618 16.1295Z" fill="#C11C06"/>
<path d="M46.0003 15.556C45.9023 15.556 45.8121 15.4935 45.7775 15.402C45.742 15.308 45.7705 15.1987 45.8481 15.1346C45.9219 15.0735 46.0279 15.0628 46.1125 15.1079C46.202 15.1555 46.2526 15.2589 46.2348 15.3589C46.2149 15.4714 46.1147 15.556 46.0003 15.556Z" fill="#C11C06"/>
<path d="M46.0001 19.6141C45.9022 19.6141 45.8114 19.5514 45.7771 19.4598C45.7419 19.3658 45.7704 19.2566 45.8479 19.1926C45.9217 19.1316 46.0278 19.1209 46.1123 19.1659C46.201 19.2131 46.2518 19.3154 46.235 19.4146C46.2157 19.528 46.1155 19.6141 46.0001 19.6141Z" fill="#C11C06"/>
<path d="M45.1541 19.3754C45.028 19.3382 44.9558 19.2057 44.9928 19.0795C45.0299 18.9532 45.1624 18.881 45.2887 18.9182C45.4149 18.9553 45.4871 19.0878 45.45 19.2141C45.4195 19.3177 45.3244 19.3851 45.2215 19.3851C45.1993 19.3851 45.1767 19.3818 45.1541 19.3754C45.1767 19.3818 45.028 19.3382 45.1541 19.3754ZM44.3755 19.1462C44.2492 19.109 44.177 18.9765 44.2142 18.8503C44.2514 18.7242 44.3838 18.6518 44.5101 18.689C44.6364 18.7261 44.7085 18.8586 44.6714 18.9849C44.6409 19.0887 44.5458 19.1559 44.4429 19.1559C44.4208 19.1559 44.3979 19.1528 44.3755 19.1462C44.3979 19.1528 44.2492 19.109 44.3755 19.1462ZM43.5969 18.917C43.4709 18.8798 43.3985 18.7476 43.4356 18.6213C43.4728 18.495 43.6052 18.4229 43.7315 18.46C43.8578 18.4972 43.93 18.6297 43.8928 18.7557C43.8623 18.8596 43.7673 18.9267 43.6643 18.9267C43.6422 18.9267 43.6195 18.9236 43.5969 18.917C43.6195 18.9236 43.4709 18.8798 43.5969 18.917ZM42.8183 18.688C42.6921 18.6509 42.6199 18.5184 42.657 18.3921C42.6942 18.2659 42.8267 18.1937 42.9529 18.2308C43.0792 18.268 43.1514 18.4005 43.1142 18.5267C43.0837 18.6304 42.9887 18.6978 42.8858 18.6978C42.8636 18.6978 42.841 18.6945 42.8183 18.688C42.841 18.6945 42.6921 18.6509 42.8183 18.688Z" fill="#C11C06"/>
<path d="M42.1072 18.4685C42.0076 18.4685 41.9165 18.404 41.8829 18.3105C41.8499 18.2184 41.8781 18.1117 41.953 18.0486C42.0314 17.9826 42.1456 17.9739 42.2329 18.0279C42.3161 18.0794 42.36 18.1809 42.3407 18.2768C42.3185 18.3867 42.2196 18.4685 42.1072 18.4685Z" fill="#C11C06"/>
<path d="M46.0001 19.614C45.9022 19.614 45.8114 19.5514 45.7771 19.4597C45.7419 19.3658 45.7704 19.2566 45.8479 19.1926C45.9217 19.1315 46.0278 19.1208 46.1123 19.1658C46.201 19.213 46.2518 19.3153 46.235 19.4146C46.2157 19.528 46.1155 19.614 46.0001 19.614Z" fill="#C11C06"/>
<path d="M43.9953 22.2259C43.8876 22.1501 43.8616 22.0017 43.9374 21.894C44.0131 21.7863 44.1618 21.7606 44.2695 21.8361C44.3769 21.9119 44.4029 22.0605 44.3271 22.1682C44.2807 22.234 44.2071 22.2692 44.132 22.2692C44.0848 22.2692 44.0369 22.2552 43.9953 22.2259C44.0369 22.2552 43.8876 22.1501 43.9953 22.2259ZM44.4622 21.5621C44.3545 21.4864 44.3286 21.3377 44.4043 21.2303C44.4801 21.1226 44.6287 21.0966 44.7362 21.1724C44.8439 21.2481 44.8698 21.3968 44.7941 21.5042C44.7476 21.5702 44.674 21.6055 44.599 21.6055C44.5516 21.6055 44.5039 21.5914 44.4622 21.5621C44.5039 21.5914 44.3545 21.4864 44.4622 21.5621ZM44.9292 20.8984C44.8215 20.8226 44.7955 20.6739 44.8713 20.5663C44.947 20.4588 45.0955 20.4328 45.2031 20.5086C45.3108 20.5841 45.3368 20.7328 45.261 20.8405C45.2146 20.9065 45.141 20.9417 45.0659 20.9417C45.0185 20.9417 44.9706 20.9277 44.9292 20.8984C44.9706 20.9277 44.8215 20.8226 44.9292 20.8984ZM45.3961 20.2344C45.2884 20.1586 45.2625 20.0102 45.3382 19.9025C45.414 19.7948 45.5624 19.7691 45.6701 19.8446C45.7778 19.9204 45.8038 20.0691 45.728 20.1767C45.6815 20.2425 45.6079 20.2778 45.5329 20.2778C45.4855 20.2778 45.4378 20.2637 45.3961 20.2344C45.4378 20.2637 45.2884 20.1586 45.3961 20.2344Z" fill="#C11C06"/>
<path d="M43.6653 22.9332C43.5643 22.9332 43.4724 22.8669 43.4399 22.7715C43.4073 22.6759 43.4402 22.5674 43.5203 22.5059C43.5971 22.4469 43.7047 22.4413 43.7877 22.4907C43.873 22.5415 43.9186 22.644 43.899 22.7414C43.8769 22.8514 43.7775 22.9332 43.6653 22.9332Z" fill="#C11C06"/>
<path d="M46.0001 19.6141C45.9022 19.6141 45.8114 19.5514 45.7771 19.4598C45.7419 19.3658 45.7704 19.2566 45.8479 19.1926C45.9217 19.1316 46.0278 19.1209 46.1123 19.1659C46.201 19.2131 46.2518 19.3154 46.235 19.4146C46.2157 19.528 46.1155 19.6141 46.0001 19.6141Z" fill="#C11C06"/>
<path d="M46.5499 19.214C46.5127 19.0877 46.585 18.9552 46.7112 18.9181C46.8375 18.8809 46.97 18.9531 47.0071 19.0794C47.0443 19.2056 46.9721 19.3381 46.8458 19.3753C46.8234 19.3817 46.8008 19.385 46.7784 19.385C46.6755 19.3851 46.5804 19.3176 46.5499 19.214C46.5804 19.3176 46.5128 19.0877 46.5499 19.214ZM47.3285 18.9848C47.2913 18.8585 47.3635 18.7261 47.4898 18.6889C47.6161 18.652 47.7485 18.7242 47.7857 18.8502C47.8229 18.9765 47.7507 19.1089 47.6244 19.1461C47.602 19.1528 47.5794 19.1559 47.557 19.1559C47.4541 19.1559 47.359 19.0887 47.3285 18.9848C47.359 19.0887 47.2913 18.8585 47.3285 18.9848ZM48.1071 18.7556C48.0699 18.6293 48.1421 18.4971 48.2684 18.4599C48.3946 18.4228 48.5271 18.495 48.5643 18.6212C48.6014 18.7473 48.5293 18.8797 48.403 18.9169C48.3806 18.9236 48.3579 18.9267 48.3356 18.9267C48.2326 18.9267 48.1376 18.8595 48.1071 18.7556C48.1376 18.8595 48.0699 18.6293 48.1071 18.7556ZM48.8857 18.5267C48.8485 18.4004 48.9207 18.2679 49.047 18.2308C49.1732 18.1936 49.3057 18.2658 49.3429 18.3921C49.38 18.5183 49.3078 18.6508 49.1816 18.688C49.1592 18.6944 49.1365 18.6977 49.1141 18.6977C49.0112 18.6977 48.9161 18.6303 48.8857 18.5267C48.9161 18.6303 48.8485 18.4004 48.8857 18.5267Z" fill="#C11C06"/>
<path d="M49.8929 18.4685C49.7934 18.4685 49.7022 18.404 49.6687 18.3104C49.6355 18.218 49.6641 18.1123 49.7388 18.0487C49.8168 17.9824 49.9317 17.9738 50.0187 18.0279C50.1018 18.0796 50.1458 18.1808 50.1264 18.2768C50.1043 18.3867 50.0054 18.4685 49.8929 18.4685Z" fill="#C11C06"/>
<path d="M46.0001 19.614C45.9022 19.614 45.8114 19.5514 45.7771 19.4597C45.7419 19.3658 45.7704 19.2566 45.8479 19.1926C45.9217 19.1315 46.0278 19.1208 46.1123 19.1658C46.201 19.213 46.2518 19.3153 46.235 19.4146C46.2157 19.528 46.1155 19.614 46.0001 19.614Z" fill="#C11C06"/>
<path d="M47.6728 22.1682C47.597 22.0605 47.623 21.9118 47.7307 21.8361C47.8384 21.7606 47.9868 21.7863 48.0626 21.894C48.1383 22.0017 48.1124 22.1501 48.0049 22.2258C47.9632 22.2552 47.9153 22.2692 47.8679 22.2692C47.7931 22.2692 47.7193 22.234 47.6728 22.1682C47.7193 22.234 47.597 22.0605 47.6728 22.1682ZM47.2058 21.5042C47.1303 21.3968 47.156 21.2481 47.2637 21.1724C47.3714 21.0966 47.5198 21.1226 47.5956 21.2303C47.6714 21.3377 47.6454 21.4864 47.5379 21.5621C47.4963 21.5914 47.4484 21.6055 47.401 21.6055C47.3262 21.6055 47.2523 21.5702 47.2058 21.5042C47.2523 21.5702 47.1303 21.3968 47.2058 21.5042ZM46.7389 20.8405C46.6634 20.7328 46.6891 20.5841 46.7968 20.5086C46.9045 20.4328 47.0531 20.4588 47.1287 20.5663C47.2044 20.6739 47.1785 20.8226 47.071 20.8984C47.0293 20.9277 46.9814 20.9417 46.934 20.9417C46.8592 20.9417 46.7853 20.9065 46.7389 20.8405C46.7853 20.9065 46.6634 20.7328 46.7389 20.8405ZM46.2722 20.1767C46.1964 20.0691 46.2221 19.9204 46.3298 19.8446C46.4375 19.7691 46.5862 19.7948 46.6617 19.9025C46.7375 20.0102 46.7117 20.1589 46.604 20.2344C46.5623 20.2637 46.5145 20.2778 46.467 20.2778C46.3922 20.2778 46.3184 20.2425 46.2722 20.1767C46.3184 20.2425 46.1964 20.0691 46.2722 20.1767Z" fill="#C11C06"/>
<path d="M48.3346 22.9332C48.2334 22.9332 48.142 22.8668 48.1092 22.7715C48.0765 22.6763 48.1098 22.567 48.1896 22.5059C48.2666 22.447 48.3739 22.4413 48.457 22.4906C48.5426 22.5414 48.5874 22.6441 48.5681 22.7414C48.5462 22.8514 48.4469 22.9332 48.3346 22.9332Z" fill="#C11C06"/>
</g>
<g clip-path="url(#clip5_55_679)">
<path d="M27.0528 27.333V29.7252L27.9202 29.9214C28.003 29.9401 28.0849 29.9481 28.1643 29.9464C28.7973 29.9341 29.2885 29.3143 29.0957 28.6655L28.9776 28.2674C28.9542 28.1884 28.9431 28.1095 28.9431 28.032C28.9431 27.5939 29.2982 27.2117 29.7653 27.2117C29.8951 27.2117 30 27.1068 30 26.977C30 26.8476 29.8951 26.7424 29.7653 26.7424L28.321 27.0569L27.0528 27.333Z" fill="#F74B4B"/>
<path d="M20.2347 31.5318H26.6071C27.3046 31.5318 27.87 30.9664 27.87 30.2689V27.2538C27.87 26.6457 28.363 26.1527 28.9711 26.1527C29.1008 26.1527 29.2058 26.0477 29.2058 25.9181C29.2058 25.7885 29.1008 25.6834 28.9711 25.6834H23.726C22.4059 25.6834 21.3357 26.7536 21.3357 28.0736V29.9614C21.3357 30.5695 20.8427 31.0625 20.2346 31.0625C20.105 31.0625 20 31.1676 20 31.2972C20 31.4268 20.1051 31.5318 20.2347 31.5318Z" fill="#F9D43A"/>
<path d="M22.0722 31.21C21.8233 31.21 21.6215 31.0082 21.6215 30.7592C21.6215 30.5103 21.8233 30.3085 22.0722 30.3085C22.3211 30.3085 22.5229 30.5103 22.5229 30.7592C22.5229 31.0082 22.3211 31.21 22.0722 31.21Z" fill="white"/>
<path d="M22.0722 31.035C21.9199 31.035 21.7965 30.9115 21.7965 30.7592C21.7965 30.6069 21.9199 30.4835 22.0722 30.4835C22.2245 30.4835 22.348 30.6069 22.348 30.7592C22.348 30.9115 22.2245 31.035 22.0722 31.035Z" fill="#4D4D4D"/>
<path d="M25.0128 32.3166H26.19V31.9598C26.19 31.5485 25.8566 31.215 25.4453 31.215H24.1683V31.4721C24.1683 31.9385 24.5464 32.3166 25.0128 32.3166Z" fill="#F74B4B"/>
<path d="M23.0815 30.6579C23.5999 30.6579 24.0201 30.2376 24.0201 29.7192V26.3977C23.5017 26.3977 23.0815 26.818 23.0815 27.3364V30.6579Z" fill="#D3B742"/>
<path d="M25.3499 30.6579C24.8315 30.6579 24.4113 30.2376 24.4113 29.7192V26.3977C24.9297 26.3977 25.3499 26.818 25.3499 27.3364V30.6579Z" fill="#D3B742"/>
<path d="M25.7411 30.6579C26.2595 30.6579 26.6797 30.2376 26.6797 29.7192V26.3977C26.1613 26.3977 25.7411 26.818 25.7411 27.3364V30.6579Z" fill="#D3B742"/>
</g>
<path d="M44.3864 27C44.3712 27.384 44.3522 27.7692 44.3332 28.1548C44.1888 28.1399 44.0405 28.0611 43.8657 27.9284C43.6034 27.7286 43.3335 27.4129 43.0599 27.1362L42.5809 27.6388C42.8242 27.8835 43.1093 28.2242 43.4552 28.4912C43.6946 28.6742 43.9911 28.8256 44.3142 28.851C44.2724 30.3148 44.299 31.7743 44.5765 33.191C44.1622 33.7529 43.8315 34.4007 43.5882 35.072C43.5502 35.1773 43.516 35.2827 43.478 35.3881C42.9686 35.1539 42.4251 34.7793 41.8967 34.3422C41.376 33.0153 41.3418 31.6651 42.0868 30.6075C42.4593 30.3733 42.6417 29.9144 42.695 29.4442L42.0146 29.3626C41.9766 29.7271 41.7713 29.9987 41.6763 30.0299C41.6687 30.0338 41.6611 30.0338 41.6535 30.0377L41.6497 30.0338C41.6497 30.0377 41.6459 30.0377 41.6459 30.0416C41.6079 30.0494 41.566 30.0377 41.4748 29.9753C41.3608 29.8949 41.1973 29.7037 41.0225 29.363L40.4143 29.6877C40.6196 30.0924 40.8362 30.3733 41.0833 30.5529C41.1403 30.5919 41.1973 30.6231 41.2544 30.6504C40.8172 31.5129 40.745 32.4885 40.9313 33.4602C40.8971 33.429 40.8666 33.3939 40.8324 33.3627C39.8936 32.4066 39.1866 31.4817 38.681 31.0173C38.6468 30.6309 38.624 30.3187 38.6468 30.0611C38.681 29.6424 38.7875 29.3673 39.1372 29.0188L38.6582 28.5161C38.2173 28.9595 38.0082 29.459 37.9626 30.0026C37.936 30.3655 37.9664 30.7714 38.012 31.2124C37.2024 30.748 36.4407 30.385 35.4858 30.1392L35.3209 30.8221C36.2749 31.068 37.0044 31.427 37.8562 31.9304C38.1185 32.1685 38.9699 33.2222 39.9772 34.2485C40.8971 35.1852 41.9842 36.1491 43.2005 36.6213C43.0789 37.5462 43.1663 38.4633 43.5768 39.236C43.3335 39.4974 43.1207 39.7745 42.9344 40.0633C42.8318 40.2233 42.7406 40.3833 42.6532 40.5472C41.8093 40.2467 40.6728 39.5091 39.7339 38.6818C39.7073 38.6584 39.6807 38.6311 39.6503 38.6077C39.6617 38.3267 39.7719 37.995 39.9468 37.6711C40.1672 37.2613 40.4865 36.8749 40.7678 36.6135L40.3079 36.0905C39.9696 36.4066 39.6123 36.8398 39.35 37.3276C39.2284 37.554 39.122 37.792 39.0535 38.0379C38.7837 37.7647 38.5404 37.4954 38.3427 37.2496C37.9892 36.8047 37.7878 36.3832 37.7726 36.2935C37.4951 34.7871 37.3659 34.2993 36.251 32.7461L35.2715 33.4876C35.5444 33.8661 35.7443 34.1549 35.896 34.3929C35.3707 34.4515 34.7933 34.3071 34.4599 33.9949L34 34.5178C34.5907 35.0681 35.4638 35.232 36.2407 35.0486C36.384 35.4154 36.4403 35.7978 36.5752 36.5276C36.5859 36.5862 36.5996 36.6408 36.6151 36.6993H36.576C35.8192 36.7306 35.1491 37.152 34.6317 37.7374L35.138 38.2096C35.6732 37.6047 36.243 37.2808 36.95 37.4213C37.077 37.6242 37.229 37.8233 37.4001 38.0379C37.8144 38.5569 38.3465 39.1072 38.9395 39.6301C39.3538 39.9931 39.7947 40.3443 40.2433 40.6604C39.4374 40.9765 38.2439 41.1482 37.3354 40.9921L37.2214 41.6829C37.6623 41.7609 38.1337 41.7843 38.6012 41.7531C38.5518 41.9365 38.548 42.1277 38.5822 42.3034C38.6582 42.6975 38.9129 43.0331 39.255 43.2712L39.6389 42.6936C39.4184 42.5375 39.2854 42.3346 39.2512 42.1629C39.217 41.9912 39.2436 41.839 39.4336 41.6516C39.9924 41.5424 40.5169 41.3628 40.9427 41.1131C41.3494 41.3511 41.7599 41.5541 42.1628 41.6985C41.7371 42.9707 41.6687 44.2195 41.6421 45H42.8584C42.8926 43.9346 43.0333 42.1785 43.9493 40.7541C44.3218 40.1765 44.8084 39.6418 45.4888 39.2204C46.3858 39.3999 47.2601 39.5989 48.0583 39.8838C47.9899 40.2584 47.758 40.4497 47.4805 40.7775C47.3361 40.9531 47.1802 41.1677 47.108 41.4526C47.032 41.7375 47.0434 42.077 47.165 42.4634L47.8188 42.2526C47.7238 41.956 47.7314 41.7765 47.7656 41.636C47.8036 41.4955 47.8796 41.3785 48.0013 41.238C48.2065 40.9921 48.5638 40.676 48.7007 40.1453C49.0884 40.3209 49.4533 40.5238 49.7878 40.7697L50.1831 40.196C49.1188 39.4155 47.8454 39.0174 46.5341 38.7247C47.3931 38.4203 48.4688 38.2642 49.8372 38.3111C50.0424 38.7599 50.4492 39.1579 50.9471 39.4818L51.3158 38.8886C50.6582 38.4594 50.3465 37.9559 50.3769 37.6164C50.3959 37.4447 50.4872 37.2691 50.7342 37.074C50.9851 36.8788 51.3956 36.6798 52 36.5276L51.8328 35.8447C51.1714 36.0125 50.6772 36.2349 50.3161 36.5159C50.1185 36.6759 49.955 36.8593 49.8524 37.0584C49.6661 37.0545 49.4951 37.0506 49.324 37.0545C48.8147 37.0584 48.3358 37.0935 47.8834 37.152C48.636 36.2154 49.0922 35.1266 49.2556 33.9129L48.5828 33.8154C48.5106 34.3227 48.389 34.7988 48.2065 35.2515C47.9975 35.2281 47.8112 35.1383 47.6516 35.0095C47.4311 34.8261 47.2753 34.5568 47.2296 34.3188L46.5569 34.4593C46.6405 34.8769 46.8761 35.271 47.222 35.5559C47.4121 35.712 47.6478 35.8369 47.8948 35.9032C47.5984 36.4418 47.2068 36.9335 46.7203 37.3901C45.8651 37.6203 45.1429 37.9677 44.5385 38.3891C44.2838 37.6359 44.3484 36.5549 44.7247 35.5091C45.1277 34.4007 45.8613 33.3939 46.6215 32.9061C46.8077 32.988 47.0168 33.0271 47.2182 33.0388C47.6364 33.0622 48.0811 32.988 48.4992 32.8827C49.3392 32.6758 50.0805 32.3402 50.0805 32.3402L49.8068 31.6963C49.8068 31.6963 49.1036 32.0124 48.3396 32.1997C47.9595 32.2934 47.5641 32.3558 47.2563 32.3363C46.9522 32.3207 46.7811 32.2387 46.7013 32.1139C46.6709 32.0631 46.6557 31.9656 46.7241 31.7783C46.7925 31.587 46.937 31.349 47.1004 31.1265C47.4235 30.6855 47.8074 30.3148 47.8074 30.3148L47.3437 29.8012C47.3437 29.8012 46.9218 30.2016 46.5531 30.7051C46.3668 30.9587 46.192 31.2358 46.0855 31.5324C46.0513 31.6261 46.0247 31.7236 46.0095 31.8251C45.7016 32.0124 45.4127 32.2427 45.1505 32.508C44.892 30.7714 44.987 28.913 45.0668 27.032L44.3864 27Z" fill="#582F91"/>
<g clip-path="url(#clip6_55_679)">
<path d="M12.6543 16.2359C12.3327 15.8705 11.8936 15.6283 11.4127 15.5539C10.7445 15.4504 10.0427 15.427 9.33034 15.5297C7.53278 15.7887 6.03242 16.7815 4.95596 17.7468C4.83655 17.8539 4.84926 18.0447 4.98064 18.1367L7.18567 19.6814L4.71578 21.2847C4.55962 21.3861 4.56457 21.6172 4.72576 21.7103C6.07296 22.4882 8.18416 23.3802 10.4152 23.0587C10.8999 22.9889 11.3633 22.8644 11.8028 22.7013C12.259 22.5319 12.6424 22.2096 12.8858 21.7882L14.7305 18.5942L12.6543 16.2359Z" fill="#0064BF"/>
<path d="M15.4293 17.6696C14.1722 16.8678 11.844 15.6909 9.41962 16.0402C5.82777 16.5578 3.38462 20.2291 3.38462 20.2291C3.38462 20.2291 6.76489 23.0614 10.3567 22.5438C12.7811 22.1944 14.6823 20.4081 15.6619 19.2839C16.0948 18.7871 15.9849 18.024 15.4293 17.6696Z" fill="#0055B8"/>
<path d="M9.41962 16.0402C5.82777 16.5578 3.38462 20.2291 3.38462 20.2291C3.38462 20.2291 3.99946 20.7441 4.98296 21.2947L10.8454 20.4499C11.5272 20.3517 12.0003 19.7193 11.9021 19.0374L11.4751 16.0745C10.8137 15.9662 10.1208 15.9392 9.41962 16.0402ZM10.1688 19.5456C9.81551 19.5966 9.48787 19.3514 9.43697 18.9982C9.38607 18.6449 9.63117 18.3173 9.98443 18.2664C10.3377 18.2155 10.6654 18.4606 10.7163 18.8138C10.7672 19.1671 10.522 19.4947 10.1688 19.5456Z" fill="#444D56"/>
<path d="M13.7431 19.2606C14.2294 19.1906 14.5669 18.7395 14.4968 18.2531C14.4267 17.7667 13.9756 17.4292 13.4893 17.4993C13.0029 17.5694 12.6654 18.0205 12.7355 18.5069C12.8056 18.9933 13.2567 19.3307 13.7431 19.2606Z" fill="white"/>
<path d="M13.6797 18.8203C13.9228 18.7852 14.0916 18.5597 14.0565 18.3165C14.0215 18.0734 13.796 17.9046 13.5528 17.9397C13.3096 17.9747 13.1409 18.2002 13.1759 18.4434C13.211 18.6866 13.4365 18.8553 13.6797 18.8203Z" fill="#814C3A"/>
<path d="M4.11561 19.1908L1.13187 18.1753C0.936375 18.1087 0.739594 18.2721 0.769053 18.4765L1.29211 22.1065C1.32156 22.3109 1.55648 22.4121 1.72522 22.2931L4.30085 20.4764C4.78753 20.1332 4.6794 19.3827 4.11561 19.1908Z" fill="#444D56"/>
<path d="M3.56028 19.6603L0.804474 18.7223L1.2567 21.8607L3.63556 20.1827C3.83336 20.0432 3.78942 19.7383 3.56028 19.6603Z" fill="#FFD224"/>
<path d="M10.3318 19.5166L8.77644 18.353C7.92482 19.4914 8.15727 21.1045 9.29562 21.9562L10.4592 20.4008C10.6681 20.1215 10.6111 19.7256 10.3318 19.5166Z" fill="#FFD224"/>
<path d="M10.3318 19.5166L9.07573 18.577C8.34778 19.55 8.54648 20.929 9.51954 21.6569L10.4592 20.4009C10.6681 20.1215 10.6111 19.7256 10.3318 19.5166Z" fill="#0063BE"/>
</g>
<g clip-path="url(#clip7_55_679)">
<path d="M21.8877 11.3279L22.5472 12.0752L21.6607 12.9576C21.2692 13.3473 20.4975 13.2977 20.1094 12.8578C19.7212 12.4179 19.9305 11.8302 20.5301 11.6763L21.8877 11.3279Z" fill="#EA8518"/>
<path d="M23.957 9.85556L24.3319 9.40796C24.3319 9.40796 22.4627 8.18852 20.4267 8.96309" fill="#EA8518"/>
<path d="M20.2697 8.99895L19.0665 8.78863C18.7227 8.72853 18.405 8.90278 18.357 9.17783L18.2967 9.52243" fill="#EA8518"/>
<path d="M19.7738 11.8361L18.5706 11.6258C18.2268 11.5657 17.987 11.294 18.0351 11.019L18.0954 10.6744" fill="#EA8518"/>
<path d="M25.5869 11.3905C24.9294 11.9818 24.1002 12.3372 23.2199 12.4774C23.1751 12.4847 23.13 12.4911 23.0849 12.4972C23.0403 12.5032 22.9954 12.5085 22.9505 12.5133C22.814 12.5283 22.6766 12.5384 22.5387 12.5433C22.4826 12.5454 22.4264 12.5467 22.3704 12.547C22.3385 12.5472 22.3067 12.5472 22.275 12.5468C22.153 12.5457 22.0309 12.5409 21.909 12.5322C21.7296 12.5196 21.5503 12.4988 21.3723 12.4701C21.3381 12.4647 21.304 12.4589 21.2699 12.4528C21.2189 12.4437 21.1682 12.4341 21.1174 12.4236C20.6503 12.3276 20.195 12.1767 19.769 11.974C19.7313 11.9561 19.6938 11.9377 19.6564 11.9189C19.6132 11.897 19.5699 11.8747 19.5273 11.8516C19.2475 11.7013 18.9825 11.5271 18.738 11.3304C18.6948 11.2958 18.6522 11.2605 18.6104 11.2244C18.5761 11.1949 18.5424 11.1649 18.5092 11.1346C18.3677 11.0052 18.2344 10.8675 18.1109 10.7217C18.0776 10.6824 18.0451 10.6427 18.0134 10.6023C17.973 10.5512 17.9338 10.4992 17.896 10.4461C17.7935 10.3033 17.6998 10.1535 17.6162 9.99712C17.7479 9.87855 17.8868 9.76946 18.0317 9.66966C18.0853 9.63253 18.1399 9.59673 18.1952 9.56219C18.2387 9.53497 18.2828 9.50862 18.3274 9.48313C18.4931 9.38791 18.6649 9.30353 18.8421 9.23003C18.8837 9.21261 18.9255 9.19601 18.9678 9.17987C19.0194 9.15999 19.0715 9.14116 19.1239 9.12315C19.4204 9.02114 19.7289 8.94744 20.0431 8.90115C20.091 8.89402 20.1392 8.88753 20.1874 8.88179C20.2287 8.87676 20.2704 8.87219 20.312 8.86798C20.7813 8.82143 21.261 8.83393 21.7329 8.90226C21.7843 8.9097 21.8352 8.91766 21.8863 8.9264L21.91 8.93054C21.9362 8.93512 21.9624 8.93989 21.9886 8.94485C22.166 8.97815 22.3412 9.0195 22.5144 9.06853C22.632 9.10191 22.7485 9.13873 22.8637 9.17895C22.8937 9.18936 22.9236 9.20014 22.9535 9.21111C23.0061 9.23044 23.0585 9.2507 23.1106 9.27167C23.2387 9.32314 23.3645 9.379 23.4879 9.43941C23.5284 9.45913 23.5689 9.47941 23.6088 9.50016C23.6491 9.52118 23.6894 9.54275 23.7291 9.56481C24.3828 9.92553 24.9515 10.416 25.3643 11.0236L25.0944 11.1716C25.0048 11.2208 24.987 11.3225 25.0546 11.3992L25.0912 11.4406L25.4906 11.2215C25.5242 11.2769 25.5563 11.3332 25.5869 11.3905Z" fill="#F9993A"/>
<path d="M16.0795 8.58371C16.0308 8.56994 15.9818 8.55744 15.9326 8.54559L15.54 10.7912C15.5904 10.7967 15.6407 10.8016 15.6911 10.8052C16.5518 10.8662 17.4228 10.637 18.0498 10.0728C17.6514 9.32935 16.9098 8.81828 16.0795 8.58371Z" fill="#F9993A"/>
<path d="M24.1033 11.6066C24.4218 11.6623 24.7161 11.5008 24.7607 11.246C24.8052 10.9912 24.5831 10.7394 24.2646 10.6838C23.946 10.6281 23.6517 10.7895 23.6072 11.0444C23.5626 11.2992 23.7847 11.5509 24.1033 11.6066Z" fill="white"/>
<path d="M24.1346 11.4275C24.3295 11.4615 24.5095 11.3628 24.5368 11.2069C24.564 11.051 24.4281 10.897 24.2333 10.8629C24.0384 10.8288 23.8583 10.9276 23.8311 11.0835C23.8038 11.2394 23.9397 11.3934 24.1346 11.4275Z" fill="#4D4D4D"/>
<path d="M23.6087 9.50017L23.0848 12.4972C22.8491 12.5288 22.6101 12.5453 22.3702 12.547L22.9534 9.21118C23.1785 9.29412 23.3977 9.3905 23.6087 9.50017Z" fill="#E6E6E6"/>
<path d="M18.9679 9.17985L18.6105 11.2243C18.3917 11.0358 18.1912 10.8282 18.0134 10.6023L18.1952 9.56211C18.4395 9.40998 18.6982 9.28268 18.9679 9.17985Z" fill="#E6E6E6"/>
<path d="M21.8863 8.92645L21.2699 12.4528C20.7078 12.3524 20.1601 12.1726 19.6566 11.9189L20.1875 8.88171C20.7469 8.81354 21.3235 8.83025 21.8863 8.92645Z" fill="#E6E6E6"/>
<path d="M23.7291 9.56478L23.2199 12.4774C23.1751 12.4846 23.13 12.4911 23.0849 12.4972C23.0403 12.5032 22.9954 12.5085 22.9505 12.5133L23.4879 9.43939C23.5284 9.45911 23.5689 9.47939 23.6088 9.50014C23.6491 9.52116 23.6894 9.54273 23.7291 9.56478Z" fill="#666464"/>
<path d="M23.1106 9.27167L22.5387 12.5433C22.4826 12.5454 22.4264 12.5467 22.3704 12.547C22.3386 12.5472 22.3067 12.5472 22.275 12.5468L22.8637 9.17896C22.8937 9.18936 22.9236 9.20014 22.9535 9.21111C23.0061 9.23044 23.0585 9.25071 23.1106 9.27167Z" fill="#666464"/>
<path d="M21.9886 8.94484L21.3724 12.4701C21.3381 12.4647 21.304 12.4589 21.2699 12.4528C21.2189 12.4437 21.1682 12.4341 21.1174 12.4236L21.7329 8.90226C21.7843 8.9097 21.8353 8.91765 21.8863 8.92639L21.91 8.93053C21.9362 8.93512 21.9624 8.93989 21.9886 8.94484Z" fill="#666464"/>
<path d="M20.312 8.86799L19.7691 11.974C19.7313 11.9561 19.6938 11.9377 19.6565 11.919C19.6132 11.897 19.57 11.8747 19.5274 11.8516L20.0431 8.90116C20.091 8.89403 20.1393 8.88754 20.1874 8.88179C20.2287 8.87677 20.2704 8.87219 20.312 8.86799Z" fill="#666464"/>
<path d="M19.1239 9.12312L18.7381 11.3303C18.6948 11.2958 18.6522 11.2604 18.6104 11.2244C18.5761 11.1949 18.5424 11.1649 18.5092 11.1346L18.8421 9.23C18.8837 9.21258 18.9256 9.19598 18.9678 9.17984C19.0194 9.15996 19.0715 9.14113 19.1239 9.12312Z" fill="#666464"/>
<path d="M18.3274 9.4831L18.1109 10.7217C18.0776 10.6824 18.0451 10.6426 18.0134 10.6023C17.973 10.5512 17.9338 10.4992 17.896 10.4461L18.0317 9.66963C18.0853 9.63251 18.1399 9.5967 18.1952 9.56217C18.2387 9.53495 18.2828 9.50859 18.3274 9.4831Z" fill="#666464"/>
<path d="M22.3672 10.9152L22.2349 11.672L20.9728 11.7301C20.4155 11.7557 19.9409 11.3402 20.0187 10.8946C20.0966 10.4491 20.684 10.2192 21.1997 10.4324L22.3672 10.9152Z" fill="#F9993A"/>
</g>
<path d="M29.8222 4.84279C30.8637 4.84279 31.7079 3.99851 31.7079 2.95707C31.7079 1.91561 30.8637 1.07135 29.8222 1.07135C28.7808 1.07135 27.9365 1.91561 27.9365 2.95707C27.9365 3.99851 28.7808 4.84279 29.8222 4.84279Z" fill="url(#paint0_linear_55_679)"/>
<path d="M29.8222 4.84279C30.8637 4.84279 31.7079 3.99851 31.7079 2.95707C31.7079 1.91561 30.8637 1.07135 29.8222 1.07135C28.7808 1.07135 27.9365 1.91561 27.9365 2.95707C27.9365 3.99851 28.7808 4.84279 29.8222 4.84279Z" fill="url(#paint1_radial_55_679)"/>
<path d="M29.8222 4.84279C30.8637 4.84279 31.7079 3.99851 31.7079 2.95707C31.7079 1.91561 30.8637 1.07135 29.8222 1.07135C28.7808 1.07135 27.9365 1.91561 27.9365 2.95707C27.9365 3.99851 28.7808 4.84279 29.8222 4.84279Z" fill="url(#paint2_radial_55_679)"/>
<path d="M30.2293 1.46985C30.4415 1.79343 30.1843 2.33771 29.6551 2.68271C29.1258 3.02771 28.5258 3.04914 28.3136 2.72557C28.1015 2.402 28.3586 1.85771 28.8879 1.51271C29.4172 1.16771 30.0172 1.14628 30.2293 1.46985Z" fill="url(#paint3_radial_55_679)"/>
<path d="M29.8222 4.84279C30.8637 4.84279 31.7079 3.99851 31.7079 2.95707C31.7079 1.91561 30.8637 1.07135 29.8222 1.07135C28.7808 1.07135 27.9365 1.91561 27.9365 2.95707C27.9365 3.99851 28.7808 4.84279 29.8222 4.84279Z" fill="url(#paint4_radial_55_679)"/>
<path d="M29.218 3.95145C28.753 3.70501 28.0694 2.93787 28.2515 1.91144C28.0522 2.21144 27.9344 2.56929 27.9344 2.95715C27.9344 3.99859 28.7787 4.84286 29.8201 4.84286C30.2872 4.84286 30.7158 4.67145 31.0458 4.39072C30.4222 3.95359 30.0751 4.40786 29.218 3.95145Z" fill="url(#paint5_linear_55_679)"/>
<path d="M29.8822 1.07355C29.91 1.07569 29.9357 1.07998 29.9636 1.08641C30.0086 1.09926 30.0536 1.11855 30.0964 1.14212C30.18 1.19141 30.2507 1.25783 30.315 1.33069C30.4393 1.47855 30.5272 1.65212 30.5936 1.83212C30.6279 1.92212 30.6557 2.01426 30.6793 2.10641C30.7029 2.19855 30.7222 2.29283 30.7372 2.38712C30.7522 2.48141 30.7629 2.57569 30.7714 2.67212C30.7779 2.76641 30.7822 2.86283 30.7822 2.95926C30.7822 3.05569 30.7779 3.14997 30.7714 3.24641C30.7629 3.34069 30.7543 3.43712 30.7372 3.53141C30.7222 3.62569 30.7029 3.71997 30.6793 3.8121C30.6557 3.90428 30.6279 3.99641 30.5936 4.08641C30.5272 4.26428 30.4372 4.43783 30.315 4.58783C30.2529 4.66069 30.18 4.7271 30.0964 4.77641C30.0557 4.79996 30.0107 4.81928 29.9636 4.8321C29.9379 4.83855 29.91 4.84283 29.8843 4.84496C30.5657 4.79783 31.1079 3.97283 31.1079 2.96141C31.1079 1.94569 30.5636 1.12069 29.8822 1.07355Z" fill="url(#paint6_radial_55_679)"/>
<path d="M26.6143 6.28061C27.3481 6.28061 27.9429 5.68579 27.9429 4.95206C27.9429 4.2183 27.3481 3.62347 26.6143 3.62347C25.8806 3.62347 25.2858 4.2183 25.2858 4.95206C25.2858 5.68579 25.8806 6.28061 26.6143 6.28061Z" fill="url(#paint7_linear_55_679)"/>
<path d="M26.6143 6.28061C27.3481 6.28061 27.9429 5.68579 27.9429 4.95206C27.9429 4.2183 27.3481 3.62347 26.6143 3.62347C25.8806 3.62347 25.2858 4.2183 25.2858 4.95206C25.2858 5.68579 25.8806 6.28061 26.6143 6.28061Z" fill="url(#paint8_radial_55_679)"/>
<path d="M26.6143 6.28061C27.3481 6.28061 27.9429 5.68579 27.9429 4.95206C27.9429 4.2183 27.3481 3.62347 26.6143 3.62347C25.8806 3.62347 25.2858 4.2183 25.2858 4.95206C25.2858 5.68579 25.8806 6.28061 26.6143 6.28061Z" fill="url(#paint9_radial_55_679)"/>
<path d="M26.9015 3.9063C27.0515 4.13344 26.8693 4.51702 26.4965 4.7613C26.1236 5.00557 25.6993 5.01844 25.5515 4.7913C25.4015 4.56416 25.5836 4.18057 25.9565 3.9363C26.3293 3.692 26.7515 3.67915 26.9015 3.9063Z" fill="url(#paint10_radial_55_679)"/>
<path d="M26.6143 6.28061C27.3481 6.28061 27.9429 5.68579 27.9429 4.95206C27.9429 4.2183 27.3481 3.62347 26.6143 3.62347C25.8806 3.62347 25.2858 4.2183 25.2858 4.95206C25.2858 5.68579 25.8806 6.28061 26.6143 6.28061Z" fill="url(#paint11_radial_55_679)"/>
<path d="M26.1879 5.65277C25.8601 5.47922 25.3801 4.93922 25.5086 4.2149C25.3672 4.42708 25.2858 4.6799 25.2858 4.95208C25.2858 5.6849 25.8815 6.28063 26.6143 6.28063C26.9443 6.28063 27.2465 6.16063 27.4779 5.96135C27.0386 5.6549 26.7922 5.97422 26.1879 5.65277Z" fill="url(#paint12_linear_55_679)"/>
<path d="M26.6572 3.62567C26.6765 3.62781 26.6958 3.62996 26.7129 3.63424C26.7451 3.64281 26.7772 3.65781 26.8051 3.67281C26.8629 3.7071 26.9144 3.75424 26.9594 3.80569C27.0472 3.91069 27.1094 4.03282 27.1565 4.15924C27.1801 4.22137 27.2015 4.28782 27.2165 4.3521C27.2337 4.41637 27.2465 4.48282 27.2572 4.54924C27.2679 4.61569 27.2744 4.6821 27.2808 4.75069C27.2851 4.8171 27.2872 4.88569 27.2894 4.9521C27.2894 5.01851 27.2872 5.0871 27.2808 5.15351C27.2744 5.21996 27.2679 5.28851 27.2572 5.35496C27.2465 5.42137 27.2315 5.48782 27.2165 5.5521C27.1994 5.61851 27.1801 5.68282 27.1565 5.74496C27.1094 5.87137 27.0472 5.99351 26.9594 6.09851C26.9144 6.14996 26.8651 6.1971 26.8051 6.23137C26.7751 6.24851 26.7451 6.26137 26.7129 6.26996C26.6937 6.27424 26.6765 6.27851 26.6572 6.27851C27.1372 6.24424 27.5208 5.66351 27.5208 4.9521C27.5208 4.24069 27.1372 3.65996 26.6572 3.62567Z" fill="url(#paint13_radial_55_679)"/>
<path d="M29.7858 7.92845C30.3775 7.92845 30.8572 7.44875 30.8572 6.85703C30.8572 6.26528 30.3775 5.78558 29.7858 5.78558C29.194 5.78558 28.7143 6.26528 28.7143 6.85703C28.7143 7.44875 29.194 7.92845 29.7858 7.92845Z" fill="url(#paint14_linear_55_679)"/>
<path d="M29.7858 7.92845C30.3775 7.92845 30.8572 7.44875 30.8572 6.85703C30.8572 6.26528 30.3775 5.78558 29.7858 5.78558C29.194 5.78558 28.7143 6.26528 28.7143 6.85703C28.7143 7.44875 29.194 7.92845 29.7858 7.92845Z" fill="url(#paint15_radial_55_679)"/>
<path d="M29.7858 7.92845C30.3775 7.92845 30.8572 7.44875 30.8572 6.85703C30.8572 6.26528 30.3775 5.78558 29.7858 5.78558C29.194 5.78558 28.7143 6.26528 28.7143 6.85703C28.7143 7.44875 29.194 7.92845 29.7858 7.92845Z" fill="url(#paint16_radial_55_679)"/>
<path d="M30.0172 6.01272C30.1372 6.197 29.9915 6.50558 29.6915 6.70272C29.3915 6.89986 29.0487 6.91058 28.9287 6.72627C28.8087 6.542 28.9544 6.23341 29.2544 6.03627C29.5544 5.83913 29.8972 5.82841 30.0172 6.01272Z" fill="url(#paint17_radial_55_679)"/>
<path d="M29.7858 7.92845C30.3775 7.92845 30.8572 7.44875 30.8572 6.85703C30.8572 6.26528 30.3775 5.78558 29.7858 5.78558C29.194 5.78558 28.7143 6.26528 28.7143 6.85703C28.7143 7.44875 29.194 7.92845 29.7858 7.92845Z" fill="url(#paint18_radial_55_679)"/>
<path d="M29.4429 7.4228C29.1793 7.28349 28.7914 6.84635 28.8943 6.26349C28.7808 6.4328 28.7143 6.63849 28.7143 6.85708C28.7143 7.44849 29.1943 7.92849 29.7858 7.92849C30.0515 7.92849 30.2958 7.83208 30.4822 7.67135C30.1265 7.4228 29.9293 7.68208 29.4429 7.4228Z" fill="url(#paint19_linear_55_679)"/>
<path d="M29.82 5.78778C29.835 5.78992 29.85 5.79206 29.865 5.79633C29.8907 5.80492 29.9165 5.81564 29.94 5.82851C29.9871 5.85633 30.0279 5.89492 30.0643 5.93564C30.135 6.01919 30.1843 6.11778 30.2229 6.22064C30.2421 6.27206 30.2593 6.32351 30.2721 6.37706C30.285 6.43064 30.2957 6.48206 30.3043 6.53564C30.3129 6.58919 30.3193 6.64278 30.3236 6.69633C30.3279 6.74992 30.33 6.80564 30.33 6.85919C30.33 6.91278 30.3279 6.96851 30.3236 7.02206C30.3193 7.07564 30.3129 7.12919 30.3043 7.18278C30.2957 7.23633 30.285 7.28992 30.2721 7.34133C30.2593 7.39492 30.2421 7.44633 30.2229 7.49778C30.1843 7.59851 30.135 7.69706 30.0643 7.78278C30.0279 7.82351 29.9871 7.86206 29.94 7.88992C29.9165 7.90278 29.8907 7.91351 29.865 7.92206C29.85 7.92633 29.835 7.92851 29.82 7.93064C30.2079 7.90278 30.5165 7.43564 30.5165 6.86133C30.5165 6.28278 30.2079 5.81351 29.82 5.78778Z" fill="url(#paint20_radial_55_679)"/>
<path d="M38.4325 10.7475L38.1775 10.365L37.1312 9.08686C37.1312 9.08686 36.1894 8.67561 35.5512 8.69748C35.1112 8.71248 34.2594 8.55873 33.3244 9.32873C32.6237 9.90561 32.4769 10.5725 32.4769 10.5725L33.17 10.9575L32.6419 11.3094C32.6419 11.3094 33.2494 12.4231 34.9306 12.6406C36.9237 12.8987 37.6537 11.86 38.0981 11.2794C38.1444 11.2187 38.4325 10.7475 38.4325 10.7475Z" fill="url(#paint21_linear_55_679)"/>
<path d="M35.6038 7.72687C35.5513 7.75624 35.1944 8.05124 35.0275 8.26187C34.88 8.44812 34.7238 8.71937 34.7238 8.71937C34.7238 8.71937 35.5156 8.69437 36.0906 8.88812C36.6656 9.08187 37.3144 9.50562 37.815 10.0962C38.1994 10.5494 38.3006 10.73 38.305 10.8131C38.3094 10.8969 37.9881 11.3012 37.6394 11.6506C37.4163 11.8737 37.1963 12.085 36.6156 12.4187C36.3425 12.5756 36.1275 12.63 36.1275 12.63C36.1275 12.63 36.7625 12.7406 37.0731 12.7444C37.4194 12.7487 37.6219 12.7237 37.645 12.6419C37.6688 12.56 37.2813 12.2662 37.2813 12.2662C37.2813 12.2662 37.695 11.9319 37.9881 11.5875C38.1044 11.4506 38.4075 11.0637 38.4075 11.0637C38.4075 11.0637 38.7313 11.4006 38.9163 11.5562C39.11 11.7187 39.5675 12.0669 39.6394 12.0375C39.7219 12.0037 39.5456 11.48 39.4281 11.2694C39.3106 11.0581 39.0056 10.7706 39.0056 10.7706C39.0056 10.7706 39.3913 10.4744 39.5319 10.14C39.6725 9.80562 39.78 9.36874 39.6919 9.32749C39.6038 9.28624 39.0244 9.88187 38.9075 9.99937C38.79 10.1169 38.4688 10.505 38.4688 10.505C38.4688 10.505 38.1963 10.2187 38.1319 10.1425C38.0675 10.0662 37.8619 9.80812 37.8619 9.80812C37.8619 9.80812 37.4225 8.91437 36.6356 8.28874C36.0906 7.85562 35.6038 7.72687 35.6038 7.72687Z" fill="#1B65A6"/>
<path d="M35.0581 10.8619C35.0581 10.9675 35.01 11.3206 35.3219 11.5525C35.685 11.8219 36.2313 11.8675 36.4363 11.8563C36.7513 11.8388 36.8881 11.7563 36.8881 11.7563C36.8881 11.7563 36.5656 11.3513 35.9963 11.0756C35.4269 10.8 35.0581 10.8619 35.0581 10.8619Z" fill="#1B65A6"/>
<path d="M32.3306 10.5494C32.2769 10.6531 32.3481 10.7006 32.5244 10.7825C32.7006 10.8644 32.97 10.9644 32.97 10.9644C32.97 10.9644 32.8 11.035 32.7119 11.0931C32.6237 11.1519 32.465 11.2113 32.5069 11.3163C32.5375 11.3938 32.6125 11.3869 32.7531 11.3106C32.8937 11.2344 33.205 11.0406 33.2106 10.9644C33.2162 10.8881 33.01 10.7619 32.85 10.6769C32.6562 10.5744 32.3919 10.4306 32.3306 10.5494Z" fill="#1B65A6"/>
<path d="M34.225 10.3131C34.225 10.4344 34.1481 10.5375 33.9963 10.5475C33.82 10.5594 33.75 10.4312 33.75 10.31C33.75 10.1887 33.8644 10.0931 33.9756 10.0825C34.1213 10.07 34.225 10.1919 34.225 10.3131Z" fill="#262D33"/>
<path d="M34.8937 10.4306C34.8344 10.4388 34.8119 10.5125 34.8175 10.63C34.8231 10.7475 34.8525 10.8413 34.835 10.9056C34.8175 10.97 34.5712 11.3106 34.5244 11.375C34.4775 11.4394 34.4187 11.5331 34.4831 11.5863C34.5475 11.6394 34.63 11.5688 34.6769 11.5219C34.7237 11.475 35.0406 11.0588 35.0525 10.9644C35.0644 10.8706 35.0231 10.6419 35.0175 10.595C35.0112 10.5481 34.9819 10.4188 34.8937 10.4306Z" fill="#E0ECF3"/>
<path d="M35.1987 10.4307C35.1931 10.5307 35.31 10.5363 35.445 10.5363C35.5681 10.5363 36.2812 10.5688 36.6681 10.5888C37.0819 10.6107 37.6419 10.7107 37.8894 10.7532C38.0362 10.7782 38.1769 10.8119 38.1769 10.7119C38.1769 10.6169 38.0231 10.6019 37.8719 10.5713C37.7444 10.545 37.3369 10.435 36.6725 10.3938C36.1744 10.3632 35.5037 10.3425 35.4275 10.3482C35.3512 10.3544 35.2044 10.3357 35.1987 10.4307Z" fill="#E0ECF3"/>
<defs>
<linearGradient id="paint0_linear_55_679" x1="28.1444" y1="0.3103" x2="34.925" y2="11.0114" gradientUnits="userSpaceOnUse">
<stop stop-color="#80DAFE" stop-opacity="0"/>
<stop offset="1" stop-color="#008EE6"/>
</linearGradient>
<radialGradient id="paint1_radial_55_679" cx="0" cy="0" r="1" gradientUnits="userSpaceOnUse" gradientTransform="translate(29.3062 1.33586) scale(4.41476)">
<stop offset="0.5839" stop-color="#FB9DC1" stop-opacity="0"/>
<stop offset="0.6244" stop-color="#F59EC3" stop-opacity="0.0730316"/>
<stop offset="0.6809" stop-color="#E2A0C8" stop-opacity="0.1749"/>
<stop offset="0.7469" stop-color="#C5A4D0" stop-opacity="0.2938"/>
<stop offset="0.82" stop-color="#9BAADB" stop-opacity="0.4256"/>
<stop offset="0.899" stop-color="#66B1E9" stop-opacity="0.568"/>
<stop offset="0.9818" stop-color="#26B9FA" stop-opacity="0.7172"/>
<stop offset="1" stop-color="#17BBFE" stop-opacity="0.75"/>
</radialGradient>
<radialGradient id="paint2_radial_55_679" cx="0" cy="0" r="1" gradientUnits="userSpaceOnUse" gradientTransform="translate(30.2005 2.98767) scale(4.90234)">
<stop stop-color="#D1F2FF" stop-opacity="0"/>
<stop offset="0.1913" stop-color="#CBF0FF" stop-opacity="0.1435"/>
<stop offset="0.458" stop-color="#B8EBFF" stop-opacity="0.3435"/>
<stop offset="0.7676" stop-color="#9BE2FE" stop-opacity="0.5757"/>
<stop offset="1" stop-color="#80DAFE" stop-opacity="0.75"/>
</radialGradient>
<radialGradient id="paint3_radial_55_679" cx="0" cy="0" r="1" gradientUnits="userSpaceOnUse" gradientTransform="translate(29.2718 2.09794) rotate(-33.2503) scale(0.949515 0.631313)">
<stop stop-color="white"/>
<stop offset="1" stop-color="white" stop-opacity="0"/>
</radialGradient>
<radialGradient id="paint4_radial_55_679" cx="0" cy="0" r="1" gradientUnits="userSpaceOnUse" gradientTransform="translate(30.2005 2.98767) scale(4.90234)">
<stop stop-color="#D1F2FF" stop-opacity="0"/>
<stop offset="0.1913" stop-color="#CBF0FF" stop-opacity="0.1435"/>
<stop offset="0.458" stop-color="#B8EBFF" stop-opacity="0.3435"/>
<stop offset="0.7676" stop-color="#9BE2FE" stop-opacity="0.5757"/>
<stop offset="1" stop-color="#80DAFE" stop-opacity="0.75"/>
</radialGradient>
<linearGradient id="paint5_linear_55_679" x1="29.9121" y1="2.45053" x2="28.3094" y2="6.40552" gradientUnits="userSpaceOnUse">
<stop stop-color="#17BBFE" stop-opacity="0"/>
<stop offset="1" stop-color="#17BBFE" stop-opacity="0.75"/>
</linearGradient>
<radialGradient id="paint6_radial_55_679" cx="0" cy="0" r="1" gradientUnits="userSpaceOnUse" gradientTransform="translate(30.7518 2.0141) rotate(-1.44239) scale(1.40029 0.586312)">
<stop stop-color="white"/>
<stop offset="1" stop-color="white" stop-opacity="0"/>
</radialGradient>
<linearGradient id="paint7_linear_55_679" x1="25.4327" y1="3.08852" x2="30.2099" y2="10.6279" gradientUnits="userSpaceOnUse">
<stop stop-color="#80DAFE" stop-opacity="0"/>
<stop offset="1" stop-color="#008EE6"/>
</linearGradient>
<radialGradient id="paint8_radial_55_679" cx="0" cy="0" r="1" gradientUnits="userSpaceOnUse" gradientTransform="translate(26.2512 3.81105) scale(3.1104)">
<stop offset="0.5839" stop-color="#FB9DC1" stop-opacity="0"/>
<stop offset="0.6244" stop-color="#F59EC3" stop-opacity="0.0730316"/>
<stop offset="0.6809" stop-color="#E2A0C8" stop-opacity="0.1749"/>
<stop offset="0.7469" stop-color="#C5A4D0" stop-opacity="0.2938"/>
<stop offset="0.82" stop-color="#9BAADB" stop-opacity="0.4256"/>
<stop offset="0.899" stop-color="#66B1E9" stop-opacity="0.568"/>
<stop offset="0.9818" stop-color="#26B9FA" stop-opacity="0.7172"/>
<stop offset="1" stop-color="#17BBFE" stop-opacity="0.75"/>
</radialGradient>
<radialGradient id="paint9_radial_55_679" cx="0" cy="0" r="1" gradientUnits="userSpaceOnUse" gradientTransform="translate(26.8813 4.97482) scale(3.45391)">
<stop stop-color="#D1F2FF" stop-opacity="0"/>
<stop offset="0.1913" stop-color="#CBF0FF" stop-opacity="0.1435"/>
<stop offset="0.458" stop-color="#B8EBFF" stop-opacity="0.3435"/>
<stop offset="0.7676" stop-color="#9BE2FE" stop-opacity="0.5757"/>
<stop offset="1" stop-color="#80DAFE" stop-opacity="0.75"/>
</radialGradient>
<radialGradient id="paint10_radial_55_679" cx="0" cy="0" r="1" gradientUnits="userSpaceOnUse" gradientTransform="translate(26.227 4.3479) rotate(-33.2504) scale(0.668978 0.444791)">
<stop stop-color="white"/>
<stop offset="1" stop-color="white" stop-opacity="0"/>
</radialGradient>
<radialGradient id="paint11_radial_55_679" cx="0" cy="0" r="1" gradientUnits="userSpaceOnUse" gradientTransform="translate(26.8813 4.97482) scale(3.45391)">
<stop stop-color="#D1F2FF" stop-opacity="0"/>
<stop offset="0.1913" stop-color="#CBF0FF" stop-opacity="0.1435"/>
<stop offset="0.458" stop-color="#B8EBFF" stop-opacity="0.3435"/>
<stop offset="0.7676" stop-color="#9BE2FE" stop-opacity="0.5757"/>
<stop offset="1" stop-color="#80DAFE" stop-opacity="0.75"/>
</radialGradient>
<linearGradient id="paint12_linear_55_679" x1="26.6781" y1="4.59635" x2="25.5489" y2="7.38283" gradientUnits="userSpaceOnUse">
<stop stop-color="#17BBFE" stop-opacity="0"/>
<stop offset="1" stop-color="#17BBFE" stop-opacity="0.75"/>
</linearGradient>
<radialGradient id="paint13_radial_55_679" cx="0" cy="0" r="1" gradientUnits="userSpaceOnUse" gradientTransform="translate(27.2697 4.28906) rotate(-1.44239) scale(0.986569 0.413085)">
<stop stop-color="white"/>
<stop offset="1" stop-color="white" stop-opacity="0"/>
</radialGradient>
<linearGradient id="paint14_linear_55_679" x1="28.8322" y1="5.35358" x2="32.6848" y2="11.4337" gradientUnits="userSpaceOnUse">
<stop stop-color="#80DAFE" stop-opacity="0"/>
<stop offset="1" stop-color="#008EE6"/>
</linearGradient>
<radialGradient id="paint15_radial_55_679" cx="0" cy="0" r="1" gradientUnits="userSpaceOnUse" gradientTransform="translate(29.4922 5.93641) scale(2.50842)">
<stop offset="0.5839" stop-color="#FB9DC1" stop-opacity="0"/>
<stop offset="0.6244" stop-color="#F59EC3" stop-opacity="0.0730316"/>
<stop offset="0.6809" stop-color="#E2A0C8" stop-opacity="0.1749"/>
<stop offset="0.7469" stop-color="#C5A4D0" stop-opacity="0.2938"/>
<stop offset="0.82" stop-color="#9BAADB" stop-opacity="0.4256"/>
<stop offset="0.899" stop-color="#66B1E9" stop-opacity="0.568"/>
<stop offset="0.9818" stop-color="#26B9FA" stop-opacity="0.7172"/>
<stop offset="1" stop-color="#17BBFE" stop-opacity="0.75"/>
</radialGradient>
<radialGradient id="paint16_radial_55_679" cx="0" cy="0" r="1" gradientUnits="userSpaceOnUse" gradientTransform="translate(30.0004 6.87496) scale(2.78544)">
<stop stop-color="#D1F2FF" stop-opacity="0"/>
<stop offset="0.1913" stop-color="#CBF0FF" stop-opacity="0.1435"/>
<stop offset="0.458" stop-color="#B8EBFF" stop-opacity="0.3435"/>
<stop offset="0.7676" stop-color="#9BE2FE" stop-opacity="0.5757"/>
<stop offset="1" stop-color="#80DAFE" stop-opacity="0.75"/>
</radialGradient>
<radialGradient id="paint17_radial_55_679" cx="0" cy="0" r="1" gradientUnits="userSpaceOnUse" gradientTransform="translate(29.4755 6.37238) rotate(-33.2462) scale(0.539479 0.358667)">
<stop stop-color="white"/>
<stop offset="1" stop-color="white" stop-opacity="0"/>
</radialGradient>
<radialGradient id="paint18_radial_55_679" cx="0" cy="0" r="1" gradientUnits="userSpaceOnUse" gradientTransform="translate(30.0004 6.87496) scale(2.78544)">
<stop stop-color="#D1F2FF" stop-opacity="0"/>
<stop offset="0.1913" stop-color="#CBF0FF" stop-opacity="0.1435"/>
<stop offset="0.458" stop-color="#B8EBFF" stop-opacity="0.3435"/>
<stop offset="0.7676" stop-color="#9BE2FE" stop-opacity="0.5757"/>
<stop offset="1" stop-color="#80DAFE" stop-opacity="0.75"/>
</radialGradient>
<linearGradient id="paint19_linear_55_679" x1="29.8365" y1="6.5696" x2="28.9259" y2="8.81679" gradientUnits="userSpaceOnUse">
<stop stop-color="#17BBFE" stop-opacity="0"/>
<stop offset="1" stop-color="#17BBFE" stop-opacity="0.75"/>
</linearGradient>
<radialGradient id="paint20_radial_55_679" cx="0" cy="0" r="1" gradientUnits="userSpaceOnUse" gradientTransform="translate(30.3132 6.32062) rotate(-1.44248) scale(0.795573 0.333133)">
<stop stop-color="white"/>
<stop offset="1" stop-color="white" stop-opacity="0"/>
</radialGradient>
<linearGradient id="paint21_linear_55_679" x1="35.4546" y1="8.69411" x2="35.4546" y2="12.6812" gradientUnits="userSpaceOnUse">
<stop offset="0.079" stop-color="#1483BC"/>
<stop offset="0.189" stop-color="#1F8CC2"/>
<stop offset="0.381" stop-color="#3CA4D3"/>
<stop offset="0.585" stop-color="#62C2E8"/>
<stop offset="0.962" stop-color="#99D6EF"/>
</linearGradient>
<clipPath id="clip0_55_679">
<rect width="22" height="24" fill="white" transform="matrix(-1 0 0 1 48 21)"/>
</clipPath>
<clipPath id="clip1_55_679">
<rect width="21" height="21" fill="white" transform="translate(19 25)"/>
</clipPath>
<clipPath id="clip2_55_679">
<rect width="20" height="20" fill="white" transform="translate(3 25)"/>
</clipPath>
<clipPath id="clip3_55_679">
<rect width="8" height="8" fill="white" transform="translate(3 36)"/>
</clipPath>
<clipPath id="clip4_55_679">
<rect width="10" height="10" fill="white" transform="translate(41 14)"/>
</clipPath>
<clipPath id="clip5_55_679">
<rect width="10" height="10" fill="white" transform="matrix(-1 0 0 1 30 24)"/>
</clipPath>
<clipPath id="clip6_55_679">
<rect width="15" height="15" fill="white" transform="translate(0 13.1393) rotate(-8.19953)"/>
</clipPath>
<clipPath id="clip7_55_679">
<rect width="10" height="8" fill="white" transform="translate(16.3776 6) rotate(9.9155)"/>
</clipPath>
</defs>
</svg>
