<svg width="284" height="225" viewBox="0 0 284 225" fill="none" xmlns="http://www.w3.org/2000/svg">
<path d="M134 0H278C281.314 0 284 2.68629 284 6V219C284 222.314 281.314 225 278 225H134V0Z" fill="#02C7B0"/>
<path d="M150 0H6C2.68629 0 0 2.68629 0 6V219C0 222.314 2.68629 225 6 225H150V0Z" fill="#02C7B0"/>
<path d="M150 7H13C9.68629 7 7 9.68629 7 13V212C7 215.314 9.68629 218 13 218H150V7Z" fill="#FFF0D3"/>
<path d="M134 7H271C274.314 7 277 9.68629 277 13V212C277 215.314 274.314 218 271 218H134V7Z" fill="#FFF0D3"/>
<rect x="134" width="16" height="225" fill="#DC2121"/>
</svg>
