<svg width="78" height="39" viewBox="0 0 78 39" fill="none" xmlns="http://www.w3.org/2000/svg">
<path d="M22.056 33.6121L23.5348 35.1356L22.1644 37.6361C21.5591 38.7404 20.0986 38.9458 19.2282 38.0491C18.3578 37.1523 18.5572 35.6475 19.6291 35.024L22.056 33.6121Z" fill="#EA8518"/>
<path d="M25.4472 29.1915L26.0025 27.9547C26.0025 27.9547 22.105 25.803 18.5477 28.5278" fill="#EA8518"/>
<path d="M18.2658 28.6804H15.9451C15.282 28.6804 14.7444 29.2342 14.7444 29.9174V30.7734" fill="#EA8518"/>
<path d="M18.2658 35.728H15.9451C15.282 35.728 14.7444 35.1741 14.7444 34.4909V33.6349" fill="#EA8518"/>
<path d="M29 32.2043C27.9628 33.9066 26.5272 35.1127 24.9255 35.8215C24.844 35.858 24.7617 35.8926 24.6793 35.9262C24.5978 35.9594 24.5155 35.9913 24.4331 36.0217C24.1824 36.1153 23.9286 36.1974 23.6721 36.2675C23.5678 36.2961 23.463 36.3229 23.3583 36.3473C23.2988 36.3612 23.2392 36.3745 23.1797 36.387C22.9509 36.4359 22.7208 36.4755 22.4899 36.506C22.1501 36.5512 21.8076 36.5765 21.4652 36.5825C21.3994 36.5839 21.3336 36.5844 21.2678 36.5839C21.1693 36.5835 21.0713 36.5816 20.9728 36.5779C20.0672 36.5433 19.1656 36.3713 18.3021 36.0623C18.2256 36.0351 18.1495 36.0065 18.0734 35.977C17.9852 35.9424 17.897 35.9069 17.8097 35.869C17.2367 35.6246 16.6839 35.3165 16.1619 34.9453C16.0697 34.8802 15.9784 34.8129 15.8884 34.7437C15.8145 34.687 15.7416 34.6289 15.6695 34.5698C15.3624 34.3176 15.0679 34.0418 14.789 33.7424C14.7138 33.6617 14.6399 33.5796 14.5674 33.4957C14.4752 33.3896 14.3847 33.2808 14.2966 33.1687C14.058 32.8675 13.8337 32.5461 13.626 32.2043C13.8337 31.863 14.058 31.5416 14.2966 31.2399C14.3847 31.1279 14.4752 31.0186 14.5674 30.912C14.6399 30.8281 14.7138 30.746 14.789 30.6657C15.0679 30.3664 15.362 30.0906 15.6695 29.8388C15.7416 29.7793 15.8145 29.7217 15.8884 29.6649C15.9784 29.5953 16.0697 29.528 16.1619 29.4625C16.6834 29.0917 17.2367 28.784 17.8097 28.5401C17.897 28.5027 17.9852 28.4667 18.0734 28.4326C18.149 28.4031 18.2256 28.3745 18.3021 28.3468C19.1652 28.0369 20.0672 27.8649 20.9728 27.8307C21.0713 27.827 21.1693 27.8247 21.2678 27.8243H21.3134C21.364 27.8243 21.4146 27.8247 21.4652 27.8256C21.8081 27.8312 22.1496 27.857 22.4899 27.9022C22.7208 27.9331 22.9509 27.9728 23.1797 28.0212C23.2392 28.0337 23.2988 28.047 23.3583 28.0609C23.463 28.0853 23.5678 28.1121 23.6721 28.1407C23.9286 28.2108 24.1824 28.2924 24.4331 28.386C24.5155 28.4165 24.5978 28.4483 24.6793 28.4815C24.7617 28.5151 24.844 28.5502 24.9255 28.5866C26.2671 29.1807 27.4919 30.1234 28.4633 31.4138L28.0067 31.8842C27.8549 32.0406 27.8549 32.2933 28.0067 32.4497L28.0886 32.5341L28.7645 31.8377C28.8456 31.9571 28.9239 32.0793 29 32.2043Z" fill="#F9993A"/>
<path d="M10.2874 29.4449C10.1918 29.4323 10.0959 29.4228 10 29.415V34.9931C10.096 34.9852 10.1918 34.9758 10.2874 34.9632C11.9181 34.7476 13.4734 33.8282 14.4623 32.204C13.4734 30.5799 11.9181 29.6605 10.2874 29.4449Z" fill="#F9993A"/>
<path d="M26.2938 33.3504C26.9082 33.3504 27.4063 32.8372 27.4063 32.2042C27.4063 31.5712 26.9082 31.0581 26.2938 31.0581C25.6795 31.0581 25.1814 31.5712 25.1814 32.2042C25.1814 32.8372 25.6795 33.3504 26.2938 33.3504Z" fill="white"/>
<path d="M26.2938 32.9055C26.6697 32.9055 26.9744 32.5915 26.9744 32.2042C26.9744 31.817 26.6697 31.503 26.2938 31.503C25.9179 31.503 25.6132 31.817 25.6132 32.2042C25.6132 32.5915 25.9179 32.9055 26.2938 32.9055Z" fill="#4D4D4D"/>
<path d="M24.6792 28.4815V35.9262C24.2483 36.1016 23.8065 36.2422 23.358 36.3473V28.0611C23.8065 28.1662 24.2484 28.3061 24.6792 28.4815Z" fill="#E6E6E6"/>
<path d="M15.8885 29.6649V34.7435C15.4173 34.3813 14.974 33.9654 14.5674 33.4958V30.9119C14.9747 30.4423 15.4173 30.0264 15.8885 29.6649Z" fill="#E6E6E6"/>
<path d="M21.2677 27.8244V36.5841C20.1829 36.5788 19.0988 36.3761 18.0735 35.9768V28.4324C19.0981 28.0324 20.1829 27.8297 21.2677 27.8244Z" fill="#E6E6E6"/>
<path d="M24.9255 28.5866V35.8215C24.844 35.858 24.7617 35.8926 24.6793 35.9262C24.5978 35.9594 24.5155 35.9913 24.4331 36.0217V28.386C24.5155 28.4165 24.5978 28.4483 24.6793 28.4815C24.7617 28.5152 24.844 28.5502 24.9255 28.5866Z" fill="#666464"/>
<path d="M23.672 28.1407V36.2675C23.5677 36.2961 23.4629 36.3229 23.3582 36.3473C23.2986 36.3612 23.2391 36.3745 23.1796 36.387V28.0212C23.2391 28.0337 23.2986 28.047 23.3582 28.0609C23.4629 28.0853 23.5677 28.1121 23.672 28.1407Z" fill="#666464"/>
<path d="M21.4652 27.8256V36.5825C21.3994 36.5839 21.3336 36.5844 21.2678 36.5839C21.1693 36.5835 21.0713 36.5816 20.9728 36.5779V27.8307C21.0713 27.827 21.1693 27.8247 21.2678 27.8243H21.3134C21.364 27.8243 21.4146 27.8247 21.4652 27.8256Z" fill="#666464"/>
<path d="M18.3021 28.3468V36.0623C18.2256 36.0351 18.1495 36.0065 18.0734 35.977C17.9852 35.9424 17.897 35.9069 17.8097 35.8691V28.5401C17.897 28.5027 17.9852 28.4667 18.0734 28.4326C18.149 28.4031 18.2256 28.3745 18.3021 28.3468Z" fill="#666464"/>
<path d="M16.1618 29.4625V34.9453C16.0696 34.8802 15.9783 34.8129 15.8883 34.7437C15.8145 34.687 15.7415 34.6289 15.6694 34.5698V29.8388C15.7415 29.7793 15.8145 29.7217 15.8883 29.6649C15.9783 29.5953 16.0696 29.528 16.1618 29.4625Z" fill="#666464"/>
<path d="M14.7889 30.6658V33.7424C14.7137 33.6617 14.6399 33.5796 14.5673 33.4957C14.4751 33.3896 14.3847 33.2808 14.2965 33.1687V31.24C14.3847 31.1279 14.4751 31.0186 14.5673 30.912C14.6399 30.8281 14.7137 30.746 14.7889 30.6658Z" fill="#666464"/>
<path d="M22.8184 32.4154V34.2954L20.4753 34.9671C19.4405 35.2638 18.4163 34.4621 18.4163 33.3554C18.4163 32.2487 19.4405 31.447 20.4753 31.7437L22.8184 32.4154Z" fill="#F9993A"/>
<path d="M54.6952 26.0861V30.5225L56.2566 30.8863C56.4056 30.9211 56.5529 30.9358 56.6959 30.9327C57.8353 30.9099 58.7196 29.7605 58.3726 28.5572L58.1598 27.8189C58.1178 27.6725 58.0979 27.5261 58.0979 27.3823C58.0979 26.57 58.7369 25.8611 59.5778 25.8611C59.8114 25.8611 60.0002 25.6665 60.0002 25.4259C60.0002 25.1858 59.8114 24.9907 59.5778 24.9907L56.978 25.5741L54.6952 26.0861Z" fill="#F74B4B"/>
<path d="M42.4225 33.8729H53.893C55.1485 33.8729 56.1663 32.8243 56.1663 31.5308V25.9393C56.1663 24.8115 57.0536 23.8972 58.1483 23.8972C58.3816 23.8972 58.5707 23.7024 58.5707 23.462C58.5707 23.2217 58.3816 23.0268 58.1483 23.0268H48.7068C46.3306 23.0268 44.4044 25.0114 44.4044 27.4596V30.9605C44.4044 32.0883 43.517 33.0025 42.4224 33.0025C42.1891 33.0025 42 33.1974 42 33.4377C42 33.6781 42.1892 33.8729 42.4225 33.8729Z" fill="#F9D43A"/>
<path d="M45.7301 33.276C45.282 33.276 44.9188 32.9018 44.9188 32.4401C44.9188 31.9785 45.282 31.6043 45.7301 31.6043C46.1782 31.6043 46.5414 31.9785 46.5414 32.4401C46.5414 32.9018 46.1782 33.276 45.7301 33.276Z" fill="white"/>
<path d="M45.7301 32.9515C45.4559 32.9515 45.2337 32.7226 45.2337 32.4401C45.2337 32.1577 45.4559 31.9287 45.7301 31.9287C46.0042 31.9287 46.2264 32.1577 46.2264 32.4401C46.2264 32.7226 46.0042 32.9515 45.7301 32.9515Z" fill="#4D4D4D"/>
<path d="M51.0231 35.3283H53.1422V34.6666C53.1422 33.9038 52.542 33.2854 51.8016 33.2854H49.503V33.7622C49.503 34.6271 50.1836 35.3283 51.0231 35.3283Z" fill="#F74B4B"/>
<path d="M47.5467 32.2521C48.4798 32.2521 49.2363 31.4727 49.2363 30.5113V24.3515C48.3032 24.3515 47.5467 25.1309 47.5467 26.0924V32.2521Z" fill="#D3B742"/>
<path d="M51.63 32.2521C50.6968 32.2521 49.9404 31.4727 49.9404 30.5113V24.3515C50.8735 24.3515 51.63 25.1309 51.63 26.0924V32.2521Z" fill="#D3B742"/>
<path d="M52.334 32.2521C53.2672 32.2521 54.0237 31.4727 54.0237 30.5113V24.3515C53.0905 24.3515 52.334 25.1309 52.334 26.0924V32.2521Z" fill="#D3B742"/>
<path d="M37.28 19.9814C38.28 19.2945 37.9467 17.9208 37.9467 17.9208C35.9467 17.9208 35.28 19.9814 35.28 19.9814C35.28 19.9814 35.9467 22.042 37.9467 22.042C37.9467 22.042 38.28 20.6683 37.28 19.9814Z" fill="#91DC5A"/>
<path d="M28.6667 17.234C28.6667 17.234 29.3334 15.5168 32.3334 15.8603V17.9208L28.6667 17.234Z" fill="#64C37D"/>
<path d="M28.6667 22.7288C28.6667 22.7288 29.3334 24.446 32.3334 24.1025V22.042L28.6667 22.7288Z" fill="#64C37D"/>
<path d="M36 19.9814C36 19.9814 34 23.0723 30.6667 23.0723C26.3333 23.0723 25 19.9814 25 19.9814C25 19.9814 26.3333 16.8906 30.6667 16.8906C34 16.8906 36 19.9814 36 19.9814Z" fill="#C2FB3B"/>
<path d="M31.3333 16.9327C31.1174 16.9056 30.8953 16.8906 30.6667 16.8906C26.3333 16.8906 25 19.9814 25 19.9814C25 19.9814 26.3333 23.0723 30.6667 23.0723C30.8953 23.0723 31.1174 23.0572 31.3333 23.0302V16.9327Z" fill="#91DC5A"/>
<path d="M28 21.0117C28.5523 21.0117 29 20.5504 29 19.9814C29 19.4124 28.5523 18.9511 28 18.9511C27.4477 18.9511 27 19.4124 27 19.9814C27 20.5504 27.4477 21.0117 28 21.0117Z" fill="#FFF6D2"/>
<path d="M28 20.4965C28.2761 20.4965 28.5 20.2659 28.5 19.9814C28.5 19.6969 28.2761 19.4663 28 19.4663C27.7239 19.4663 27.5 19.6969 27.5 19.9814C27.5 20.2659 27.7239 20.4965 28 20.4965Z" fill="black"/>
<path d="M33 19.9814C33 20.9298 32.2538 21.6986 31.3334 21.6986V19.9814C31.3334 19.9814 32.2064 19.9814 33 19.9814Z" fill="#64C37D"/>
<path d="M68.2786 12.3916C67.8979 11.7913 67.3259 11.3459 66.6603 11.1363C65.7357 10.845 64.7473 10.6635 63.7181 10.6635C61.1211 10.6635 58.7951 11.7959 57.0747 12.9773C56.8838 13.1083 56.8629 13.3893 57.0301 13.551L59.8359 16.2668L56.0132 18.0858C55.7715 18.2008 55.7314 18.5388 55.9405 18.7085C57.6886 20.1259 60.4948 21.8702 63.7181 21.8702C64.4182 21.8702 65.0995 21.7861 65.7549 21.6405C66.435 21.4894 67.0434 21.1 67.4738 20.5366L70.7361 16.2667L68.2786 12.3916Z" fill="#0064BF"/>
<path d="M71.9138 15.0655C70.298 13.632 67.2429 11.4267 63.7403 11.4267C58.5511 11.4267 54.3445 16.2668 54.3445 16.2668C54.3445 16.2668 58.5511 21.1071 63.7403 21.1071C67.2429 21.1071 70.298 18.9018 71.9138 17.4682C72.6278 16.8347 72.6278 15.6989 71.9138 15.0655Z" fill="#0055B8"/>
<path d="M63.7403 11.4267C58.5511 11.4267 54.3445 16.2668 54.3445 16.2668C54.3445 16.2668 55.1097 17.147 56.3894 18.1565H64.8589C65.844 18.1565 66.6426 17.3338 66.6426 16.3188V11.9086C65.7285 11.6117 64.7534 11.4267 63.7403 11.4267ZM64.0857 16.6957C63.5754 16.6957 63.1616 16.2694 63.1616 15.7436C63.1616 15.2178 63.5754 14.7916 64.0857 14.7916C64.5961 14.7916 65.0099 15.2178 65.0099 15.7436C65.0099 16.2694 64.5961 16.6957 64.0857 16.6957Z" fill="#444D56"/>
<path d="M69.2026 17.0311C69.9053 17.0311 70.4749 16.4443 70.4749 15.7203C70.4749 14.9963 69.9053 14.4095 69.2026 14.4095C68.4999 14.4095 67.9303 14.9963 67.9303 15.7203C67.9303 16.4443 68.4999 17.0311 69.2026 17.0311Z" fill="white"/>
<path d="M69.2028 16.3757C69.5541 16.3757 69.8389 16.0823 69.8389 15.7203C69.8389 15.3584 69.5541 15.0649 69.2028 15.0649C68.8514 15.0649 68.5667 15.3584 68.5667 15.7203C68.5667 16.0823 68.8514 16.3757 69.2028 16.3757Z" fill="#814C3A"/>
<path d="M55.5908 14.9064L51.575 12.7986C51.3118 12.6604 51 12.8573 51 13.1616V18.5648C51 18.869 51.3118 19.066 51.575 18.9278L55.5908 16.8199C56.3496 16.4217 56.3496 15.3047 55.5908 14.9064Z" fill="#444D56"/>
<path d="M54.7091 15.4743L51 13.5275V18.1989L54.7091 16.252C55.0175 16.0901 55.0175 15.6363 54.7091 15.4743Z" fill="#FFD224"/>
<path d="M64.3224 16.6876L62.3584 14.6641C60.9209 16.1451 60.9209 18.5462 62.3584 20.0272L64.3224 18.0037C64.6751 17.6403 64.6751 17.051 64.3224 16.6876Z" fill="#FFD224"/>
<path d="M64.3223 16.6876L62.7363 15.0535C61.5075 16.3195 61.5075 18.372 62.7363 19.638L64.3223 18.0039C64.675 17.6403 64.675 17.0511 64.3223 16.6876Z" fill="#0063BE"/>
<path d="M30.3575 3.61836L30.7558 5.44929C31.0146 6.63921 32.0917 7.44542 33.2701 7.33134L35.0833 7.15577C35.3036 7.13444 35.3987 7.43601 35.2083 7.5522L33.6412 8.5082C32.6228 9.12954 32.2114 10.434 32.6809 11.5534L33.4032 13.2758C33.491 13.4852 33.242 13.6716 33.0759 13.5208L31.7092 12.2808C30.8209 11.4748 29.4896 11.4748 28.6014 12.2808L27.2346 13.5208C27.0685 13.6716 26.8195 13.4852 26.9073 13.2758L27.6297 11.5534C28.0991 10.434 27.6878 9.12954 26.6693 8.5082L25.1022 7.55217C24.9118 7.43598 25.0069 7.13441 25.2273 7.15575L27.0405 7.33131C28.2189 7.4454 29.2959 6.63921 29.5547 5.44926L29.953 3.61834C30.0014 3.39585 30.3092 3.39585 30.3575 3.61836Z" fill="#F74B4B"/>
<path d="M30.1553 9.16575C30.0544 9.16575 29.9608 9.09922 29.9254 9.00183C29.8891 8.90207 29.9186 8.78605 29.9984 8.71805C30.0746 8.65319 30.1839 8.64185 30.271 8.68966C30.3625 8.73979 30.4149 8.84844 30.3975 8.95387C30.3777 9.07436 30.2743 9.16575 30.1553 9.16575Z" fill="#C11C06"/>
<path d="M29.9097 8.05041C29.9097 7.91071 30.0195 7.79733 30.1553 7.79733C30.2909 7.79733 30.4009 7.91071 30.4009 8.05041C30.4009 8.19036 30.2909 8.30348 30.1553 8.30348C30.0195 8.30348 29.9097 8.19036 29.9097 8.05041ZM29.9097 7.18844C29.9097 7.04874 30.0195 6.93536 30.1553 6.93536C30.2909 6.93536 30.4009 7.04874 30.4009 7.18844C30.4009 7.32814 30.2909 7.44152 30.1553 7.44152C30.0195 7.44152 29.9097 7.32814 29.9097 7.18844ZM29.9097 6.3262C29.9097 6.1865 30.0195 6.07312 30.1553 6.07312C30.2909 6.07312 30.4009 6.1865 30.4009 6.3262C30.4009 6.46616 30.2909 6.57928 30.1553 6.57928C30.0195 6.57928 29.9097 6.46616 29.9097 6.3262ZM29.9097 5.46422C29.9097 5.32426 30.0195 5.21114 30.1553 5.21114C30.2909 5.21114 30.4009 5.32426 30.4009 5.46422C30.4009 5.60391 30.2909 5.71729 30.1553 5.71729C30.0195 5.71729 29.9097 5.60391 29.9097 5.46422Z" fill="#C11C06"/>
<path d="M30.1554 4.85504C30.0545 4.85504 29.9614 4.78868 29.9257 4.69145C29.8891 4.59163 29.9185 4.47547 29.9985 4.40736C30.0747 4.3425 30.184 4.33114 30.2711 4.37897C30.3635 4.42961 30.4156 4.53945 30.3973 4.64561C30.3767 4.76514 30.2734 4.85504 30.1554 4.85504Z" fill="#C11C06"/>
<path d="M30.1553 9.16575C30.0544 9.16575 29.9608 9.09922 29.9254 9.00183C29.8891 8.90207 29.9186 8.78605 29.9984 8.71805C30.0746 8.65319 30.1839 8.64185 30.271 8.68966C30.3625 8.73979 30.4149 8.84844 30.3975 8.95387C30.3777 9.07436 30.2743 9.16575 30.1553 9.16575Z" fill="#C11C06"/>
<path d="M29.283 8.91217C29.153 8.87269 29.0786 8.73198 29.1167 8.59784C29.155 8.46371 29.2916 8.38703 29.4218 8.42651C29.552 8.46599 29.6264 8.6067 29.5881 8.74083C29.5566 8.85092 29.4586 8.92255 29.3525 8.92255C29.3297 8.92255 29.3063 8.919 29.283 8.91217C29.3063 8.919 29.153 8.87266 29.283 8.91217ZM28.4802 8.66871C28.35 8.62923 28.2756 8.48851 28.3139 8.35438C28.3523 8.2205 28.4888 8.14357 28.619 8.18305C28.7492 8.22253 28.8236 8.36324 28.7853 8.49737C28.7539 8.60771 28.6559 8.67908 28.5498 8.67908C28.5269 8.67908 28.5033 8.67579 28.4802 8.66871C28.5033 8.67579 28.35 8.62923 28.4802 8.66871ZM27.6775 8.42524C27.5475 8.38576 27.4729 8.24531 27.5112 8.11117C27.5495 7.97704 27.6861 7.90036 27.8163 7.93984C27.9465 7.97932 28.0209 8.12003 27.9826 8.25391C27.9511 8.36425 27.8531 8.43562 27.747 8.43562C27.7242 8.43562 27.7008 8.43233 27.6775 8.42524C27.7008 8.43233 27.5475 8.38574 27.6775 8.42524ZM26.8747 8.18204C26.7445 8.14256 26.6701 8.00184 26.7084 7.86771C26.7468 7.73358 26.8833 7.6569 27.0135 7.69638C27.1437 7.73586 27.2181 7.87657 27.1798 8.0107C27.1484 8.12079 27.0504 8.19241 26.9442 8.19241C26.9214 8.19241 26.8981 8.18887 26.8747 8.18204C26.8981 8.18887 26.7445 8.14256 26.8747 8.18204Z" fill="#C11C06"/>
<path d="M26.1416 7.94892C26.0389 7.94892 25.9449 7.88039 25.9103 7.78098C25.8763 7.68316 25.9054 7.56988 25.9826 7.50282C26.0635 7.43269 26.1812 7.42343 26.2712 7.48083C26.357 7.53557 26.4022 7.64333 26.3823 7.74519C26.3595 7.86194 26.2575 7.94892 26.1416 7.94892Z" fill="#C11C06"/>
<path d="M30.1553 9.16575C30.0544 9.16575 29.9608 9.09922 29.9254 9.00183C29.8891 8.90207 29.9186 8.78605 29.9984 8.71805C30.0746 8.65319 30.1839 8.64185 30.271 8.68966C30.3625 8.73979 30.4149 8.84844 30.3975 8.95387C30.3777 9.07436 30.2743 9.16575 30.1553 9.16575Z" fill="#C11C06"/>
<path d="M28.0882 11.9403C27.9772 11.8598 27.9504 11.7021 28.0285 11.5877C28.1066 11.4733 28.2599 11.446 28.3709 11.5262C28.4817 11.6067 28.5085 11.7646 28.4304 11.879C28.3825 11.9489 28.3066 11.9863 28.2292 11.9863C28.1806 11.9863 28.1312 11.9714 28.0882 11.9403C28.1312 11.9714 27.9772 11.8598 28.0882 11.9403ZM28.5697 11.2352C28.4586 11.1547 28.4319 10.9968 28.51 10.8826C28.5881 10.7683 28.7414 10.7407 28.8522 10.8211C28.9632 10.9016 28.99 11.0595 28.9118 11.1737C28.8639 11.2438 28.788 11.2812 28.7107 11.2812C28.6618 11.2812 28.6127 11.2663 28.5697 11.2352C28.6127 11.2663 28.4586 11.1547 28.5697 11.2352ZM29.0511 10.5301C28.9401 10.4496 28.9133 10.2917 28.9914 10.1773C29.0695 10.0631 29.2226 10.0356 29.3336 10.116C29.4446 10.1963 29.4714 10.3542 29.3933 10.4686C29.3454 10.5387 29.2695 10.5761 29.1921 10.5761C29.1432 10.5761 29.0939 10.5612 29.0511 10.5301C29.0939 10.5612 28.9401 10.4496 29.0511 10.5301ZM29.5326 9.82477C29.4216 9.74429 29.3948 9.58662 29.4729 9.47223C29.551 9.35784 29.704 9.33051 29.8151 9.41073C29.9261 9.49121 29.9529 9.64913 29.8748 9.76353C29.8269 9.83338 29.751 9.87083 29.6736 9.87083C29.6247 9.87083 29.5756 9.8559 29.5326 9.82477C29.5756 9.8559 29.4216 9.74429 29.5326 9.82477Z" fill="#C11C06"/>
<path d="M27.748 12.6917C27.6439 12.6917 27.5492 12.6211 27.5156 12.5198C27.4821 12.4183 27.516 12.3031 27.5985 12.2377C27.6777 12.175 27.7886 12.1691 27.8743 12.2216C27.9622 12.2756 28.0092 12.3844 27.989 12.4879C27.9662 12.6047 27.8638 12.6917 27.748 12.6917Z" fill="#C11C06"/>
<path d="M30.1553 9.16575C30.0544 9.16575 29.9608 9.09922 29.9254 9.00183C29.8891 8.90207 29.9186 8.78605 29.9984 8.71805C30.0746 8.65319 30.1839 8.64185 30.271 8.68966C30.3625 8.73979 30.4149 8.84844 30.3975 8.95387C30.3777 9.07436 30.2743 9.16575 30.1553 9.16575Z" fill="#C11C06"/>
<path d="M30.7223 8.74081C30.6839 8.60668 30.7584 8.46597 30.8886 8.42648C31.0188 8.387 31.1554 8.46369 31.1937 8.59782C31.232 8.73195 31.1576 8.87266 31.0274 8.91214C31.0043 8.91898 30.9809 8.92252 30.9579 8.92252C30.8517 8.92255 30.7537 8.85092 30.7223 8.74081C30.7537 8.85092 30.684 8.60668 30.7223 8.74081ZM31.525 8.49737C31.4867 8.36324 31.5612 8.22253 31.6914 8.18305C31.8216 8.14382 31.9581 8.2205 31.9965 8.35438C32.0348 8.48851 31.9603 8.62923 31.8301 8.66871C31.8071 8.67579 31.7837 8.67908 31.7606 8.67908C31.6545 8.67908 31.5565 8.60769 31.525 8.49737C31.5565 8.60769 31.4867 8.36324 31.525 8.49737ZM32.3278 8.25388C32.2895 8.11975 32.3639 7.97929 32.4941 7.93981C32.6243 7.90033 32.7608 7.97702 32.7992 8.11115C32.8375 8.24503 32.7631 8.38574 32.6329 8.42522C32.6098 8.43231 32.5864 8.4356 32.5634 8.4356C32.4572 8.43562 32.3592 8.36425 32.3278 8.25388C32.3592 8.36425 32.2895 8.11975 32.3278 8.25388ZM33.1305 8.0107C33.0922 7.87657 33.1667 7.73586 33.2968 7.69638C33.427 7.6569 33.5636 7.73358 33.6019 7.86771C33.6403 8.00184 33.5658 8.14256 33.4356 8.18204C33.4125 8.18887 33.3892 8.19241 33.3661 8.19241C33.26 8.19241 33.162 8.12077 33.1305 8.0107C33.162 8.12077 33.0922 7.87657 33.1305 8.0107Z" fill="#C11C06"/>
<path d="M34.1691 7.94892C34.0664 7.94892 33.9724 7.88031 33.9378 7.78098C33.9036 7.68276 33.9331 7.57044 34.0102 7.50292C34.0906 7.43251 34.209 7.4234 34.2987 7.48082C34.3844 7.53572 34.4298 7.64323 34.4098 7.74519C34.387 7.86196 34.285 7.94892 34.1691 7.94892Z" fill="#C11C06"/>
<path d="M30.1553 9.16575C30.0544 9.16575 29.9608 9.09922 29.9254 9.00183C29.8891 8.90207 29.9186 8.78605 29.9984 8.71805C30.0746 8.65319 30.1839 8.64185 30.271 8.68966C30.3625 8.73979 30.4149 8.84844 30.3975 8.95387C30.3777 9.07436 30.2743 9.16575 30.1553 9.16575Z" fill="#C11C06"/>
<path d="M31.88 11.879C31.8018 11.7646 31.8286 11.6067 31.9397 11.5262C32.0507 11.446 32.2037 11.4733 32.2818 11.5877C32.36 11.7021 32.3332 11.8598 32.2224 11.9402C32.1794 11.9714 32.13 11.9863 32.0811 11.9863C32.004 11.9863 31.9279 11.9488 31.88 11.879C31.9279 11.9488 31.8018 11.7646 31.88 11.879ZM31.3985 11.1737C31.3206 11.0595 31.3471 10.9016 31.4582 10.8211C31.5692 10.7407 31.7223 10.7683 31.8004 10.8826C31.8785 10.9968 31.8517 11.1547 31.7409 11.2352C31.6979 11.2663 31.6486 11.2812 31.5997 11.2812C31.5226 11.2812 31.4464 11.2438 31.3985 11.1737C31.4464 11.2438 31.3206 11.0595 31.3985 11.1737ZM30.917 10.4686C30.8392 10.3542 30.8657 10.1963 30.9767 10.116C31.0878 10.0356 31.2411 10.0631 31.3189 10.1773C31.3971 10.2917 31.3703 10.4496 31.2595 10.5301C31.2165 10.5612 31.1671 10.5761 31.1183 10.5761C31.0411 10.5761 30.9649 10.5387 30.917 10.4686C30.9649 10.5387 30.8392 10.3542 30.917 10.4686ZM30.4358 9.76353C30.3577 9.64913 30.3842 9.49121 30.4953 9.41073C30.6063 9.33051 30.7596 9.35784 30.8375 9.47223C30.9156 9.58662 30.8891 9.74455 30.778 9.82477C30.735 9.8559 30.6857 9.87083 30.6368 9.87083C30.5596 9.87083 30.4835 9.83338 30.4358 9.76353C30.4835 9.83338 30.3577 9.64913 30.4358 9.76353Z" fill="#C11C06"/>
<path d="M32.5625 12.6917C32.4581 12.6917 32.3638 12.6211 32.33 12.5198C32.2963 12.4188 32.3306 12.3027 32.4129 12.2377C32.4923 12.1751 32.6029 12.1691 32.6887 12.2215C32.7769 12.2754 32.8231 12.3846 32.8032 12.4879C32.7806 12.6048 32.6782 12.6917 32.5625 12.6917Z" fill="#C11C06"/>
<path fill-rule="evenodd" clip-rule="evenodd" d="M74.4702 29.6684C74.4702 29.6684 76.829 31.4232 75.0143 32.8561C73.1995 34.289 74.4702 29.6684 74.4702 29.6684Z" fill="#FFDD95"/>
<path fill-rule="evenodd" clip-rule="evenodd" d="M68.3677 31.7064L70.2942 28.9092L70.5786 29.3169L73.649 27.148L73.6232 28.3955L68.3677 31.7064Z" fill="#FFDD95"/>
<path fill-rule="evenodd" clip-rule="evenodd" d="M77.5686 31.7451C77.5686 31.7451 75.1562 32.0304 74.3708 33.8884C74.3708 33.8884 74.4887 35.9759 76.7077 35.9947C75.9697 32.8722 77.5686 31.7451 77.5686 31.7451Z" fill="#FFDD95"/>
<path fill-rule="evenodd" clip-rule="evenodd" d="M67 32.4686C67 32.4686 70.3886 30.6639 71.3028 29.4207C72.2169 28.1775 76.2572 27.6577 76.2572 27.6577C76.2572 27.6577 74.1372 29.4678 74.6161 32.2057C75.095 34.9435 73.3209 37.0661 73.3209 37.0661C73.3209 37.0661 70.9716 36.2277 69.9567 35.4894C68.9417 34.7511 67 32.4686 67 32.4686Z" fill="#FFAF40"/>
<path d="M69.1109 33.0532C69.4114 33.0532 69.655 32.8022 69.655 32.4926C69.655 32.183 69.4114 31.932 69.1109 31.932C68.8104 31.932 68.5668 32.183 68.5668 32.4926C68.5668 32.8022 68.8104 33.0532 69.1109 33.0532Z" fill="#595959"/>
<path fill-rule="evenodd" clip-rule="evenodd" d="M69.111 34.1744C69.111 34.1744 69.4963 35.1107 69.8379 36.087C70.1796 37.0633 71.6284 37.9124 71.9635 37.6496C72.2985 37.3869 71.5933 36.5386 71.4257 35.678C71.258 34.8173 69.111 34.1744 69.111 34.1744Z" fill="#FFDD95"/>
<path d="M10.9975 9.14748C12.9647 9.14748 14.5594 7.55274 14.5594 5.58556C14.5594 3.61837 12.9647 2.02365 10.9975 2.02365C9.03029 2.02365 7.43555 3.61837 7.43555 5.58556C7.43555 7.55274 9.03029 9.14748 10.9975 9.14748Z" fill="url(#paint0_linear_91_300)"/>
<path d="M10.9975 9.14748C12.9647 9.14748 14.5594 7.55274 14.5594 5.58556C14.5594 3.61837 12.9647 2.02365 10.9975 2.02365C9.03029 2.02365 7.43555 3.61837 7.43555 5.58556C7.43555 7.55274 9.03029 9.14748 10.9975 9.14748Z" fill="url(#paint1_radial_91_300)"/>
<path d="M10.9975 9.14748C12.9647 9.14748 14.5594 7.55274 14.5594 5.58556C14.5594 3.61837 12.9647 2.02365 10.9975 2.02365C9.03029 2.02365 7.43555 3.61837 7.43555 5.58556C7.43555 7.55274 9.03029 9.14748 10.9975 9.14748Z" fill="url(#paint2_radial_91_300)"/>
<path d="M11.7665 2.77639C12.1672 3.38759 11.6815 4.41568 10.6818 5.06735C9.68205 5.71902 8.54871 5.75949 8.14794 5.14831C7.74723 4.53711 8.23294 3.50902 9.23275 2.85735C10.2325 2.20568 11.3658 2.16521 11.7665 2.77639Z" fill="url(#paint3_radial_91_300)"/>
<path d="M10.9975 9.14748C12.9647 9.14748 14.5594 7.55274 14.5594 5.58556C14.5594 3.61837 12.9647 2.02365 10.9975 2.02365C9.03029 2.02365 7.43555 3.61837 7.43555 5.58556C7.43555 7.55274 9.03029 9.14748 10.9975 9.14748Z" fill="url(#paint4_radial_91_300)"/>
<path d="M9.85619 7.46384C8.97786 6.99835 7.68664 5.5493 8.03068 3.61049C7.65427 4.17716 7.43164 4.8531 7.43164 5.58573C7.43164 7.55288 9.02638 9.14762 10.9936 9.14762C11.8759 9.14762 12.6854 8.82384 13.3088 8.29359C12.1309 7.46788 11.4752 8.32596 9.85619 7.46384Z" fill="url(#paint5_linear_91_300)"/>
<path d="M11.1107 2.02782C11.1633 2.03187 11.2119 2.03996 11.2645 2.05211C11.3495 2.07639 11.4345 2.11282 11.5155 2.15734C11.6733 2.25044 11.8069 2.37591 11.9283 2.51354C12.1631 2.79282 12.3291 3.12068 12.4545 3.46068C12.5193 3.63068 12.5719 3.80472 12.6164 3.97877C12.661 4.15282 12.6974 4.33091 12.7257 4.50901C12.7541 4.68711 12.7743 4.8652 12.7905 5.04734C12.8026 5.22544 12.8107 5.40758 12.8107 5.58972C12.8107 5.77186 12.8026 5.94996 12.7905 6.13211C12.7743 6.31019 12.7581 6.49234 12.7257 6.67044C12.6974 6.84853 12.661 7.02662 12.6164 7.20064C12.5719 7.37475 12.5193 7.54879 12.4545 7.71879C12.3291 8.05475 12.1591 8.38257 11.9283 8.6659C11.811 8.80353 11.6733 8.92897 11.5155 9.02212C11.4385 9.0666 11.3535 9.10308 11.2645 9.12731C11.216 9.13949 11.1633 9.14757 11.1148 9.1516C12.4019 9.06257 13.426 7.50423 13.426 5.59377C13.426 3.6752 12.3978 2.11687 11.1107 2.02782Z" fill="url(#paint6_radial_91_300)"/>
<path d="M4.93824 11.8634C6.32421 11.8634 7.44774 10.7398 7.44774 9.3539C7.44774 7.9679 6.32421 6.84435 4.93824 6.84435C3.55226 6.84435 2.42871 7.9679 2.42871 9.3539C2.42871 10.7398 3.55226 11.8634 4.93824 11.8634Z" fill="url(#paint7_linear_91_300)"/>
<path d="M4.93824 11.8634C6.32421 11.8634 7.44774 10.7398 7.44774 9.3539C7.44774 7.9679 6.32421 6.84435 4.93824 6.84435C3.55226 6.84435 2.42871 7.9679 2.42871 9.3539C2.42871 10.7398 3.55226 11.8634 4.93824 11.8634Z" fill="url(#paint8_radial_91_300)"/>
<path d="M4.93824 11.8634C6.32421 11.8634 7.44774 10.7398 7.44774 9.3539C7.44774 7.9679 6.32421 6.84435 4.93824 6.84435C3.55226 6.84435 2.42871 7.9679 2.42871 9.3539C2.42871 10.7398 3.55226 11.8634 4.93824 11.8634Z" fill="url(#paint9_radial_91_300)"/>
<path d="M5.48059 7.37856C5.76393 7.8076 5.41988 8.53216 4.71559 8.99356C4.01131 9.45497 3.20988 9.47927 2.93059 9.05023C2.64725 8.62119 2.99131 7.89664 3.69559 7.43523C4.39988 6.97379 5.19725 6.9495 5.48059 7.37856Z" fill="url(#paint10_radial_91_300)"/>
<path d="M4.93824 11.8634C6.32421 11.8634 7.44774 10.7398 7.44774 9.3539C7.44774 7.9679 6.32421 6.84435 4.93824 6.84435C3.55226 6.84435 2.42871 7.9679 2.42871 9.3539C2.42871 10.7398 3.55226 11.8634 4.93824 11.8634Z" fill="url(#paint11_radial_91_300)"/>
<path d="M4.13276 10.6774C3.51347 10.3496 2.60681 9.3296 2.84967 7.96146C2.58252 8.36223 2.42871 8.83979 2.42871 9.3539C2.42871 10.7381 3.55395 11.8634 4.93824 11.8634C5.56157 11.8634 6.13228 11.6367 6.56943 11.2603C5.73967 10.6815 5.27419 11.2846 4.13276 10.6774Z" fill="url(#paint12_linear_91_300)"/>
<path d="M5.01917 6.8485C5.05559 6.85254 5.09202 6.85659 5.1244 6.86468C5.18511 6.88087 5.24583 6.90921 5.29845 6.93754C5.40774 7.0023 5.50488 7.09134 5.58988 7.18852C5.75583 7.38686 5.87321 7.61756 5.96226 7.85634C6.00679 7.97371 6.04726 8.09923 6.07559 8.22064C6.10797 8.34204 6.13226 8.46756 6.1525 8.59301C6.17274 8.71852 6.18488 8.84397 6.19702 8.97352C6.20512 9.09897 6.20917 9.22852 6.21321 9.35397C6.21321 9.47942 6.20917 9.60897 6.19702 9.73442C6.18488 9.85993 6.17274 9.98942 6.1525 10.1149C6.13226 10.2404 6.10393 10.3659 6.07559 10.4873C6.04321 10.6127 6.00679 10.7342 5.96226 10.8516C5.87321 11.0904 5.75583 11.3211 5.58988 11.5194C5.50488 11.6166 5.41178 11.7056 5.29845 11.7704C5.24178 11.8027 5.18511 11.827 5.1244 11.8433C5.08797 11.8513 5.05559 11.8594 5.01917 11.8594C5.92583 11.7947 6.65036 10.6977 6.65036 9.35397C6.65036 8.01019 5.92583 6.91326 5.01917 6.8485Z" fill="url(#paint13_radial_91_300)"/>
<path d="M10.9286 14.9759C12.0463 14.9759 12.9524 14.0698 12.9524 12.9522C12.9524 11.8344 12.0463 10.9283 10.9286 10.9283C9.81089 10.9283 8.90479 11.8344 8.90479 12.9522C8.90479 14.0698 9.81089 14.9759 10.9286 14.9759Z" fill="url(#paint14_linear_91_300)"/>
<path d="M10.9286 14.9759C12.0463 14.9759 12.9524 14.0698 12.9524 12.9522C12.9524 11.8344 12.0463 10.9283 10.9286 10.9283C9.81089 10.9283 8.90479 11.8344 8.90479 12.9522C8.90479 14.0698 9.81089 14.9759 10.9286 14.9759Z" fill="url(#paint15_radial_91_300)"/>
<path d="M10.9286 14.9759C12.0463 14.9759 12.9524 14.0698 12.9524 12.9522C12.9524 11.8344 12.0463 10.9283 10.9286 10.9283C9.81089 10.9283 8.90479 11.8344 8.90479 12.9522C8.90479 14.0698 9.81089 14.9759 10.9286 14.9759Z" fill="url(#paint16_radial_91_300)"/>
<path d="M11.3659 11.3574C11.5925 11.7054 11.3174 12.2883 10.7507 12.6607C10.184 13.0331 9.5364 13.0533 9.30973 12.7052C9.08307 12.3571 9.35832 11.7742 9.92499 11.4018C10.4916 11.0295 11.1392 11.0092 11.3659 11.3574Z" fill="url(#paint17_radial_91_300)"/>
<path d="M10.9286 14.9759C12.0463 14.9759 12.9524 14.0698 12.9524 12.9522C12.9524 11.8344 12.0463 10.9283 10.9286 10.9283C9.81089 10.9283 8.90479 11.8344 8.90479 12.9522C8.90479 14.0698 9.81089 14.9759 10.9286 14.9759Z" fill="url(#paint18_radial_91_300)"/>
<path d="M10.281 14.0208C9.78312 13.7577 9.05049 12.932 9.24479 11.831C9.0303 12.1508 8.90479 12.5393 8.90479 12.9522C8.90479 14.0693 9.81145 14.976 10.9286 14.976C11.4306 14.976 11.892 14.7939 12.2441 14.4903C11.5722 14.0208 11.1998 14.5106 10.281 14.0208Z" fill="url(#paint19_linear_91_300)"/>
<path d="M10.9933 10.9325C11.0216 10.9365 11.05 10.9406 11.0783 10.9486C11.1269 10.9649 11.1755 10.9851 11.22 11.0094C11.309 11.062 11.3859 11.1349 11.4547 11.2118C11.5883 11.3696 11.6814 11.5558 11.7542 11.7501C11.7907 11.8472 11.823 11.9444 11.8473 12.0456C11.8716 12.1468 11.8919 12.2439 11.908 12.3451C11.9242 12.4463 11.9364 12.5475 11.9445 12.6486C11.9526 12.7499 11.9566 12.8551 11.9566 12.9563C11.9566 13.0575 11.9526 13.1628 11.9445 13.2639C11.9364 13.3651 11.9242 13.4663 11.908 13.5675C11.8919 13.6686 11.8716 13.7699 11.8473 13.867C11.823 13.9682 11.7907 14.0653 11.7542 14.1625C11.6814 14.3528 11.5883 14.5389 11.4547 14.7008C11.3859 14.7778 11.309 14.8506 11.22 14.9032C11.1755 14.9275 11.1269 14.9478 11.0783 14.9639C11.05 14.972 11.0216 14.9761 10.9933 14.9801C11.7259 14.9275 12.3088 14.0451 12.3088 12.9603C12.3088 11.8675 11.7259 10.9811 10.9933 10.9325Z" fill="url(#paint20_radial_91_300)"/>
<defs>
<linearGradient id="paint0_linear_91_300" x1="7.82832" y1="0.586113" x2="20.636" y2="20.7993" gradientUnits="userSpaceOnUse">
<stop stop-color="#80DAFE" stop-opacity="0"/>
<stop offset="1" stop-color="#008EE6"/>
</linearGradient>
<radialGradient id="paint1_radial_91_300" cx="0" cy="0" r="1" gradientUnits="userSpaceOnUse" gradientTransform="translate(10.0227 2.52329) scale(8.339)">
<stop offset="0.5839" stop-color="#FB9DC1" stop-opacity="0"/>
<stop offset="0.6244" stop-color="#F59EC3" stop-opacity="0.0730316"/>
<stop offset="0.6809" stop-color="#E2A0C8" stop-opacity="0.1749"/>
<stop offset="0.7469" stop-color="#C5A4D0" stop-opacity="0.2938"/>
<stop offset="0.82" stop-color="#9BAADB" stop-opacity="0.4256"/>
<stop offset="0.899" stop-color="#66B1E9" stop-opacity="0.568"/>
<stop offset="0.9818" stop-color="#26B9FA" stop-opacity="0.7172"/>
<stop offset="1" stop-color="#17BBFE" stop-opacity="0.75"/>
</radialGradient>
<radialGradient id="paint2_radial_91_300" cx="0" cy="0" r="1" gradientUnits="userSpaceOnUse" gradientTransform="translate(11.712 5.64338) scale(9.25997)">
<stop stop-color="#D1F2FF" stop-opacity="0"/>
<stop offset="0.1913" stop-color="#CBF0FF" stop-opacity="0.1435"/>
<stop offset="0.458" stop-color="#B8EBFF" stop-opacity="0.3435"/>
<stop offset="0.7676" stop-color="#9BE2FE" stop-opacity="0.5757"/>
<stop offset="1" stop-color="#80DAFE" stop-opacity="0.75"/>
</radialGradient>
<radialGradient id="paint3_radial_91_300" cx="0" cy="0" r="1" gradientUnits="userSpaceOnUse" gradientTransform="translate(9.9578 3.96278) rotate(-33.2503) scale(1.79353 1.19248)">
<stop stop-color="white"/>
<stop offset="1" stop-color="white" stop-opacity="0"/>
</radialGradient>
<radialGradient id="paint4_radial_91_300" cx="0" cy="0" r="1" gradientUnits="userSpaceOnUse" gradientTransform="translate(11.712 5.64338) scale(9.25997)">
<stop stop-color="#D1F2FF" stop-opacity="0"/>
<stop offset="0.1913" stop-color="#CBF0FF" stop-opacity="0.1435"/>
<stop offset="0.458" stop-color="#B8EBFF" stop-opacity="0.3435"/>
<stop offset="0.7676" stop-color="#9BE2FE" stop-opacity="0.5757"/>
<stop offset="1" stop-color="#80DAFE" stop-opacity="0.75"/>
</radialGradient>
<linearGradient id="paint5_linear_91_300" x1="11.1673" y1="4.62877" x2="8.14004" y2="12.0993" gradientUnits="userSpaceOnUse">
<stop stop-color="#17BBFE" stop-opacity="0"/>
<stop offset="1" stop-color="#17BBFE" stop-opacity="0.75"/>
</linearGradient>
<radialGradient id="paint6_radial_91_300" cx="0" cy="0" r="1" gradientUnits="userSpaceOnUse" gradientTransform="translate(12.7533 3.80442) rotate(-1.44239) scale(2.64499 1.10748)">
<stop stop-color="white"/>
<stop offset="1" stop-color="white" stop-opacity="0"/>
</radialGradient>
<linearGradient id="paint7_linear_91_300" x1="2.70619" y1="5.83387" x2="11.7298" y2="20.0749" gradientUnits="userSpaceOnUse">
<stop stop-color="#80DAFE" stop-opacity="0"/>
<stop offset="1" stop-color="#008EE6"/>
</linearGradient>
<radialGradient id="paint8_radial_91_300" cx="0" cy="0" r="1" gradientUnits="userSpaceOnUse" gradientTransform="translate(4.25233 7.19865) scale(5.87521 5.87521)">
<stop offset="0.5839" stop-color="#FB9DC1" stop-opacity="0"/>
<stop offset="0.6244" stop-color="#F59EC3" stop-opacity="0.0730316"/>
<stop offset="0.6809" stop-color="#E2A0C8" stop-opacity="0.1749"/>
<stop offset="0.7469" stop-color="#C5A4D0" stop-opacity="0.2938"/>
<stop offset="0.82" stop-color="#9BAADB" stop-opacity="0.4256"/>
<stop offset="0.899" stop-color="#66B1E9" stop-opacity="0.568"/>
<stop offset="0.9818" stop-color="#26B9FA" stop-opacity="0.7172"/>
<stop offset="1" stop-color="#17BBFE" stop-opacity="0.75"/>
</radialGradient>
<radialGradient id="paint9_radial_91_300" cx="0" cy="0" r="1" gradientUnits="userSpaceOnUse" gradientTransform="translate(5.44254 9.3969) scale(6.52405 6.52406)">
<stop stop-color="#D1F2FF" stop-opacity="0"/>
<stop offset="0.1913" stop-color="#CBF0FF" stop-opacity="0.1435"/>
<stop offset="0.458" stop-color="#B8EBFF" stop-opacity="0.3435"/>
<stop offset="0.7676" stop-color="#9BE2FE" stop-opacity="0.5757"/>
<stop offset="1" stop-color="#80DAFE" stop-opacity="0.75"/>
</radialGradient>
<radialGradient id="paint10_radial_91_300" cx="0" cy="0" r="1" gradientUnits="userSpaceOnUse" gradientTransform="translate(4.20663 8.2127) rotate(-33.2504) scale(1.26362 0.840161)">
<stop stop-color="white"/>
<stop offset="1" stop-color="white" stop-opacity="0"/>
</radialGradient>
<radialGradient id="paint11_radial_91_300" cx="0" cy="0" r="1" gradientUnits="userSpaceOnUse" gradientTransform="translate(5.44254 9.3969) scale(6.52405 6.52406)">
<stop stop-color="#D1F2FF" stop-opacity="0"/>
<stop offset="0.1913" stop-color="#CBF0FF" stop-opacity="0.1435"/>
<stop offset="0.458" stop-color="#B8EBFF" stop-opacity="0.3435"/>
<stop offset="0.7676" stop-color="#9BE2FE" stop-opacity="0.5757"/>
<stop offset="1" stop-color="#80DAFE" stop-opacity="0.75"/>
</radialGradient>
<linearGradient id="paint12_linear_91_300" x1="5.05859" y1="8.68197" x2="2.92573" y2="13.9453" gradientUnits="userSpaceOnUse">
<stop stop-color="#17BBFE" stop-opacity="0"/>
<stop offset="1" stop-color="#17BBFE" stop-opacity="0.75"/>
</linearGradient>
<radialGradient id="paint13_radial_91_300" cx="0" cy="0" r="1" gradientUnits="userSpaceOnUse" gradientTransform="translate(6.17612 8.10157) rotate(-1.44239) scale(1.86352 0.780272)">
<stop stop-color="white"/>
<stop offset="1" stop-color="white" stop-opacity="0"/>
</radialGradient>
<linearGradient id="paint14_linear_91_300" x1="9.12741" y1="10.1123" x2="16.4045" y2="21.597" gradientUnits="userSpaceOnUse">
<stop stop-color="#80DAFE" stop-opacity="0"/>
<stop offset="1" stop-color="#008EE6"/>
</linearGradient>
<radialGradient id="paint15_radial_91_300" cx="0" cy="0" r="1" gradientUnits="userSpaceOnUse" gradientTransform="translate(10.3742 11.2132) scale(4.73813 4.73813)">
<stop offset="0.5839" stop-color="#FB9DC1" stop-opacity="0"/>
<stop offset="0.6244" stop-color="#F59EC3" stop-opacity="0.0730316"/>
<stop offset="0.6809" stop-color="#E2A0C8" stop-opacity="0.1749"/>
<stop offset="0.7469" stop-color="#C5A4D0" stop-opacity="0.2938"/>
<stop offset="0.82" stop-color="#9BAADB" stop-opacity="0.4256"/>
<stop offset="0.899" stop-color="#66B1E9" stop-opacity="0.568"/>
<stop offset="0.9818" stop-color="#26B9FA" stop-opacity="0.7172"/>
<stop offset="1" stop-color="#17BBFE" stop-opacity="0.75"/>
</radialGradient>
<radialGradient id="paint16_radial_91_300" cx="0" cy="0" r="1" gradientUnits="userSpaceOnUse" gradientTransform="translate(11.3341 12.986) scale(5.2614 5.26139)">
<stop stop-color="#D1F2FF" stop-opacity="0"/>
<stop offset="0.1913" stop-color="#CBF0FF" stop-opacity="0.1435"/>
<stop offset="0.458" stop-color="#B8EBFF" stop-opacity="0.3435"/>
<stop offset="0.7676" stop-color="#9BE2FE" stop-opacity="0.5757"/>
<stop offset="1" stop-color="#80DAFE" stop-opacity="0.75"/>
</radialGradient>
<radialGradient id="paint17_radial_91_300" cx="0" cy="0" r="1" gradientUnits="userSpaceOnUse" gradientTransform="translate(10.3426 12.0367) rotate(-33.2462) scale(1.01902 0.677481)">
<stop stop-color="white"/>
<stop offset="1" stop-color="white" stop-opacity="0"/>
</radialGradient>
<radialGradient id="paint18_radial_91_300" cx="0" cy="0" r="1" gradientUnits="userSpaceOnUse" gradientTransform="translate(11.3341 12.986) scale(5.2614 5.26139)">
<stop stop-color="#D1F2FF" stop-opacity="0"/>
<stop offset="0.1913" stop-color="#CBF0FF" stop-opacity="0.1435"/>
<stop offset="0.458" stop-color="#B8EBFF" stop-opacity="0.3435"/>
<stop offset="0.7676" stop-color="#9BE2FE" stop-opacity="0.5757"/>
<stop offset="1" stop-color="#80DAFE" stop-opacity="0.75"/>
</radialGradient>
<linearGradient id="paint19_linear_91_300" x1="11.0245" y1="12.4092" x2="9.30443" y2="16.6539" gradientUnits="userSpaceOnUse">
<stop stop-color="#17BBFE" stop-opacity="0"/>
<stop offset="1" stop-color="#17BBFE" stop-opacity="0.75"/>
</linearGradient>
<radialGradient id="paint20_radial_91_300" cx="0" cy="0" r="1" gradientUnits="userSpaceOnUse" gradientTransform="translate(11.925 11.939) rotate(-1.44248) scale(1.50275 0.629251)">
<stop stop-color="white"/>
<stop offset="1" stop-color="white" stop-opacity="0"/>
</radialGradient>
</defs>
</svg>
