<svg width="83" height="40" viewBox="0 0 83 40" fill="none" xmlns="http://www.w3.org/2000/svg">
<path d="M55.056 19.2741L56.5348 20.7529L55.1644 23.1798C54.5591 24.2517 53.0986 24.4511 52.2282 23.5807C51.3578 22.7103 51.5572 21.2497 52.6291 20.6445L55.056 19.2741Z" fill="#EA8518"/>
<path d="M58.4472 14.9835L59.0025 13.783C59.0025 13.783 55.105 11.6945 51.5477 14.3393" fill="#EA8518"/>
<path d="M51.2658 14.4874H48.9451C48.282 14.4874 47.7444 15.0249 47.7444 15.6881V16.5189" fill="#EA8518"/>
<path d="M51.2658 21.3278H48.9451C48.282 21.3278 47.7444 20.7902 47.7444 20.1271V19.2963" fill="#EA8518"/>
<path d="M62 17.9077C60.9628 19.56 59.5272 20.7306 57.9255 21.4187C57.844 21.454 57.7617 21.4876 57.6793 21.5203C57.5978 21.5525 57.5155 21.5834 57.4331 21.6129C57.1824 21.7038 56.9286 21.7835 56.6721 21.8515C56.5678 21.8793 56.463 21.9052 56.3583 21.929C56.2988 21.9424 56.2392 21.9554 56.1797 21.9675C55.9509 22.0149 55.7208 22.0534 55.4899 22.083C55.1501 22.1268 54.8076 22.1515 54.4652 22.1573C54.3994 22.1586 54.3336 22.1591 54.2678 22.1586C54.1693 22.1582 54.0713 22.1564 53.9728 22.1528C53.0672 22.1192 52.1656 21.9523 51.3021 21.6523C51.2256 21.6259 51.1495 21.5982 51.0734 21.5695C50.9852 21.5359 50.897 21.5015 50.8097 21.4648C50.2367 21.2275 49.6839 20.9285 49.1619 20.5681C49.0697 20.505 48.9784 20.4396 48.8884 20.3725C48.8145 20.3174 48.7416 20.261 48.6695 20.2037C48.3624 19.9589 48.0679 19.6912 47.789 19.4007C47.7138 19.3223 47.6399 19.2426 47.5674 19.1612C47.4752 19.0582 47.3847 18.9526 47.2966 18.8438C47.058 18.5515 46.8337 18.2395 46.626 17.9077C46.8337 17.5765 47.058 17.2645 47.2966 16.9717C47.3847 16.8629 47.4752 16.7568 47.5674 16.6534C47.6399 16.572 47.7138 16.4923 47.789 16.4144C48.0679 16.1239 48.362 15.8562 48.6695 15.6118C48.7416 15.554 48.8145 15.4981 48.8884 15.443C48.9784 15.3754 49.0697 15.31 49.1619 15.2465C49.6834 14.8866 50.2367 14.588 50.8097 14.3512C50.897 14.3149 50.9852 14.28 51.0734 14.2469C51.149 14.2182 51.2256 14.1905 51.3021 14.1636C52.1652 13.8628 53.0672 13.6958 53.9728 13.6627C54.0713 13.6591 54.1693 13.6569 54.2678 13.6564H54.3134C54.364 13.6564 54.4146 13.6569 54.4652 13.6578C54.8081 13.6631 55.1496 13.6882 55.4899 13.7321C55.7208 13.7621 55.9509 13.8006 56.1797 13.8476C56.2392 13.8597 56.2988 13.8726 56.3583 13.8861C56.463 13.9098 56.5678 13.9358 56.6721 13.9635C56.9286 14.0316 57.1824 14.1108 57.4331 14.2017C57.5155 14.2312 57.5978 14.2621 57.6793 14.2943C57.7617 14.327 57.844 14.361 57.9255 14.3964C59.2671 14.973 60.4919 15.888 61.4633 17.1405L61.0067 17.5971C60.8549 17.7488 60.8549 17.9941 61.0067 18.1459L61.0886 18.2278L61.7645 17.5519C61.8456 17.6678 61.9239 17.7864 62 17.9077Z" fill="#F9993A"/>
<path d="M43.2874 15.2295C43.1918 15.2172 43.0959 15.208 43 15.2004V20.6145C43.096 20.6069 43.1918 20.5978 43.2874 20.5855C44.9181 20.3763 46.4734 19.4839 47.4623 17.9075C46.4734 16.331 44.9181 15.4387 43.2874 15.2295Z" fill="#F9993A"/>
<path d="M59.2938 19.0201C59.9082 19.0201 60.4063 18.522 60.4063 17.9076C60.4063 17.2933 59.9082 16.7952 59.2938 16.7952C58.6795 16.7952 58.1814 17.2933 58.1814 17.9076C58.1814 18.522 58.6795 19.0201 59.2938 19.0201Z" fill="white"/>
<path d="M59.2938 18.5883C59.6697 18.5883 59.9744 18.2835 59.9744 17.9077C59.9744 17.5318 59.6697 17.2271 59.2938 17.2271C58.9179 17.2271 58.6132 17.5318 58.6132 17.9077C58.6132 18.2835 58.9179 18.5883 59.2938 18.5883Z" fill="#4D4D4D"/>
<path d="M57.6792 14.2944V21.5202C57.2483 21.6905 56.8065 21.8269 56.358 21.929V13.8863C56.8065 13.9883 57.2484 14.1241 57.6792 14.2944Z" fill="#E6E6E6"/>
<path d="M48.8885 15.443V20.3723C48.4173 20.0207 47.974 19.617 47.5674 19.1612V16.6533C47.9747 16.1975 48.4173 15.7939 48.8885 15.443Z" fill="#E6E6E6"/>
<path d="M54.2677 13.6566V22.1587C53.1829 22.1536 52.0988 21.9569 51.0735 21.5694V14.2466C52.0981 13.8584 53.1829 13.6617 54.2677 13.6566Z" fill="#E6E6E6"/>
<path d="M57.9255 14.3964V21.4186C57.844 21.454 57.7617 21.4876 57.6793 21.5203C57.5978 21.5525 57.5155 21.5834 57.4331 21.6129V14.2017C57.5155 14.2312 57.5978 14.2621 57.6793 14.2943C57.7617 14.327 57.844 14.361 57.9255 14.3964Z" fill="#666464"/>
<path d="M56.672 13.9635V21.8515C56.5677 21.8793 56.4629 21.9052 56.3582 21.929C56.2986 21.9424 56.2391 21.9554 56.1796 21.9675V13.8476C56.2391 13.8597 56.2986 13.8726 56.3582 13.8861C56.4629 13.9098 56.5677 13.9358 56.672 13.9635Z" fill="#666464"/>
<path d="M54.4652 13.6578V22.1573C54.3994 22.1586 54.3336 22.1591 54.2678 22.1586C54.1693 22.1582 54.0713 22.1564 53.9728 22.1528V13.6627C54.0713 13.6591 54.1693 13.6569 54.2678 13.6564H54.3134C54.364 13.6564 54.4146 13.6569 54.4652 13.6578Z" fill="#666464"/>
<path d="M51.3021 14.1636V21.6523C51.2256 21.6259 51.1495 21.5981 51.0734 21.5695C50.9852 21.5359 50.897 21.5015 50.8097 21.4647V14.3512C50.897 14.3149 50.9852 14.28 51.0734 14.2469C51.149 14.2182 51.2256 14.1905 51.3021 14.1636Z" fill="#666464"/>
<path d="M49.1618 15.2465V20.5681C49.0696 20.505 48.9783 20.4397 48.8883 20.3725C48.8145 20.3175 48.7415 20.261 48.6694 20.2037V15.6118C48.7415 15.554 48.8145 15.4981 48.8883 15.443C48.9783 15.3754 49.0696 15.3101 49.1618 15.2465Z" fill="#666464"/>
<path d="M47.7889 16.4144V19.4007C47.7137 19.3223 47.6399 19.2426 47.5673 19.1612C47.4751 19.0582 47.3847 18.9526 47.2965 18.8438V16.9717C47.3847 16.8629 47.4751 16.7568 47.5673 16.6534C47.6399 16.572 47.7137 16.4923 47.7889 16.4144Z" fill="#666464"/>
<path d="M55.8184 18.1126V19.9374L53.4753 20.5893C52.4405 20.8773 51.4163 20.0991 51.4163 19.025C51.4163 17.9509 52.4405 17.1727 53.4753 17.4606L55.8184 18.1126Z" fill="#F9993A"/>
<path d="M45.6952 30.9693V35.2753L47.2566 35.6284C47.4056 35.6622 47.5529 35.6765 47.6959 35.6735C48.8353 35.6514 49.7196 34.5358 49.3726 33.3678L49.1598 32.6512C49.1178 32.5091 49.0979 32.367 49.0979 32.2275C49.0979 31.439 49.7369 30.751 50.5778 30.751C50.8114 30.751 51.0002 30.5621 51.0002 30.3286C51.0002 30.0955 50.8114 29.9062 50.5778 29.9062L47.978 30.4724L45.6952 30.9693Z" fill="#F74B4B"/>
<path d="M33.4225 38.5273H44.893C46.1485 38.5273 47.1663 37.5095 47.1663 36.254V30.8268C47.1663 29.7322 48.0536 28.8448 49.1483 28.8448C49.3816 28.8448 49.5707 28.6557 49.5707 28.4224C49.5707 28.1892 49.3816 28 49.1483 28H39.7068C37.3306 28 35.4044 29.9263 35.4044 32.3025V35.7005C35.4044 36.7951 34.517 37.6825 33.4224 37.6825C33.1891 37.6825 33 37.8716 33 38.1049C33 38.3382 33.1892 38.5273 33.4225 38.5273Z" fill="#F9D43A"/>
<path d="M36.7301 37.9479C36.282 37.9479 35.9188 37.5847 35.9188 37.1366C35.9188 36.6885 36.282 36.3253 36.7301 36.3253C37.1782 36.3253 37.5414 36.6885 37.5414 37.1366C37.5414 37.5847 37.1782 37.9479 36.7301 37.9479Z" fill="white"/>
<path d="M36.7301 37.633C36.4559 37.633 36.2337 37.4107 36.2337 37.1366C36.2337 36.8625 36.4559 36.6402 36.7301 36.6402C37.0042 36.6402 37.2264 36.8625 37.2264 37.1366C37.2264 37.4107 37.0042 37.633 36.7301 37.633Z" fill="#4D4D4D"/>
<path d="M42.0231 39.9398H44.1422V39.2977C44.1422 38.5572 43.542 37.957 42.8016 37.957H40.503V38.4198C40.503 39.2593 41.1836 39.9398 42.0231 39.9398Z" fill="#F74B4B"/>
<path d="M38.5467 36.9541C39.4798 36.9541 40.2363 36.1976 40.2363 35.2645V29.2858C39.3032 29.2858 38.5467 30.0422 38.5467 30.9754V36.9541Z" fill="#D3B742"/>
<path d="M42.63 36.9541C41.6968 36.9541 40.9404 36.1976 40.9404 35.2645V29.2858C41.8735 29.2858 42.63 30.0422 42.63 30.9754V36.9541Z" fill="#D3B742"/>
<path d="M43.334 36.9541C44.2672 36.9541 45.0237 36.1976 45.0237 35.2645V29.2858C44.0905 29.2858 43.334 30.0422 43.334 30.9754V36.9541Z" fill="#D3B742"/>
<path d="M32.28 23.0441C33.28 22.3774 32.9467 21.0441 32.9467 21.0441C30.9467 21.0441 30.28 23.0441 30.28 23.0441C30.28 23.0441 30.9467 25.0441 32.9467 25.0441C32.9467 25.0441 33.28 23.7107 32.28 23.0441Z" fill="#91DC5A"/>
<path d="M23.6667 20.3774C23.6667 20.3774 24.3334 18.7107 27.3334 19.0441V21.0441L23.6667 20.3774Z" fill="#64C37D"/>
<path d="M23.6667 25.7107C23.6667 25.7107 24.3334 27.3774 27.3334 27.0441V25.0441L23.6667 25.7107Z" fill="#64C37D"/>
<path d="M31 23.0441C31 23.0441 29 26.0441 25.6667 26.0441C21.3333 26.0441 20 23.0441 20 23.0441C20 23.0441 21.3333 20.0441 25.6667 20.0441C29 20.0441 31 23.0441 31 23.0441Z" fill="#C2FB3B"/>
<path d="M26.3333 20.0849C26.1174 20.0586 25.8953 20.0441 25.6667 20.0441C21.3333 20.0441 20 23.0441 20 23.0441C20 23.0441 21.3333 26.0441 25.6667 26.0441C25.8953 26.0441 26.1174 26.0295 26.3333 26.0032V20.0849Z" fill="#91DC5A"/>
<path d="M23 24.0441C23.5523 24.0441 24 23.5964 24 23.0441C24 22.4918 23.5523 22.0441 23 22.0441C22.4477 22.0441 22 22.4918 22 23.0441C22 23.5964 22.4477 24.0441 23 24.0441Z" fill="#FFF6D2"/>
<path d="M23 23.5441C23.2761 23.5441 23.5 23.3202 23.5 23.0441C23.5 22.7679 23.2761 22.5441 23 22.5441C22.7239 22.5441 22.5 22.7679 22.5 23.0441C22.5 23.3202 22.7239 23.5441 23 23.5441Z" fill="black"/>
<path d="M28 23.0441C28 23.9645 27.2538 24.7107 26.3334 24.7107V23.0441C26.3334 23.0441 27.2064 23.0441 28 23.0441Z" fill="#64C37D"/>
<path d="M17.2786 29.6773C16.8979 29.0947 16.3259 28.6624 15.6603 28.4589C14.7357 28.1762 13.7473 28 12.7181 28C10.1211 28 7.79508 29.0992 6.07467 30.2458C5.88382 30.373 5.8629 30.6457 6.03009 30.8027L8.83591 33.4387L5.01321 35.2042C4.77152 35.3158 4.73139 35.6439 4.94053 35.8086C6.68864 37.1843 9.49476 38.8774 12.7181 38.8774C13.4182 38.8774 14.0995 38.7957 14.7549 38.6544C15.435 38.5077 16.0434 38.1298 16.4738 37.5829L19.7361 33.4386L17.2786 29.6773Z" fill="#0064BF"/>
<path d="M20.9138 32.2726C19.298 30.8813 16.2429 28.7408 12.7403 28.7408C7.5511 28.7408 3.34448 33.4387 3.34448 33.4387C3.34448 33.4387 7.5511 38.1367 12.7403 38.1367C16.2429 38.1367 19.298 35.9962 20.9138 34.6048C21.6278 33.9899 21.6278 32.8874 20.9138 32.2726Z" fill="#0055B8"/>
<path d="M12.7403 28.7408C7.5511 28.7408 3.34448 33.4387 3.34448 33.4387C3.34448 33.4387 4.10967 34.293 5.38936 35.2728H13.8589C14.844 35.2728 15.6426 34.4743 15.6426 33.4892V29.2085C14.7285 28.9204 13.7534 28.7408 12.7403 28.7408ZM13.0857 33.855C12.5754 33.855 12.1616 33.4412 12.1616 32.9309C12.1616 32.4205 12.5754 32.0068 13.0857 32.0068C13.5961 32.0068 14.0099 32.4205 14.0099 32.9309C14.0099 33.4412 13.5961 33.855 13.0857 33.855Z" fill="#444D56"/>
<path d="M18.2026 34.1805C18.9053 34.1805 19.4749 33.6109 19.4749 32.9082C19.4749 32.2055 18.9053 31.6359 18.2026 31.6359C17.4999 31.6359 16.9303 32.2055 16.9303 32.9082C16.9303 33.6109 17.4999 34.1805 18.2026 34.1805Z" fill="white"/>
<path d="M18.2028 33.5443C18.5541 33.5443 18.8389 33.2595 18.8389 32.9082C18.8389 32.5569 18.5541 32.2721 18.2028 32.2721C17.8514 32.2721 17.5667 32.5569 17.5667 32.9082C17.5667 33.2595 17.8514 33.5443 18.2028 33.5443Z" fill="#814C3A"/>
<path d="M4.59082 32.1183L0.574952 30.0724C0.311837 29.9382 0 30.1294 0 30.4247V35.6691C0 35.9643 0.311837 36.1556 0.574952 36.0214L4.59082 33.9755C5.34964 33.589 5.34964 32.5048 4.59082 32.1183Z" fill="#444D56"/>
<path d="M3.70909 32.6695L0 30.7798V35.314L3.70909 33.4242C4.01749 33.2672 4.01749 32.8266 3.70909 32.6695Z" fill="#FFD224"/>
<path d="M13.3224 33.8471L11.3584 31.8831C9.9209 33.3205 9.9209 35.6511 11.3584 37.0886L13.3224 35.1245C13.6751 34.7718 13.6751 34.1998 13.3224 33.8471Z" fill="#FFD224"/>
<path d="M13.3223 33.8471L11.7363 32.261C10.5075 33.4898 10.5075 35.482 11.7363 36.7107L13.3223 35.1247C13.675 34.7718 13.675 34.1999 13.3223 33.8471Z" fill="#0063BE"/>
<path d="M36.3575 3.16198L36.7558 4.93909C37.0146 6.09404 38.0917 6.87656 39.2701 6.76582L41.0833 6.59542C41.3036 6.57471 41.3987 6.86742 41.2083 6.98019L39.6412 7.9081C38.6228 8.51117 38.2114 9.77728 38.6809 10.8638L39.4032 12.5356C39.491 12.7388 39.242 12.9197 39.0759 12.7734L37.7092 11.5698C36.8209 10.7875 35.4896 10.7875 34.6014 11.5698L33.2346 12.7734C33.0685 12.9197 32.8195 12.7388 32.9073 12.5356L33.6297 10.8638C34.0991 9.7773 33.6878 8.51117 32.6693 7.9081L31.1022 6.98017C30.9118 6.86739 31.0069 6.57469 31.2273 6.5954L33.0405 6.7658C34.2189 6.87653 35.2959 6.09404 35.5547 4.93907L35.953 3.16195C36.0014 2.94601 36.3092 2.94601 36.3575 3.16198Z" fill="#F74B4B"/>
<path d="M36.1553 8.54629C36.0544 8.54629 35.9608 8.48172 35.9254 8.38719C35.8891 8.29036 35.9186 8.17776 35.9984 8.11176C36.0746 8.0488 36.1839 8.03779 36.271 8.0842C36.3625 8.13286 36.4149 8.23831 36.3975 8.34064C36.3777 8.45759 36.2743 8.54629 36.1553 8.54629Z" fill="#C11C06"/>
<path d="M35.9097 7.46373C35.9097 7.32814 36.0195 7.21809 36.1553 7.21809C36.2909 7.21809 36.4009 7.32814 36.4009 7.46373C36.4009 7.59957 36.2909 7.70937 36.1553 7.70937C36.0195 7.70937 35.9097 7.59957 35.9097 7.46373ZM35.9097 6.62711C35.9097 6.49151 36.0195 6.38147 36.1553 6.38147C36.2909 6.38147 36.4009 6.49151 36.4009 6.62711C36.4009 6.7627 36.2909 6.87275 36.1553 6.87275C36.0195 6.87275 35.9097 6.7627 35.9097 6.62711ZM35.9097 5.79021C35.9097 5.65462 36.0195 5.54457 36.1553 5.54457C36.2909 5.54457 36.4009 5.65462 36.4009 5.79021C36.4009 5.92605 36.2909 6.03585 36.1553 6.03585C36.0195 6.03585 35.9097 5.92605 35.9097 5.79021ZM35.9097 4.95356C35.9097 4.81772 36.0195 4.70792 36.1553 4.70792C36.2909 4.70792 36.4009 4.81772 36.4009 4.95356C36.4009 5.08915 36.2909 5.1992 36.1553 5.1992C36.0195 5.1992 35.9097 5.08915 35.9097 4.95356Z" fill="#C11C06"/>
<path d="M36.1554 4.36229C36.0545 4.36229 35.9614 4.29788 35.9257 4.20351C35.8891 4.10663 35.9185 3.99388 35.9985 3.92778C36.0747 3.86482 36.184 3.85379 36.2711 3.90022C36.3635 3.94937 36.4156 4.05598 36.3973 4.15902C36.3767 4.27504 36.2734 4.36229 36.1554 4.36229Z" fill="#C11C06"/>
<path d="M36.1553 8.54632C36.0544 8.54632 35.9608 8.48175 35.9254 8.38722C35.8891 8.29039 35.9186 8.17779 35.9984 8.11179C36.0746 8.04883 36.1839 8.03782 36.271 8.08423C36.3625 8.13289 36.4149 8.23834 36.3975 8.34067C36.3777 8.45762 36.2743 8.54632 36.1553 8.54632Z" fill="#C11C06"/>
<path d="M35.283 8.3002C35.153 8.26188 35.0786 8.12531 35.1167 7.99512C35.155 7.86493 35.2916 7.7905 35.4218 7.82882C35.552 7.86714 35.6264 8.00371 35.5881 8.1339C35.5566 8.24076 35.4586 8.31027 35.3525 8.31027C35.3297 8.31027 35.3063 8.30683 35.283 8.3002C35.3063 8.30683 35.153 8.26186 35.283 8.3002ZM34.4802 8.0639C34.35 8.02558 34.2756 7.889 34.3139 7.75881C34.3523 7.62887 34.4888 7.55419 34.619 7.59251C34.7492 7.63083 34.8236 7.76741 34.7853 7.8976C34.7539 8.0047 34.6559 8.07397 34.5498 8.07397C34.5269 8.07397 34.5033 8.07077 34.4802 8.0639C34.5033 8.07077 34.35 8.02558 34.4802 8.0639ZM33.6775 7.82759C33.5475 7.78927 33.4729 7.65294 33.5112 7.52275C33.5495 7.39256 33.6861 7.31813 33.8163 7.35645C33.9465 7.39477 34.0209 7.53135 33.9826 7.66129C33.9511 7.76839 33.8531 7.83766 33.747 7.83766C33.7242 7.83766 33.7008 7.83447 33.6775 7.82759C33.7008 7.83447 33.5475 7.78924 33.6775 7.82759ZM32.8747 7.59153C32.7445 7.55321 32.6701 7.41663 32.7084 7.28644C32.7468 7.15625 32.8833 7.08182 33.0135 7.12014C33.1437 7.15846 33.2181 7.29504 33.1798 7.42523C33.1484 7.53208 33.0504 7.6016 32.9442 7.6016C32.9214 7.6016 32.8981 7.59816 32.8747 7.59153C32.8981 7.59816 32.7445 7.55321 32.8747 7.59153Z" fill="#C11C06"/>
<path d="M32.1416 7.36526C32.0389 7.36526 31.9449 7.29874 31.9103 7.20225C31.8763 7.10731 31.9054 6.99736 31.9826 6.93227C32.0635 6.8642 32.1812 6.85521 32.2712 6.91092C32.357 6.96405 32.4022 7.06865 32.3823 7.16752C32.3595 7.28083 32.2575 7.36526 32.1416 7.36526Z" fill="#C11C06"/>
<path d="M36.1553 8.54632C36.0544 8.54632 35.9608 8.48175 35.9254 8.38722C35.8891 8.29039 35.9186 8.17779 35.9984 8.11179C36.0746 8.04883 36.1839 8.03782 36.271 8.08423C36.3625 8.13289 36.4149 8.23834 36.3975 8.34067C36.3777 8.45762 36.2743 8.54632 36.1553 8.54632Z" fill="#C11C06"/>
<path d="M34.0882 11.2393C33.9772 11.1612 33.9504 11.0081 34.0285 10.8971C34.1066 10.7861 34.2599 10.7595 34.3709 10.8374C34.4817 10.9155 34.5085 11.0688 34.4304 11.1798C34.3825 11.2476 34.3066 11.284 34.2292 11.284C34.1806 11.284 34.1312 11.2695 34.0882 11.2393C34.1312 11.2695 33.9772 11.1611 34.0882 11.2393ZM34.5697 10.5549C34.4586 10.4768 34.4319 10.3235 34.51 10.2127C34.5881 10.1017 34.7414 10.0749 34.8522 10.153C34.9632 10.2312 34.99 10.3844 34.9118 10.4952C34.8639 10.5633 34.788 10.5996 34.7107 10.5996C34.6618 10.5996 34.6127 10.5851 34.5697 10.5549C34.6127 10.5851 34.4586 10.4768 34.5697 10.5549ZM35.0511 9.87054C34.9401 9.79242 34.9133 9.63914 34.9914 9.52811C35.0695 9.41733 35.2226 9.39055 35.3336 9.46867C35.4446 9.54654 35.4714 9.69982 35.3933 9.81085C35.3454 9.87889 35.2695 9.91524 35.1921 9.91524C35.1432 9.91524 35.0939 9.90077 35.0511 9.87054C35.0939 9.90077 34.9401 9.79242 35.0511 9.87054ZM35.5326 9.18596C35.4216 9.10785 35.3948 8.95481 35.4729 8.84378C35.551 8.73275 35.704 8.70622 35.8151 8.78409C35.9261 8.86221 35.9529 9.01549 35.8748 9.12652C35.8269 9.19431 35.751 9.23067 35.6736 9.23067C35.6247 9.23067 35.5756 9.21617 35.5326 9.18596C35.5756 9.21617 35.4216 9.10785 35.5326 9.18596Z" fill="#C11C06"/>
<path d="M33.748 11.9686C33.6439 11.9686 33.5492 11.9002 33.5156 11.8018C33.4821 11.7033 33.516 11.5914 33.5985 11.528C33.6777 11.4672 33.7886 11.4614 33.8743 11.5124C33.9622 11.5647 34.0092 11.6704 33.989 11.7709C33.9662 11.8842 33.8638 11.9686 33.748 11.9686Z" fill="#C11C06"/>
<path d="M36.1553 8.54632C36.0544 8.54632 35.9608 8.48175 35.9254 8.38722C35.8891 8.29039 35.9186 8.17779 35.9984 8.11179C36.0746 8.04883 36.1839 8.03782 36.271 8.08423C36.3625 8.13289 36.4149 8.23834 36.3975 8.34067C36.3777 8.45762 36.2743 8.54632 36.1553 8.54632Z" fill="#C11C06"/>
<path d="M36.7223 8.13388C36.6839 8.00369 36.7584 7.86711 36.8886 7.82879C37.0188 7.79047 37.1554 7.8649 37.1937 7.99509C37.232 8.12528 37.1576 8.26186 37.0274 8.30018C37.0043 8.30681 36.9809 8.31025 36.9579 8.31025C36.8517 8.31027 36.7537 8.24076 36.7223 8.13388C36.7537 8.24076 36.684 8.00369 36.7223 8.13388ZM37.525 7.8976C37.4867 7.76741 37.5612 7.63083 37.6914 7.59251C37.8216 7.55444 37.9581 7.62887 37.9965 7.75881C38.0348 7.889 37.9603 8.02558 37.8301 8.0639C37.8071 8.07077 37.7837 8.07397 37.7606 8.07397C37.6545 8.07397 37.5565 8.00467 37.525 7.8976C37.5565 8.00467 37.4867 7.76741 37.525 7.8976ZM38.3278 7.66127C38.2895 7.53108 38.3639 7.39475 38.4941 7.35643C38.6243 7.31811 38.7608 7.39253 38.7992 7.52272C38.8375 7.65267 38.7631 7.78924 38.6329 7.82756C38.6098 7.83444 38.5864 7.83764 38.5634 7.83764C38.4572 7.83766 38.3592 7.76839 38.3278 7.66127C38.3592 7.76839 38.2895 7.53108 38.3278 7.66127ZM39.1305 7.42523C39.0922 7.29504 39.1667 7.15846 39.2968 7.12014C39.427 7.08182 39.5636 7.15625 39.6019 7.28644C39.6403 7.41663 39.5658 7.55321 39.4356 7.59153C39.4125 7.59816 39.3892 7.6016 39.3661 7.6016C39.26 7.6016 39.162 7.53206 39.1305 7.42523C39.162 7.53206 39.0922 7.29504 39.1305 7.42523Z" fill="#C11C06"/>
<path d="M40.1691 7.36525C40.0664 7.36525 39.9724 7.29866 39.9378 7.20225C39.9036 7.10691 39.9331 6.9979 40.0102 6.93236C40.0906 6.86402 40.209 6.85518 40.2987 6.91092C40.3844 6.9642 40.4298 7.06854 40.4098 7.16751C40.387 7.28085 40.285 7.36525 40.1691 7.36525Z" fill="#C11C06"/>
<path d="M36.1553 8.54632C36.0544 8.54632 35.9608 8.48175 35.9254 8.38722C35.8891 8.29039 35.9186 8.17779 35.9984 8.11179C36.0746 8.04883 36.1839 8.03782 36.271 8.08423C36.3625 8.13289 36.4149 8.23834 36.3975 8.34067C36.3777 8.45762 36.2743 8.54632 36.1553 8.54632Z" fill="#C11C06"/>
<path d="M37.88 11.1798C37.8018 11.0688 37.8286 10.9155 37.9397 10.8374C38.0507 10.7595 38.2037 10.786 38.2818 10.8971C38.36 11.0081 38.3332 11.1611 38.2224 11.2392C38.1794 11.2695 38.13 11.284 38.0811 11.284C38.004 11.284 37.9279 11.2476 37.88 11.1798C37.9279 11.2476 37.8018 11.0688 37.88 11.1798ZM37.3985 10.4952C37.3206 10.3844 37.3471 10.2312 37.4582 10.153C37.5692 10.0749 37.7223 10.1017 37.8004 10.2127C37.8785 10.3235 37.8517 10.4768 37.7409 10.5549C37.6979 10.5851 37.6486 10.5996 37.5997 10.5996C37.5226 10.5996 37.4464 10.5633 37.3985 10.4952C37.4464 10.5633 37.3206 10.3844 37.3985 10.4952ZM36.917 9.81085C36.8392 9.69982 36.8657 9.54654 36.9767 9.46867C37.0878 9.39055 37.2411 9.41733 37.3189 9.52811C37.3971 9.63914 37.3703 9.79242 37.2595 9.87054C37.2165 9.90075 37.1671 9.91524 37.1183 9.91524C37.0411 9.91524 36.9649 9.87891 36.917 9.81085C36.9649 9.87891 36.8392 9.69982 36.917 9.81085ZM36.4358 9.12652C36.3577 9.01549 36.3842 8.86221 36.4953 8.78409C36.6063 8.70622 36.7596 8.73275 36.8375 8.84378C36.9156 8.95481 36.8891 9.10809 36.778 9.18596C36.735 9.21617 36.6857 9.23067 36.6368 9.23067C36.5596 9.23067 36.4835 9.19431 36.4358 9.12652C36.4835 9.19431 36.3577 9.01549 36.4358 9.12652Z" fill="#C11C06"/>
<path d="M38.5625 11.9686C38.4581 11.9686 38.3638 11.9001 38.33 11.8018C38.2963 11.7037 38.3306 11.591 38.4129 11.528C38.4923 11.4673 38.6029 11.4614 38.6887 11.5123C38.7769 11.5646 38.8231 11.6705 38.8032 11.7709C38.7806 11.8843 38.6782 11.9686 38.5625 11.9686Z" fill="#C11C06"/>
<path fill-rule="evenodd" clip-rule="evenodd" d="M73.4702 24.4464C73.4702 24.4464 75.829 26.1495 74.0143 27.5403C72.1995 28.9312 73.4702 24.4464 73.4702 24.4464Z" fill="#FFDD95"/>
<path fill-rule="evenodd" clip-rule="evenodd" d="M67.3677 26.4245L69.2942 23.7095L69.5786 24.1052L72.649 22L72.6232 23.2109L67.3677 26.4245Z" fill="#FFDD95"/>
<path fill-rule="evenodd" clip-rule="evenodd" d="M76.5686 26.462C76.5686 26.462 74.1562 26.7389 73.3708 28.5423C73.3708 28.5423 73.4887 30.5685 75.7077 30.5867C74.9697 27.556 76.5686 26.462 76.5686 26.462Z" fill="#FFDD95"/>
<path fill-rule="evenodd" clip-rule="evenodd" d="M66 27.1642C66 27.1642 69.3886 25.4126 70.3028 24.2059C71.2169 22.9993 75.2572 22.4948 75.2572 22.4948C75.2572 22.4948 73.1372 24.2517 73.6161 26.9091C74.095 29.5665 72.3209 31.6267 72.3209 31.6267C72.3209 31.6267 69.9716 30.8128 68.9567 30.0963C67.9417 29.3797 66 27.1642 66 27.1642Z" fill="#FFAF40"/>
<path d="M68.1109 27.7317C68.4114 27.7317 68.655 27.488 68.655 27.1875C68.655 26.887 68.4114 26.6434 68.1109 26.6434C67.8104 26.6434 67.5668 26.887 67.5668 27.1875C67.5668 27.488 67.8104 27.7317 68.1109 27.7317Z" fill="#595959"/>
<path fill-rule="evenodd" clip-rule="evenodd" d="M68.111 28.8199C68.111 28.8199 68.4963 29.7286 68.8379 30.6763C69.1796 31.6239 70.6284 32.448 70.9635 32.193C71.2985 31.938 70.5933 31.1146 70.4257 30.2793C70.258 29.4439 68.111 28.8199 68.111 28.8199Z" fill="#FFDD95"/>
<path d="M76.9975 9.14748C78.9647 9.14748 80.5594 7.55274 80.5594 5.58556C80.5594 3.61837 78.9647 2.02365 76.9975 2.02365C75.0303 2.02365 73.4355 3.61837 73.4355 5.58556C73.4355 7.55274 75.0303 9.14748 76.9975 9.14748Z" fill="url(#paint0_linear_91_416)"/>
<path d="M76.9975 9.14748C78.9647 9.14748 80.5594 7.55274 80.5594 5.58556C80.5594 3.61837 78.9647 2.02365 76.9975 2.02365C75.0303 2.02365 73.4355 3.61837 73.4355 5.58556C73.4355 7.55274 75.0303 9.14748 76.9975 9.14748Z" fill="url(#paint1_radial_91_416)"/>
<path d="M76.9975 9.14748C78.9647 9.14748 80.5594 7.55274 80.5594 5.58556C80.5594 3.61837 78.9647 2.02365 76.9975 2.02365C75.0303 2.02365 73.4355 3.61837 73.4355 5.58556C73.4355 7.55274 75.0303 9.14748 76.9975 9.14748Z" fill="url(#paint2_radial_91_416)"/>
<path d="M77.7665 2.77638C78.1672 3.38757 77.6815 4.41567 76.6818 5.06734C75.682 5.719 74.5487 5.75948 74.1479 5.14829C73.7472 4.5371 74.2329 3.509 75.2328 2.85733C76.2325 2.20567 77.3658 2.16519 77.7665 2.77638Z" fill="url(#paint3_radial_91_416)"/>
<path d="M76.9975 9.14748C78.9647 9.14748 80.5594 7.55274 80.5594 5.58556C80.5594 3.61837 78.9647 2.02365 76.9975 2.02365C75.0303 2.02365 73.4355 3.61837 73.4355 5.58556C73.4355 7.55274 75.0303 9.14748 76.9975 9.14748Z" fill="url(#paint4_radial_91_416)"/>
<path d="M75.8562 7.46386C74.9779 6.99836 73.6866 5.54931 74.0307 3.6105C73.6543 4.17717 73.4316 4.85312 73.4316 5.58574C73.4316 7.5529 75.0264 9.14764 76.9936 9.14764C77.8759 9.14764 78.6854 8.82386 79.3088 8.2936C78.1309 7.4679 77.4752 8.32597 75.8562 7.46386Z" fill="url(#paint5_linear_91_416)"/>
<path d="M77.1107 2.0278C77.1633 2.03185 77.2119 2.03995 77.2645 2.05209C77.3495 2.07637 77.4345 2.1128 77.5155 2.15733C77.6733 2.25042 77.8069 2.3759 77.9283 2.51352C78.1631 2.7928 78.3291 3.12066 78.4545 3.46066C78.5193 3.63066 78.5719 3.80471 78.6164 3.97876C78.661 4.1528 78.6974 4.3309 78.7257 4.50899C78.7541 4.68709 78.7743 4.86519 78.7905 5.04733C78.8026 5.22542 78.8107 5.40756 78.8107 5.58971C78.8107 5.77185 78.8026 5.94994 78.7905 6.13209C78.7743 6.31018 78.7581 6.49233 78.7257 6.67042C78.6974 6.84851 78.661 7.02661 78.6164 7.20063C78.5719 7.37473 78.5193 7.54877 78.4545 7.71877C78.3291 8.05473 78.1591 8.38255 77.9283 8.66588C77.811 8.80351 77.6733 8.92896 77.5155 9.0221C77.4385 9.06659 77.3535 9.10307 77.2645 9.12729C77.216 9.13948 77.1633 9.14755 77.1148 9.15159C78.4019 9.06255 79.426 7.50422 79.426 5.59376C79.426 3.67519 78.3978 2.11685 77.1107 2.0278Z" fill="url(#paint6_radial_91_416)"/>
<path d="M70.9382 11.8634C72.3242 11.8634 73.4477 10.7398 73.4477 9.35388C73.4477 7.96789 72.3242 6.84433 70.9382 6.84433C69.5523 6.84433 68.4287 7.96789 68.4287 9.35388C68.4287 10.7398 69.5523 11.8634 70.9382 11.8634Z" fill="url(#paint7_linear_91_416)"/>
<path d="M70.9382 11.8634C72.3242 11.8634 73.4477 10.7398 73.4477 9.35388C73.4477 7.96789 72.3242 6.84433 70.9382 6.84433C69.5523 6.84433 68.4287 7.96789 68.4287 9.35388C68.4287 10.7398 69.5523 11.8634 70.9382 11.8634Z" fill="url(#paint8_radial_91_416)"/>
<path d="M70.9382 11.8634C72.3242 11.8634 73.4477 10.7398 73.4477 9.35388C73.4477 7.96789 72.3242 6.84433 70.9382 6.84433C69.5523 6.84433 68.4287 7.96789 68.4287 9.35388C68.4287 10.7398 69.5523 11.8634 70.9382 11.8634Z" fill="url(#paint9_radial_91_416)"/>
<path d="M71.4806 7.37856C71.7639 7.8076 71.4199 8.53216 70.7156 8.99356C70.0113 9.45497 69.2099 9.47927 68.9306 9.05023C68.6473 8.62119 68.9913 7.89664 69.6956 7.43523C70.3999 6.97379 71.1973 6.9495 71.4806 7.37856Z" fill="url(#paint10_radial_91_416)"/>
<path d="M70.9382 11.8634C72.3242 11.8634 73.4477 10.7398 73.4477 9.35388C73.4477 7.96789 72.3242 6.84433 70.9382 6.84433C69.5523 6.84433 68.4287 7.96789 68.4287 9.35388C68.4287 10.7398 69.5523 11.8634 70.9382 11.8634Z" fill="url(#paint11_radial_91_416)"/>
<path d="M70.1328 10.6774C69.5135 10.3496 68.6068 9.3296 68.8497 7.96146C68.5825 8.36223 68.4287 8.83979 68.4287 9.3539C68.4287 10.7381 69.5539 11.8634 70.9382 11.8634C71.5616 11.8634 72.1323 11.6367 72.5694 11.2603C71.7397 10.6815 71.2742 11.2846 70.1328 10.6774Z" fill="url(#paint12_linear_91_416)"/>
<path d="M71.0192 6.84848C71.0556 6.85252 71.092 6.85658 71.1244 6.86467C71.1851 6.88086 71.2458 6.90919 71.2984 6.93753C71.4077 7.00229 71.5049 7.09133 71.5899 7.18851C71.7558 7.38684 71.8732 7.61755 71.9623 7.85633C72.0068 7.9737 72.0473 8.09921 72.0756 8.22062C72.108 8.34203 72.1323 8.46755 72.1525 8.59299C72.1727 8.71851 72.1849 8.84395 72.197 8.97351C72.2051 9.09895 72.2092 9.22851 72.2132 9.35395C72.2132 9.4794 72.2092 9.60895 72.197 9.7344C72.1849 9.85992 72.1727 9.9894 72.1525 10.1149C72.1323 10.2404 72.1039 10.3659 72.0756 10.4873C72.0432 10.6127 72.0068 10.7342 71.9623 10.8516C71.8732 11.0904 71.7558 11.3211 71.5899 11.5194C71.5049 11.6166 71.4118 11.7056 71.2984 11.7704C71.2418 11.8027 71.1851 11.827 71.1244 11.8433C71.088 11.8513 71.0556 11.8594 71.0192 11.8594C71.9258 11.7947 72.6504 10.6977 72.6504 9.35395C72.6504 8.01018 71.9258 6.91324 71.0192 6.84848Z" fill="url(#paint13_radial_91_416)"/>
<path d="M76.9286 14.9759C78.0463 14.9759 78.9524 14.0698 78.9524 12.9522C78.9524 11.8344 78.0463 10.9283 76.9286 10.9283C75.8109 10.9283 74.9048 11.8344 74.9048 12.9522C74.9048 14.0698 75.8109 14.9759 76.9286 14.9759Z" fill="url(#paint14_linear_91_416)"/>
<path d="M76.9286 14.9759C78.0463 14.9759 78.9524 14.0698 78.9524 12.9522C78.9524 11.8344 78.0463 10.9283 76.9286 10.9283C75.8109 10.9283 74.9048 11.8344 74.9048 12.9522C74.9048 14.0698 75.8109 14.9759 76.9286 14.9759Z" fill="url(#paint15_radial_91_416)"/>
<path d="M76.9286 14.9759C78.0463 14.9759 78.9524 14.0698 78.9524 12.9522C78.9524 11.8344 78.0463 10.9283 76.9286 10.9283C75.8109 10.9283 74.9048 11.8344 74.9048 12.9522C74.9048 14.0698 75.8109 14.9759 76.9286 14.9759Z" fill="url(#paint16_radial_91_416)"/>
<path d="M77.3659 11.3574C77.5925 11.7054 77.3174 12.2883 76.7507 12.6607C76.184 13.0331 75.5364 13.0533 75.3097 12.7052C75.0831 12.3571 75.3583 11.7742 75.925 11.4018C76.4916 11.0295 77.1392 11.0092 77.3659 11.3574Z" fill="url(#paint17_radial_91_416)"/>
<path d="M76.9286 14.9759C78.0463 14.9759 78.9524 14.0698 78.9524 12.9522C78.9524 11.8344 78.0463 10.9283 76.9286 10.9283C75.8109 10.9283 74.9048 11.8344 74.9048 12.9522C74.9048 14.0698 75.8109 14.9759 76.9286 14.9759Z" fill="url(#paint18_radial_91_416)"/>
<path d="M76.281 14.0208C75.7831 13.7577 75.0505 12.932 75.2448 11.831C75.0303 12.1508 74.9048 12.5393 74.9048 12.9522C74.9048 14.0693 75.8115 14.976 76.9286 14.976C77.4306 14.976 77.892 14.7939 78.2441 14.4903C77.5722 14.0208 77.1998 14.5105 76.281 14.0208Z" fill="url(#paint19_linear_91_416)"/>
<path d="M76.9933 10.9325C77.0216 10.9365 77.05 10.9406 77.0783 10.9486C77.1269 10.9649 77.1755 10.9851 77.22 11.0094C77.309 11.062 77.3859 11.1349 77.4547 11.2118C77.5883 11.3696 77.6814 11.5558 77.7542 11.7501C77.7907 11.8472 77.823 11.9444 77.8473 12.0456C77.8716 12.1468 77.8919 12.2439 77.908 12.3451C77.9242 12.4463 77.9364 12.5475 77.9445 12.6486C77.9526 12.7499 77.9566 12.8551 77.9566 12.9563C77.9566 13.0575 77.9526 13.1628 77.9445 13.2639C77.9364 13.3651 77.9242 13.4663 77.908 13.5675C77.8919 13.6686 77.8716 13.7699 77.8473 13.867C77.823 13.9682 77.7907 14.0653 77.7542 14.1625C77.6814 14.3528 77.5883 14.5389 77.4547 14.7008C77.3859 14.7778 77.309 14.8506 77.22 14.9032C77.1755 14.9275 77.1269 14.9478 77.0783 14.9639C77.05 14.972 77.0216 14.9761 76.9933 14.9801C77.7259 14.9275 78.3088 14.0451 78.3088 12.9603C78.3088 11.8675 77.7259 10.9811 76.9933 10.9325Z" fill="url(#paint20_radial_91_416)"/>
<g clip-path="url(#clip0_91_416)">
<path d="M12.9886 11.2085C12.3878 10.8082 11.6659 10.628 10.9459 10.7L6.88549 11.0667L4.8219 8.7074L11.8966 9.56083C12.3695 9.61819 12.7492 9.9787 12.8303 10.4483L12.9886 11.2085Z" fill="#61ACD2"/>
<path d="M11.3659 14.8155C10.7382 15.143 9.03998 15.8954 7.34279 15.4886L8.98018 14.418C9.73188 14.6272 10.5439 14.7812 11.3659 14.8155Z" fill="#61ACD2"/>
<path d="M7.74737 14.0131C7.14706 14.2259 5.75405 14.6618 4.61842 14.5792L6.31177 13.3913C6.71073 13.5868 7.19872 13.8061 7.74737 14.0131Z" fill="#61ACD2"/>
<path d="M15.9607 13.2145C15.2411 13.9581 14.4175 14.4142 13.5535 14.6639C12.8369 14.8708 12.0927 14.9358 11.3561 14.9046L11.3558 14.9046C10.5338 14.8703 9.72173 14.7163 8.97003 14.5071C8.53584 14.3865 8.1218 14.2473 7.73729 14.1022C7.18864 13.8952 6.70065 13.6759 6.30169 13.4804C5.60004 13.137 5.17278 12.8674 5.17278 12.8674L5.17281 12.8671L2.73081 14.5159L4.08394 11.8571L3.3584 8.96307L5.3708 11.1153L6.89553 10.9776L10.9559 10.6109C11.676 10.5389 12.3979 10.7192 12.9986 11.1194C13.0227 11.1357 13.5816 11.5309 13.5816 11.5309L15.9607 13.2145Z" fill="#F4A026"/>
<path d="M13.5816 11.5308L13.5315 11.5565L12.7666 12.1017L9.749 11.7607C9.6178 11.7458 9.49941 11.8402 9.48458 11.9714C9.46975 12.1026 9.5641 12.221 9.69529 12.2358L12.184 12.5171L11.6016 12.9323L12.2227 13.4839L9.08304 13.129C8.95185 13.1142 8.83345 13.2085 8.81863 13.3397C8.8038 13.4709 8.89815 13.5893 9.02934 13.6041L12.8304 14.0337C12.8346 14.0342 12.8387 14.0343 12.8429 14.0345L13.5421 14.6554L13.5535 14.6639C14.4175 14.4142 15.2411 13.9581 15.9606 13.2144L13.5816 11.5308Z" fill="#61ACD2"/>
<path d="M13.7919 12.9773C13.9231 12.9921 14.0415 12.8978 14.0563 12.7665C14.0711 12.6353 13.9768 12.517 13.8456 12.5021C13.7144 12.4873 13.596 12.5816 13.5812 12.7128C13.5664 12.8441 13.6607 12.9624 13.7919 12.9773Z" fill="#495577"/>
</g>
<defs>
<linearGradient id="paint0_linear_91_416" x1="73.8283" y1="0.586113" x2="86.636" y2="20.7993" gradientUnits="userSpaceOnUse">
<stop stop-color="#80DAFE" stop-opacity="0"/>
<stop offset="1" stop-color="#008EE6"/>
</linearGradient>
<radialGradient id="paint1_radial_91_416" cx="0" cy="0" r="1" gradientUnits="userSpaceOnUse" gradientTransform="translate(76.0227 2.52329) scale(8.339)">
<stop offset="0.5839" stop-color="#FB9DC1" stop-opacity="0"/>
<stop offset="0.6244" stop-color="#F59EC3" stop-opacity="0.0730316"/>
<stop offset="0.6809" stop-color="#E2A0C8" stop-opacity="0.1749"/>
<stop offset="0.7469" stop-color="#C5A4D0" stop-opacity="0.2938"/>
<stop offset="0.82" stop-color="#9BAADB" stop-opacity="0.4256"/>
<stop offset="0.899" stop-color="#66B1E9" stop-opacity="0.568"/>
<stop offset="0.9818" stop-color="#26B9FA" stop-opacity="0.7172"/>
<stop offset="1" stop-color="#17BBFE" stop-opacity="0.75"/>
</radialGradient>
<radialGradient id="paint2_radial_91_416" cx="0" cy="0" r="1" gradientUnits="userSpaceOnUse" gradientTransform="translate(77.712 5.64338) scale(9.25997)">
<stop stop-color="#D1F2FF" stop-opacity="0"/>
<stop offset="0.1913" stop-color="#CBF0FF" stop-opacity="0.1435"/>
<stop offset="0.458" stop-color="#B8EBFF" stop-opacity="0.3435"/>
<stop offset="0.7676" stop-color="#9BE2FE" stop-opacity="0.5757"/>
<stop offset="1" stop-color="#80DAFE" stop-opacity="0.75"/>
</radialGradient>
<radialGradient id="paint3_radial_91_416" cx="0" cy="0" r="1" gradientUnits="userSpaceOnUse" gradientTransform="translate(75.9578 3.96277) rotate(-33.2503) scale(1.79353 1.19248)">
<stop stop-color="white"/>
<stop offset="1" stop-color="white" stop-opacity="0"/>
</radialGradient>
<radialGradient id="paint4_radial_91_416" cx="0" cy="0" r="1" gradientUnits="userSpaceOnUse" gradientTransform="translate(77.712 5.64338) scale(9.25997)">
<stop stop-color="#D1F2FF" stop-opacity="0"/>
<stop offset="0.1913" stop-color="#CBF0FF" stop-opacity="0.1435"/>
<stop offset="0.458" stop-color="#B8EBFF" stop-opacity="0.3435"/>
<stop offset="0.7676" stop-color="#9BE2FE" stop-opacity="0.5757"/>
<stop offset="1" stop-color="#80DAFE" stop-opacity="0.75"/>
</radialGradient>
<linearGradient id="paint5_linear_91_416" x1="77.1673" y1="4.62879" x2="74.14" y2="12.0993" gradientUnits="userSpaceOnUse">
<stop stop-color="#17BBFE" stop-opacity="0"/>
<stop offset="1" stop-color="#17BBFE" stop-opacity="0.75"/>
</linearGradient>
<radialGradient id="paint6_radial_91_416" cx="0" cy="0" r="1" gradientUnits="userSpaceOnUse" gradientTransform="translate(78.7533 3.8044) rotate(-1.44239) scale(2.64499 1.10748)">
<stop stop-color="white"/>
<stop offset="1" stop-color="white" stop-opacity="0"/>
</radialGradient>
<linearGradient id="paint7_linear_91_416" x1="68.7062" y1="5.83386" x2="77.7298" y2="20.0749" gradientUnits="userSpaceOnUse">
<stop stop-color="#80DAFE" stop-opacity="0"/>
<stop offset="1" stop-color="#008EE6"/>
</linearGradient>
<radialGradient id="paint8_radial_91_416" cx="0" cy="0" r="1" gradientUnits="userSpaceOnUse" gradientTransform="translate(70.2523 7.19864) scale(5.87521 5.87521)">
<stop offset="0.5839" stop-color="#FB9DC1" stop-opacity="0"/>
<stop offset="0.6244" stop-color="#F59EC3" stop-opacity="0.0730316"/>
<stop offset="0.6809" stop-color="#E2A0C8" stop-opacity="0.1749"/>
<stop offset="0.7469" stop-color="#C5A4D0" stop-opacity="0.2938"/>
<stop offset="0.82" stop-color="#9BAADB" stop-opacity="0.4256"/>
<stop offset="0.899" stop-color="#66B1E9" stop-opacity="0.568"/>
<stop offset="0.9818" stop-color="#26B9FA" stop-opacity="0.7172"/>
<stop offset="1" stop-color="#17BBFE" stop-opacity="0.75"/>
</radialGradient>
<radialGradient id="paint9_radial_91_416" cx="0" cy="0" r="1" gradientUnits="userSpaceOnUse" gradientTransform="translate(71.4425 9.39688) scale(6.52405 6.52406)">
<stop stop-color="#D1F2FF" stop-opacity="0"/>
<stop offset="0.1913" stop-color="#CBF0FF" stop-opacity="0.1435"/>
<stop offset="0.458" stop-color="#B8EBFF" stop-opacity="0.3435"/>
<stop offset="0.7676" stop-color="#9BE2FE" stop-opacity="0.5757"/>
<stop offset="1" stop-color="#80DAFE" stop-opacity="0.75"/>
</radialGradient>
<radialGradient id="paint10_radial_91_416" cx="0" cy="0" r="1" gradientUnits="userSpaceOnUse" gradientTransform="translate(70.2066 8.2127) rotate(-33.2504) scale(1.26362 0.840161)">
<stop stop-color="white"/>
<stop offset="1" stop-color="white" stop-opacity="0"/>
</radialGradient>
<radialGradient id="paint11_radial_91_416" cx="0" cy="0" r="1" gradientUnits="userSpaceOnUse" gradientTransform="translate(71.4425 9.39688) scale(6.52405 6.52406)">
<stop stop-color="#D1F2FF" stop-opacity="0"/>
<stop offset="0.1913" stop-color="#CBF0FF" stop-opacity="0.1435"/>
<stop offset="0.458" stop-color="#B8EBFF" stop-opacity="0.3435"/>
<stop offset="0.7676" stop-color="#9BE2FE" stop-opacity="0.5757"/>
<stop offset="1" stop-color="#80DAFE" stop-opacity="0.75"/>
</radialGradient>
<linearGradient id="paint12_linear_91_416" x1="71.0586" y1="8.68197" x2="68.9257" y2="13.9453" gradientUnits="userSpaceOnUse">
<stop stop-color="#17BBFE" stop-opacity="0"/>
<stop offset="1" stop-color="#17BBFE" stop-opacity="0.75"/>
</linearGradient>
<radialGradient id="paint13_radial_91_416" cx="0" cy="0" r="1" gradientUnits="userSpaceOnUse" gradientTransform="translate(72.1761 8.10155) rotate(-1.44239) scale(1.86352 0.780272)">
<stop stop-color="white"/>
<stop offset="1" stop-color="white" stop-opacity="0"/>
</radialGradient>
<linearGradient id="paint14_linear_91_416" x1="75.1274" y1="10.1123" x2="82.4045" y2="21.597" gradientUnits="userSpaceOnUse">
<stop stop-color="#80DAFE" stop-opacity="0"/>
<stop offset="1" stop-color="#008EE6"/>
</linearGradient>
<radialGradient id="paint15_radial_91_416" cx="0" cy="0" r="1" gradientUnits="userSpaceOnUse" gradientTransform="translate(76.3742 11.2132) scale(4.73813 4.73813)">
<stop offset="0.5839" stop-color="#FB9DC1" stop-opacity="0"/>
<stop offset="0.6244" stop-color="#F59EC3" stop-opacity="0.0730316"/>
<stop offset="0.6809" stop-color="#E2A0C8" stop-opacity="0.1749"/>
<stop offset="0.7469" stop-color="#C5A4D0" stop-opacity="0.2938"/>
<stop offset="0.82" stop-color="#9BAADB" stop-opacity="0.4256"/>
<stop offset="0.899" stop-color="#66B1E9" stop-opacity="0.568"/>
<stop offset="0.9818" stop-color="#26B9FA" stop-opacity="0.7172"/>
<stop offset="1" stop-color="#17BBFE" stop-opacity="0.75"/>
</radialGradient>
<radialGradient id="paint16_radial_91_416" cx="0" cy="0" r="1" gradientUnits="userSpaceOnUse" gradientTransform="translate(77.3341 12.986) scale(5.2614 5.26139)">
<stop stop-color="#D1F2FF" stop-opacity="0"/>
<stop offset="0.1913" stop-color="#CBF0FF" stop-opacity="0.1435"/>
<stop offset="0.458" stop-color="#B8EBFF" stop-opacity="0.3435"/>
<stop offset="0.7676" stop-color="#9BE2FE" stop-opacity="0.5757"/>
<stop offset="1" stop-color="#80DAFE" stop-opacity="0.75"/>
</radialGradient>
<radialGradient id="paint17_radial_91_416" cx="0" cy="0" r="1" gradientUnits="userSpaceOnUse" gradientTransform="translate(76.3426 12.0367) rotate(-33.2462) scale(1.01902 0.677481)">
<stop stop-color="white"/>
<stop offset="1" stop-color="white" stop-opacity="0"/>
</radialGradient>
<radialGradient id="paint18_radial_91_416" cx="0" cy="0" r="1" gradientUnits="userSpaceOnUse" gradientTransform="translate(77.3341 12.986) scale(5.2614 5.26139)">
<stop stop-color="#D1F2FF" stop-opacity="0"/>
<stop offset="0.1913" stop-color="#CBF0FF" stop-opacity="0.1435"/>
<stop offset="0.458" stop-color="#B8EBFF" stop-opacity="0.3435"/>
<stop offset="0.7676" stop-color="#9BE2FE" stop-opacity="0.5757"/>
<stop offset="1" stop-color="#80DAFE" stop-opacity="0.75"/>
</radialGradient>
<linearGradient id="paint19_linear_91_416" x1="77.0245" y1="12.4092" x2="75.3044" y2="16.6539" gradientUnits="userSpaceOnUse">
<stop stop-color="#17BBFE" stop-opacity="0"/>
<stop offset="1" stop-color="#17BBFE" stop-opacity="0.75"/>
</linearGradient>
<radialGradient id="paint20_radial_91_416" cx="0" cy="0" r="1" gradientUnits="userSpaceOnUse" gradientTransform="translate(77.925 11.939) rotate(-1.44248) scale(1.50275 0.629251)">
<stop stop-color="white"/>
<stop offset="1" stop-color="white" stop-opacity="0"/>
</radialGradient>
<clipPath id="clip0_91_416">
<rect width="13" height="13" fill="white" transform="translate(3.77112 5.31113) rotate(6.44831)"/>
</clipPath>
</defs>
</svg>
