<svg width="83" height="40" viewBox="0 0 83 40" fill="none" xmlns="http://www.w3.org/2000/svg">
<path d="M27.944 19.2741L26.4652 20.7529L27.8356 23.1798C28.4409 24.2517 29.9014 24.4511 30.7718 23.5807C31.6422 22.7103 31.4428 21.2497 30.3709 20.6445L27.944 19.2741Z" fill="#EA8518"/>
<path d="M24.5528 14.9835L23.9975 13.783C23.9975 13.783 27.895 11.6945 31.4523 14.3393" fill="#EA8518"/>
<path d="M31.7342 14.4874H34.0549C34.718 14.4874 35.2556 15.0249 35.2556 15.6881V16.5189" fill="#EA8518"/>
<path d="M31.7342 21.3278H34.0549C34.718 21.3278 35.2556 20.7902 35.2556 20.1271V19.2963" fill="#EA8518"/>
<path d="M21 17.9077C22.0372 19.56 23.4728 20.7306 25.0745 21.4187C25.156 21.454 25.2383 21.4876 25.3207 21.5203C25.4022 21.5525 25.4845 21.5834 25.5669 21.6129C25.8176 21.7038 26.0714 21.7835 26.3279 21.8515C26.4322 21.8793 26.537 21.9052 26.6417 21.929C26.7012 21.9424 26.7608 21.9554 26.8203 21.9675C27.0491 22.0149 27.2792 22.0534 27.5101 22.083C27.8499 22.1268 28.1924 22.1515 28.5348 22.1573C28.6006 22.1586 28.6664 22.1591 28.7322 22.1586C28.8307 22.1582 28.9287 22.1564 29.0272 22.1528C29.9328 22.1192 30.8344 21.9523 31.6979 21.6523C31.7744 21.6259 31.8505 21.5982 31.9266 21.5695C32.0148 21.5359 32.103 21.5015 32.1903 21.4648C32.7633 21.2275 33.3161 20.9285 33.8381 20.5681C33.9303 20.505 34.0216 20.4396 34.1116 20.3725C34.1855 20.3174 34.2584 20.261 34.3305 20.2037C34.6376 19.9589 34.9321 19.6912 35.211 19.4007C35.2862 19.3223 35.3601 19.2426 35.4326 19.1612C35.5248 19.0582 35.6153 18.9526 35.7034 18.8438C35.942 18.5515 36.1663 18.2395 36.374 17.9077C36.1663 17.5765 35.942 17.2645 35.7034 16.9717C35.6153 16.8629 35.5248 16.7568 35.4326 16.6534C35.3601 16.572 35.2862 16.4923 35.211 16.4144C34.9321 16.1239 34.638 15.8562 34.3305 15.6118C34.2584 15.554 34.1855 15.4981 34.1116 15.443C34.0216 15.3754 33.9303 15.31 33.8381 15.2465C33.3166 14.8866 32.7633 14.588 32.1903 14.3512C32.103 14.3149 32.0148 14.28 31.9266 14.2469C31.851 14.2182 31.7744 14.1905 31.6979 14.1636C30.8348 13.8628 29.9328 13.6958 29.0272 13.6627C28.9287 13.6591 28.8307 13.6569 28.7322 13.6564H28.6866C28.636 13.6564 28.5854 13.6569 28.5348 13.6578C28.1919 13.6631 27.8504 13.6882 27.5101 13.7321C27.2792 13.7621 27.0491 13.8006 26.8203 13.8476C26.7608 13.8597 26.7012 13.8726 26.6417 13.8861C26.537 13.9098 26.4322 13.9358 26.3279 13.9635C26.0714 14.0316 25.8176 14.1108 25.5669 14.2017C25.4845 14.2312 25.4022 14.2621 25.3207 14.2943C25.2383 14.327 25.156 14.361 25.0745 14.3964C23.7329 14.973 22.5081 15.888 21.5367 17.1405L21.9933 17.5971C22.1451 17.7488 22.1451 17.9941 21.9933 18.1459L21.9114 18.2278L21.2355 17.5519C21.1544 17.6678 21.0761 17.7864 21 17.9077Z" fill="#F9993A"/>
<path d="M39.7126 15.2295C39.8082 15.2172 39.9041 15.208 40 15.2004V20.6145C39.904 20.6069 39.8082 20.5978 39.7126 20.5855C38.0819 20.3763 36.5266 19.4839 35.5377 17.9075C36.5266 16.331 38.0819 15.4387 39.7126 15.2295Z" fill="#F9993A"/>
<path d="M23.7062 19.0201C23.0918 19.0201 22.5937 18.522 22.5937 17.9076C22.5937 17.2933 23.0918 16.7952 23.7062 16.7952C24.3205 16.7952 24.8186 17.2933 24.8186 17.9076C24.8186 18.522 24.3205 19.0201 23.7062 19.0201Z" fill="white"/>
<path d="M23.7062 18.5883C23.3303 18.5883 23.0256 18.2835 23.0256 17.9077C23.0256 17.5318 23.3303 17.2271 23.7062 17.2271C24.0821 17.2271 24.3868 17.5318 24.3868 17.9077C24.3868 18.2835 24.0821 18.5883 23.7062 18.5883Z" fill="#4D4D4D"/>
<path d="M25.3208 14.2944V21.5202C25.7517 21.6905 26.1935 21.8269 26.642 21.929V13.8863C26.1935 13.9883 25.7516 14.1241 25.3208 14.2944Z" fill="#E6E6E6"/>
<path d="M34.1115 15.443V20.3723C34.5827 20.0207 35.026 19.617 35.4326 19.1612V16.6533C35.0253 16.1975 34.5827 15.7939 34.1115 15.443Z" fill="#E6E6E6"/>
<path d="M28.7323 13.6566V22.1587C29.8171 22.1536 30.9012 21.9569 31.9265 21.5694V14.2466C30.9019 13.8584 29.8171 13.6617 28.7323 13.6566Z" fill="#E6E6E6"/>
<path d="M25.0745 14.3964V21.4186C25.156 21.454 25.2383 21.4876 25.3207 21.5203C25.4022 21.5525 25.4845 21.5834 25.5669 21.6129V14.2017C25.4845 14.2312 25.4022 14.2621 25.3207 14.2943C25.2383 14.327 25.156 14.361 25.0745 14.3964Z" fill="#666464"/>
<path d="M26.328 13.9635V21.8515C26.4323 21.8793 26.5371 21.9052 26.6418 21.929C26.7014 21.9424 26.7609 21.9554 26.8204 21.9675V13.8476C26.7609 13.8597 26.7014 13.8726 26.6418 13.8861C26.5371 13.9098 26.4323 13.9358 26.328 13.9635Z" fill="#666464"/>
<path d="M28.5348 13.6578V22.1573C28.6006 22.1586 28.6664 22.1591 28.7322 22.1586C28.8307 22.1582 28.9287 22.1564 29.0272 22.1528V13.6627C28.9287 13.6591 28.8307 13.6569 28.7322 13.6564H28.6866C28.636 13.6564 28.5854 13.6569 28.5348 13.6578Z" fill="#666464"/>
<path d="M31.6979 14.1636V21.6523C31.7744 21.6259 31.8505 21.5981 31.9266 21.5695C32.0148 21.5359 32.103 21.5015 32.1903 21.4647V14.3512C32.103 14.3149 32.0148 14.28 31.9266 14.2469C31.851 14.2182 31.7744 14.1905 31.6979 14.1636Z" fill="#666464"/>
<path d="M33.8382 15.2465V20.5681C33.9304 20.505 34.0217 20.4397 34.1117 20.3725C34.1855 20.3175 34.2585 20.261 34.3306 20.2037V15.6118C34.2585 15.554 34.1855 15.4981 34.1117 15.443C34.0217 15.3754 33.9304 15.3101 33.8382 15.2465Z" fill="#666464"/>
<path d="M35.2111 16.4144V19.4007C35.2863 19.3223 35.3601 19.2426 35.4327 19.1612C35.5249 19.0582 35.6153 18.9526 35.7035 18.8438V16.9717C35.6153 16.8629 35.5249 16.7568 35.4327 16.6534C35.3601 16.572 35.2863 16.4923 35.2111 16.4144Z" fill="#666464"/>
<path d="M27.1816 18.1126V19.9374L29.5247 20.5893C30.5595 20.8773 31.5837 20.0991 31.5837 19.025C31.5837 17.9509 30.5595 17.1727 29.5247 17.4606L27.1816 18.1126Z" fill="#F9993A"/>
<path d="M37.3048 30.9693V35.2753L35.7434 35.6284C35.5944 35.6622 35.4471 35.6765 35.3041 35.6735C34.1647 35.6514 33.2804 34.5358 33.6274 33.3678L33.8402 32.6512C33.8822 32.5091 33.9021 32.367 33.9021 32.2275C33.9021 31.439 33.2631 30.751 32.4222 30.751C32.1886 30.751 31.9998 30.5621 31.9998 30.3286C31.9998 30.0955 32.1886 29.9062 32.4222 29.9062L35.022 30.4724L37.3048 30.9693Z" fill="#F74B4B"/>
<path d="M49.5775 38.5273H38.107C36.8515 38.5273 35.8337 37.5095 35.8337 36.254V30.8268C35.8337 29.7322 34.9464 28.8448 33.8517 28.8448C33.6184 28.8448 33.4293 28.6557 33.4293 28.4224C33.4293 28.1892 33.6184 28 33.8517 28H43.2932C45.6694 28 47.5956 29.9263 47.5956 32.3025V35.7005C47.5956 36.7951 48.483 37.6825 49.5776 37.6825C49.8109 37.6825 50 37.8716 50 38.1049C50 38.3382 49.8108 38.5273 49.5775 38.5273Z" fill="#F9D43A"/>
<path d="M46.2699 37.9479C46.718 37.9479 47.0812 37.5847 47.0812 37.1366C47.0812 36.6885 46.718 36.3253 46.2699 36.3253C45.8218 36.3253 45.4586 36.6885 45.4586 37.1366C45.4586 37.5847 45.8218 37.9479 46.2699 37.9479Z" fill="white"/>
<path d="M46.2699 37.633C46.5441 37.633 46.7663 37.4107 46.7663 37.1366C46.7663 36.8625 46.5441 36.6402 46.2699 36.6402C45.9958 36.6402 45.7736 36.8625 45.7736 37.1366C45.7736 37.4107 45.9958 37.633 46.2699 37.633Z" fill="#4D4D4D"/>
<path d="M40.9769 39.9398H38.8578V39.2977C38.8578 38.5572 39.458 37.957 40.1984 37.957H42.497V38.4198C42.497 39.2593 41.8164 39.9398 40.9769 39.9398Z" fill="#F74B4B"/>
<path d="M44.4533 36.9541C43.5202 36.9541 42.7637 36.1976 42.7637 35.2645V29.2858C43.6968 29.2858 44.4533 30.0422 44.4533 30.9754V36.9541Z" fill="#D3B742"/>
<path d="M40.37 36.9541C41.3032 36.9541 42.0596 36.1976 42.0596 35.2645V29.2858C41.1265 29.2858 40.37 30.0422 40.37 30.9754V36.9541Z" fill="#D3B742"/>
<path d="M39.666 36.9541C38.7328 36.9541 37.9763 36.1976 37.9763 35.2645V29.2858C38.9095 29.2858 39.666 30.0422 39.666 30.9754V36.9541Z" fill="#D3B742"/>
<path d="M50.72 23.0441C49.72 22.3774 50.0533 21.0441 50.0533 21.0441C52.0533 21.0441 52.72 23.0441 52.72 23.0441C52.72 23.0441 52.0533 25.0441 50.0533 25.0441C50.0533 25.0441 49.72 23.7107 50.72 23.0441Z" fill="#91DC5A"/>
<path d="M59.3333 20.3774C59.3333 20.3774 58.6666 18.7107 55.6666 19.0441V21.0441L59.3333 20.3774Z" fill="#64C37D"/>
<path d="M59.3333 25.7107C59.3333 25.7107 58.6666 27.3774 55.6666 27.0441V25.0441L59.3333 25.7107Z" fill="#64C37D"/>
<path d="M52 23.0441C52 23.0441 54 26.0441 57.3333 26.0441C61.6667 26.0441 63 23.0441 63 23.0441C63 23.0441 61.6667 20.0441 57.3333 20.0441C54 20.0441 52 23.0441 52 23.0441Z" fill="#C2FB3B"/>
<path d="M56.6667 20.0849C56.8826 20.0586 57.1047 20.0441 57.3333 20.0441C61.6667 20.0441 63 23.0441 63 23.0441C63 23.0441 61.6667 26.0441 57.3333 26.0441C57.1047 26.0441 56.8826 26.0295 56.6667 26.0032V20.0849Z" fill="#91DC5A"/>
<path d="M60 24.0441C59.4477 24.0441 59 23.5964 59 23.0441C59 22.4918 59.4477 22.0441 60 22.0441C60.5523 22.0441 61 22.4918 61 23.0441C61 23.5964 60.5523 24.0441 60 24.0441Z" fill="#FFF6D2"/>
<path d="M60 23.5441C59.7239 23.5441 59.5 23.3202 59.5 23.0441C59.5 22.7679 59.7239 22.5441 60 22.5441C60.2761 22.5441 60.5 22.7679 60.5 23.0441C60.5 23.3202 60.2761 23.5441 60 23.5441Z" fill="black"/>
<path d="M55 23.0441C55 23.9645 55.7462 24.7107 56.6666 24.7107V23.0441C56.6666 23.0441 55.7936 23.0441 55 23.0441Z" fill="#64C37D"/>
<path d="M65.7214 29.6773C66.1021 29.0947 66.6741 28.6624 67.3397 28.4589C68.2643 28.1762 69.2527 28 70.2819 28C72.8789 28 75.2049 29.0992 76.9253 30.2458C77.1162 30.373 77.1371 30.6457 76.9699 30.8027L74.1641 33.4387L77.9868 35.2042C78.2285 35.3158 78.2686 35.6439 78.0595 35.8086C76.3114 37.1843 73.5052 38.8774 70.2819 38.8774C69.5818 38.8774 68.9005 38.7957 68.2451 38.6544C67.565 38.5077 66.9566 38.1298 66.5262 37.5829L63.2639 33.4386L65.7214 29.6773Z" fill="#0064BF"/>
<path d="M62.0862 32.2726C63.702 30.8813 66.7571 28.7408 70.2597 28.7408C75.4489 28.7408 79.6555 33.4387 79.6555 33.4387C79.6555 33.4387 75.4489 38.1367 70.2597 38.1367C66.7571 38.1367 63.702 35.9962 62.0862 34.6048C61.3722 33.9899 61.3722 32.8874 62.0862 32.2726Z" fill="#0055B8"/>
<path d="M70.2597 28.7408C75.4489 28.7408 79.6555 33.4387 79.6555 33.4387C79.6555 33.4387 78.8903 34.293 77.6106 35.2728H69.1411C68.156 35.2728 67.3574 34.4743 67.3574 33.4892V29.2085C68.2715 28.9204 69.2466 28.7408 70.2597 28.7408ZM69.9143 33.855C70.4246 33.855 70.8384 33.4412 70.8384 32.9309C70.8384 32.4205 70.4246 32.0068 69.9143 32.0068C69.4039 32.0068 68.9901 32.4205 68.9901 32.9309C68.9901 33.4412 69.4039 33.855 69.9143 33.855Z" fill="#444D56"/>
<path d="M64.7974 34.1805C64.0947 34.1805 63.5251 33.6109 63.5251 32.9082C63.5251 32.2055 64.0947 31.6359 64.7974 31.6359C65.5001 31.6359 66.0697 32.2055 66.0697 32.9082C66.0697 33.6109 65.5001 34.1805 64.7974 34.1805Z" fill="white"/>
<path d="M64.7972 33.5443C64.4459 33.5443 64.1611 33.2595 64.1611 32.9082C64.1611 32.5569 64.4459 32.2721 64.7972 32.2721C65.1486 32.2721 65.4333 32.5569 65.4333 32.9082C65.4333 33.2595 65.1486 33.5443 64.7972 33.5443Z" fill="#814C3A"/>
<path d="M78.4092 32.1183L82.425 30.0724C82.6882 29.9382 83 30.1294 83 30.4247V35.6691C83 35.9643 82.6882 36.1556 82.425 36.0214L78.4092 33.9755C77.6504 33.589 77.6504 32.5048 78.4092 32.1183Z" fill="#444D56"/>
<path d="M79.2909 32.6695L83 30.7798V35.314L79.2909 33.4242C78.9825 33.2672 78.9825 32.8266 79.2909 32.6695Z" fill="#FFD224"/>
<path d="M69.6776 33.8471L71.6416 31.8831C73.0791 33.3205 73.0791 35.6511 71.6416 37.0886L69.6776 35.1245C69.3249 34.7718 69.3249 34.1998 69.6776 33.8471Z" fill="#FFD224"/>
<path d="M69.6777 33.8471L71.2637 32.261C72.4925 33.4898 72.4925 35.482 71.2637 36.7107L69.6777 35.1247C69.325 34.7718 69.325 34.1999 69.6777 33.8471Z" fill="#0063BE"/>
<path d="M46.6425 3.16198L46.2442 4.93909C45.9854 6.09404 44.9083 6.87656 43.7299 6.76582L41.9167 6.59542C41.6964 6.57471 41.6013 6.86742 41.7917 6.98019L43.3588 7.9081C44.3772 8.51117 44.7886 9.77728 44.3191 10.8638L43.5968 12.5356C43.509 12.7388 43.758 12.9197 43.9241 12.7734L45.2908 11.5698C46.1791 10.7875 47.5104 10.7875 48.3986 11.5698L49.7654 12.7734C49.9315 12.9197 50.1805 12.7388 50.0927 12.5356L49.3703 10.8638C48.9009 9.7773 49.3122 8.51117 50.3307 7.9081L51.8978 6.98017C52.0882 6.86739 51.9931 6.57469 51.7727 6.5954L49.9595 6.7658C48.7811 6.87653 47.7041 6.09404 47.4453 4.93907L47.047 3.16195C46.9986 2.94601 46.6908 2.94601 46.6425 3.16198Z" fill="#F74B4B"/>
<path d="M46.8447 8.54629C46.9456 8.54629 47.0392 8.48172 47.0746 8.38719C47.1109 8.29036 47.0814 8.17776 47.0016 8.11176C46.9254 8.0488 46.8161 8.03779 46.729 8.0842C46.6375 8.13286 46.5851 8.23831 46.6025 8.34064C46.6223 8.45759 46.7257 8.54629 46.8447 8.54629Z" fill="#C11C06"/>
<path d="M47.0903 7.46373C47.0903 7.32814 46.9805 7.21809 46.8447 7.21809C46.7091 7.21809 46.5991 7.32814 46.5991 7.46373C46.5991 7.59957 46.7091 7.70937 46.8447 7.70937C46.9805 7.70937 47.0903 7.59957 47.0903 7.46373ZM47.0903 6.62711C47.0903 6.49151 46.9805 6.38147 46.8447 6.38147C46.7091 6.38147 46.5991 6.49151 46.5991 6.62711C46.5991 6.7627 46.7091 6.87275 46.8447 6.87275C46.9805 6.87275 47.0903 6.7627 47.0903 6.62711ZM47.0903 5.79021C47.0903 5.65462 46.9805 5.54457 46.8447 5.54457C46.7091 5.54457 46.5991 5.65462 46.5991 5.79021C46.5991 5.92605 46.7091 6.03585 46.8447 6.03585C46.9805 6.03585 47.0903 5.92605 47.0903 5.79021ZM47.0903 4.95356C47.0903 4.81772 46.9805 4.70792 46.8447 4.70792C46.7091 4.70792 46.5991 4.81772 46.5991 4.95356C46.5991 5.08915 46.7091 5.1992 46.8447 5.1992C46.9805 5.1992 47.0903 5.08915 47.0903 4.95356Z" fill="#C11C06"/>
<path d="M46.8446 4.36229C46.9455 4.36229 47.0386 4.29788 47.0743 4.20351C47.1109 4.10663 47.0815 3.99388 47.0015 3.92778C46.9253 3.86482 46.816 3.85379 46.7289 3.90022C46.6365 3.94937 46.5844 4.05598 46.6027 4.15902C46.6233 4.27504 46.7266 4.36229 46.8446 4.36229Z" fill="#C11C06"/>
<path d="M46.8447 8.54632C46.9456 8.54632 47.0392 8.48175 47.0746 8.38722C47.1109 8.29039 47.0814 8.17779 47.0016 8.11179C46.9254 8.04883 46.8161 8.03782 46.729 8.08423C46.6375 8.13289 46.5851 8.23834 46.6025 8.34067C46.6223 8.45762 46.7257 8.54632 46.8447 8.54632Z" fill="#C11C06"/>
<path d="M47.717 8.3002C47.847 8.26188 47.9214 8.12531 47.8833 7.99512C47.845 7.86493 47.7084 7.7905 47.5782 7.82882C47.448 7.86714 47.3736 8.00371 47.4119 8.1339C47.4434 8.24076 47.5414 8.31027 47.6475 8.31027C47.6703 8.31027 47.6937 8.30683 47.717 8.3002C47.6937 8.30683 47.847 8.26186 47.717 8.3002ZM48.5198 8.0639C48.65 8.02558 48.7244 7.889 48.6861 7.75881C48.6477 7.62887 48.5112 7.55419 48.381 7.59251C48.2508 7.63083 48.1764 7.76741 48.2147 7.8976C48.2461 8.0047 48.3441 8.07397 48.4502 8.07397C48.4731 8.07397 48.4967 8.07077 48.5198 8.0639C48.4967 8.07077 48.65 8.02558 48.5198 8.0639ZM49.3225 7.82759C49.4525 7.78927 49.5271 7.65294 49.4888 7.52275C49.4505 7.39256 49.3139 7.31813 49.1837 7.35645C49.0535 7.39477 48.9791 7.53135 49.0174 7.66129C49.0489 7.76839 49.1469 7.83766 49.253 7.83766C49.2758 7.83766 49.2992 7.83447 49.3225 7.82759C49.2992 7.83447 49.4525 7.78924 49.3225 7.82759ZM50.1253 7.59153C50.2555 7.55321 50.3299 7.41663 50.2916 7.28644C50.2532 7.15625 50.1167 7.08182 49.9865 7.12014C49.8563 7.15846 49.7819 7.29504 49.8202 7.42523C49.8516 7.53208 49.9496 7.6016 50.0558 7.6016C50.0786 7.6016 50.1019 7.59816 50.1253 7.59153C50.1019 7.59816 50.2555 7.55321 50.1253 7.59153Z" fill="#C11C06"/>
<path d="M50.8584 7.36526C50.9611 7.36526 51.0551 7.29874 51.0897 7.20225C51.1237 7.10731 51.0946 6.99736 51.0174 6.93227C50.9365 6.8642 50.8188 6.85521 50.7288 6.91092C50.643 6.96405 50.5978 7.06865 50.6177 7.16752C50.6405 7.28083 50.7425 7.36526 50.8584 7.36526Z" fill="#C11C06"/>
<path d="M46.8447 8.54632C46.9456 8.54632 47.0392 8.48175 47.0746 8.38722C47.1109 8.29039 47.0814 8.17779 47.0016 8.11179C46.9254 8.04883 46.8161 8.03782 46.729 8.08423C46.6375 8.13289 46.5851 8.23834 46.6025 8.34067C46.6223 8.45762 46.7257 8.54632 46.8447 8.54632Z" fill="#C11C06"/>
<path d="M48.9118 11.2393C49.0228 11.1612 49.0496 11.0081 48.9715 10.8971C48.8934 10.7861 48.7401 10.7595 48.6291 10.8374C48.5183 10.9155 48.4915 11.0688 48.5696 11.1798C48.6175 11.2476 48.6934 11.284 48.7708 11.284C48.8194 11.284 48.8688 11.2695 48.9118 11.2393C48.8688 11.2695 49.0228 11.1611 48.9118 11.2393ZM48.4303 10.5549C48.5414 10.4768 48.5681 10.3235 48.49 10.2127C48.4119 10.1017 48.2586 10.0749 48.1478 10.153C48.0368 10.2312 48.01 10.3844 48.0882 10.4952C48.1361 10.5633 48.212 10.5996 48.2893 10.5996C48.3382 10.5996 48.3873 10.5851 48.4303 10.5549C48.3873 10.5851 48.5414 10.4768 48.4303 10.5549ZM47.9489 9.87054C48.0599 9.79242 48.0867 9.63914 48.0086 9.52811C47.9305 9.41733 47.7774 9.39055 47.6664 9.46867C47.5554 9.54654 47.5286 9.69982 47.6067 9.81085C47.6546 9.87889 47.7305 9.91524 47.8079 9.91524C47.8568 9.91524 47.9061 9.90077 47.9489 9.87054C47.9061 9.90077 48.0599 9.79242 47.9489 9.87054ZM47.4674 9.18596C47.5784 9.10785 47.6052 8.95481 47.5271 8.84378C47.449 8.73275 47.296 8.70622 47.1849 8.78409C47.0739 8.86221 47.0471 9.01549 47.1252 9.12652C47.1731 9.19431 47.249 9.23067 47.3264 9.23067C47.3753 9.23067 47.4244 9.21617 47.4674 9.18596C47.4244 9.21617 47.5784 9.10785 47.4674 9.18596Z" fill="#C11C06"/>
<path d="M49.252 11.9686C49.3561 11.9686 49.4508 11.9002 49.4844 11.8018C49.5179 11.7033 49.484 11.5914 49.4015 11.528C49.3223 11.4672 49.2114 11.4614 49.1257 11.5124C49.0378 11.5647 48.9908 11.6704 49.011 11.7709C49.0338 11.8842 49.1362 11.9686 49.252 11.9686Z" fill="#C11C06"/>
<path d="M46.8447 8.54632C46.9456 8.54632 47.0392 8.48175 47.0746 8.38722C47.1109 8.29039 47.0814 8.17779 47.0016 8.11179C46.9254 8.04883 46.8161 8.03782 46.729 8.08423C46.6375 8.13289 46.5851 8.23834 46.6025 8.34067C46.6223 8.45762 46.7257 8.54632 46.8447 8.54632Z" fill="#C11C06"/>
<path d="M46.2777 8.13388C46.3161 8.00369 46.2416 7.86711 46.1114 7.82879C45.9812 7.79047 45.8446 7.8649 45.8063 7.99509C45.768 8.12528 45.8424 8.26186 45.9726 8.30018C45.9957 8.30681 46.0191 8.31025 46.0421 8.31025C46.1483 8.31027 46.2463 8.24076 46.2777 8.13388C46.2463 8.24076 46.316 8.00369 46.2777 8.13388ZM45.475 7.8976C45.5133 7.76741 45.4388 7.63083 45.3086 7.59251C45.1784 7.55444 45.0419 7.62887 45.0035 7.75881C44.9652 7.889 45.0397 8.02558 45.1699 8.0639C45.1929 8.07077 45.2163 8.07397 45.2394 8.07397C45.3455 8.07397 45.4435 8.00467 45.475 7.8976C45.4435 8.00467 45.5133 7.76741 45.475 7.8976ZM44.6722 7.66127C44.7105 7.53108 44.6361 7.39475 44.5059 7.35643C44.3757 7.31811 44.2392 7.39253 44.2008 7.52272C44.1625 7.65267 44.2369 7.78924 44.3671 7.82756C44.3902 7.83444 44.4136 7.83764 44.4366 7.83764C44.5428 7.83766 44.6408 7.76839 44.6722 7.66127C44.6408 7.76839 44.7105 7.53108 44.6722 7.66127ZM43.8695 7.42523C43.9078 7.29504 43.8333 7.15846 43.7032 7.12014C43.573 7.08182 43.4364 7.15625 43.3981 7.28644C43.3597 7.41663 43.4342 7.55321 43.5644 7.59153C43.5875 7.59816 43.6108 7.6016 43.6339 7.6016C43.74 7.6016 43.838 7.53206 43.8695 7.42523C43.838 7.53206 43.9078 7.29504 43.8695 7.42523Z" fill="#C11C06"/>
<path d="M42.8309 7.36525C42.9336 7.36525 43.0276 7.29866 43.0622 7.20225C43.0964 7.10691 43.0669 6.9979 42.9898 6.93236C42.9094 6.86402 42.791 6.85518 42.7013 6.91092C42.6156 6.9642 42.5702 7.06854 42.5902 7.16751C42.613 7.28085 42.715 7.36525 42.8309 7.36525Z" fill="#C11C06"/>
<path d="M46.8447 8.54632C46.9456 8.54632 47.0392 8.48175 47.0746 8.38722C47.1109 8.29039 47.0814 8.17779 47.0016 8.11179C46.9254 8.04883 46.8161 8.03782 46.729 8.08423C46.6375 8.13289 46.5851 8.23834 46.6025 8.34067C46.6223 8.45762 46.7257 8.54632 46.8447 8.54632Z" fill="#C11C06"/>
<path d="M45.12 11.1798C45.1982 11.0688 45.1714 10.9155 45.0603 10.8374C44.9493 10.7595 44.7963 10.786 44.7182 10.8971C44.64 11.0081 44.6668 11.1611 44.7776 11.2392C44.8206 11.2695 44.87 11.284 44.9189 11.284C44.996 11.284 45.0721 11.2476 45.12 11.1798C45.0721 11.2476 45.1982 11.0688 45.12 11.1798ZM45.6015 10.4952C45.6794 10.3844 45.6529 10.2312 45.5418 10.153C45.4308 10.0749 45.2777 10.1017 45.1996 10.2127C45.1215 10.3235 45.1483 10.4768 45.2591 10.5549C45.3021 10.5851 45.3514 10.5996 45.4003 10.5996C45.4774 10.5996 45.5536 10.5633 45.6015 10.4952C45.5536 10.5633 45.6794 10.3844 45.6015 10.4952ZM46.083 9.81085C46.1608 9.69982 46.1343 9.54654 46.0233 9.46867C45.9122 9.39055 45.7589 9.41733 45.6811 9.52811C45.6029 9.63914 45.6297 9.79242 45.7405 9.87054C45.7835 9.90075 45.8329 9.91524 45.8817 9.91524C45.9589 9.91524 46.0351 9.87891 46.083 9.81085C46.0351 9.87891 46.1608 9.69982 46.083 9.81085ZM46.5642 9.12652C46.6423 9.01549 46.6158 8.86221 46.5047 8.78409C46.3937 8.70622 46.2404 8.73275 46.1625 8.84378C46.0844 8.95481 46.1109 9.10809 46.222 9.18596C46.265 9.21617 46.3143 9.23067 46.3632 9.23067C46.4404 9.23067 46.5165 9.19431 46.5642 9.12652C46.5165 9.19431 46.6423 9.01549 46.5642 9.12652Z" fill="#C11C06"/>
<path d="M44.4375 11.9686C44.5419 11.9686 44.6362 11.9001 44.67 11.8018C44.7037 11.7037 44.6694 11.591 44.5871 11.528C44.5077 11.4673 44.3971 11.4614 44.3113 11.5123C44.2231 11.5646 44.1769 11.6705 44.1968 11.7709C44.2194 11.8843 44.3218 11.9686 44.4375 11.9686Z" fill="#C11C06"/>
<path fill-rule="evenodd" clip-rule="evenodd" d="M9.52982 24.4464C9.52982 24.4464 7.171 26.1495 8.98573 27.5403C10.8005 28.9312 9.52982 24.4464 9.52982 24.4464Z" fill="#FFDD95"/>
<path fill-rule="evenodd" clip-rule="evenodd" d="M15.6323 26.4245L13.7058 23.7095L13.4214 24.1052L10.351 22L10.3768 23.2109L15.6323 26.4245Z" fill="#FFDD95"/>
<path fill-rule="evenodd" clip-rule="evenodd" d="M6.43142 26.462C6.43142 26.462 8.84375 26.7389 9.62915 28.5423C9.62915 28.5423 9.51129 30.5685 7.29228 30.5867C8.03029 27.556 6.43142 26.462 6.43142 26.462Z" fill="#FFDD95"/>
<path fill-rule="evenodd" clip-rule="evenodd" d="M17 27.1642C17 27.1642 13.6114 25.4126 12.6972 24.2059C11.7831 22.9993 7.74279 22.4948 7.74279 22.4948C7.74279 22.4948 9.86276 24.2517 9.38387 26.9091C8.90499 29.5665 10.6791 31.6267 10.6791 31.6267C10.6791 31.6267 13.0284 30.8128 14.0433 30.0963C15.0583 29.3797 17 27.1642 17 27.1642Z" fill="#FFAF40"/>
<path d="M14.8891 27.7317C14.5886 27.7317 14.345 27.488 14.345 27.1875C14.345 26.887 14.5886 26.6434 14.8891 26.6434C15.1896 26.6434 15.4332 26.887 15.4332 27.1875C15.4332 27.488 15.1896 27.7317 14.8891 27.7317Z" fill="#595959"/>
<path fill-rule="evenodd" clip-rule="evenodd" d="M14.889 28.8199C14.889 28.8199 14.5037 29.7286 14.1621 30.6763C13.8204 31.6239 12.3716 32.448 12.0365 32.193C11.7015 31.938 12.4067 31.1146 12.5743 30.2793C12.742 29.4439 14.889 28.8199 14.889 28.8199Z" fill="#FFDD95"/>
<path d="M6.00253 9.14748C4.03535 9.14748 2.4406 7.55274 2.4406 5.58556C2.4406 3.61837 4.03535 2.02365 6.00253 2.02365C7.96971 2.02365 9.56445 3.61837 9.56445 5.58556C9.56445 7.55274 7.96971 9.14748 6.00253 9.14748Z" fill="url(#paint0_linear_91_417)"/>
<path d="M6.00253 9.14748C4.03535 9.14748 2.4406 7.55274 2.4406 5.58556C2.4406 3.61837 4.03535 2.02365 6.00253 2.02365C7.96971 2.02365 9.56445 3.61837 9.56445 5.58556C9.56445 7.55274 7.96971 9.14748 6.00253 9.14748Z" fill="url(#paint1_radial_91_417)"/>
<path d="M6.00253 9.14748C4.03535 9.14748 2.4406 7.55274 2.4406 5.58556C2.4406 3.61837 4.03535 2.02365 6.00253 2.02365C7.96971 2.02365 9.56445 3.61837 9.56445 5.58556C9.56445 7.55274 7.96971 9.14748 6.00253 9.14748Z" fill="url(#paint2_radial_91_417)"/>
<path d="M5.23347 2.77638C4.83276 3.38757 5.31847 4.41567 6.31821 5.06734C7.31795 5.719 8.45129 5.75948 8.85206 5.14829C9.25277 4.5371 8.76706 3.509 7.76725 2.85733C6.76751 2.20567 5.63417 2.16519 5.23347 2.77638Z" fill="url(#paint3_radial_91_417)"/>
<path d="M6.00253 9.14748C4.03535 9.14748 2.4406 7.55274 2.4406 5.58556C2.4406 3.61837 4.03535 2.02365 6.00253 2.02365C7.96971 2.02365 9.56445 3.61837 9.56445 5.58556C9.56445 7.55274 7.96971 9.14748 6.00253 9.14748Z" fill="url(#paint4_radial_91_417)"/>
<path d="M7.14381 7.46386C8.02214 6.99836 9.31336 5.54931 8.96932 3.6105C9.34573 4.17717 9.56836 4.85312 9.56836 5.58574C9.56836 7.5529 7.97362 9.14764 6.00643 9.14764C5.12406 9.14764 4.31458 8.82386 3.69125 8.2936C4.86906 7.4679 5.52477 8.32597 7.14381 7.46386Z" fill="url(#paint5_linear_91_417)"/>
<path d="M5.88928 2.0278C5.83665 2.03185 5.78813 2.03995 5.7355 2.05209C5.6505 2.07637 5.5655 2.1128 5.48454 2.15733C5.32665 2.25042 5.19313 2.3759 5.07165 2.51352C4.83691 2.7928 4.67095 3.12066 4.5455 3.46066C4.48069 3.63066 4.42813 3.80471 4.38358 3.97876C4.33902 4.1528 4.30262 4.3309 4.27428 4.50899C4.24595 4.68709 4.22569 4.86519 4.20954 5.04733C4.19736 5.22542 4.18928 5.40756 4.18928 5.58971C4.18928 5.77185 4.19736 5.94994 4.20954 6.13209C4.22569 6.31018 4.24191 6.49233 4.27428 6.67042C4.30262 6.84851 4.33902 7.02661 4.38358 7.20063C4.42813 7.37473 4.48069 7.54877 4.5455 7.71877C4.67095 8.05473 4.84095 8.38255 5.07165 8.66588C5.18902 8.80351 5.32665 8.92896 5.48454 9.0221C5.56147 9.06659 5.64647 9.10307 5.7355 9.12729C5.78402 9.13948 5.83665 9.14755 5.88524 9.15159C4.59813 9.06255 3.57402 7.50422 3.57402 5.59376C3.57402 3.67519 4.60217 2.11685 5.88928 2.0278Z" fill="url(#paint6_radial_91_417)"/>
<path d="M12.0618 11.8634C10.6758 11.8634 9.55226 10.7398 9.55226 9.35388C9.55226 7.96789 10.6758 6.84433 12.0618 6.84433C13.4477 6.84433 14.5713 7.96789 14.5713 9.35388C14.5713 10.7398 13.4477 11.8634 12.0618 11.8634Z" fill="url(#paint7_linear_91_417)"/>
<path d="M12.0618 11.8634C10.6758 11.8634 9.55226 10.7398 9.55226 9.35388C9.55226 7.96789 10.6758 6.84433 12.0618 6.84433C13.4477 6.84433 14.5713 7.96789 14.5713 9.35388C14.5713 10.7398 13.4477 11.8634 12.0618 11.8634Z" fill="url(#paint8_radial_91_417)"/>
<path d="M12.0618 11.8634C10.6758 11.8634 9.55226 10.7398 9.55226 9.35388C9.55226 7.96789 10.6758 6.84433 12.0618 6.84433C13.4477 6.84433 14.5713 7.96789 14.5713 9.35388C14.5713 10.7398 13.4477 11.8634 12.0618 11.8634Z" fill="url(#paint9_radial_91_417)"/>
<path d="M11.5194 7.37856C11.2361 7.8076 11.5801 8.53216 12.2844 8.99356C12.9887 9.45497 13.7901 9.47927 14.0694 9.05023C14.3527 8.62119 14.0087 7.89664 13.3044 7.43523C12.6001 6.97379 11.8027 6.9495 11.5194 7.37856Z" fill="url(#paint10_radial_91_417)"/>
<path d="M12.0618 11.8634C10.6758 11.8634 9.55226 10.7398 9.55226 9.35388C9.55226 7.96789 10.6758 6.84433 12.0618 6.84433C13.4477 6.84433 14.5713 7.96789 14.5713 9.35388C14.5713 10.7398 13.4477 11.8634 12.0618 11.8634Z" fill="url(#paint11_radial_91_417)"/>
<path d="M12.8672 10.6774C13.4865 10.3496 14.3932 9.3296 14.1503 7.96146C14.4175 8.36223 14.5713 8.83979 14.5713 9.3539C14.5713 10.7381 13.4461 11.8634 12.0618 11.8634C11.4384 11.8634 10.8677 11.6367 10.4306 11.2603C11.2603 10.6815 11.7258 11.2846 12.8672 10.6774Z" fill="url(#paint12_linear_91_417)"/>
<path d="M11.9808 6.84848C11.9444 6.85252 11.908 6.85658 11.8756 6.86467C11.8149 6.88086 11.7542 6.90919 11.7016 6.93753C11.5923 7.00229 11.4951 7.09133 11.4101 7.18851C11.2442 7.38684 11.1268 7.61755 11.0377 7.85633C10.9932 7.9737 10.9527 8.09921 10.9244 8.22062C10.892 8.34203 10.8677 8.46755 10.8475 8.59299C10.8273 8.71851 10.8151 8.84395 10.803 8.97351C10.7949 9.09895 10.7908 9.22851 10.7868 9.35395C10.7868 9.4794 10.7908 9.60895 10.803 9.7344C10.8151 9.85992 10.8273 9.9894 10.8475 10.1149C10.8677 10.2404 10.8961 10.3659 10.9244 10.4873C10.9568 10.6127 10.9932 10.7342 11.0377 10.8516C11.1268 11.0904 11.2442 11.3211 11.4101 11.5194C11.4951 11.6166 11.5882 11.7056 11.7016 11.7704C11.7582 11.8027 11.8149 11.827 11.8756 11.8433C11.912 11.8513 11.9444 11.8594 11.9808 11.8594C11.0742 11.7947 10.3496 10.6977 10.3496 9.35395C10.3496 8.01018 11.0742 6.91324 11.9808 6.84848Z" fill="url(#paint13_radial_91_417)"/>
<path d="M6.07136 14.9759C4.95369 14.9759 4.04758 14.0698 4.04758 12.9522C4.04758 11.8344 4.95369 10.9283 6.07136 10.9283C7.18911 10.9283 8.09521 11.8344 8.09521 12.9522C8.09521 14.0698 7.18911 14.9759 6.07136 14.9759Z" fill="url(#paint14_linear_91_417)"/>
<path d="M6.07136 14.9759C4.95369 14.9759 4.04758 14.0698 4.04758 12.9522C4.04758 11.8344 4.95369 10.9283 6.07136 10.9283C7.18911 10.9283 8.09521 11.8344 8.09521 12.9522C8.09521 14.0698 7.18911 14.9759 6.07136 14.9759Z" fill="url(#paint15_radial_91_417)"/>
<path d="M6.07136 14.9759C4.95369 14.9759 4.04758 14.0698 4.04758 12.9522C4.04758 11.8344 4.95369 10.9283 6.07136 10.9283C7.18911 10.9283 8.09521 11.8344 8.09521 12.9522C8.09521 14.0698 7.18911 14.9759 6.07136 14.9759Z" fill="url(#paint16_radial_91_417)"/>
<path d="M5.63412 11.3574C5.40745 11.7054 5.68264 12.2883 6.24931 12.6607C6.81597 13.0331 7.4636 13.0533 7.69027 12.7052C7.91693 12.3571 7.64168 11.7742 7.07501 11.4018C6.50841 11.0295 5.86078 11.0092 5.63412 11.3574Z" fill="url(#paint17_radial_91_417)"/>
<path d="M6.07136 14.9759C4.95369 14.9759 4.04758 14.0698 4.04758 12.9522C4.04758 11.8344 4.95369 10.9283 6.07136 10.9283C7.18911 10.9283 8.09521 11.8344 8.09521 12.9522C8.09521 14.0698 7.18911 14.9759 6.07136 14.9759Z" fill="url(#paint18_radial_91_417)"/>
<path d="M6.71899 14.0208C7.21688 13.7577 7.94951 12.932 7.75521 11.831C7.9697 12.1508 8.09521 12.5393 8.09521 12.9522C8.09521 14.0693 7.18855 14.976 6.07136 14.976C5.56944 14.976 5.10803 14.7939 4.75592 14.4903C5.42777 14.0208 5.80022 14.5105 6.71899 14.0208Z" fill="url(#paint19_linear_91_417)"/>
<path d="M6.00671 10.9325C5.97838 10.9365 5.95005 10.9406 5.92171 10.9486C5.87312 10.9649 5.82453 10.9851 5.78005 11.0094C5.69101 11.062 5.61408 11.1349 5.54531 11.2118C5.41171 11.3696 5.31864 11.5558 5.24575 11.7501C5.20934 11.8472 5.17697 11.9444 5.15268 12.0456C5.12838 12.1468 5.10812 12.2439 5.09197 12.3451C5.07575 12.4463 5.06364 12.5475 5.05549 12.6486C5.04742 12.7499 5.04338 12.8551 5.04338 12.9563C5.04338 13.0575 5.04742 13.1628 5.05549 13.2639C5.06364 13.3651 5.07575 13.4663 5.09197 13.5675C5.10812 13.6686 5.12838 13.7699 5.15268 13.867C5.17697 13.9682 5.20934 14.0653 5.24575 14.1625C5.31864 14.3528 5.41171 14.5389 5.54531 14.7008C5.61408 14.7778 5.69101 14.8506 5.78005 14.9032C5.82453 14.9275 5.87312 14.9478 5.92171 14.9639C5.95005 14.972 5.97838 14.9761 6.00671 14.9801C5.27408 14.9275 4.6912 14.0451 4.6912 12.9603C4.6912 11.8675 5.27408 10.9811 6.00671 10.9325Z" fill="url(#paint20_radial_91_417)"/>
<g clip-path="url(#clip0_91_417)">
<path d="M70.0114 11.2085C70.6122 10.8082 71.3341 10.628 72.0541 10.7L76.1145 11.0667L78.1781 8.7074L71.1034 9.56083C70.6305 9.61819 70.2508 9.9787 70.1697 10.4483L70.0114 11.2085Z" fill="#61ACD2"/>
<path d="M71.6341 14.8155C72.2618 15.143 73.96 15.8954 75.6572 15.4886L74.0198 14.418C73.2681 14.6272 72.4561 14.7812 71.6341 14.8155Z" fill="#61ACD2"/>
<path d="M75.2526 14.0131C75.8529 14.2259 77.2459 14.6618 78.3816 14.5792L76.6882 13.3913C76.2893 13.5868 75.8013 13.8061 75.2526 14.0131Z" fill="#61ACD2"/>
<path d="M67.0393 13.2145C67.7589 13.9581 68.5825 14.4142 69.4465 14.6639C70.1631 14.8708 70.9073 14.9358 71.6439 14.9046L71.6442 14.9046C72.4662 14.8703 73.2783 14.7163 74.03 14.5071C74.4642 14.3865 74.8782 14.2473 75.2627 14.1022C75.8114 13.8952 76.2993 13.6759 76.6983 13.4804C77.4 13.137 77.8272 12.8674 77.8272 12.8674L77.8272 12.8671L80.2692 14.5159L78.9161 11.8571L79.6416 8.96307L77.6292 11.1153L76.1045 10.9776L72.0441 10.6109C71.324 10.5389 70.6021 10.7192 70.0014 11.1194C69.9773 11.1357 69.4184 11.5309 69.4184 11.5309L67.0393 13.2145Z" fill="#F4A026"/>
<path d="M69.4184 11.5308L69.4685 11.5565L70.2334 12.1017L73.251 11.7607C73.3822 11.7458 73.5006 11.8402 73.5154 11.9714C73.5302 12.1026 73.4359 12.221 73.3047 12.2358L70.816 12.5171L71.3984 12.9323L70.7773 13.4839L73.917 13.129C74.0482 13.1142 74.1665 13.2085 74.1814 13.3397C74.1962 13.4709 74.1019 13.5893 73.9707 13.6041L70.1696 14.0337C70.1654 14.0342 70.1613 14.0343 70.1571 14.0345L69.4579 14.6554L69.4465 14.6639C68.5825 14.4142 67.7589 13.9581 67.0394 13.2144L69.4184 11.5308Z" fill="#61ACD2"/>
<path d="M69.2081 12.9773C69.0769 12.9921 68.9585 12.8978 68.9437 12.7665C68.9289 12.6353 69.0232 12.517 69.1544 12.5021C69.2856 12.4873 69.404 12.5816 69.4188 12.7128C69.4336 12.8441 69.3393 12.9624 69.2081 12.9773Z" fill="#495577"/>
</g>
<defs>
<linearGradient id="paint0_linear_91_417" x1="9.17168" y1="0.586113" x2="-3.63605" y2="20.7993" gradientUnits="userSpaceOnUse">
<stop stop-color="#80DAFE" stop-opacity="0"/>
<stop offset="1" stop-color="#008EE6"/>
</linearGradient>
<radialGradient id="paint1_radial_91_417" cx="0" cy="0" r="1" gradientUnits="userSpaceOnUse" gradientTransform="translate(6.97727 2.52329) rotate(180) scale(8.339)">
<stop offset="0.5839" stop-color="#FB9DC1" stop-opacity="0"/>
<stop offset="0.6244" stop-color="#F59EC3" stop-opacity="0.0730316"/>
<stop offset="0.6809" stop-color="#E2A0C8" stop-opacity="0.1749"/>
<stop offset="0.7469" stop-color="#C5A4D0" stop-opacity="0.2938"/>
<stop offset="0.82" stop-color="#9BAADB" stop-opacity="0.4256"/>
<stop offset="0.899" stop-color="#66B1E9" stop-opacity="0.568"/>
<stop offset="0.9818" stop-color="#26B9FA" stop-opacity="0.7172"/>
<stop offset="1" stop-color="#17BBFE" stop-opacity="0.75"/>
</radialGradient>
<radialGradient id="paint2_radial_91_417" cx="0" cy="0" r="1" gradientUnits="userSpaceOnUse" gradientTransform="translate(5.28796 5.64338) rotate(180) scale(9.25997)">
<stop stop-color="#D1F2FF" stop-opacity="0"/>
<stop offset="0.1913" stop-color="#CBF0FF" stop-opacity="0.1435"/>
<stop offset="0.458" stop-color="#B8EBFF" stop-opacity="0.3435"/>
<stop offset="0.7676" stop-color="#9BE2FE" stop-opacity="0.5757"/>
<stop offset="1" stop-color="#80DAFE" stop-opacity="0.75"/>
</radialGradient>
<radialGradient id="paint3_radial_91_417" cx="0" cy="0" r="1" gradientUnits="userSpaceOnUse" gradientTransform="translate(7.0422 3.96277) rotate(-146.75) scale(1.79353 1.19248)">
<stop stop-color="white"/>
<stop offset="1" stop-color="white" stop-opacity="0"/>
</radialGradient>
<radialGradient id="paint4_radial_91_417" cx="0" cy="0" r="1" gradientUnits="userSpaceOnUse" gradientTransform="translate(5.28796 5.64338) rotate(180) scale(9.25997)">
<stop stop-color="#D1F2FF" stop-opacity="0"/>
<stop offset="0.1913" stop-color="#CBF0FF" stop-opacity="0.1435"/>
<stop offset="0.458" stop-color="#B8EBFF" stop-opacity="0.3435"/>
<stop offset="0.7676" stop-color="#9BE2FE" stop-opacity="0.5757"/>
<stop offset="1" stop-color="#80DAFE" stop-opacity="0.75"/>
</radialGradient>
<linearGradient id="paint5_linear_91_417" x1="5.83268" y1="4.62879" x2="8.85996" y2="12.0993" gradientUnits="userSpaceOnUse">
<stop stop-color="#17BBFE" stop-opacity="0"/>
<stop offset="1" stop-color="#17BBFE" stop-opacity="0.75"/>
</linearGradient>
<radialGradient id="paint6_radial_91_417" cx="0" cy="0" r="1" gradientUnits="userSpaceOnUse" gradientTransform="translate(4.24673 3.8044) rotate(-178.558) scale(2.64499 1.10748)">
<stop stop-color="white"/>
<stop offset="1" stop-color="white" stop-opacity="0"/>
</radialGradient>
<linearGradient id="paint7_linear_91_417" x1="14.2938" y1="5.83386" x2="5.27017" y2="20.0749" gradientUnits="userSpaceOnUse">
<stop stop-color="#80DAFE" stop-opacity="0"/>
<stop offset="1" stop-color="#008EE6"/>
</linearGradient>
<radialGradient id="paint8_radial_91_417" cx="0" cy="0" r="1" gradientUnits="userSpaceOnUse" gradientTransform="translate(12.7477 7.19864) rotate(180) scale(5.87521 5.87521)">
<stop offset="0.5839" stop-color="#FB9DC1" stop-opacity="0"/>
<stop offset="0.6244" stop-color="#F59EC3" stop-opacity="0.0730316"/>
<stop offset="0.6809" stop-color="#E2A0C8" stop-opacity="0.1749"/>
<stop offset="0.7469" stop-color="#C5A4D0" stop-opacity="0.2938"/>
<stop offset="0.82" stop-color="#9BAADB" stop-opacity="0.4256"/>
<stop offset="0.899" stop-color="#66B1E9" stop-opacity="0.568"/>
<stop offset="0.9818" stop-color="#26B9FA" stop-opacity="0.7172"/>
<stop offset="1" stop-color="#17BBFE" stop-opacity="0.75"/>
</radialGradient>
<radialGradient id="paint9_radial_91_417" cx="0" cy="0" r="1" gradientUnits="userSpaceOnUse" gradientTransform="translate(11.5575 9.39688) rotate(180) scale(6.52405 6.52406)">
<stop stop-color="#D1F2FF" stop-opacity="0"/>
<stop offset="0.1913" stop-color="#CBF0FF" stop-opacity="0.1435"/>
<stop offset="0.458" stop-color="#B8EBFF" stop-opacity="0.3435"/>
<stop offset="0.7676" stop-color="#9BE2FE" stop-opacity="0.5757"/>
<stop offset="1" stop-color="#80DAFE" stop-opacity="0.75"/>
</radialGradient>
<radialGradient id="paint10_radial_91_417" cx="0" cy="0" r="1" gradientUnits="userSpaceOnUse" gradientTransform="translate(12.7934 8.2127) rotate(-146.75) scale(1.26362 0.840161)">
<stop stop-color="white"/>
<stop offset="1" stop-color="white" stop-opacity="0"/>
</radialGradient>
<radialGradient id="paint11_radial_91_417" cx="0" cy="0" r="1" gradientUnits="userSpaceOnUse" gradientTransform="translate(11.5575 9.39688) rotate(180) scale(6.52405 6.52406)">
<stop stop-color="#D1F2FF" stop-opacity="0"/>
<stop offset="0.1913" stop-color="#CBF0FF" stop-opacity="0.1435"/>
<stop offset="0.458" stop-color="#B8EBFF" stop-opacity="0.3435"/>
<stop offset="0.7676" stop-color="#9BE2FE" stop-opacity="0.5757"/>
<stop offset="1" stop-color="#80DAFE" stop-opacity="0.75"/>
</radialGradient>
<linearGradient id="paint12_linear_91_417" x1="11.9414" y1="8.68197" x2="14.0743" y2="13.9453" gradientUnits="userSpaceOnUse">
<stop stop-color="#17BBFE" stop-opacity="0"/>
<stop offset="1" stop-color="#17BBFE" stop-opacity="0.75"/>
</linearGradient>
<radialGradient id="paint13_radial_91_417" cx="0" cy="0" r="1" gradientUnits="userSpaceOnUse" gradientTransform="translate(10.8239 8.10155) rotate(-178.558) scale(1.86352 0.780272)">
<stop stop-color="white"/>
<stop offset="1" stop-color="white" stop-opacity="0"/>
</radialGradient>
<linearGradient id="paint14_linear_91_417" x1="7.87259" y1="10.1123" x2="0.595453" y2="21.597" gradientUnits="userSpaceOnUse">
<stop stop-color="#80DAFE" stop-opacity="0"/>
<stop offset="1" stop-color="#008EE6"/>
</linearGradient>
<radialGradient id="paint15_radial_91_417" cx="0" cy="0" r="1" gradientUnits="userSpaceOnUse" gradientTransform="translate(6.62578 11.2132) rotate(180) scale(4.73813 4.73813)">
<stop offset="0.5839" stop-color="#FB9DC1" stop-opacity="0"/>
<stop offset="0.6244" stop-color="#F59EC3" stop-opacity="0.0730316"/>
<stop offset="0.6809" stop-color="#E2A0C8" stop-opacity="0.1749"/>
<stop offset="0.7469" stop-color="#C5A4D0" stop-opacity="0.2938"/>
<stop offset="0.82" stop-color="#9BAADB" stop-opacity="0.4256"/>
<stop offset="0.899" stop-color="#66B1E9" stop-opacity="0.568"/>
<stop offset="0.9818" stop-color="#26B9FA" stop-opacity="0.7172"/>
<stop offset="1" stop-color="#17BBFE" stop-opacity="0.75"/>
</radialGradient>
<radialGradient id="paint16_radial_91_417" cx="0" cy="0" r="1" gradientUnits="userSpaceOnUse" gradientTransform="translate(5.66591 12.986) rotate(180) scale(5.2614 5.26139)">
<stop stop-color="#D1F2FF" stop-opacity="0"/>
<stop offset="0.1913" stop-color="#CBF0FF" stop-opacity="0.1435"/>
<stop offset="0.458" stop-color="#B8EBFF" stop-opacity="0.3435"/>
<stop offset="0.7676" stop-color="#9BE2FE" stop-opacity="0.5757"/>
<stop offset="1" stop-color="#80DAFE" stop-opacity="0.75"/>
</radialGradient>
<radialGradient id="paint17_radial_91_417" cx="0" cy="0" r="1" gradientUnits="userSpaceOnUse" gradientTransform="translate(6.65745 12.0367) rotate(-146.754) scale(1.01902 0.677481)">
<stop stop-color="white"/>
<stop offset="1" stop-color="white" stop-opacity="0"/>
</radialGradient>
<radialGradient id="paint18_radial_91_417" cx="0" cy="0" r="1" gradientUnits="userSpaceOnUse" gradientTransform="translate(5.66591 12.986) rotate(180) scale(5.2614 5.26139)">
<stop stop-color="#D1F2FF" stop-opacity="0"/>
<stop offset="0.1913" stop-color="#CBF0FF" stop-opacity="0.1435"/>
<stop offset="0.458" stop-color="#B8EBFF" stop-opacity="0.3435"/>
<stop offset="0.7676" stop-color="#9BE2FE" stop-opacity="0.5757"/>
<stop offset="1" stop-color="#80DAFE" stop-opacity="0.75"/>
</radialGradient>
<linearGradient id="paint19_linear_91_417" x1="5.97553" y1="12.4092" x2="7.69557" y2="16.6539" gradientUnits="userSpaceOnUse">
<stop stop-color="#17BBFE" stop-opacity="0"/>
<stop offset="1" stop-color="#17BBFE" stop-opacity="0.75"/>
</linearGradient>
<radialGradient id="paint20_radial_91_417" cx="0" cy="0" r="1" gradientUnits="userSpaceOnUse" gradientTransform="translate(5.07504 11.939) rotate(-178.558) scale(1.50275 0.629251)">
<stop stop-color="white"/>
<stop offset="1" stop-color="white" stop-opacity="0"/>
</radialGradient>
<clipPath id="clip0_91_417">
<rect width="13" height="13" fill="white" transform="matrix(-0.993674 0.112307 0.112307 0.993674 79.2289 5.31113)"/>
</clipPath>
</defs>
</svg>
