<svg width="45" height="35" viewBox="0 0 45 35" fill="none" xmlns="http://www.w3.org/2000/svg">
<path d="M0 27.5786C0 27.9915 0.323197 28.3262 0.72183 28.3262H7.61098H8.06671V29.7377H2.04259C1.64723 29.7377 1.31052 30.0561 1.29647 30.4653C1.28174 30.8949 1.61362 31.2479 2.02512 31.2479H8.06678V33.1043C8.06678 33.5137 8.3742 33.8624 8.76932 33.877C9.18413 33.8922 9.52503 33.5485 9.52503 33.1223V28.3262H12.4961C13.2536 28.3262 13.8676 27.6903 13.8676 26.9058V23.9077H15.9251C16.6826 23.9077 17.2967 23.2718 17.2967 22.4873V19.3725C17.2967 18.963 16.9893 18.6143 16.5941 18.5998C16.1793 18.5845 15.8384 18.9282 15.8384 19.3544V22.3975H14.6352V19.3725C14.6352 18.963 14.3278 18.6143 13.9327 18.5998C13.5179 18.5845 13.177 18.9282 13.177 19.3544V22.3975H12.1761V21.6558C12.1761 20.8983 11.6004 20.2773 10.8783 20.2375V17.7363C10.8783 17.3269 10.5709 16.9782 10.1758 16.9636C9.76097 16.9484 9.42007 17.2921 9.42007 17.7182V20.3253C9.42007 21.0828 9.99569 21.7038 10.7178 21.7436V22.4873C10.7178 23.2718 11.3319 23.9077 12.0894 23.9077H12.4094V26.816H10.6254V25.9822C10.6254 25.5728 10.318 25.2241 9.92285 25.2095C9.50804 25.1943 9.16714 25.538 9.16714 25.9641V26.816H8.15366H8.06988V17.7363C8.06988 17.3269 7.76246 16.9782 7.36734 16.9636C6.95253 16.9484 6.61163 17.2921 6.61163 17.7182V26.816H2.91833V23.8201H4.05768C4.81515 23.8201 5.42921 23.1841 5.42921 22.3996V21.0963C5.42921 20.6868 5.12179 20.3381 4.72667 20.3235C4.31186 20.3083 3.97096 20.652 3.97096 21.0782V22.3098H2.91833V19.7231C2.91833 19.3137 2.61091 18.9649 2.21579 18.9504C1.80098 18.9351 1.46008 19.2788 1.46008 19.705V26.8159H0.72183C0.323197 26.8159 0 27.1506 0 27.5635V27.5786Z" fill="#4EA963"/>
<path d="M2.91833 23.7833H2.45422V26.7638H2.91833V23.7833Z" fill="#408A51"/>
<path d="M14.1711 19.3586V22.368H14.6352V19.3586C14.6352 18.9513 14.3278 18.6044 13.9326 18.5899C13.8417 18.5866 13.7548 18.6013 13.6738 18.6293C13.9651 18.7327 14.1711 19.0253 14.1711 19.3586Z" fill="#408A51"/>
<path d="M10.1611 25.9341V26.7635H10.6252V25.9341C10.6252 25.5268 10.3178 25.1799 9.92269 25.1654C9.83178 25.162 9.74483 25.1768 9.66382 25.2048C9.95512 25.3082 10.1611 25.6008 10.1611 25.9341Z" fill="#408A51"/>
<path d="M7.60559 17.7309V26.7636H7.68937H8.06969V17.7309C8.06969 17.3236 7.76227 16.9767 7.36715 16.9622C7.27624 16.9589 7.18929 16.9736 7.10828 17.0016C7.39955 17.105 7.60559 17.3975 7.60559 17.7309Z" fill="#408A51"/>
<path d="M10.4141 17.7309V20.2191C11.1362 20.2587 11.7119 20.8765 11.7119 21.6301V22.3679H12.176V21.6301C12.176 20.8765 11.6003 20.2587 10.8782 20.2191V17.7309C10.8782 17.3236 10.5708 16.9767 10.1757 16.9622C10.0848 16.9589 9.99782 16.9736 9.91681 17.0016C10.2081 17.105 10.4141 17.3975 10.4141 17.7309Z" fill="#408A51"/>
<path d="M13.4035 26.853C13.4035 27.6334 12.7895 28.266 12.032 28.266H12.4961C13.2536 28.266 13.8676 27.6334 13.8676 26.853V23.8704H13.4035V26.853Z" fill="#408A51"/>
<path d="M16.594 18.5899C16.5031 18.5865 16.4161 18.6013 16.3351 18.6293C16.6265 18.7327 16.8325 19.0252 16.8325 19.3586V22.4573C16.8325 23.2377 16.2184 23.8704 15.4609 23.8704H15.925C16.6825 23.8704 17.2966 23.2378 17.2966 22.4573V19.3586C17.2965 18.9513 16.9891 18.6043 16.594 18.5899Z" fill="#408A51"/>
<path d="M4.96504 21.0735V22.3701C4.96504 23.1506 4.35101 23.7832 3.59351 23.7832H4.05761C4.81508 23.7832 5.42914 23.1506 5.42914 22.3701V21.0735C5.42914 20.6662 5.12172 20.3193 4.7266 20.3048C4.63569 20.3014 4.54874 20.3162 4.46773 20.3442C4.759 20.4476 4.96504 20.7401 4.96504 21.0735Z" fill="#408A51"/>
<path d="M2.45422 19.7074V22.2808H2.91832V19.7074C2.91832 19.3001 2.6109 18.9532 2.21578 18.9387C2.12488 18.9354 2.03792 18.9501 1.95691 18.9781C2.24822 19.0815 2.45422 19.374 2.45422 19.7074Z" fill="#408A51"/>
<path d="M9.06092 33.0373C9.06092 33.3684 8.85269 33.6485 8.56409 33.7486C8.62875 33.7715 8.69753 33.7854 8.76932 33.788C9.18413 33.8032 9.52503 33.4612 9.52503 33.0373V28.266H9.06092V33.0373Z" fill="#408A51"/>
<path d="M4.51142 19.0577C5.0184 19.0577 5.42939 18.6342 5.42939 18.1119C5.42939 17.5896 5.0184 17.1661 4.51142 17.1661C4.00443 17.1661 3.59344 17.5896 3.59344 18.1119C3.59344 18.6342 4.00443 19.0577 4.51142 19.0577Z" fill="#61ACD2"/>
<path d="M12.6609 31.997C12.9428 31.997 13.1713 31.7616 13.1713 31.4712C13.1713 31.1808 12.9428 30.9454 12.6609 30.9454C12.379 30.9454 12.1505 31.1808 12.1505 31.4712C12.1505 31.7616 12.379 31.997 12.6609 31.997Z" fill="#61ACD2"/>
<path d="M9.91691 24.2597C10.1255 24.2597 10.2946 24.0854 10.2946 23.8705C10.2946 23.6556 10.1255 23.4813 9.91691 23.4813C9.7083 23.4813 9.53918 23.6556 9.53918 23.8705C9.53918 24.0854 9.7083 24.2597 9.91691 24.2597Z" fill="#61ACD2"/>
<path d="M14.635 18.1119C14.9637 18.1119 15.2302 17.8373 15.2302 17.4987C15.2302 17.16 14.9637 16.8854 14.635 16.8854C14.3063 16.8854 14.0398 17.16 14.0398 17.4987C14.0398 17.8373 14.3063 18.1119 14.635 18.1119Z" fill="#61ACD2"/>
<path d="M2.28731 32.9101C2.63583 32.9101 2.91836 32.619 2.91836 32.26C2.91836 31.9009 2.63583 31.6098 2.28731 31.6098C1.93878 31.6098 1.65625 31.9009 1.65625 32.26C1.65625 32.619 1.93878 32.9101 2.28731 32.9101Z" fill="#61ACD2"/>
<path d="M15.4611 28.6541C15.904 28.6541 16.2631 28.2842 16.2631 27.8278C16.2631 27.3715 15.904 27.0015 15.4611 27.0015C15.0181 27.0015 14.6591 27.3715 14.6591 27.8278C14.6591 28.2842 15.0181 28.6541 15.4611 28.6541Z" fill="#61ACD2"/>
<path d="M4.51144 27.1525C4.93467 27.1525 5.27776 26.799 5.27776 26.363C5.27776 25.9269 4.93467 25.5735 4.51144 25.5735C4.08821 25.5735 3.74512 25.9269 3.74512 26.363C3.74512 26.799 4.08821 27.1525 4.51144 27.1525Z" fill="#61ACD2"/>
<path d="M27.4738 28.5786C27.4738 28.9915 27.797 29.3262 28.1956 29.3262H35.0847H35.5405V30.7377H29.5163C29.121 30.7377 28.7843 31.0561 28.7702 31.4653C28.7555 31.8949 29.0874 32.2479 29.4989 32.2479H35.5405V34.1043C35.5405 34.5137 35.848 34.8624 36.2431 34.877C36.6579 34.8922 36.9988 34.5485 36.9988 34.1223V29.3262H39.9698C40.7273 29.3262 41.3413 28.6903 41.3413 27.9058V24.9077H43.3989C44.1564 24.9077 44.7704 24.2718 44.7704 23.4873V20.3725C44.7704 19.963 44.463 19.6143 44.0679 19.5998C43.6531 19.5845 43.3122 19.9282 43.3122 20.3544V23.3975H42.109V20.3725C42.109 19.963 41.8016 19.6143 41.4064 19.5998C40.9916 19.5845 40.6507 19.9282 40.6507 20.3544V23.3975H39.6498V22.6558C39.6498 21.8983 39.0742 21.2773 38.3521 21.2375V18.7363C38.3521 18.3269 38.0447 17.9782 37.6495 17.9636C37.2347 17.9484 36.8938 18.2921 36.8938 18.7182V21.3253C36.8938 22.0828 37.4694 22.7038 38.1916 22.7436V23.4873C38.1916 24.2718 38.8056 24.9077 39.5631 24.9077H39.8832V27.816H38.0991V26.9822C38.0991 26.5728 37.7917 26.2241 37.3966 26.2095C36.9818 26.1943 36.6409 26.538 36.6409 26.9641V27.816H35.6274H35.5436V18.7363C35.5436 18.3269 35.2362 17.9782 34.8411 17.9636C34.4263 17.9484 34.0854 18.2921 34.0854 18.7182V27.816H30.3921V24.8201H31.5314C32.2889 24.8201 32.903 24.1841 32.903 23.3996V22.0963C32.903 21.6868 32.5955 21.3381 32.2004 21.3235C31.7856 21.3083 31.4447 21.652 31.4447 22.0782V23.3098H30.3921V20.7231C30.3921 20.3137 30.0847 19.9649 29.6895 19.9504C29.2747 19.9351 28.9338 20.2788 28.9338 20.705V27.8159H28.1956C27.797 27.8159 27.4738 28.1506 27.4738 28.5635V28.5786Z" fill="#4EA963"/>
<path d="M30.3921 24.7833H29.928V27.7638H30.3921V24.7833Z" fill="#408A51"/>
<path d="M41.6448 20.3586V23.368H42.1089V20.3586C42.1089 19.9513 41.8015 19.6044 41.4064 19.5899C41.3155 19.5866 41.2285 19.6013 41.1475 19.6293C41.4389 19.7327 41.6448 20.0253 41.6448 20.3586Z" fill="#408A51"/>
<path d="M37.6349 26.9341V27.7635H38.099V26.9341C38.099 26.5268 37.7916 26.1799 37.3965 26.1654C37.3056 26.162 37.2186 26.1768 37.1376 26.2048C37.4289 26.3082 37.6349 26.6008 37.6349 26.9341Z" fill="#408A51"/>
<path d="M35.0793 18.7309V27.7636H35.1631H35.5434V18.7309C35.5434 18.3236 35.236 17.9767 34.8409 17.9622C34.75 17.9589 34.663 17.9736 34.582 18.0016C34.8733 18.105 35.0793 18.3975 35.0793 18.7309Z" fill="#408A51"/>
<path d="M37.8879 18.7309V21.2191C38.61 21.2587 39.1857 21.8765 39.1857 22.6301V23.3679H39.6498V22.6301C39.6498 21.8765 39.0741 21.2587 38.352 21.2191V18.7309C38.352 18.3236 38.0446 17.9767 37.6495 17.9622C37.5586 17.9589 37.4716 17.9736 37.3906 18.0016C37.6819 18.105 37.8879 18.3975 37.8879 18.7309Z" fill="#408A51"/>
<path d="M40.8772 27.853C40.8772 28.6334 40.2632 29.266 39.5057 29.266H39.9698C40.7273 29.266 41.3413 28.6334 41.3413 27.853V24.8704H40.8772V27.853Z" fill="#408A51"/>
<path d="M44.0679 19.5899C43.977 19.5865 43.89 19.6013 43.809 19.6293C44.1003 19.7327 44.3063 20.0252 44.3063 20.3586V23.4573C44.3063 24.2377 43.6923 24.8704 42.9348 24.8704H43.3989C44.1564 24.8704 44.7705 24.2378 44.7705 23.4573V20.3586C44.7704 19.9513 44.463 19.6043 44.0679 19.5899Z" fill="#408A51"/>
<path d="M32.4389 22.0735V23.3701C32.4389 24.1506 31.8248 24.7832 31.0673 24.7832H31.5314C32.2889 24.7832 32.903 24.1506 32.903 23.3701V22.0735C32.903 21.6662 32.5955 21.3193 32.2004 21.3048C32.1095 21.3014 32.0226 21.3162 31.9415 21.3442C32.2328 21.4476 32.4389 21.7401 32.4389 22.0735Z" fill="#408A51"/>
<path d="M29.928 20.7074V23.2808H30.3921V20.7074C30.3921 20.3001 30.0847 19.9532 29.6895 19.9387C29.5986 19.9354 29.5117 19.9501 29.4307 19.9781C29.722 20.0815 29.928 20.374 29.928 20.7074Z" fill="#408A51"/>
<path d="M36.5347 34.0373C36.5347 34.3684 36.3264 34.6485 36.0378 34.7486C36.1025 34.7715 36.1713 34.7854 36.2431 34.788C36.6579 34.8032 36.9988 34.4612 36.9988 34.0373V29.266H36.5347V34.0373Z" fill="#408A51"/>
<path d="M31.9852 20.0577C32.4922 20.0577 32.9032 19.6342 32.9032 19.1119C32.9032 18.5896 32.4922 18.1661 31.9852 18.1661C31.4782 18.1661 31.0673 18.5896 31.0673 19.1119C31.0673 19.6342 31.4782 20.0577 31.9852 20.0577Z" fill="#61ACD2"/>
<path d="M40.1347 32.997C40.4165 32.997 40.645 32.7616 40.645 32.4712C40.645 32.1808 40.4165 31.9454 40.1347 31.9454C39.8528 31.9454 39.6243 32.1808 39.6243 32.4712C39.6243 32.7616 39.8528 32.997 40.1347 32.997Z" fill="#61ACD2"/>
<path d="M37.3907 25.2597C37.5993 25.2597 37.7684 25.0854 37.7684 24.8705C37.7684 24.6556 37.5993 24.4813 37.3907 24.4813C37.1821 24.4813 37.0129 24.6556 37.0129 24.8705C37.0129 25.0854 37.1821 25.2597 37.3907 25.2597Z" fill="#61ACD2"/>
<path d="M42.1088 19.1119C42.4375 19.1119 42.704 18.8373 42.704 18.4987C42.704 18.16 42.4375 17.8854 42.1088 17.8854C41.78 17.8854 41.5135 18.16 41.5135 18.4987C41.5135 18.8373 41.78 19.1119 42.1088 19.1119Z" fill="#61ACD2"/>
<path d="M29.7611 33.9101C30.1096 33.9101 30.3921 33.619 30.3921 33.26C30.3921 32.9009 30.1096 32.6098 29.7611 32.6098C29.4125 32.6098 29.13 32.9009 29.13 33.26C29.13 33.619 29.4125 33.9101 29.7611 33.9101Z" fill="#61ACD2"/>
<path d="M42.9348 29.6541C43.3778 29.6541 43.7369 29.2842 43.7369 28.8278C43.7369 28.3715 43.3778 28.0015 42.9348 28.0015C42.4919 28.0015 42.1328 28.3715 42.1328 28.8278C42.1328 29.2842 42.4919 29.6541 42.9348 29.6541Z" fill="#61ACD2"/>
<path d="M31.9852 28.1525C32.4084 28.1525 32.7515 27.799 32.7515 27.363C32.7515 26.9269 32.4084 26.5735 31.9852 26.5735C31.562 26.5735 31.2189 26.9269 31.2189 27.363C31.2189 27.799 31.562 28.1525 31.9852 28.1525Z" fill="#61ACD2"/>
<path d="M42.7593 13.7559C42.7103 13.5125 42.5801 13.2927 42.3906 13.1356C42.1272 12.9173 41.8296 12.7255 41.4964 12.5862C40.6555 12.2348 39.7623 12.2821 39.0592 12.427C38.9812 12.4431 38.9397 12.5301 38.9738 12.6044L39.5465 13.8525L38.0838 13.9168C37.9913 13.9209 37.9365 14.0235 37.9832 14.1061C38.374 14.7958 39.0669 15.7334 40.1105 16.1696C40.3372 16.2643 40.5682 16.3296 40.7984 16.3717C41.0374 16.4155 41.2825 16.3733 41.4915 16.2514L43.0758 15.3276L42.7593 13.7559Z" fill="#0064BF"/>
<path d="M43.6021 15.1012C43.2566 14.4254 42.5409 13.3088 41.4081 12.8356C39.7298 12.1346 37.7715 13.1113 37.7715 13.1113C37.7715 13.1113 38.5341 15.2245 40.2124 15.9255C41.3452 16.3987 42.6057 16.1075 43.3053 15.8682C43.6145 15.7624 43.7548 15.3999 43.6021 15.1012Z" fill="#0055B8"/>
<path d="M41.4149 12.8358C39.7365 12.1347 37.778 13.1115 37.778 13.1115C37.778 13.1115 37.9168 13.4958 38.206 13.991L40.9454 15.1353C41.264 15.2684 41.6239 15.1136 41.7493 14.7896L42.2941 13.3817C42.0351 13.1635 41.7426 12.9727 41.4149 12.8358ZM40.8758 14.5645C40.7107 14.4955 40.6295 14.3035 40.6945 14.1357C40.7594 13.9678 40.9459 13.8877 41.111 13.9566C41.2761 14.0256 41.3573 14.2176 41.2923 14.3854C41.2273 14.5533 41.0408 14.6334 40.8758 14.5645Z" fill="#444D56"/>
<path d="M42.4772 15.3519C42.7054 15.4475 42.9628 15.3375 43.052 15.1062C43.1412 14.8748 43.0285 14.6096 42.8003 14.514C42.572 14.4183 42.3147 14.5283 42.2255 14.7596C42.1363 14.991 42.249 15.2562 42.4772 15.3519Z" fill="white"/>
<path d="M42.5581 15.1434C42.6724 15.1914 42.8013 15.1362 42.846 15.0203C42.8907 14.9044 42.8343 14.7716 42.7199 14.7236C42.6056 14.6757 42.4767 14.7308 42.432 14.8468C42.3873 14.9627 42.4437 15.0955 42.5581 15.1434Z" fill="#814C3A"/>
<path d="M38.3584 12.8619L37.3128 11.6403C37.2443 11.5602 37.1186 11.5807 37.0811 11.6781L36.4146 13.4065C36.3771 13.5038 36.4541 13.6093 36.5567 13.601L38.1223 13.474C38.4181 13.45 38.5559 13.0927 38.3584 12.8619Z" fill="#444D56"/>
<path d="M38.0033 12.9251L37.0377 11.7969L36.4616 13.2911L37.9074 13.1738C38.0276 13.1641 38.0836 13.0189 38.0033 12.9251Z" fill="#FFD224"/>
<path d="M40.948 14.5987L40.5584 13.6823C39.9072 13.9607 39.6104 14.7299 39.8955 15.4006L40.7853 15.0203C40.9451 14.952 41.0179 14.7632 40.948 14.5987Z" fill="#FFD224"/>
<path d="M40.9471 14.5978L40.6325 13.8578C40.0757 14.0957 39.822 14.7534 40.0657 15.3267L40.7844 15.0196C40.9442 14.9512 41.017 14.7624 40.9471 14.5978Z" fill="#0063BE"/>
<g clip-path="url(#clip0_88_39)">
<path d="M21.0472 21.3627C20.6286 21.3627 20.2893 21.0234 20.2893 20.6048C20.2893 20.1862 20.6286 19.8468 21.0472 19.8468C21.4658 19.8468 21.8052 20.1862 21.8052 20.6048C21.8052 21.0234 21.4658 21.3627 21.0472 21.3627Z" fill="#61ACD2"/>
<path d="M19.0613 17.8308C18.6427 17.8308 18.3034 17.4915 18.3034 17.0729C18.3034 16.6543 18.6427 16.315 19.0613 16.315C19.4799 16.315 19.8193 16.6543 19.8193 17.0729C19.8193 17.4915 19.4799 17.8308 19.0613 17.8308Z" fill="#61ACD2"/>
<path d="M19.4241 30.5261C19.5982 30.5261 19.7392 30.385 19.7392 30.211C19.7392 29.4448 20.0034 29.0807 20.3094 28.6592C20.633 28.2133 20.9996 27.7079 20.9996 26.7372C20.9996 25.7665 20.6329 25.261 20.3094 24.8152C20.0034 24.3936 19.7392 24.0295 19.7392 23.2633C19.7392 23.0892 19.5982 22.9482 19.4241 22.9482C19.2501 22.9482 19.109 23.0892 19.109 23.2633C19.109 24.234 19.4758 24.7394 19.7993 25.1853C20.1052 25.6069 20.3694 25.971 20.3694 26.7372C20.3694 27.5034 20.1052 27.8675 19.7993 28.2891C19.4757 28.7349 19.109 29.2402 19.109 30.211C19.109 30.3851 19.2502 30.5261 19.4241 30.5261Z" fill="#6ABE71"/>
<path d="M23.2729 30.5261C23.4469 30.5261 23.588 30.385 23.588 30.211C23.588 29.4448 23.8522 29.0807 24.1581 28.6592C24.4817 28.2133 24.8484 27.7079 24.8484 26.7372C24.8484 25.7664 24.4816 25.261 24.1581 24.8152C23.8522 24.3936 23.588 24.0294 23.588 23.2633C23.588 22.497 23.8522 22.1329 24.1581 21.7113C24.4817 21.2654 24.8484 20.76 24.8484 19.7892C24.8484 19.6152 24.7073 19.4741 24.5333 19.4741C24.3593 19.4741 24.2182 19.6152 24.2182 19.7892C24.2182 20.5554 23.954 20.9196 23.648 21.3412C23.3245 21.787 22.9578 22.2924 22.9578 23.2633C22.9578 24.234 23.3245 24.7394 23.648 25.1853C23.954 25.6069 24.2182 25.971 24.2182 26.7372C24.2182 27.5034 23.954 27.8675 23.648 28.289C23.3245 28.7349 22.9578 29.2403 22.9578 30.211C22.9578 30.3851 23.0989 30.5261 23.2729 30.5261Z" fill="#6ABE71"/>
<path d="M27.4108 30.5261C27.5848 30.5261 27.7259 30.385 27.7259 30.211C27.7259 29.4448 27.9901 29.0807 28.296 28.6592C28.6196 28.2133 28.9863 27.7079 28.9863 26.7372C28.9863 25.7664 28.6195 25.261 28.296 24.8152C27.9901 24.3936 27.7259 24.0294 27.7259 23.2633C27.7259 22.497 27.9901 22.1329 28.296 21.7113C28.6196 21.2654 28.9863 20.76 28.9863 19.7892C28.9863 18.8184 28.6195 18.313 28.296 17.8671C27.9901 17.4455 27.7259 17.0813 27.7259 16.3151C27.7259 16.1411 27.5848 16 27.4108 16C27.2368 16 27.0957 16.1411 27.0957 16.3151C27.0957 17.2858 27.4624 17.7913 27.7859 18.2372C28.0919 18.6588 28.3561 19.0229 28.3561 19.7891C28.3561 20.5554 28.0919 20.9195 27.7859 21.3411C27.4624 21.787 27.0957 22.2924 27.0957 23.2632C27.0957 24.234 27.4624 24.7394 27.7859 25.1852C28.0919 25.6068 28.3561 25.971 28.3561 26.7371C28.3561 27.5033 28.0919 27.8675 27.7859 28.289C27.4624 28.7349 27.0957 29.2402 27.0957 30.211C27.0957 30.3851 27.2367 30.5261 27.4108 30.5261Z" fill="#6ABE71"/>
<path d="M18.9675 34H23.7456C24.6475 34 25.6317 33.5542 26.4457 32.777C27.2473 32.0115 27.7259 31.0523 27.7259 30.2111C27.7259 30.037 27.5848 29.896 27.4108 29.896C27.2368 29.896 27.0957 30.037 27.0957 30.2111C27.0957 31.6576 25.2798 33.3699 23.7456 33.3699H18.9675C18.7935 33.3699 18.6524 33.5109 18.6524 33.685C18.6524 33.859 18.7935 34 18.9675 34Z" fill="#6ABE71"/>
<path d="M15.3023 30.5261C15.4763 30.5261 15.6174 30.385 15.6174 30.211C15.6174 29.4448 15.8816 29.0807 16.1875 28.6592C16.5111 28.2133 16.8778 27.7079 16.8778 26.7372C16.8778 25.7664 16.5111 25.261 16.1875 24.8152C15.8816 24.3936 15.6174 24.0294 15.6174 23.2633C15.6174 22.497 15.8816 22.1329 16.1875 21.7113C16.5111 21.2654 16.8778 20.76 16.8778 19.7892C16.8778 18.8184 16.5111 18.313 16.1875 17.8671C15.8816 17.4455 15.6174 17.0813 15.6174 16.3151C15.6174 16.1411 15.4763 16 15.3023 16C15.1283 16 14.9872 16.1411 14.9872 16.3151C14.9872 17.2858 15.354 17.7913 15.6775 18.2372C15.9834 18.6588 16.2476 19.0229 16.2476 19.7891C16.2476 20.5554 15.9834 20.9195 15.6775 21.3411C15.3539 21.787 14.9872 22.2924 14.9872 23.2632C14.9872 24.234 15.354 24.7394 15.6775 25.1852C15.9834 25.6068 16.2476 25.971 16.2476 26.7371C16.2476 27.5033 15.9834 27.8675 15.6775 28.289C15.3539 28.7349 14.9872 29.2402 14.9872 30.211C14.9872 30.3851 15.1283 30.5261 15.3023 30.5261Z" fill="#6ABE71"/>
<path d="M18.9675 34C19.1415 34 19.2826 33.8589 19.2826 33.6849C19.2826 33.5109 19.1415 33.3698 18.9675 33.3698C17.4333 33.3698 15.6174 31.6575 15.6174 30.211C15.6174 30.037 15.4763 29.8959 15.3023 29.8959C15.1283 29.8959 14.9872 30.037 14.9872 30.211C14.9872 31.0522 15.4657 32.0115 16.2674 32.7769C17.0814 33.5542 18.0655 34 18.9675 34Z" fill="#6ABE71"/>
<path d="M21.3485 34C21.5226 34 21.6636 33.8589 21.6636 33.6849C21.6636 33.5109 21.5226 33.3698 21.3485 33.3698C20.3484 33.3698 19.7514 32.2039 19.7514 30.2511C19.7514 30.0771 19.6103 29.936 19.4363 29.936C19.2623 29.936 19.1212 30.0771 19.1212 30.2511C19.1212 31.5771 19.3666 32.5748 19.8507 33.2165C20.365 33.8982 21.0099 34 21.3485 34Z" fill="#6ABE71"/>
<path d="M21.3485 34C21.6872 34 22.332 33.8982 22.8463 33.2165C23.3304 32.5748 23.5758 31.5771 23.5758 30.2511C23.5758 30.0771 23.4347 29.936 23.2607 29.936C23.0867 29.936 22.9456 30.0771 22.9456 30.2511C22.9456 32.2039 22.3486 33.3698 21.3485 33.3698C21.1745 33.3698 21.0334 33.5109 21.0334 33.6849C21.0334 33.8589 21.1745 34 21.3485 34Z" fill="#6ABE71"/>
<path d="M26.1156 30.5733H28.7058C28.8798 30.5733 29.0209 30.4322 29.0209 30.2582C29.0209 30.0842 28.8798 29.9431 28.7058 29.9431H26.1156C25.9416 29.9431 25.8005 30.0842 25.8005 30.2582C25.8005 30.4322 25.9416 30.5733 26.1156 30.5733Z" fill="#3B804B"/>
<path d="M27.3495 27.0521H29.9927C30.1667 27.0521 30.3078 26.9111 30.3078 26.737C30.3078 26.563 30.1667 26.4219 29.9927 26.4219H27.3494C27.1754 26.4219 27.0343 26.563 27.0343 26.737C27.0343 26.9111 27.1754 27.0521 27.3495 27.0521Z" fill="#3B804B"/>
<path d="M26.036 23.5779H28.7854C28.9594 23.5779 29.1005 23.4369 29.1005 23.2628C29.1005 23.0888 28.9594 22.9477 28.7854 22.9477H26.036C25.862 22.9477 25.7209 23.0888 25.7209 23.2628C25.7209 23.4369 25.862 23.5779 26.036 23.5779Z" fill="#3B804B"/>
<path d="M27.2699 20.1043H30.0723C30.2464 20.1043 30.3875 19.9632 30.3875 19.7892C30.3875 19.6152 30.2464 19.4741 30.0723 19.4741H27.2699C27.0958 19.4741 26.9548 19.6152 26.9548 19.7892C26.9548 19.9632 27.0958 20.1043 27.2699 20.1043Z" fill="#3B804B"/>
<path d="M18.129 30.5733H20.7191C20.8932 30.5733 21.0342 30.4322 21.0342 30.2582C21.0342 30.0842 20.8932 29.9431 20.7191 29.9431H18.129C17.955 29.9431 17.8139 30.0842 17.8139 30.2582C17.8139 30.4322 17.955 30.5733 18.129 30.5733Z" fill="#3B804B"/>
<path d="M19.3629 27.0521H22.0061C22.1801 27.0521 22.3212 26.9111 22.3212 26.737C22.3212 26.563 22.1801 26.4219 22.0061 26.4219H19.3629C19.1888 26.4219 19.0478 26.563 19.0478 26.737C19.0478 26.9111 19.1888 27.0521 19.3629 27.0521Z" fill="#3B804B"/>
<path d="M21.9778 30.5733H24.568C24.742 30.5733 24.8831 30.4322 24.8831 30.2582C24.8831 30.0842 24.742 29.9431 24.568 29.9431H21.9778C21.8038 29.9431 21.6627 30.0842 21.6627 30.2582C21.6627 30.4322 21.8038 30.5733 21.9778 30.5733Z" fill="#3B804B"/>
<path d="M23.2117 27.0521H25.8549C26.029 27.0521 26.17 26.9111 26.17 26.737C26.17 26.563 26.029 26.4219 25.8549 26.4219H23.2117C23.0377 26.4219 22.8966 26.563 22.8966 26.737C22.8966 26.9111 23.0377 27.0521 23.2117 27.0521Z" fill="#3B804B"/>
<path d="M21.8982 23.5779H24.6476C24.8216 23.5779 24.9627 23.4369 24.9627 23.2628C24.9627 23.0888 24.8216 22.9477 24.6476 22.9477H21.8982C21.7242 22.9477 21.5831 23.0888 21.5831 23.2628C21.5831 23.4369 21.7242 23.5779 21.8982 23.5779Z" fill="#3B804B"/>
<path d="M14.0072 30.5733H16.5974C16.7714 30.5733 16.9125 30.4322 16.9125 30.2582C16.9125 30.0842 16.7714 29.9431 16.5974 29.9431H14.0072C13.8332 29.9431 13.6921 30.0842 13.6921 30.2582C13.6921 30.4322 13.8332 30.5733 14.0072 30.5733Z" fill="#3B804B"/>
<path d="M15.2411 27.0521H17.8843C18.0583 27.0521 18.1994 26.9111 18.1994 26.737C18.1994 26.563 18.0583 26.4219 17.8843 26.4219H15.2411C15.0671 26.4219 14.926 26.563 14.926 26.737C14.926 26.9111 15.0671 27.0521 15.2411 27.0521Z" fill="#3B804B"/>
<path d="M13.9276 23.5779H16.677C16.851 23.5779 16.9921 23.4369 16.9921 23.2628C16.9921 23.0888 16.851 22.9477 16.677 22.9477H13.9276C13.7536 22.9477 13.6125 23.0888 13.6125 23.2628C13.6125 23.4369 13.7536 23.5779 13.9276 23.5779Z" fill="#3B804B"/>
<path d="M14.0868 30.5733H16.677C16.851 30.5733 16.9921 30.4322 16.9921 30.2582C16.9921 30.0842 16.851 29.9431 16.677 29.9431H14.0868C13.9128 29.9431 13.7717 30.0842 13.7717 30.2582C13.7717 30.4322 13.9128 30.5733 14.0868 30.5733Z" fill="#3B804B"/>
<path d="M15.3207 27.0521H17.9639C18.138 27.0521 18.2791 26.9111 18.2791 26.737C18.2791 26.563 18.138 26.4219 17.9639 26.4219H15.3207C15.1467 26.4219 15.0056 26.563 15.0056 26.737C15.0056 26.9111 15.1467 27.0521 15.3207 27.0521Z" fill="#3B804B"/>
</g>
<path d="M25.5284 3.76661C26.3384 3.76661 26.9951 3.10995 26.9951 2.29994C26.9951 1.48992 26.3384 0.833267 25.5284 0.833267C24.7184 0.833267 24.0617 1.48992 24.0617 2.29994C24.0617 3.10995 24.7184 3.76661 25.5284 3.76661Z" fill="url(#paint0_linear_88_39)"/>
<path d="M25.5284 3.76661C26.3384 3.76661 26.9951 3.10995 26.9951 2.29994C26.9951 1.48992 26.3384 0.833267 25.5284 0.833267C24.7184 0.833267 24.0617 1.48992 24.0617 2.29994C24.0617 3.10995 24.7184 3.76661 25.5284 3.76661Z" fill="url(#paint1_radial_88_39)"/>
<path d="M25.5284 3.76661C26.3384 3.76661 26.9951 3.10995 26.9951 2.29994C26.9951 1.48992 26.3384 0.833267 25.5284 0.833267C24.7184 0.833267 24.0617 1.48992 24.0617 2.29994C24.0617 3.10995 24.7184 3.76661 25.5284 3.76661Z" fill="url(#paint2_radial_88_39)"/>
<path d="M25.845 1.14321C26.01 1.39488 25.81 1.81822 25.3984 2.08655C24.9867 2.35488 24.5201 2.37155 24.355 2.11988C24.19 1.86822 24.39 1.44488 24.8017 1.17655C25.2134 0.908215 25.68 0.89155 25.845 1.14321Z" fill="url(#paint3_radial_88_39)"/>
<path d="M25.5284 3.76661C26.3384 3.76661 26.9951 3.10995 26.9951 2.29994C26.9951 1.48992 26.3384 0.833267 25.5284 0.833267C24.7184 0.833267 24.0617 1.48992 24.0617 2.29994C24.0617 3.10995 24.7184 3.76661 25.5284 3.76661Z" fill="url(#paint4_radial_88_39)"/>
<path d="M25.0584 3.07335C24.6967 2.88168 24.1651 2.28501 24.3067 1.48668C24.1517 1.72001 24.0601 1.99834 24.0601 2.30001C24.0601 3.11002 24.7167 3.76668 25.5267 3.76668C25.8901 3.76668 26.2234 3.63335 26.48 3.41501C25.9951 3.07502 25.7251 3.42834 25.0584 3.07335Z" fill="url(#paint5_linear_88_39)"/>
<path d="M25.575 0.834976C25.5967 0.836645 25.6167 0.839978 25.6383 0.844977C25.6733 0.854976 25.7083 0.869976 25.7417 0.88831C25.8067 0.926644 25.8617 0.97831 25.9117 1.03498C26.0083 1.14998 26.0767 1.28498 26.1283 1.42498C26.155 1.49498 26.1767 1.56664 26.195 1.63831C26.2134 1.70998 26.2283 1.78331 26.24 1.85664C26.2517 1.92998 26.26 2.00331 26.2667 2.07831C26.2717 2.15164 26.275 2.22664 26.275 2.30164C26.275 2.37664 26.2717 2.44998 26.2667 2.52498C26.26 2.59831 26.2533 2.67331 26.24 2.74664C26.2283 2.81998 26.2134 2.89331 26.195 2.96496C26.1767 3.03665 26.155 3.10832 26.1283 3.17832C26.0767 3.31665 26.0067 3.45164 25.9117 3.5683C25.8634 3.62497 25.8067 3.67663 25.7417 3.71498C25.71 3.7333 25.675 3.74832 25.6383 3.7583C25.6184 3.76331 25.5967 3.76664 25.5767 3.7683C26.1067 3.73164 26.5284 3.08997 26.5284 2.30331C26.5284 1.51331 26.105 0.871645 25.575 0.834976Z" fill="url(#paint6_radial_88_39)"/>
<path d="M23.0334 4.88492C23.6041 4.88492 24.0667 4.42227 24.0667 3.8516C24.0667 3.28089 23.6041 2.81825 23.0334 2.81825C22.4627 2.81825 22.0001 3.28089 22.0001 3.8516C22.0001 4.42227 22.4627 4.88492 23.0334 4.88492Z" fill="url(#paint7_linear_88_39)"/>
<path d="M23.0334 4.88492C23.6041 4.88492 24.0667 4.42227 24.0667 3.8516C24.0667 3.28089 23.6041 2.81825 23.0334 2.81825C22.4627 2.81825 22.0001 3.28089 22.0001 3.8516C22.0001 4.42227 22.4627 4.88492 23.0334 4.88492Z" fill="url(#paint8_radial_88_39)"/>
<path d="M23.0334 4.88492C23.6041 4.88492 24.0667 4.42227 24.0667 3.8516C24.0667 3.28089 23.6041 2.81825 23.0334 2.81825C22.4627 2.81825 22.0001 3.28089 22.0001 3.8516C22.0001 4.42227 22.4627 4.88492 23.0334 4.88492Z" fill="url(#paint9_radial_88_39)"/>
<path d="M23.2567 3.03823C23.3734 3.21489 23.2317 3.51324 22.9417 3.70323C22.6517 3.89322 22.3217 3.90323 22.2067 3.72657C22.09 3.5499 22.2317 3.25156 22.5217 3.06157C22.8117 2.87156 23.14 2.86156 23.2567 3.03823Z" fill="url(#paint10_radial_88_39)"/>
<path d="M23.0334 4.88492C23.6041 4.88492 24.0667 4.42227 24.0667 3.8516C24.0667 3.28089 23.6041 2.81825 23.0334 2.81825C22.4627 2.81825 22.0001 3.28089 22.0001 3.8516C22.0001 4.42227 22.4627 4.88492 23.0334 4.88492Z" fill="url(#paint11_radial_88_39)"/>
<path d="M22.7017 4.39658C22.4467 4.2616 22.0734 3.8416 22.1734 3.27824C22.0634 3.44327 22.0001 3.63991 22.0001 3.8516C22.0001 4.42158 22.4634 4.88492 23.0334 4.88492C23.2901 4.88492 23.5251 4.79159 23.7051 4.63659C23.3634 4.39824 23.1717 4.6466 22.7017 4.39658Z" fill="url(#paint12_linear_88_39)"/>
<path d="M23.0667 2.81996C23.0817 2.82163 23.0967 2.8233 23.11 2.82663C23.135 2.83329 23.16 2.84496 23.1817 2.85663C23.2267 2.88329 23.2667 2.91996 23.3017 2.95997C23.37 3.04164 23.4184 3.13664 23.455 3.23496C23.4734 3.28329 23.49 3.33497 23.5017 3.38496C23.515 3.43495 23.525 3.48664 23.5334 3.53829C23.5417 3.58997 23.5467 3.64163 23.5517 3.69497C23.555 3.74663 23.5567 3.79997 23.5584 3.85163C23.5584 3.90328 23.5567 3.95663 23.5517 4.00828C23.5467 4.05996 23.5417 4.11328 23.5334 4.16496C23.525 4.21662 23.5134 4.2683 23.5017 4.31829C23.4884 4.36995 23.4734 4.41997 23.455 4.4683C23.4184 4.56662 23.37 4.66161 23.3017 4.74328C23.2667 4.7833 23.2284 4.81996 23.1817 4.84662C23.1584 4.85995 23.135 4.86995 23.11 4.87663C23.095 4.87996 23.0817 4.88328 23.0667 4.88328C23.44 4.85662 23.7384 4.40495 23.7384 3.85163C23.7384 3.29831 23.44 2.84663 23.0667 2.81996Z" fill="url(#paint13_radial_88_39)"/>
<path d="M25.5 6.16656C25.9603 6.16656 26.3334 5.79346 26.3334 5.33324C26.3334 4.87299 25.9603 4.49989 25.5 4.49989C25.0398 4.49989 24.6667 4.87299 24.6667 5.33324C24.6667 5.79346 25.0398 6.16656 25.5 6.16656Z" fill="url(#paint14_linear_88_39)"/>
<path d="M25.5 6.16656C25.9603 6.16656 26.3334 5.79346 26.3334 5.33324C26.3334 4.87299 25.9603 4.49989 25.5 4.49989C25.0398 4.49989 24.6667 4.87299 24.6667 5.33324C24.6667 5.79346 25.0398 6.16656 25.5 6.16656Z" fill="url(#paint15_radial_88_39)"/>
<path d="M25.5 6.16656C25.9603 6.16656 26.3334 5.79346 26.3334 5.33324C26.3334 4.87299 25.9603 4.49989 25.5 4.49989C25.0398 4.49989 24.6667 4.87299 24.6667 5.33324C24.6667 5.79346 25.0398 6.16656 25.5 6.16656Z" fill="url(#paint16_radial_88_39)"/>
<path d="M25.6801 4.67656C25.7734 4.81988 25.6601 5.05989 25.4267 5.21322C25.1934 5.36655 24.9267 5.37489 24.8334 5.23154C24.7401 5.08821 24.8534 4.8482 25.0867 4.69487C25.3201 4.54154 25.5867 4.5332 25.6801 4.67656Z" fill="url(#paint17_radial_88_39)"/>
<path d="M25.5 6.16656C25.9603 6.16656 26.3334 5.79346 26.3334 5.33324C26.3334 4.87299 25.9603 4.49989 25.5 4.49989C25.0398 4.49989 24.6667 4.87299 24.6667 5.33324C24.6667 5.79346 25.0398 6.16656 25.5 6.16656Z" fill="url(#paint18_radial_88_39)"/>
<path d="M25.2334 5.77328C25.0284 5.66493 24.7267 5.32493 24.8067 4.8716C24.7184 5.00328 24.6667 5.16326 24.6667 5.33328C24.6667 5.79326 25.04 6.1666 25.5 6.1666C25.7067 6.1666 25.8967 6.09161 26.0417 5.9666C25.765 5.77328 25.6117 5.97494 25.2334 5.77328Z" fill="url(#paint19_linear_88_39)"/>
<path d="M25.5267 4.50162C25.5383 4.50328 25.55 4.50494 25.5617 4.50827C25.5817 4.51495 25.6017 4.52329 25.62 4.53329C25.6567 4.55493 25.6883 4.58495 25.7167 4.61662C25.7717 4.6816 25.81 4.75828 25.84 4.83829C25.855 4.87828 25.8683 4.91829 25.8783 4.95994C25.8883 5.00162 25.8967 5.04161 25.9033 5.08329C25.91 5.12494 25.915 5.16662 25.9184 5.20827C25.9217 5.24995 25.9233 5.29329 25.9233 5.33494C25.9233 5.37662 25.9217 5.41996 25.9184 5.46161C25.915 5.50329 25.91 5.54494 25.9033 5.58662C25.8967 5.62827 25.8883 5.66995 25.8783 5.70993C25.8683 5.75161 25.855 5.7916 25.84 5.83162C25.81 5.90996 25.7717 5.98661 25.7167 6.05328C25.6883 6.08496 25.6567 6.11494 25.62 6.13661C25.6017 6.14662 25.5817 6.15496 25.5617 6.16161C25.55 6.16493 25.5383 6.16663 25.5267 6.16829C25.8283 6.14662 26.0684 5.78329 26.0684 5.3366C26.0684 4.88662 25.8283 4.52163 25.5267 4.50162Z" fill="url(#paint20_radial_88_39)"/>
<path d="M26.8094 16.1466C26.7951 16.5202 26.7771 16.895 26.7592 17.2702C26.6227 17.2558 26.4827 17.1791 26.3176 17.05C26.0699 16.8556 25.815 16.5483 25.5565 16.2791L25.1042 16.7682C25.334 17.0063 25.6032 17.3378 25.9299 17.5976C26.1561 17.7756 26.4361 17.923 26.7412 17.9477C26.7017 19.372 26.7269 20.7922 26.9889 22.1707C26.5976 22.7175 26.2853 23.3478 26.0555 24.001C26.0196 24.1035 25.9873 24.206 25.9514 24.3086C25.4704 24.0807 24.957 23.7162 24.458 23.2909C23.9662 21.9998 23.9339 20.6859 24.6375 19.6568C24.9893 19.429 25.1617 18.9824 25.2119 18.5249L24.5693 18.4455C24.5334 18.8002 24.3396 19.0645 24.2498 19.0948C24.2426 19.0986 24.2355 19.0986 24.2283 19.1024L24.2247 19.0986C24.2247 19.1024 24.2211 19.1024 24.2211 19.1062C24.1852 19.1138 24.1457 19.1024 24.0596 19.0417C23.9519 18.9634 23.7975 18.7774 23.6324 18.4459L23.058 18.7618C23.2518 19.1556 23.4564 19.429 23.6898 19.6037C23.7436 19.6417 23.7975 19.672 23.8513 19.6986C23.4385 20.5378 23.3703 21.4872 23.5462 22.4327C23.5139 22.4023 23.4852 22.3681 23.4529 22.3378C22.5661 21.4074 21.8984 20.5074 21.421 20.0556C21.3887 19.6796 21.3671 19.3758 21.3887 19.1252C21.421 18.7178 21.5215 18.4501 21.8518 18.1109L21.3994 17.6219C20.983 18.0532 20.7856 18.5393 20.7425 19.0683C20.7173 19.4214 20.7461 19.8163 20.7891 20.2454C20.0245 19.7935 19.3051 19.4404 18.4033 19.2012L18.2475 19.8657C19.1486 20.1049 19.8375 20.4543 20.642 20.9441C20.8897 21.1758 21.6938 22.2011 22.6451 23.1997C23.5139 24.1111 24.5406 25.049 25.6894 25.5085C25.5745 26.4085 25.6571 27.3009 26.0448 28.0527C25.815 28.3072 25.614 28.5768 25.4381 28.8578C25.3411 29.0135 25.255 29.1692 25.1724 29.3286C24.3755 29.0362 23.3021 28.3185 22.4154 27.5135C22.3902 27.4907 22.3651 27.4641 22.3364 27.4414C22.3472 27.168 22.4513 26.8452 22.6164 26.53C22.8246 26.1313 23.1262 25.7554 23.3918 25.5009L22.9574 24.9921C22.6379 25.2997 22.3005 25.7212 22.0528 26.1958C21.9379 26.4161 21.8374 26.6477 21.7728 26.887C21.5179 26.6211 21.2881 26.3591 21.1015 26.1199C20.7676 25.687 20.5773 25.2769 20.563 25.1895C20.3009 23.7238 20.1789 23.2491 19.1259 21.7378L18.2008 22.4593C18.4586 22.8276 18.6474 23.1086 18.7906 23.3403C18.2945 23.3972 17.7492 23.2567 17.4344 22.9529L17 23.4618C17.5579 23.9972 18.3825 24.1567 19.1162 23.9782C19.2516 24.3352 19.3047 24.7073 19.4322 25.4174C19.4422 25.4743 19.4551 25.5275 19.4699 25.5845H19.4329C18.7181 25.6149 18.0852 26.025 17.5966 26.5946L18.0748 27.054C18.5803 26.4655 19.1184 26.1503 19.7861 26.287C19.906 26.4844 20.0496 26.6781 20.2112 26.887C20.6025 27.392 21.1051 27.9274 21.6651 28.4363C22.0564 28.7894 22.4728 29.1312 22.8964 29.4388C22.1354 29.7463 21.0081 29.9134 20.1501 29.7615L20.0424 30.4337C20.4589 30.5096 20.904 30.5324 21.3456 30.502C21.2989 30.6805 21.2953 30.8666 21.3276 31.0374C21.3994 31.421 21.64 31.7475 21.963 31.9792L22.3256 31.4172C22.1174 31.2653 21.9918 31.0678 21.9595 30.9007C21.9271 30.7336 21.9523 30.5856 22.1318 30.4033C22.6595 30.297 23.1549 30.1223 23.557 29.8793C23.9411 30.1109 24.3288 30.3083 24.7093 30.4488C24.3073 31.6868 24.2426 32.9019 24.2175 33.6614H25.3663C25.3986 32.6247 25.5314 30.9159 26.3966 29.5299C26.7484 28.9679 27.2079 28.4477 27.8505 28.0375C28.6977 28.2122 29.5234 28.4059 30.2773 28.6831C30.2127 29.0476 29.9937 29.2337 29.7316 29.5527C29.5952 29.7236 29.448 29.9324 29.3798 30.2096C29.308 30.4868 29.3188 30.8172 29.4336 31.1931L30.0511 30.9881C29.9614 30.6995 29.9685 30.5248 30.0008 30.3881C30.0367 30.2514 30.1085 30.1375 30.2234 30.0008C30.4173 29.7615 30.7547 29.4539 30.884 28.9375C31.2501 29.1084 31.5948 29.3059 31.9107 29.5451L32.284 28.9869C31.2789 28.2274 30.0762 27.8401 28.8377 27.5553C29.649 27.2591 30.665 27.1072 31.9573 27.1528C32.1512 27.5895 32.5353 27.9768 33.0056 28.292L33.3538 27.7148C32.7328 27.2971 32.4384 26.8072 32.4671 26.4768C32.4851 26.3098 32.5712 26.1389 32.8046 25.949C33.0415 25.7591 33.4292 25.5655 34 25.4174L33.842 24.7529C33.2174 24.9161 32.7507 25.1326 32.4097 25.406C32.223 25.5617 32.0686 25.7402 31.9717 25.9338C31.7958 25.93 31.6343 25.9262 31.4727 25.93C30.9917 25.9338 30.5393 25.968 30.1121 26.025C30.8229 25.1136 31.2537 24.0541 31.4081 22.8732L30.7727 22.7782C30.7045 23.2719 30.5896 23.7352 30.4173 24.1757C30.2198 24.1529 30.0439 24.0655 29.8931 23.9402C29.6849 23.7618 29.5377 23.4997 29.4947 23.2681L28.8593 23.4048C28.9382 23.8111 29.1608 24.1946 29.4875 24.4719C29.667 24.6237 29.8896 24.7453 30.1229 24.8098C29.8429 25.3338 29.4731 25.8123 29.0136 26.2566C28.2059 26.4806 27.5238 26.8186 26.953 27.2287C26.7125 26.4958 26.7735 25.444 27.1289 24.4263C27.5094 23.3478 28.2023 22.3681 28.9203 21.8935C29.0962 21.9732 29.2936 22.0112 29.4839 22.0226C29.8788 22.0454 30.2988 21.9732 30.6937 21.8707C31.4871 21.6694 32.1871 21.3429 32.1871 21.3429L31.9286 20.7163C31.9286 20.7163 31.2645 21.0239 30.5429 21.2062C30.1839 21.2973 29.8106 21.358 29.5198 21.3391C29.2326 21.3239 29.0711 21.2441 28.9957 21.1226C28.967 21.0732 28.9526 20.9783 29.0172 20.796C29.0818 20.61 29.2182 20.3783 29.3726 20.1619C29.6778 19.7328 30.0403 19.372 30.0403 19.372L29.6024 18.8723C29.6024 18.8723 29.2039 19.2619 28.8557 19.7518C28.6798 19.9986 28.5146 20.2682 28.4141 20.5568C28.3818 20.6479 28.3567 20.7429 28.3423 20.8416C28.0515 21.0239 27.7787 21.2479 27.531 21.5061C27.2869 19.8163 27.3766 18.008 27.452 16.1777L26.8094 16.1466Z" fill="#582F91"/>
<path d="M44.5621 25.3738C44.2725 25.244 43.9361 25.3793 43.8101 25.6777C43.7885 25.7273 43.4106 26.5706 42.5245 27.0487C42.789 26.6638 42.9982 26.2883 43.1621 25.9405C43.9418 24.287 43.9132 22.8878 43.9116 22.829C43.9028 22.5038 43.6401 22.2457 43.324 22.2566C43.0083 22.2657 42.7595 22.5367 42.7683 22.862C42.7693 22.8964 42.8014 25.3805 40.6762 27.4415C39.831 26.4041 39.9349 24.9652 39.9366 24.9439C39.9642 24.6207 39.7328 24.3351 39.419 24.3054C39.1039 24.2756 38.8261 24.5144 38.7974 24.8386C38.7902 24.9197 38.6428 26.762 39.7857 28.1807C39.2388 28.5693 38.591 28.9254 37.8252 29.2256C37.7474 28.1222 37.4829 26.9104 36.903 25.6614C36.6697 25.1588 36.4544 24.6711 36.2558 24.1996C38.3092 23.2635 39.2091 21.6436 39.6022 20.3999C39.6044 20.3929 39.6063 20.3859 39.6085 20.379C41.5198 20.346 42.6331 18.7822 42.8937 17.9005C42.9857 17.5892 42.8159 17.2585 42.5137 17.1638C42.2113 17.0686 41.8924 17.243 41.8005 17.5542C41.7798 17.6217 41.3176 19.0683 39.8748 19.1926C39.9981 18.326 39.9393 17.7046 39.9357 17.6681C39.9032 17.345 39.6238 17.1112 39.3095 17.1434C38.9959 17.176 38.7671 17.4647 38.7978 17.788C38.7988 17.7986 38.8943 18.8629 38.5018 20.0747C38.3857 20.4334 38.239 20.7655 38.0652 21.0735C37.3859 20.5567 37.0303 19.1784 36.9522 18.6622C36.9039 18.3409 36.6127 18.1204 36.3003 18.1698C35.9882 18.2191 35.7738 18.5198 35.8217 18.8415C35.8612 19.1066 36.1946 21.1085 37.3721 22.0141C36.9439 22.4648 36.424 22.8312 35.8146 23.1115C34.2941 19.2064 33.9785 16.6651 33.9749 16.6347C33.9369 16.3119 33.6525 16.0821 33.339 16.1205C33.0254 16.1593 32.8017 16.4527 32.8393 16.7758C32.8575 16.932 33.3147 20.6643 35.871 26.17C36.6408 27.828 36.8787 29.6145 36.5778 31.4801C36.5723 31.5138 36.5667 31.5472 36.561 31.5803C36.5466 31.534 36.5316 31.4873 36.5162 31.4403C36.0614 30.0584 35.036 28.0714 32.734 26.4524C32.5545 26.3262 32.382 26.1927 32.2148 26.0539C32.884 25.4451 33.234 24.5521 33.234 23.4349C33.234 22.4676 32.9653 21.6622 32.9539 21.6284C32.8499 21.3212 32.5236 21.159 32.2256 21.266C31.9274 21.3732 31.7699 21.709 31.8739 22.0163C31.8817 22.0397 32.6065 24.2395 31.37 25.2432C30.4866 24.2601 29.8359 23.0492 29.4285 21.6244C28.977 20.046 29.0097 18.7843 29.0101 18.7728C29.0211 18.4475 28.774 18.1747 28.4584 18.1635C28.1423 18.1509 27.8779 18.4067 27.867 18.7319C27.8651 18.7896 27.8251 20.1634 28.3195 21.9157C28.9777 24.249 30.2813 26.1544 32.0893 27.4259C32.0984 27.4323 32.1071 27.4391 32.1162 27.4455C31.6685 27.4337 31.1323 27.3817 30.5728 27.2426C28.7081 26.7787 27.5079 25.5911 27.0056 23.7127C26.9217 23.399 26.6068 23.2148 26.3023 23.3011C25.9978 23.3875 25.819 23.7119 25.9029 24.0256C26.5153 26.3157 28.0373 27.8241 30.3044 28.388C31.0546 28.5746 31.7659 28.6267 32.3265 28.6267C32.8689 28.6267 33.2695 28.578 33.4284 28.555C34.0268 29.1618 34.5187 29.8326 34.9015 30.5634C34.0689 30.773 31.6895 31.1737 29.7994 29.556C29.5566 29.3481 29.196 29.3824 28.9941 29.6327C28.7923 29.883 28.8257 30.2544 29.0686 30.4624C30.4499 31.6448 32.002 31.953 33.2452 31.953C34.2268 31.953 35.0154 31.7609 35.3756 31.6549C35.3889 31.6928 35.4034 31.7299 35.4162 31.768C35.8558 33.0751 35.8142 34.0616 35.8138 34.0694C35.7986 34.3458 35.9723 34.5959 36.2312 34.6702C36.2822 34.6849 36.3338 34.692 36.3848 34.692C36.5924 34.692 36.7891 34.575 36.8901 34.3786C36.9103 34.3392 37.035 34.0912 37.1882 33.6775C40.498 33.5567 42.6382 31.5573 42.7347 31.4654C42.9663 31.2449 42.9805 30.8734 42.7671 30.6343C42.5537 30.3953 42.1922 30.3796 41.9595 30.599C41.94 30.6174 40.2052 32.2222 37.552 32.4714C37.688 31.9017 37.8009 31.2259 37.838 30.4741C39.2758 29.9678 40.3663 29.2847 41.1928 28.5519C41.1978 28.5519 41.2029 28.5519 41.2079 28.5519C43.8135 28.5519 44.816 26.2494 44.8576 26.1509C44.9837 25.8522 44.8517 25.5036 44.5621 25.3738Z" fill="#EBB521"/>
<path d="M44.562 25.3738C44.2725 25.244 43.9361 25.3793 43.8101 25.6777C43.7885 25.7274 43.4106 26.5706 42.5245 27.0487C42.7889 26.6638 42.9981 26.2883 43.1621 25.9405C43.9417 24.287 43.9132 22.8878 43.9116 22.829C43.9028 22.5038 43.6401 22.2457 43.3239 22.2566C43.0082 22.2657 42.7595 22.5367 42.7683 22.862C42.7693 22.8964 42.8014 25.3805 40.6761 27.4415C39.831 26.4042 39.9349 24.9652 39.9365 24.9439C39.9642 24.6207 39.7328 24.3351 39.419 24.3055C39.1039 24.2756 38.8261 24.5144 38.7973 24.8386C38.7902 24.9197 38.6428 26.762 39.7857 28.1808C39.2388 28.5693 38.591 28.9254 37.8252 29.2256C37.7474 28.1222 37.4829 26.9104 36.903 25.6614C36.6696 25.1588 36.4544 24.6711 36.2557 24.1996C38.3092 23.2635 39.2091 21.6436 39.6021 20.3999C39.6043 20.3929 39.6063 20.3859 39.6085 20.379C41.5198 20.346 42.6331 18.7822 42.8937 17.9005C42.9857 17.5892 42.8158 17.2585 42.5137 17.1638C42.2113 17.0686 41.8924 17.243 41.8004 17.5542C41.7797 17.6217 41.3176 19.0683 39.8747 19.1926C39.9981 18.326 39.9393 17.7046 39.9357 17.6681C39.9032 17.345 39.6237 17.1112 39.3095 17.1434C38.9958 17.176 38.767 17.4647 38.7978 17.788C38.7988 17.7987 38.8942 18.8629 38.5017 20.0747C38.3856 20.4334 38.2389 20.7655 38.0652 21.0735C37.3858 20.5567 37.0303 19.1785 36.9522 18.6622C36.9039 18.3409 36.6127 18.1204 36.3003 18.1698C35.9881 18.2191 35.7738 18.5198 35.8217 18.8415C35.8611 19.1066 36.1946 21.1085 37.3721 22.0141C36.9439 22.4648 36.424 22.8312 35.8146 23.1115C35.6303 22.6383 35.4639 22.1853 35.3134 21.7542V24.9219C35.4872 25.3267 35.6727 25.743 35.871 26.17C36.6409 27.828 36.8787 29.6145 36.5778 31.4801C36.5723 31.5138 36.5668 31.5472 36.5611 31.5803C36.5466 31.5341 36.5317 31.4873 36.5162 31.4403C36.2883 30.7477 35.9169 29.9032 35.3134 29.0291V31.6728C35.3351 31.6666 35.3563 31.6606 35.3755 31.655C35.3889 31.6928 35.4033 31.7299 35.4162 31.768C35.8558 33.0751 35.8142 34.0616 35.8137 34.0694C35.7986 34.3458 35.9722 34.5959 36.2311 34.6703C36.2822 34.6849 36.3338 34.692 36.3847 34.692C36.5923 34.692 36.789 34.575 36.89 34.3786C36.9103 34.3393 37.035 34.0913 37.1881 33.6775C40.498 33.5567 42.6382 31.5573 42.7347 31.4654C42.9662 31.2449 42.9804 30.8734 42.767 30.6343C42.5537 30.3953 42.1922 30.3796 41.9595 30.599C41.9399 30.6174 40.2052 32.2222 37.552 32.4715C37.688 31.9018 37.8009 31.2259 37.8379 30.4741C39.2757 29.9678 40.3663 29.2847 41.1928 28.5519C41.1978 28.5519 41.2028 28.5519 41.2078 28.5519C43.8135 28.5519 44.8159 26.2494 44.8576 26.1509C44.9837 25.8522 44.8516 25.5036 44.562 25.3738Z" fill="#E89145"/>
<g clip-path="url(#clip1_88_39)">
<path d="M12.5024 19.6348C13.1147 19.6348 13.611 20.102 13.611 20.6782V20.89L13.0543 21.4202L13.611 21.9334C13.611 22.5889 14.09 23.1411 14.7358 23.2962V19.0435C14.7358 18.4672 15.2323 18 15.8445 18C16.4568 18 16.9532 18.4672 16.9532 19.0435V20.89L16.405 21.4202L16.9532 21.9334V22.9769L16.3557 23.5072L16.9532 24.0204V26.1073C16.9532 26.6067 16.841 27.0819 16.6396 27.512C17.4303 27.4766 18.0619 26.8601 18.0619 26.1073L18.5978 25.6174L18.0619 25.0639V22.7652C18.0619 22.1889 18.5583 21.7217 19.1706 21.7217C19.7829 21.7217 20.2793 22.1889 20.2793 22.7652V23.0434L19.7065 23.5767L20.2793 24.0869V26.1073C20.2793 28.0336 18.6142 29.6007 16.5676 29.6007L16.0108 29.1188L15.4589 29.6007H13.6086L13.6086 29.5836C13.6073 29.5837 13.606 29.5838 13.6047 29.584L12.4383 28.5159L13.6028 27.4719C14.2527 27.3194 14.7358 26.7656 14.7358 26.1073L15.2964 25.6406L14.7358 25.4096C12.8621 25.2345 11.3937 23.7423 11.3937 21.9335V20.6782C11.3937 20.102 11.8901 19.6348 12.5024 19.6348Z" fill="#FB5858"/>
<path d="M5.82938 23.8087C6.44168 23.8087 6.93806 24.2759 6.93806 24.8522L6.32829 25.4087L6.93806 25.8957V28.1944C6.93806 28.9472 7.56972 29.5636 8.36042 29.599C8.15894 29.1689 8.04678 28.6938 8.04678 28.1944V25.8957L8.54569 25.4087L8.04678 24.8522V23.8087L8.57033 23.3449L8.04678 22.7652C8.04678 22.1889 8.54317 21.7218 9.15547 21.7218C9.76777 21.7218 10.2642 22.1889 10.2642 22.7652V27.1508L9.70362 27.6811L10.2642 28.1943C10.2642 28.8493 10.7423 29.4011 11.3874 29.5568L11.3852 27.0442C11.3852 26.4679 11.8815 26.0008 12.4938 26.0008C13.1061 26.0008 13.6025 26.4679 13.6025 27.0442L13.6029 27.472L13.6029 27.5138C13.6025 27.5138 13.6031 27.7151 13.6031 27.7151L13.6048 29.584V29.6007H13.6087L12.9312 30.1391L13.6087 30.6442H13.6057L13.6066 31.6701H13.6087L13.0297 32.2261L13.6087 32.7136H13.6075L13.6087 34H11.3913L11.3892 31.6877H9.54106L9.01379 31.1826L8.4324 31.6877C6.38576 31.6877 4.72066 30.1206 4.72066 28.1943L5.24421 27.6811L4.72066 27.1508V24.8522C4.72066 24.2759 5.21708 23.8087 5.82938 23.8087Z" fill="#F72349"/>
<path d="M12.5 31.6702H13.6087V32.7137H12.5V31.6702Z" fill="#FB5858"/>
<path d="M8.43257 30.6442H9.54126V31.6876H8.43257V30.6442Z" fill="#FB5858"/>
<path d="M8.04677 22.7652H9.15546V23.8087H8.04677V22.7652Z" fill="#FB5858"/>
<path d="M8.04677 24.8522H9.15546V25.8957H8.04677V24.8522Z" fill="#FB5858"/>
<path d="M5.82936 24.8522H6.93805V25.8957H5.82936V24.8522Z" fill="#FB5858"/>
<path d="M4.72072 27.151H5.82941V28.1944H4.72072V27.151Z" fill="#FB5858"/>
<path d="M9.15547 27.151H10.2642V28.1944H9.15547V27.151Z" fill="#FB5858"/>
<path d="M12.5 29.6007H13.6087V30.6441H12.5V29.6007Z" fill="#FB5858"/>
<path d="M15.4588 28.5572H16.5674V29.6007H15.4588V28.5572Z" fill="#F72349"/>
<path d="M18.062 25.064H19.1707V26.1075H18.062V25.064Z" fill="#F72349"/>
<path d="M12.5022 20.8901H13.6109V21.9336H12.5022V20.8901Z" fill="#F72349"/>
<path d="M15.8446 20.8901H16.9532V21.9336H15.8446V20.8901Z" fill="#F72349"/>
<path d="M15.8446 22.977H16.9532V24.0205H15.8446V22.977Z" fill="#F72349"/>
<path d="M14.7359 25.064H15.8445V26.1075H14.7359V25.064Z" fill="#F72349"/>
<path d="M19.1707 23.0435H20.2794V24.0869H19.1707V23.0435Z" fill="#F72349"/>
</g>
<g clip-path="url(#clip2_88_39)">
<path d="M6.2062 15.2608L6.8645 15.6611L6.58571 16.6494C6.46259 17.0858 5.95719 17.2846 5.5697 17.049C5.18221 16.8134 5.12618 16.2732 5.45704 15.9631L6.2062 15.2608Z" fill="#EA8518"/>
<path d="M7.04572 13.4291L7.13976 12.951C7.13976 12.951 5.56248 12.5435 4.51992 13.8005" fill="#EA8518"/>
<path d="M4.43186 13.8781L3.60118 14.0805C3.36381 14.1384 3.21829 14.3777 3.27614 14.6151L3.34862 14.9125" fill="#EA8518"/>
<path d="M5.02865 16.3266L4.19797 16.529C3.9606 16.5869 3.72128 16.4413 3.66342 16.204L3.59094 15.9066" fill="#EA8518"/>
<path d="M8.57253 14.1659C8.34541 14.8478 7.93367 15.3921 7.42038 15.7781C7.3943 15.7979 7.36775 15.8171 7.34112 15.8359C7.31477 15.8546 7.28798 15.8728 7.26107 15.8906C7.17927 15.945 7.09537 15.9957 7.00949 16.0424C6.97458 16.0614 6.93935 16.0799 6.90393 16.0975C6.88379 16.1075 6.86361 16.1173 6.84335 16.1268C6.76561 16.1638 6.68661 16.1976 6.60651 16.2284C6.48872 16.2737 6.36829 16.3124 6.24622 16.3444C6.22278 16.3506 6.19927 16.3565 6.17567 16.3621C6.14038 16.3705 6.10513 16.3784 6.06957 16.3857C5.74249 16.4527 5.40522 16.4716 5.06996 16.4396C5.04026 16.4368 5.0106 16.4335 4.98086 16.4299C4.94636 16.4255 4.91179 16.4209 4.87734 16.4154C4.65155 16.3804 4.42757 16.3216 4.2093 16.2382C4.17079 16.2236 4.1324 16.2082 4.09433 16.192C4.06309 16.1788 4.03205 16.1649 4.00126 16.1507C3.86998 16.0899 3.74119 16.0197 3.61602 15.9401C3.58227 15.9186 3.54888 15.8965 3.51581 15.8737C3.47382 15.8449 3.43224 15.8149 3.39118 15.7837C3.28028 15.6999 3.17278 15.6078 3.06949 15.5072C3.11494 15.3705 3.168 15.2392 3.22786 15.1136C3.24994 15.067 3.27305 15.0211 3.29704 14.9761C3.31589 14.9406 3.33537 14.9056 3.3555 14.8712C3.42998 14.7428 3.5119 14.6214 3.60065 14.507C3.62141 14.4801 3.64265 14.4537 3.66428 14.4275C3.69059 14.3955 3.71758 14.3641 3.74504 14.3333C3.90032 14.159 4.07231 14.0039 4.25675 13.8691C4.28484 13.8485 4.31336 13.8283 4.34203 13.8088C4.36661 13.7919 4.39159 13.7753 4.41665 13.759C4.69933 13.5761 5.00763 13.4376 5.3289 13.3467C5.36383 13.3369 5.39873 13.3275 5.43394 13.3188L5.45029 13.3148C5.46839 13.3104 5.48654 13.3061 5.50472 13.302C5.62793 13.274 5.75237 13.2532 5.87798 13.2392C5.96327 13.2298 6.04899 13.2235 6.13497 13.2204C6.15734 13.2195 6.17978 13.219 6.20226 13.2186C6.24183 13.2179 6.28159 13.2181 6.32134 13.2189C6.41909 13.2209 6.51686 13.2271 6.61451 13.2378C6.64657 13.2412 6.67875 13.245 6.71073 13.2495C6.74306 13.254 6.77551 13.259 6.80776 13.2645C7.33828 13.3539 7.8565 13.5745 8.31347 13.9381L8.18987 14.1414C8.14879 14.2089 8.17019 14.2967 8.23775 14.3378L8.27422 14.36L8.4572 14.0591C8.49631 14.0935 8.5347 14.1291 8.57253 14.1659Z" fill="#F9993A"/>
<path d="M1.64081 14.8397C1.60551 14.8437 1.5704 14.8488 1.5354 14.8544L2.00773 16.7924C2.04142 16.7813 2.07493 16.7696 2.10807 16.7569C2.67353 16.5397 3.15239 16.0846 3.36883 15.4341C2.87733 14.9561 2.24277 14.7724 1.64081 14.8397Z" fill="#F9993A"/>
<path d="M7.70094 14.8002C7.92085 14.7466 8.05568 14.5248 8.00208 14.3049C7.94848 14.085 7.72675 13.9502 7.50684 14.0038C7.28692 14.0574 7.15209 14.2791 7.20569 14.499C7.25929 14.7189 7.48102 14.8538 7.70094 14.8002Z" fill="white"/>
<path d="M7.66327 14.6456C7.79782 14.6128 7.88031 14.4771 7.84751 14.3426C7.81472 14.208 7.67907 14.1256 7.54452 14.1584C7.40997 14.1911 7.32749 14.3268 7.36028 14.4613C7.39307 14.5959 7.52873 14.6784 7.66327 14.6456Z" fill="#4D4D4D"/>
<path d="M6.71064 13.2495L7.34102 15.8359C7.20165 15.9345 7.05541 16.0219 6.90379 16.0975L6.20215 13.2187C6.37158 13.216 6.54158 13.2261 6.71064 13.2495Z" fill="#E6E6E6"/>
<path d="M3.66436 14.4275L4.09439 16.1919C3.89506 16.1072 3.70117 16.0014 3.51585 15.8737L3.29705 14.976C3.4031 14.7773 3.52631 14.5942 3.66436 14.4275Z" fill="#E6E6E6"/>
<path d="M5.43393 13.3188L6.17566 16.3621C5.78692 16.4549 5.38172 16.4791 4.9809 16.4298L4.34207 13.8087C4.67495 13.5803 5.04608 13.4153 5.43393 13.3188Z" fill="#E6E6E6"/>
<path d="M6.80775 13.2645L7.42037 15.7781C7.39429 15.7979 7.36774 15.8171 7.3411 15.8359C7.31475 15.8546 7.28797 15.8728 7.26106 15.8906L6.6145 13.2378C6.64656 13.2412 6.67874 13.245 6.71071 13.2495C6.74305 13.254 6.7755 13.259 6.80775 13.2645Z" fill="#666464"/>
<path d="M6.32132 13.2189L7.00947 16.0424C6.97456 16.0614 6.93933 16.0799 6.9039 16.0975C6.88376 16.1075 6.86358 16.1173 6.84333 16.1268L6.13495 13.2204C6.15731 13.2195 6.17976 13.219 6.20224 13.2186C6.2418 13.2179 6.28156 13.2181 6.32132 13.2189Z" fill="#666464"/>
<path d="M5.50468 13.302L6.24618 16.3443C6.22274 16.3506 6.19923 16.3565 6.17563 16.362C6.14034 16.3705 6.10509 16.3784 6.06953 16.3857L5.32885 13.3467C5.36379 13.3369 5.39869 13.3275 5.4339 13.3187L5.45025 13.3148C5.46835 13.3104 5.4865 13.3061 5.50468 13.302Z" fill="#666464"/>
<path d="M4.41661 13.759L5.06993 16.4396C5.04022 16.4368 5.01056 16.4335 4.98082 16.4299C4.94633 16.4256 4.91176 16.4209 4.87731 16.4154L4.25672 13.8691C4.2848 13.8485 4.31332 13.8283 4.342 13.8088C4.36658 13.7919 4.39156 13.7753 4.41661 13.759Z" fill="#666464"/>
<path d="M3.74504 14.3333L4.2093 16.2382C4.17079 16.2236 4.1324 16.2082 4.09433 16.192C4.06309 16.1788 4.03205 16.1649 4.00126 16.1507L3.60065 14.507C3.62141 14.4801 3.64265 14.4537 3.66428 14.4275C3.69059 14.3955 3.71758 14.3641 3.74504 14.3333Z" fill="#666464"/>
<path d="M3.35552 14.8712L3.61604 15.9401C3.58228 15.9186 3.54889 15.8965 3.51583 15.8737C3.47384 15.8449 3.43226 15.8149 3.3912 15.7837L3.22788 15.1136C3.24996 15.067 3.27307 15.0211 3.29706 14.9761C3.31591 14.9406 3.33539 14.9056 3.35552 14.8712Z" fill="#666464"/>
<path d="M6.37772 14.7785L6.53692 15.4317L5.75511 15.8695C5.40981 16.0628 4.97532 15.8736 4.88161 15.4892C4.7879 15.1047 5.08663 14.7368 5.48216 14.7496L6.37772 14.7785Z" fill="#F9993A"/>
</g>
<path d="M9.44504 7.71143C9.93883 7.45741 10.5062 7.382 11.0503 7.49924L14.1223 8.13028L15.9034 6.50522L10.4221 6.54637C10.0556 6.54936 9.73424 6.79211 9.6317 7.14407L9.44504 7.71143Z" fill="#61ACD2"/>
<path d="M10.3738 10.6087C10.8253 10.9133 12.0584 11.6351 13.3908 11.4708L12.2317 10.511C11.6391 10.6059 11.0051 10.6535 10.3738 10.6087Z" fill="#61ACD2"/>
<path d="M13.2089 10.308C13.6494 10.5225 14.6765 10.976 15.5517 11.011L14.36 9.95673C14.0381 10.0717 13.6462 10.1972 13.2089 10.308Z" fill="#61ACD2"/>
<path d="M7 8.98799C7.48574 9.61856 8.07586 10.0383 8.71471 10.3038C9.24459 10.5238 9.80781 10.6379 10.3736 10.6776H10.3738C11.0051 10.7225 11.6391 10.6749 12.2317 10.5799C12.574 10.5252 12.9025 10.4547 13.209 10.377C13.6462 10.2662 14.0382 10.1406 14.36 10.0257C14.926 9.82385 15.2759 9.65465 15.2759 9.65465V9.65442L17 11.1257L16.1954 8.97649L17 6.82707L15.2759 8.29834L14.1223 8.06133L11.0504 7.43029C10.5062 7.31305 9.93885 7.38846 9.44506 7.64248C9.42529 7.65283 8.96391 7.90662 8.96391 7.90662L7 8.98799Z" fill="#F4A026"/>
<path d="M8.96393 7.9066L9.00002 7.93051L9.53756 8.41338H11.8736C11.9751 8.41338 12.0575 8.49572 12.0575 8.59728C12.0575 8.69885 11.9751 8.78119 11.8736 8.78119H9.94699L10.3563 9.14889L9.83387 9.51682H12.2644C12.366 9.51682 12.4483 9.59916 12.4483 9.70072C12.4483 9.80228 12.366 9.88463 12.2644 9.88463H9.32188C9.31864 9.88463 9.31549 9.88432 9.31229 9.88414L8.72418 10.2983L8.71475 10.3038C8.0759 10.0383 7.48578 9.61851 7.00004 8.98795L8.96393 7.9066Z" fill="#61ACD2"/>
<path d="M8.67815 8.99402C8.57659 8.99402 8.49425 8.91168 8.49425 8.81011C8.49425 8.70854 8.57659 8.62621 8.67815 8.62621C8.77972 8.62621 8.86206 8.70854 8.86206 8.81011C8.86206 8.91168 8.77972 8.99402 8.67815 8.99402Z" fill="#495577"/>
<path d="M19 24.8497V21.3828L20.6825 23.1163L19 24.8497Z" fill="#F99B2B"/>
<path d="M23.9634 23.2336C23.9004 23.2336 23.8494 23.181 23.8494 23.1162C23.8494 23.0514 23.9004 22.9988 23.9634 22.9988H24.3188L20.4329 18.9952V27.2374L24.3188 23.2336H23.9634Z" fill="#F9D43A"/>
<path d="M23.1604 23.5078C23.3703 23.5078 23.5405 23.3325 23.5405 23.1163C23.5405 22.9 23.3703 22.7247 23.1604 22.7247C22.9505 22.7247 22.7804 22.9 22.7804 23.1163C22.7804 23.3325 22.9505 23.5078 23.1604 23.5078Z" fill="white"/>
<path d="M23.1604 23.3559C23.2888 23.3559 23.3929 23.2486 23.3929 23.1163C23.3929 22.984 23.2888 22.8767 23.1604 22.8767C23.032 22.8767 22.9279 22.984 22.9279 23.1163C22.9279 23.2486 23.032 23.3559 23.1604 23.3559Z" fill="#4D4D4D"/>
<path d="M20.7371 19.3086L21.4122 20.0042L21.1366 21.5517L20.7371 19.3086Z" fill="#F99B2B"/>
<path d="M22.2916 20.9102L22.1079 21.9407L21.8419 20.4468L22.2916 20.9102Z" fill="#F99B2B"/>
<path d="M21.1366 24.6809L21.4122 26.2284L20.7371 26.924L21.1366 24.6809Z" fill="#F99B2B"/>
<path d="M22.2916 25.3224L21.8419 25.7858L22.1079 24.2917L22.2916 25.3224Z" fill="#F99B2B"/>
<path d="M31.6677 15.7668C32.1292 15.4498 31.9754 14.8158 31.9754 14.8158C31.0523 14.8158 30.7446 15.7668 30.7446 15.7668C30.7446 15.7668 31.0523 16.7178 31.9754 16.7178C31.9754 16.7178 32.1292 16.0838 31.6677 15.7668Z" fill="#91DC5A"/>
<path d="M27.6923 14.4987C27.6923 14.4987 28 13.7062 29.3846 13.8647V14.8158L27.6923 14.4987Z" fill="#64C37D"/>
<path d="M27.6923 17.0348C27.6923 17.0348 28 17.8274 29.3846 17.6688V16.7178L27.6923 17.0348Z" fill="#64C37D"/>
<path d="M31.0769 15.7668C31.0769 15.7668 30.1538 17.1933 28.6154 17.1933C26.6154 17.1933 26 15.7668 26 15.7668C26 15.7668 26.6154 14.3402 28.6154 14.3402C30.1538 14.3402 31.0769 15.7668 31.0769 15.7668Z" fill="#C2FB3B"/>
<path d="M28.9231 14.3597C28.8234 14.3472 28.7209 14.3402 28.6154 14.3402C26.6154 14.3402 26 15.7668 26 15.7668C26 15.7668 26.6154 17.1933 28.6154 17.1933C28.7209 17.1933 28.8234 17.1864 28.9231 17.1739V14.3597Z" fill="#91DC5A"/>
<path d="M27.3846 16.2423C27.6395 16.2423 27.8462 16.0294 27.8462 15.7668C27.8462 15.5042 27.6395 15.2913 27.3846 15.2913C27.1297 15.2913 26.9231 15.5042 26.9231 15.7668C26.9231 16.0294 27.1297 16.2423 27.3846 16.2423Z" fill="#FFF6D2"/>
<path d="M27.3846 16.0045C27.5121 16.0045 27.6154 15.8981 27.6154 15.7668C27.6154 15.6355 27.5121 15.529 27.3846 15.529C27.2572 15.529 27.1539 15.6355 27.1539 15.7668C27.1539 15.8981 27.2572 16.0045 27.3846 16.0045Z" fill="black"/>
<path d="M29.6923 15.7668C29.6923 16.2045 29.3479 16.5593 28.9231 16.5593V15.7668C28.9231 15.7668 29.326 15.7668 29.6923 15.7668Z" fill="#64C37D"/>
<defs>
<linearGradient id="paint0_linear_88_39" x1="24.2234" y1="0.24134" x2="29.4972" y2="8.56441" gradientUnits="userSpaceOnUse">
<stop stop-color="#80DAFE" stop-opacity="0"/>
<stop offset="1" stop-color="#008EE6"/>
</linearGradient>
<radialGradient id="paint1_radial_88_39" cx="0" cy="0" r="1" gradientUnits="userSpaceOnUse" gradientTransform="translate(25.127 1.039) scale(3.4337)">
<stop offset="0.5839" stop-color="#FB9DC1" stop-opacity="0"/>
<stop offset="0.6244" stop-color="#F59EC3" stop-opacity="0.0730316"/>
<stop offset="0.6809" stop-color="#E2A0C8" stop-opacity="0.1749"/>
<stop offset="0.7469" stop-color="#C5A4D0" stop-opacity="0.2938"/>
<stop offset="0.82" stop-color="#9BAADB" stop-opacity="0.4256"/>
<stop offset="0.899" stop-color="#66B1E9" stop-opacity="0.568"/>
<stop offset="0.9818" stop-color="#26B9FA" stop-opacity="0.7172"/>
<stop offset="1" stop-color="#17BBFE" stop-opacity="0.75"/>
</radialGradient>
<radialGradient id="paint2_radial_88_39" cx="0" cy="0" r="1" gradientUnits="userSpaceOnUse" gradientTransform="translate(25.8226 2.32374) scale(3.81293)">
<stop stop-color="#D1F2FF" stop-opacity="0"/>
<stop offset="0.1913" stop-color="#CBF0FF" stop-opacity="0.1435"/>
<stop offset="0.458" stop-color="#B8EBFF" stop-opacity="0.3435"/>
<stop offset="0.7676" stop-color="#9BE2FE" stop-opacity="0.5757"/>
<stop offset="1" stop-color="#80DAFE" stop-opacity="0.75"/>
</radialGradient>
<radialGradient id="paint3_radial_88_39" cx="0" cy="0" r="1" gradientUnits="userSpaceOnUse" gradientTransform="translate(25.1003 1.63173) rotate(-33.2503) scale(0.738512 0.491021)">
<stop stop-color="white"/>
<stop offset="1" stop-color="white" stop-opacity="0"/>
</radialGradient>
<radialGradient id="paint4_radial_88_39" cx="0" cy="0" r="1" gradientUnits="userSpaceOnUse" gradientTransform="translate(25.8226 2.32374) scale(3.81293)">
<stop stop-color="#D1F2FF" stop-opacity="0"/>
<stop offset="0.1913" stop-color="#CBF0FF" stop-opacity="0.1435"/>
<stop offset="0.458" stop-color="#B8EBFF" stop-opacity="0.3435"/>
<stop offset="0.7676" stop-color="#9BE2FE" stop-opacity="0.5757"/>
<stop offset="1" stop-color="#80DAFE" stop-opacity="0.75"/>
</radialGradient>
<linearGradient id="paint5_linear_88_39" x1="25.5983" y1="1.90597" x2="24.3518" y2="4.98208" gradientUnits="userSpaceOnUse">
<stop stop-color="#17BBFE" stop-opacity="0"/>
<stop offset="1" stop-color="#17BBFE" stop-opacity="0.75"/>
</linearGradient>
<radialGradient id="paint6_radial_88_39" cx="0" cy="0" r="1" gradientUnits="userSpaceOnUse" gradientTransform="translate(26.2514 1.56652) rotate(-1.44239) scale(1.08912 0.456021)">
<stop stop-color="white"/>
<stop offset="1" stop-color="white" stop-opacity="0"/>
</radialGradient>
<linearGradient id="paint7_linear_88_39" x1="22.1143" y1="2.40218" x2="25.8299" y2="8.26615" gradientUnits="userSpaceOnUse">
<stop stop-color="#80DAFE" stop-opacity="0"/>
<stop offset="1" stop-color="#008EE6"/>
</linearGradient>
<radialGradient id="paint8_radial_88_39" cx="0" cy="0" r="1" gradientUnits="userSpaceOnUse" gradientTransform="translate(22.751 2.96414) scale(2.4192)">
<stop offset="0.5839" stop-color="#FB9DC1" stop-opacity="0"/>
<stop offset="0.6244" stop-color="#F59EC3" stop-opacity="0.0730316"/>
<stop offset="0.6809" stop-color="#E2A0C8" stop-opacity="0.1749"/>
<stop offset="0.7469" stop-color="#C5A4D0" stop-opacity="0.2938"/>
<stop offset="0.82" stop-color="#9BAADB" stop-opacity="0.4256"/>
<stop offset="0.899" stop-color="#66B1E9" stop-opacity="0.568"/>
<stop offset="0.9818" stop-color="#26B9FA" stop-opacity="0.7172"/>
<stop offset="1" stop-color="#17BBFE" stop-opacity="0.75"/>
</radialGradient>
<radialGradient id="paint9_radial_88_39" cx="0" cy="0" r="1" gradientUnits="userSpaceOnUse" gradientTransform="translate(23.2411 3.8693) scale(2.68638)">
<stop stop-color="#D1F2FF" stop-opacity="0"/>
<stop offset="0.1913" stop-color="#CBF0FF" stop-opacity="0.1435"/>
<stop offset="0.458" stop-color="#B8EBFF" stop-opacity="0.3435"/>
<stop offset="0.7676" stop-color="#9BE2FE" stop-opacity="0.5757"/>
<stop offset="1" stop-color="#80DAFE" stop-opacity="0.75"/>
</radialGradient>
<radialGradient id="paint10_radial_88_39" cx="0" cy="0" r="1" gradientUnits="userSpaceOnUse" gradientTransform="translate(22.7321 3.3817) rotate(-33.2504) scale(0.520316 0.345949)">
<stop stop-color="white"/>
<stop offset="1" stop-color="white" stop-opacity="0"/>
</radialGradient>
<radialGradient id="paint11_radial_88_39" cx="0" cy="0" r="1" gradientUnits="userSpaceOnUse" gradientTransform="translate(23.2411 3.8693) scale(2.68638)">
<stop stop-color="#D1F2FF" stop-opacity="0"/>
<stop offset="0.1913" stop-color="#CBF0FF" stop-opacity="0.1435"/>
<stop offset="0.458" stop-color="#B8EBFF" stop-opacity="0.3435"/>
<stop offset="0.7676" stop-color="#9BE2FE" stop-opacity="0.5757"/>
<stop offset="1" stop-color="#80DAFE" stop-opacity="0.75"/>
</radialGradient>
<linearGradient id="paint12_linear_88_39" x1="23.083" y1="3.57493" x2="22.2047" y2="5.74219" gradientUnits="userSpaceOnUse">
<stop stop-color="#17BBFE" stop-opacity="0"/>
<stop offset="1" stop-color="#17BBFE" stop-opacity="0.75"/>
</linearGradient>
<radialGradient id="paint13_radial_88_39" cx="0" cy="0" r="1" gradientUnits="userSpaceOnUse" gradientTransform="translate(23.5431 3.33593) rotate(-1.44239) scale(0.767331 0.321288)">
<stop stop-color="white"/>
<stop offset="1" stop-color="white" stop-opacity="0"/>
</radialGradient>
<linearGradient id="paint14_linear_88_39" x1="24.7584" y1="4.16389" x2="27.7548" y2="8.89289" gradientUnits="userSpaceOnUse">
<stop stop-color="#80DAFE" stop-opacity="0"/>
<stop offset="1" stop-color="#008EE6"/>
</linearGradient>
<radialGradient id="paint15_radial_88_39" cx="0" cy="0" r="1" gradientUnits="userSpaceOnUse" gradientTransform="translate(25.2717 4.6172) scale(1.95099)">
<stop offset="0.5839" stop-color="#FB9DC1" stop-opacity="0"/>
<stop offset="0.6244" stop-color="#F59EC3" stop-opacity="0.0730316"/>
<stop offset="0.6809" stop-color="#E2A0C8" stop-opacity="0.1749"/>
<stop offset="0.7469" stop-color="#C5A4D0" stop-opacity="0.2938"/>
<stop offset="0.82" stop-color="#9BAADB" stop-opacity="0.4256"/>
<stop offset="0.899" stop-color="#66B1E9" stop-opacity="0.568"/>
<stop offset="0.9818" stop-color="#26B9FA" stop-opacity="0.7172"/>
<stop offset="1" stop-color="#17BBFE" stop-opacity="0.75"/>
</radialGradient>
<radialGradient id="paint16_radial_88_39" cx="0" cy="0" r="1" gradientUnits="userSpaceOnUse" gradientTransform="translate(25.667 5.34718) scale(2.16646)">
<stop stop-color="#D1F2FF" stop-opacity="0"/>
<stop offset="0.1913" stop-color="#CBF0FF" stop-opacity="0.1435"/>
<stop offset="0.458" stop-color="#B8EBFF" stop-opacity="0.3435"/>
<stop offset="0.7676" stop-color="#9BE2FE" stop-opacity="0.5757"/>
<stop offset="1" stop-color="#80DAFE" stop-opacity="0.75"/>
</radialGradient>
<radialGradient id="paint17_radial_88_39" cx="0" cy="0" r="1" gradientUnits="userSpaceOnUse" gradientTransform="translate(25.2587 4.95629) rotate(-33.2462) scale(0.419595 0.278963)">
<stop stop-color="white"/>
<stop offset="1" stop-color="white" stop-opacity="0"/>
</radialGradient>
<radialGradient id="paint18_radial_88_39" cx="0" cy="0" r="1" gradientUnits="userSpaceOnUse" gradientTransform="translate(25.667 5.34718) scale(2.16646)">
<stop stop-color="#D1F2FF" stop-opacity="0"/>
<stop offset="0.1913" stop-color="#CBF0FF" stop-opacity="0.1435"/>
<stop offset="0.458" stop-color="#B8EBFF" stop-opacity="0.3435"/>
<stop offset="0.7676" stop-color="#9BE2FE" stop-opacity="0.5757"/>
<stop offset="1" stop-color="#80DAFE" stop-opacity="0.75"/>
</radialGradient>
<linearGradient id="paint19_linear_88_39" x1="25.5395" y1="5.10968" x2="24.8312" y2="6.8575" gradientUnits="userSpaceOnUse">
<stop stop-color="#17BBFE" stop-opacity="0"/>
<stop offset="1" stop-color="#17BBFE" stop-opacity="0.75"/>
</linearGradient>
<radialGradient id="paint20_radial_88_39" cx="0" cy="0" r="1" gradientUnits="userSpaceOnUse" gradientTransform="translate(25.9103 4.91605) rotate(-1.44248) scale(0.618779 0.259103)">
<stop stop-color="white"/>
<stop offset="1" stop-color="white" stop-opacity="0"/>
</radialGradient>
<clipPath id="clip0_88_39">
<rect width="18" height="18" fill="white" transform="matrix(-1 0 0 1 31 16)"/>
</clipPath>
<clipPath id="clip1_88_39">
<rect width="17" height="16" fill="white" transform="matrix(-1 0 0 1 21 18)"/>
</clipPath>
<clipPath id="clip2_88_39">
<rect width="7" height="7" fill="white" transform="translate(1 12.6576) rotate(-13.6974)"/>
</clipPath>
</defs>
</svg>
