<svg width="34" height="30" viewBox="0 0 34 30" fill="none" xmlns="http://www.w3.org/2000/svg">
<g clip-path="url(#clip0_91_4212)">
<path d="M22.755 17.875C22.4302 17.875 22.1668 17.5877 22.1668 17.2333C22.1668 16.8789 22.4302 16.5916 22.755 16.5916C23.0799 16.5916 23.3433 16.8789 23.3433 17.2333C23.3433 17.5877 23.0799 17.875 22.755 17.875Z" fill="#61ACD2"/>
<path d="M21.2138 14.8848C20.8889 14.8848 20.6255 14.5975 20.6255 14.2431C20.6255 13.8886 20.8889 13.6013 21.2138 13.6013C21.5386 13.6013 21.802 13.8886 21.802 14.2431C21.802 14.5975 21.5386 14.8848 21.2138 14.8848Z" fill="#61ACD2"/>
<path d="M21.4954 25.6332C21.6305 25.6332 21.74 25.5137 21.74 25.3664C21.74 24.7177 21.945 24.4095 22.1824 24.0525C22.4336 23.6751 22.7181 23.2472 22.7181 22.4253C22.7181 21.6034 22.4335 21.1755 22.1824 20.798C21.945 20.4411 21.74 20.1328 21.74 19.4841C21.74 19.3368 21.6305 19.2173 21.4954 19.2173C21.3604 19.2173 21.2509 19.3368 21.2509 19.4841C21.2509 20.306 21.5355 20.7339 21.7866 21.1114C22.024 21.4683 22.229 21.7766 22.229 22.4253C22.229 23.074 22.024 23.3823 21.7866 23.7392C21.5354 24.1167 21.2509 24.5445 21.2509 25.3664C21.2509 25.5138 21.3604 25.6332 21.4954 25.6332Z" fill="#6ABE71"/>
<path d="M24.4823 25.6332C24.6174 25.6332 24.7269 25.5137 24.7269 25.3664C24.7269 24.7177 24.9319 24.4095 25.1694 24.0525C25.4205 23.6751 25.7051 23.2472 25.7051 22.4253C25.7051 21.6034 25.4204 21.1755 25.1694 20.798C24.9319 20.4411 24.7269 20.1328 24.7269 19.4841C24.7269 18.8354 24.9319 18.5271 25.1694 18.1701C25.4205 17.7926 25.7051 17.3647 25.7051 16.5428C25.7051 16.3954 25.5956 16.276 25.4605 16.276C25.3255 16.276 25.216 16.3954 25.216 16.5428C25.216 17.1915 25.0109 17.4998 24.7735 17.8568C24.5224 18.2343 24.2378 18.6622 24.2378 19.4841C24.2378 20.306 24.5224 20.7339 24.7735 21.1114C25.0109 21.4683 25.216 21.7766 25.216 22.4253C25.216 23.074 25.0109 23.3823 24.7735 23.7392C24.5224 24.1167 24.2378 24.5446 24.2378 25.3664C24.2378 25.5138 24.3473 25.6332 24.4823 25.6332Z" fill="#6ABE71"/>
<path d="M27.6938 25.6332C27.8288 25.6332 27.9383 25.5137 27.9383 25.3664C27.9383 24.7177 28.1434 24.4095 28.3808 24.0526C28.6319 23.6751 28.9165 23.2472 28.9165 22.4253C28.9165 21.6034 28.6319 21.1755 28.3808 20.798C28.1434 20.4411 27.9383 20.1328 27.9383 19.4841C27.9383 18.8354 28.1434 18.5271 28.3808 18.1701C28.6319 17.7926 28.9165 17.3647 28.9165 16.5428C28.9165 15.7209 28.6319 15.293 28.3808 14.9154C28.1434 14.5585 27.9383 14.2502 27.9383 13.6014C27.9383 13.4541 27.8288 13.3347 27.6938 13.3347C27.5587 13.3347 27.4492 13.4541 27.4492 13.6014C27.4492 14.4233 27.7339 14.8513 27.9849 15.2288C28.2224 15.5858 28.4274 15.894 28.4274 16.5428C28.4274 17.1915 28.2224 17.4998 27.9849 17.8567C27.7338 18.2342 27.4492 18.6621 27.4492 19.4841C27.4492 20.3059 27.7339 20.7338 27.9849 21.1114C28.2224 21.4683 28.4274 21.7766 28.4274 22.4253C28.4274 23.074 28.2224 23.3822 27.9849 23.7392C27.7338 24.1166 27.4492 24.5445 27.4492 25.3664C27.4492 25.5138 27.5587 25.6332 27.6938 25.6332Z" fill="#6ABE71"/>
<path d="M21.141 28.5743H24.8493C25.5493 28.5743 26.313 28.1969 26.9448 27.5389C27.5669 26.8908 27.9384 26.0787 27.9384 25.3665C27.9384 25.2191 27.8289 25.0997 27.6938 25.0997C27.5587 25.0997 27.4493 25.2191 27.4493 25.3665C27.4493 26.5912 26.0399 28.0408 24.8493 28.0408H21.141C21.0059 28.0408 20.8965 28.1603 20.8965 28.3076C20.8965 28.455 21.006 28.5743 21.141 28.5743Z" fill="#6ABE71"/>
<path d="M18.2964 25.6332C18.4315 25.6332 18.541 25.5137 18.541 25.3664C18.541 24.7177 18.746 24.4095 18.9835 24.0526C19.2346 23.6751 19.5192 23.2472 19.5192 22.4253C19.5192 21.6034 19.2345 21.1755 18.9835 20.798C18.746 20.4411 18.541 20.1328 18.541 19.4841C18.541 18.8354 18.746 18.5271 18.9835 18.1701C19.2346 17.7926 19.5192 17.3647 19.5192 16.5428C19.5192 15.7209 19.2345 15.293 18.9835 14.9154C18.746 14.5585 18.541 14.2502 18.541 13.6014C18.541 13.4541 18.4315 13.3347 18.2964 13.3347C18.1614 13.3347 18.0519 13.4541 18.0519 13.6014C18.0519 14.4233 18.3365 14.8513 18.5876 15.2288C18.825 15.5858 19.0301 15.894 19.0301 16.5428C19.0301 17.1915 18.825 17.4998 18.5876 17.8567C18.3365 18.2342 18.0519 18.6621 18.0519 19.4841C18.0519 20.3059 18.3365 20.7338 18.5876 21.1114C18.825 21.4683 19.0301 21.7766 19.0301 22.4253C19.0301 23.074 18.825 23.3822 18.5876 23.7392C18.3365 24.1166 18.0519 24.5445 18.0519 25.3664C18.0519 25.5138 18.1614 25.6332 18.2964 25.6332Z" fill="#6ABE71"/>
<path d="M21.1409 28.5743C21.276 28.5743 21.3855 28.4549 21.3855 28.3076C21.3855 28.1602 21.276 28.0408 21.1409 28.0408C19.9503 28.0408 18.541 26.5911 18.541 25.3664C18.541 25.2191 18.4315 25.0996 18.2964 25.0996C18.1614 25.0996 18.0519 25.2191 18.0519 25.3664C18.0519 26.0786 18.4233 26.8907 19.0454 27.5388C19.6772 28.1969 20.4409 28.5743 21.1409 28.5743Z" fill="#6ABE71"/>
<path d="M22.9888 28.5743C23.1239 28.5743 23.2334 28.4549 23.2334 28.3076C23.2334 28.1602 23.1239 28.0408 22.9888 28.0408C22.2127 28.0408 21.7493 27.0537 21.7493 25.4004C21.7493 25.253 21.6398 25.1336 21.5048 25.1336C21.3697 25.1336 21.2602 25.253 21.2602 25.4004C21.2602 26.523 21.4507 27.3677 21.8264 27.911C22.2255 28.4882 22.726 28.5743 22.9888 28.5743Z" fill="#6ABE71"/>
<path d="M22.9889 28.5743C23.2518 28.5743 23.7523 28.4882 24.1514 27.911C24.5271 27.3677 24.7175 26.523 24.7175 25.4004C24.7175 25.253 24.608 25.1336 24.473 25.1336C24.3379 25.1336 24.2284 25.253 24.2284 25.4004C24.2284 27.0537 23.7651 28.0408 22.9889 28.0408C22.8539 28.0408 22.7444 28.1602 22.7444 28.3076C22.7444 28.4549 22.8539 28.5743 22.9889 28.5743Z" fill="#6ABE71"/>
<path d="M26.6887 25.6732H28.6989C28.834 25.6732 28.9435 25.5537 28.9435 25.4064C28.9435 25.259 28.834 25.1396 28.6989 25.1396H26.6887C26.5537 25.1396 26.4442 25.259 26.4442 25.4064C26.4442 25.5537 26.5537 25.6732 26.6887 25.6732Z" fill="#3B804B"/>
<path d="M27.6463 22.692H29.6977C29.8328 22.692 29.9423 22.5725 29.9423 22.4252C29.9423 22.2778 29.8328 22.1584 29.6977 22.1584H27.6463C27.5112 22.1584 27.4017 22.2778 27.4017 22.4252C27.4017 22.5725 27.5113 22.692 27.6463 22.692Z" fill="#3B804B"/>
<path d="M26.6269 19.7505H28.7607C28.8958 19.7505 29.0052 19.6311 29.0052 19.4837C29.0052 19.3364 28.8958 19.2169 28.7607 19.2169H26.6269C26.4918 19.2169 26.3824 19.3364 26.3824 19.4837C26.3824 19.6311 26.4918 19.7505 26.6269 19.7505Z" fill="#3B804B"/>
<path d="M27.5845 16.8096H29.7595C29.8945 16.8096 30.004 16.6901 30.004 16.5428C30.004 16.3954 29.8945 16.276 29.7595 16.276H27.5845C27.4494 16.276 27.3399 16.3954 27.3399 16.5428C27.3399 16.6901 27.4494 16.8096 27.5845 16.8096Z" fill="#3B804B"/>
<path d="M20.4903 25.6732H22.5004C22.6355 25.6732 22.745 25.5537 22.745 25.4064C22.745 25.259 22.6355 25.1396 22.5004 25.1396H20.4903C20.3552 25.1396 20.2457 25.259 20.2457 25.4064C20.2457 25.5537 20.3552 25.6732 20.4903 25.6732Z" fill="#3B804B"/>
<path d="M21.4479 22.692H23.4993C23.6344 22.692 23.7439 22.5725 23.7439 22.4252C23.7439 22.2778 23.6344 22.1584 23.4993 22.1584H21.4479C21.3129 22.1584 21.2034 22.2778 21.2034 22.4252C21.2034 22.5725 21.3129 22.692 21.4479 22.692Z" fill="#3B804B"/>
<path d="M23.4773 25.6732H25.4875C25.6226 25.6732 25.7321 25.5537 25.7321 25.4064C25.7321 25.259 25.6226 25.1396 25.4875 25.1396H23.4773C23.3423 25.1396 23.2328 25.259 23.2328 25.4064C23.2328 25.5537 23.3423 25.6732 23.4773 25.6732Z" fill="#3B804B"/>
<path d="M24.435 22.692H26.4864C26.6215 22.692 26.731 22.5725 26.731 22.4252C26.731 22.2778 26.6215 22.1584 26.4864 22.1584H24.435C24.2999 22.1584 24.1904 22.2778 24.1904 22.4252C24.1904 22.5725 24.2999 22.692 24.435 22.692Z" fill="#3B804B"/>
<path d="M23.4156 19.7505H25.5494C25.6845 19.7505 25.7939 19.6311 25.7939 19.4837C25.7939 19.3364 25.6845 19.2169 25.5494 19.2169H23.4156C23.2805 19.2169 23.1711 19.3364 23.1711 19.4837C23.1711 19.6311 23.2806 19.7505 23.4156 19.7505Z" fill="#3B804B"/>
<path d="M17.2914 25.6732H19.3016C19.4366 25.6732 19.5461 25.5537 19.5461 25.4064C19.5461 25.259 19.4366 25.1396 19.3016 25.1396H17.2914C17.1563 25.1396 17.0468 25.259 17.0468 25.4064C17.0468 25.5537 17.1563 25.6732 17.2914 25.6732Z" fill="#3B804B"/>
<path d="M18.249 22.692H20.3004C20.4354 22.692 20.5449 22.5725 20.5449 22.4252C20.5449 22.2778 20.4354 22.1584 20.3004 22.1584H18.249C18.1139 22.1584 18.0045 22.2778 18.0045 22.4252C18.0045 22.5725 18.1139 22.692 18.249 22.692Z" fill="#3B804B"/>
<path d="M17.2297 19.7505H19.3635C19.4985 19.7505 19.608 19.6311 19.608 19.4837C19.608 19.3364 19.4985 19.2169 19.3635 19.2169H17.2297C17.0946 19.2169 16.9851 19.3364 16.9851 19.4837C16.9851 19.6311 17.0947 19.7505 17.2297 19.7505Z" fill="#3B804B"/>
<path d="M17.3533 25.6732H19.3635C19.4985 25.6732 19.608 25.5537 19.608 25.4064C19.608 25.259 19.4985 25.1396 19.3635 25.1396H17.3533C17.2182 25.1396 17.1087 25.259 17.1087 25.4064C17.1087 25.5537 17.2182 25.6732 17.3533 25.6732Z" fill="#3B804B"/>
<path d="M18.3108 22.692H20.3623C20.4973 22.692 20.6068 22.5725 20.6068 22.4252C20.6068 22.2778 20.4973 22.1584 20.3623 22.1584H18.3108C18.1758 22.1584 18.0663 22.2778 18.0663 22.4252C18.0663 22.5725 18.1758 22.692 18.3108 22.692Z" fill="#3B804B"/>
</g>
<path d="M25.3994 22.6064C25.3994 22.9889 25.0909 23.2989 24.7104 23.2989H18.1347H17.6998V24.6066H23.4498C23.8271 24.6066 24.1485 24.9016 24.1619 25.2807C24.176 25.6787 23.8592 26.0057 23.4664 26.0057H17.6997V27.7255C17.6997 28.1049 17.4063 28.4279 17.0291 28.4414C16.6332 28.4555 16.3078 28.1371 16.3078 27.7423V23.2989H13.4719C12.7489 23.2989 12.1628 22.7098 12.1628 21.983V19.2055H10.1989C9.47589 19.2055 8.88977 18.6163 8.88977 17.8896V15.0038C8.88977 14.6245 9.1832 14.3014 9.56034 14.2879C9.95628 14.2738 10.2817 14.5922 10.2817 14.9871V17.8063H11.4301V15.0038C11.4301 14.6245 11.7235 14.3014 12.1007 14.2879C12.4966 14.2738 12.822 14.5922 12.822 14.9871V17.8063H13.7774V17.1192C13.7774 16.4174 14.3268 15.8421 15.0161 15.8052V13.488C15.0161 13.1087 15.3095 12.7856 15.6867 12.7722C16.0826 12.758 16.408 13.0764 16.408 13.4713V15.8865C16.408 16.5884 15.8586 17.1637 15.1693 17.2005V17.8896C15.1693 18.6163 14.5832 19.2055 13.8602 19.2055H13.5547V21.8998H15.2575V21.1274C15.2575 20.7481 15.5509 20.425 15.9281 20.4115C16.324 20.3974 16.6494 20.7158 16.6494 21.1106V21.8998H17.6168H17.6967V13.488C17.6967 13.1087 17.9902 12.7856 18.3673 12.7722C18.7632 12.758 19.0886 13.0764 19.0886 13.4713V21.8998H22.6139V19.1243H21.5264C20.8034 19.1243 20.2172 18.5351 20.2172 17.8083V16.6008C20.2172 16.2215 20.5107 15.8984 20.8878 15.8849C21.2838 15.8708 21.6091 16.1892 21.6091 16.5841V17.7251H22.6139V15.3287C22.6139 14.9493 22.9073 14.6263 23.2844 14.6128C23.6804 14.5986 24.0058 14.9171 24.0058 15.3119V21.8998H24.7104C25.0909 21.8998 25.3994 22.2099 25.3994 22.5923V22.6064Z" fill="#4EA963"/>
<path d="M22.614 19.0903H23.057V21.8515H22.614V19.0903Z" fill="#408A51"/>
<path d="M11.8733 14.9911V17.7791H11.4304V14.9911C11.4304 14.6137 11.7238 14.2923 12.1009 14.2789C12.1877 14.2758 12.2707 14.2895 12.348 14.3154C12.0699 14.4112 11.8733 14.6822 11.8733 14.9911Z" fill="#408A51"/>
<path d="M15.7007 21.0829V21.8513H15.2577V21.0829C15.2577 20.7055 15.5512 20.3841 15.9283 20.3707C16.0151 20.3676 16.0981 20.3812 16.1754 20.4072C15.8974 20.503 15.7007 20.7741 15.7007 21.0829Z" fill="#408A51"/>
<path d="M18.1399 13.4831V21.8513H18.06H17.697V13.4831C17.697 13.1057 17.9904 12.7843 18.3675 12.7709C18.4543 12.7678 18.5373 12.7815 18.6146 12.8074C18.3366 12.9032 18.1399 13.1742 18.1399 13.4831Z" fill="#408A51"/>
<path d="M15.4593 13.4831V15.7882C14.77 15.825 14.2206 16.3972 14.2206 17.0955V17.779H13.7776V17.0955C13.7776 16.3972 14.327 15.8249 15.0163 15.7882V13.4831C15.0163 13.1057 15.3097 12.7843 15.6869 12.7709C15.7736 12.7678 15.8566 12.7815 15.934 12.8074C15.6559 12.9032 15.4593 13.1742 15.4593 13.4831Z" fill="#408A51"/>
<path d="M12.6059 21.9341C12.6059 22.6571 13.192 23.2432 13.915 23.2432H13.4721C12.7491 23.2432 12.163 22.6571 12.163 21.9341V19.171H12.6059V21.9341Z" fill="#408A51"/>
<path d="M9.56058 14.2789C9.64736 14.2758 9.73036 14.2894 9.80768 14.3154C9.5296 14.4111 9.33296 14.6822 9.33296 14.991V17.8618C9.33296 18.5848 9.91905 19.171 10.6421 19.171H10.1991C9.4761 19.171 8.88998 18.5849 8.88998 17.8618V14.991C8.89001 14.6137 9.18344 14.2923 9.56058 14.2789Z" fill="#408A51"/>
<path d="M20.6605 16.5798V17.7811C20.6605 18.5041 21.2466 19.0902 21.9696 19.0902H21.5266C20.8036 19.0902 20.2175 18.5041 20.2175 17.7811V16.5798C20.2175 16.2024 20.5109 15.881 20.8881 15.8676C20.9748 15.8645 21.0578 15.8782 21.1352 15.9042C20.8571 15.9999 20.6605 16.2709 20.6605 16.5798Z" fill="#408A51"/>
<path d="M23.0571 15.3142V17.6983H22.6141V15.3142C22.6141 14.9368 22.9075 14.6154 23.2846 14.602C23.3714 14.5989 23.4544 14.6126 23.5317 14.6386C23.2537 14.7343 23.0571 15.0053 23.0571 15.3142Z" fill="#408A51"/>
<path d="M16.751 27.6635C16.751 27.9703 16.9497 28.2298 17.2252 28.3225C17.1635 28.3438 17.0979 28.3566 17.0293 28.359C16.6334 28.3731 16.308 28.0563 16.308 27.6635V23.2432H16.751V27.6635Z" fill="#408A51"/>
<path d="M25.3994 22.6064C25.3994 22.9889 25.0909 23.2989 24.7104 23.2989H18.1347H17.6998V24.6066H23.4498C23.8271 24.6066 24.1485 24.9016 24.1619 25.2807C24.176 25.6787 23.8592 26.0057 23.4664 26.0057H17.6997V27.7255C17.6997 28.1049 17.4063 28.4279 17.0291 28.4414C16.6332 28.4555 16.3078 28.1371 16.3078 27.7423V23.2989H13.4719C12.7489 23.2989 12.1628 22.7098 12.1628 21.983V19.2055H10.1989C9.47589 19.2055 8.88977 18.6163 8.88977 17.8896V15.0038C8.88977 14.6245 9.1832 14.3014 9.56034 14.2879C9.95628 14.2738 10.2817 14.5922 10.2817 14.9871V17.8063H11.4301V15.0038C11.4301 14.6245 11.7235 14.3014 12.1007 14.2879C12.4966 14.2738 12.822 14.5922 12.822 14.9871V17.8063H13.7774V17.1192C13.7774 16.4174 14.3268 15.8421 15.0161 15.8052V13.488C15.0161 13.1087 15.3095 12.7856 15.6867 12.7722C16.0826 12.758 16.408 13.0764 16.408 13.4713V15.8865C16.408 16.5884 15.8586 17.1637 15.1693 17.2005V17.8896C15.1693 18.6163 14.5832 19.2055 13.8602 19.2055H13.5547V21.8998H15.2575V21.1274C15.2575 20.7481 15.5509 20.425 15.9281 20.4115C16.324 20.3974 16.6494 20.7158 16.6494 21.1106V21.8998H17.6168H17.6967V13.488C17.6967 13.1087 17.9902 12.7856 18.3673 12.7722C18.7632 12.758 19.0886 13.0764 19.0886 13.4713V21.8998H22.6139V19.1243H21.5264C20.8034 19.1243 20.2172 18.5351 20.2172 17.8083V16.6008C20.2172 16.2215 20.5107 15.8984 20.8878 15.8849C21.2838 15.8708 21.6091 16.1892 21.6091 16.5841V17.7251H22.6139V15.3287C22.6139 14.9493 22.9073 14.6263 23.2844 14.6128C23.6804 14.5986 24.0058 14.9171 24.0058 15.3119V21.8998H24.7104C25.0909 21.8998 25.3994 22.2099 25.3994 22.5923V22.6064Z" fill="#4EA963"/>
<path d="M22.614 19.0903H23.057V21.8515H22.614V19.0903Z" fill="#408A51"/>
<path d="M11.8733 14.9911V17.7791H11.4304V14.9911C11.4304 14.6137 11.7238 14.2923 12.1009 14.2789C12.1877 14.2758 12.2707 14.2895 12.348 14.3154C12.0699 14.4112 11.8733 14.6822 11.8733 14.9911Z" fill="#408A51"/>
<path d="M15.7007 21.0829V21.8513H15.2577V21.0829C15.2577 20.7055 15.5512 20.3841 15.9283 20.3707C16.0151 20.3676 16.0981 20.3812 16.1754 20.4072C15.8974 20.503 15.7007 20.7741 15.7007 21.0829Z" fill="#408A51"/>
<path d="M18.1399 13.4831V21.8513H18.06H17.697V13.4831C17.697 13.1057 17.9904 12.7843 18.3675 12.7709C18.4543 12.7678 18.5373 12.7815 18.6146 12.8074C18.3366 12.9032 18.1399 13.1742 18.1399 13.4831Z" fill="#408A51"/>
<path d="M15.4593 13.4831V15.7882C14.77 15.825 14.2206 16.3972 14.2206 17.0955V17.779H13.7776V17.0955C13.7776 16.3972 14.327 15.8249 15.0163 15.7882V13.4831C15.0163 13.1057 15.3097 12.7843 15.6869 12.7709C15.7736 12.7678 15.8566 12.7815 15.934 12.8074C15.6559 12.9032 15.4593 13.1742 15.4593 13.4831Z" fill="#408A51"/>
<path d="M12.6059 21.9341C12.6059 22.6571 13.192 23.2432 13.915 23.2432H13.4721C12.7491 23.2432 12.163 22.6571 12.163 21.9341V19.171H12.6059V21.9341Z" fill="#408A51"/>
<path d="M9.56058 14.2789C9.64736 14.2758 9.73036 14.2894 9.80768 14.3154C9.5296 14.4111 9.33296 14.6822 9.33296 14.991V17.8618C9.33296 18.5848 9.91905 19.171 10.6421 19.171H10.1991C9.4761 19.171 8.88998 18.5849 8.88998 17.8618V14.991C8.89001 14.6137 9.18344 14.2923 9.56058 14.2789Z" fill="#408A51"/>
<path d="M20.6605 16.5798V17.7811C20.6605 18.5041 21.2466 19.0902 21.9696 19.0902H21.5266C20.8036 19.0902 20.2175 18.5041 20.2175 17.7811V16.5798C20.2175 16.2024 20.5109 15.881 20.8881 15.8676C20.9748 15.8645 21.0578 15.8782 21.1352 15.9042C20.8571 15.9999 20.6605 16.2709 20.6605 16.5798Z" fill="#408A51"/>
<path d="M23.0571 15.3142V17.6983H22.6141V15.3142C22.6141 14.9368 22.9075 14.6154 23.2846 14.602C23.3714 14.5989 23.4544 14.6126 23.5317 14.6386C23.2537 14.7343 23.0571 15.0053 23.0571 15.3142Z" fill="#408A51"/>
<path d="M16.751 27.6635C16.751 27.9703 16.9497 28.2298 17.2252 28.3225C17.1635 28.3438 17.0979 28.3566 17.0293 28.359C16.6334 28.3731 16.308 28.0563 16.308 27.6635V23.2432H16.751V27.6635Z" fill="#408A51"/>
<path d="M21.0933 14.7122C20.6094 14.7122 20.2171 14.32 20.2171 13.836C20.2171 13.3521 20.6094 12.9598 21.0933 12.9598C21.5772 12.9598 21.9695 13.3521 21.9695 13.836C21.9695 14.32 21.5772 14.7122 21.0933 14.7122Z" fill="#61ACD2"/>
<path d="M13.3146 26.6998C13.0455 26.6998 12.8274 26.4817 12.8274 26.2126C12.8274 25.9436 13.0455 25.7255 13.3146 25.7255C13.5836 25.7255 13.8018 25.9436 13.8018 26.2126C13.8018 26.4817 13.5836 26.6998 13.3146 26.6998Z" fill="#61ACD2"/>
<path d="M15.9339 19.5316C15.7348 19.5316 15.5734 19.3701 15.5734 19.171C15.5734 18.9719 15.7348 18.8105 15.9339 18.8105C16.133 18.8105 16.2944 18.9719 16.2944 19.171C16.2944 19.3701 16.133 19.5316 15.9339 19.5316Z" fill="#61ACD2"/>
<path d="M11.4304 13.836C11.1166 13.836 10.8623 13.5816 10.8623 13.2679C10.8623 12.9541 11.1166 12.6997 11.4304 12.6997C11.7442 12.6997 11.9985 12.9541 11.9985 13.2679C11.9985 13.5816 11.7442 13.836 11.4304 13.836Z" fill="#61ACD2"/>
<path d="M23.2163 27.5457C22.8836 27.5457 22.6139 27.2761 22.6139 26.9434C22.6139 26.6107 22.8836 26.3411 23.2163 26.3411C23.5489 26.3411 23.8186 26.6107 23.8186 26.9434C23.8186 27.2761 23.5489 27.5457 23.2163 27.5457Z" fill="#61ACD2"/>
<path d="M10.6419 23.6028C10.2191 23.6028 9.8764 23.2601 9.8764 22.8373C9.8764 22.4145 10.2191 22.0718 10.6419 22.0718C11.0647 22.0718 11.4075 22.4145 11.4075 22.8373C11.4075 23.2601 11.0647 23.6028 10.6419 23.6028Z" fill="#61ACD2"/>
<path d="M21.0934 22.2117C20.6894 22.2117 20.3619 21.8842 20.3619 21.4802C20.3619 21.0762 20.6894 20.7487 21.0934 20.7487C21.4973 20.7487 21.8248 21.0762 21.8248 21.4802C21.8248 21.8842 21.4973 22.2117 21.0934 22.2117Z" fill="#61ACD2"/>
<g clip-path="url(#clip1_91_4212)">
<path d="M25.1588 22.5214C24.9558 22.433 24.72 22.5251 24.6317 22.7281C24.6165 22.7619 24.3516 23.3356 23.7305 23.6609C23.9159 23.399 24.0625 23.1436 24.1774 22.9069C24.7239 21.7819 24.7039 20.83 24.7028 20.79C24.6966 20.5687 24.5125 20.3931 24.2909 20.4005C24.0696 20.4067 23.8952 20.5911 23.9014 20.8124C23.9021 20.8358 23.9246 22.5259 22.4349 23.9282C21.8424 23.2224 21.9152 22.2434 21.9164 22.2289C21.9358 22.009 21.7736 21.8147 21.5536 21.7945C21.3327 21.7742 21.138 21.9367 21.1179 22.1572C21.1128 22.2124 21.0095 23.4659 21.8107 24.4311C21.4273 24.6955 20.9732 24.9377 20.4364 25.142C20.3819 24.3913 20.1965 23.5668 19.79 22.717C19.6264 22.3751 19.4755 22.0433 19.3363 21.7225C20.7757 21.0856 21.4065 19.9834 21.682 19.1373C21.6835 19.1325 21.6849 19.1278 21.6864 19.1231C23.0262 19.1006 23.8066 18.0367 23.9893 17.4368C24.0538 17.225 23.9347 17 23.7229 16.9355C23.5109 16.8708 23.2874 16.9894 23.2229 17.2012C23.2084 17.2471 22.8845 18.2313 21.8731 18.3159C21.9596 17.7263 21.9183 17.3035 21.9158 17.2787C21.893 17.0588 21.6971 16.8998 21.4769 16.9216C21.257 16.9438 21.0966 17.1403 21.1182 17.3602C21.1189 17.3675 21.1858 18.0915 20.9107 18.916C20.8293 19.1601 20.7264 19.386 20.6046 19.5956C20.1284 19.2439 19.8792 18.3062 19.8244 17.955C19.7906 17.7364 19.5865 17.5864 19.3675 17.62C19.1487 17.6535 18.9985 17.8581 19.032 18.077C19.0597 18.2574 19.2934 19.6194 20.1188 20.2355C19.8187 20.5422 19.4542 20.7914 19.027 20.9822C17.9612 18.3253 17.74 16.5962 17.7375 16.5756C17.7108 16.3559 17.5115 16.1996 17.2917 16.2257C17.0718 16.2521 16.9151 16.4517 16.9414 16.6716C16.9542 16.7778 17.2746 19.3172 19.0666 23.0631C19.6062 24.1911 19.7729 25.4066 19.562 26.6759C19.5582 26.6988 19.5542 26.7215 19.5503 26.7441C19.5401 26.7126 19.5296 26.6808 19.5188 26.6488C19.2 25.7086 18.4812 24.3567 16.8676 23.2552C16.7418 23.1694 16.6209 23.0785 16.5037 22.9841C16.9728 22.5699 17.2181 21.9623 17.2181 21.2022C17.2181 20.5441 17.0297 19.9961 17.0217 19.9731C16.9489 19.7641 16.7202 19.6538 16.5113 19.7265C16.3022 19.7995 16.1918 20.028 16.2647 20.237C16.2702 20.2529 16.7782 21.7496 15.9115 22.4325C15.2922 21.7636 14.8362 20.9398 14.5505 19.9704C14.234 18.8965 14.257 18.0381 14.2572 18.0303C14.265 17.809 14.0918 17.6233 13.8705 17.6157C13.649 17.6071 13.4636 17.7812 13.456 18.0024C13.4546 18.0417 13.4266 18.9763 13.7732 20.1686C14.2345 21.7561 15.1483 23.0524 16.4157 23.9175C16.4221 23.9219 16.4281 23.9265 16.4346 23.9309C16.1207 23.9229 15.7448 23.8875 15.3527 23.7928C14.0456 23.4772 13.2043 22.6692 12.8522 21.3912C12.7933 21.1778 12.5726 21.0525 12.3592 21.1111C12.1457 21.17 12.0204 21.3907 12.0792 21.6041C12.5085 23.1622 13.5753 24.1885 15.1645 24.5721C15.6904 24.6991 16.189 24.7345 16.582 24.7345C16.9622 24.7345 17.243 24.7014 17.3543 24.6857C17.7738 25.0986 18.1186 25.555 18.387 26.0522C17.8033 26.1948 16.1355 26.4674 14.8106 25.3668C14.6403 25.2254 14.3876 25.2487 14.2461 25.419C14.1046 25.5893 14.128 25.842 14.2983 25.9835C15.2665 26.7879 16.3545 26.9977 17.2259 26.9977C17.914 26.9977 18.4668 26.8669 18.7193 26.7949C18.7286 26.8206 18.7388 26.8459 18.7477 26.8718C19.0559 27.7611 19.0267 28.4322 19.0264 28.4376C19.0158 28.6257 19.1376 28.7958 19.319 28.8464C19.3548 28.8563 19.391 28.8611 19.4267 28.8611C19.5722 28.8611 19.7101 28.7816 19.7809 28.6479C19.7951 28.6212 19.8825 28.4524 19.9898 28.1709C22.3099 28.0888 23.8102 26.7284 23.8778 26.6659C24.0401 26.5159 24.0501 26.2631 23.9005 26.1004C23.7509 25.9378 23.4975 25.9272 23.3344 26.0764C23.3207 26.0889 22.1047 27.1808 20.2449 27.3504C20.3402 26.9628 20.4194 26.503 20.4453 25.9915C21.4532 25.647 22.2176 25.1822 22.797 24.6836C22.8005 24.6836 22.804 24.6837 22.8075 24.6837C24.634 24.6837 25.3367 23.1171 25.3659 23.0501C25.4543 22.8469 25.3617 22.6097 25.1588 22.5214Z" fill="#EBB521"/>
<path d="M25.1588 22.5214C24.9558 22.433 24.72 22.5251 24.6317 22.7281C24.6166 22.7619 24.3517 23.3356 23.7305 23.661C23.9159 23.399 24.0625 23.1436 24.1775 22.9069C24.724 21.7819 24.704 20.83 24.7029 20.79C24.6967 20.5687 24.5125 20.3931 24.2909 20.4005C24.0696 20.4067 23.8952 20.5911 23.9014 20.8125C23.9021 20.8358 23.9246 22.5259 22.4349 23.9282C21.8425 23.2224 21.9153 22.2434 21.9165 22.2289C21.9358 22.009 21.7736 21.8147 21.5536 21.7945C21.3328 21.7742 21.1381 21.9367 21.1179 22.1572C21.1129 22.2124 21.0096 23.4659 21.8107 24.4311C21.4273 24.6955 20.9732 24.9378 20.4365 25.142C20.3819 24.3913 20.1965 23.5668 19.79 22.717C19.6264 22.3751 19.4755 22.0433 19.3363 21.7225C20.7757 21.0856 21.4065 19.9835 21.6821 19.1373C21.6836 19.1325 21.685 19.1278 21.6865 19.1231C23.0262 19.1006 23.8067 18.0367 23.9894 17.4368C24.0538 17.225 23.9348 17 23.723 16.9355C23.511 16.8708 23.2875 16.9894 23.223 17.2012C23.2085 17.2471 22.8846 18.2313 21.8731 18.3159C21.9596 17.7263 21.9184 17.3035 21.9158 17.2787C21.8931 17.0589 21.6972 16.8998 21.4769 16.9216C21.257 16.9438 21.0967 17.1403 21.1182 17.3602C21.1189 17.3675 21.1858 18.0915 20.9107 18.9161C20.8293 19.1601 20.7265 19.386 20.6047 19.5956C20.1285 19.2439 19.8793 18.3063 19.8245 17.955C19.7906 17.7364 19.5865 17.5864 19.3676 17.62C19.1487 17.6535 18.9985 17.8581 19.032 18.077C19.0597 18.2574 19.2934 19.6194 20.1188 20.2355C19.8187 20.5422 19.4543 20.7914 19.0271 20.9822C18.8979 20.6602 18.7812 20.352 18.6758 20.0587V22.2139C18.7976 22.4893 18.9277 22.7726 19.0667 23.0631C19.6063 24.1912 19.773 25.4066 19.5621 26.6759C19.5582 26.6988 19.5543 26.7215 19.5503 26.7441C19.5402 26.7126 19.5297 26.6808 19.5189 26.6488C19.3591 26.1776 19.0988 25.603 18.6758 25.0083V26.807C18.691 26.8028 18.7058 26.7987 18.7193 26.7949C18.7287 26.8206 18.7388 26.8459 18.7478 26.8718C19.056 27.7611 19.0268 28.4322 19.0265 28.4376C19.0159 28.6257 19.1376 28.7958 19.3191 28.8464C19.3549 28.8564 19.391 28.8612 19.4267 28.8612C19.5723 28.8612 19.7101 28.7816 19.7809 28.6479C19.7951 28.6212 19.8825 28.4525 19.9899 28.1709C22.31 28.0888 23.8102 26.7284 23.8779 26.6659C24.0402 26.5159 24.0501 26.2631 23.9005 26.1004C23.751 25.9378 23.4976 25.9272 23.3345 26.0764C23.3208 26.0889 22.1048 27.1808 20.245 27.3504C20.3403 26.9628 20.4194 26.503 20.4454 25.9915C21.4533 25.647 22.2177 25.1822 22.797 24.6836C22.8005 24.6836 22.8041 24.6837 22.8076 24.6837C24.6341 24.6837 25.3368 23.1171 25.366 23.0501C25.4544 22.8469 25.3618 22.6097 25.1588 22.5214Z" fill="#E89145"/>
</g>
<g clip-path="url(#clip2_91_4212)">
<path d="M8.25294 17.1722C7.79553 17.1722 7.42471 17.5431 7.42471 18.0005V18.1685L7.84062 18.5894L7.42471 18.9968C7.42471 19.5171 7.06691 19.9553 6.58446 20.0785V16.7029C6.58444 16.2455 6.21359 15.8747 5.7562 15.8747C5.29882 15.8747 4.92797 16.2455 4.92797 16.7029V18.1685L5.33749 18.5894L4.92797 18.9968V19.825L5.37432 20.2459L4.92797 20.6532V22.3097C4.92797 22.7061 5.01176 23.0833 5.16227 23.4247C4.57158 23.3965 4.09971 22.9072 4.09971 22.3097L3.69939 21.9208L4.09971 21.4815V19.6569C4.09971 19.1995 3.72889 18.8287 3.27147 18.8287C2.81406 18.8287 2.44324 19.1995 2.44324 19.6569V19.8778L2.87116 20.3011L2.44324 20.706V22.3097C2.44324 23.8386 3.68712 25.0825 5.21607 25.0825L5.63198 24.7L6.0443 25.0825H7.42652L7.42654 25.069C7.42751 25.0691 7.42847 25.0691 7.42944 25.0692L8.30079 24.2215L7.43086 23.3929C6.94534 23.2718 6.58446 22.8322 6.58446 22.3097L6.1657 21.9393L6.58444 21.7559C7.98424 21.6169 9.08118 20.4326 9.08118 18.9968V18.0005C9.08118 17.5431 8.71035 17.1722 8.25294 17.1722Z" fill="#FB5858"/>
<path d="M13.238 20.4852C12.7806 20.4852 12.4098 20.856 12.4098 21.3134L12.8653 21.7552L12.4098 22.1417V23.9662C12.4098 24.5638 11.9379 25.053 11.3472 25.0812C11.4977 24.7398 11.5815 24.3627 11.5815 23.9662V22.1417L11.2088 21.7552L11.5815 21.3134V20.4852L11.1904 20.1171L11.5815 19.657C11.5815 19.1996 11.2107 18.8287 10.7533 18.8287C10.2959 18.8287 9.92504 19.1996 9.92504 19.657V23.138L10.3438 23.5589L9.92504 23.9662C9.92504 24.4861 9.56781 24.9241 9.08594 25.0477L9.0876 23.0534C9.0876 22.5959 8.71678 22.2251 8.25936 22.2251C7.80195 22.2251 7.43113 22.5959 7.43113 23.0534L7.43085 23.3929L7.43083 23.4261C7.43113 23.4261 7.43068 23.5858 7.43068 23.5858L7.42944 25.0692V25.0825H7.42651L7.93264 25.5099L7.42651 25.9108H7.42875L7.42805 26.7251H7.42651L7.85905 27.1664L7.42651 27.5533H7.42738L7.42651 28.5744H9.08301L9.08455 26.7391H10.4652L10.8591 26.3381L11.2934 26.7391C12.8224 26.7391 14.0663 25.4952 14.0663 23.9662L13.6751 23.5589L14.0663 23.138V21.3135C14.0663 20.8561 13.6954 20.4852 13.238 20.4852Z" fill="#F72349"/>
<path d="M8.25475 26.7252H7.42651V27.5534H8.25475V26.7252Z" fill="#FB5858"/>
<path d="M11.2933 25.9108H10.4651V26.739H11.2933V25.9108Z" fill="#FB5858"/>
<path d="M11.5815 19.657H10.7533V20.4852H11.5815V19.657Z" fill="#FB5858"/>
<path d="M11.5815 21.3135H10.7533V22.1417H11.5815V21.3135Z" fill="#FB5858"/>
<path d="M13.238 21.3135H12.4098V22.1417H13.238V21.3135Z" fill="#FB5858"/>
<path d="M14.0663 23.1381H13.238V23.9663H14.0663V23.1381Z" fill="#FB5858"/>
<path d="M10.7533 23.1381H9.92505V23.9663H10.7533V23.1381Z" fill="#FB5858"/>
<path d="M8.25475 25.0825H7.42651V25.9108H8.25475V25.0825Z" fill="#FB5858"/>
<path d="M6.04442 24.2543H5.21619V25.0825H6.04442V24.2543Z" fill="#F72349"/>
<path d="M4.09972 21.4816H3.27148V22.3098H4.09972V21.4816Z" fill="#F72349"/>
<path d="M8.25304 18.1686H7.4248V18.9969H8.25304V18.1686Z" fill="#F72349"/>
<path d="M5.75621 18.1686H4.92798V18.9969H5.75621V18.1686Z" fill="#F72349"/>
<path d="M5.75621 19.8251H4.92798V20.6533H5.75621V19.8251Z" fill="#F72349"/>
<path d="M6.58446 21.4816H5.75623V22.3098H6.58446V21.4816Z" fill="#F72349"/>
<path d="M3.27147 19.8778H2.44324V20.7061H3.27147V19.8778Z" fill="#F72349"/>
<g clip-path="url(#clip3_91_4212)">
<path d="M6.86975 24.7445L5.42113 24.82C5.19192 24.832 4.98556 24.682 4.92609 24.4603L4.55023 23.0593C4.52132 22.9515 4.36838 22.9515 4.33947 23.0593L3.9636 24.4603C3.90413 24.682 3.69777 24.8319 3.46856 24.82L2.01994 24.7445C1.9085 24.7387 1.86124 24.8841 1.95482 24.9449L3.17114 25.7354C3.36359 25.8604 3.44241 26.103 3.36024 26.3173L2.84079 27.6717C2.80083 27.7759 2.92455 27.8658 3.01129 27.7956L4.1389 26.8831C4.31731 26.7387 4.57238 26.7387 4.75079 26.8831L5.87841 27.7956C5.96514 27.8658 6.08887 27.7759 6.04891 27.6717L5.52947 26.3173C5.44728 26.103 5.5261 25.8604 5.71857 25.7354L6.93489 24.945C7.02844 24.8842 6.98119 24.7387 6.86975 24.7445Z" fill="#FF9150"/>
<path d="M5.20835 25.8371L4.57842 25.6254L4.97127 25.1016C4.99848 25.0654 4.99113 25.014 4.95486 24.9869C4.9187 24.9599 4.86741 24.9671 4.84021 25.0033L4.44487 25.5304L4.04952 25.0033C4.02232 24.967 3.97103 24.9597 3.93487 24.9869C3.89862 25.014 3.89126 25.0654 3.91846 25.1016L4.3113 25.6254L3.68138 25.837C3.63849 25.8514 3.61537 25.8979 3.62977 25.9408C3.64129 25.9751 3.67321 25.9967 3.70746 25.9967C3.7161 25.9967 3.72491 25.9953 3.73355 25.9924L4.36293 25.7809V26.4044C4.36293 26.4496 4.39957 26.4863 4.44486 26.4863C4.49015 26.4863 4.52679 26.4496 4.52679 26.4044V25.7809L5.15617 25.9924C5.16481 25.9953 5.17361 25.9967 5.18226 25.9967C5.2165 25.9967 5.24842 25.9751 5.25995 25.9408C5.27436 25.8979 5.25123 25.8514 5.20835 25.8371Z" fill="#FF7841"/>
<path d="M6.86976 24.7445L6.81506 24.7474L4.69274 25.4548C4.65889 25.4153 4.61673 25.3834 4.56775 25.3635V23.1246L4.55023 23.0593C4.52131 22.9515 4.36839 22.9515 4.33947 23.0593L4.32195 23.1246V25.3635C4.27297 25.3834 4.23081 25.4153 4.19696 25.4548L2.07464 24.7474L2.01994 24.7445C1.90851 24.7387 1.86124 24.8842 1.95481 24.945L2.02291 24.9892L4.11923 25.688C4.12279 25.7432 4.13946 25.7946 4.16706 25.8391C4.16674 25.8395 4.16633 25.8398 4.16601 25.8403L2.85532 27.6339L2.8408 27.6717C2.80084 27.7759 2.92455 27.8658 3.01129 27.7956L3.08523 27.7358L4.36443 25.9852C4.36476 25.9848 4.36494 25.9843 4.36527 25.9838C4.39087 25.9902 4.41725 25.9947 4.44485 25.9947C4.47245 25.9947 4.49882 25.9902 4.52444 25.9838C4.52477 25.9843 4.52494 25.9848 4.52527 25.9852L5.80449 27.7358L5.87842 27.7956C5.96516 27.8658 6.08887 27.7759 6.04892 27.6717L6.03439 27.6339L4.7237 25.8403C4.72338 25.8398 4.72296 25.8395 4.72264 25.8391C4.75025 25.7946 4.7669 25.7432 4.77048 25.688L6.86679 24.9892L6.93488 24.9449C7.02845 24.8841 6.9812 24.7387 6.86976 24.7445Z" fill="#FFC387"/>
<path d="M4.44482 26.0767C4.67107 26.0767 4.85449 25.8932 4.85449 25.667C4.85449 25.4407 4.67107 25.2573 4.44482 25.2573C4.21857 25.2573 4.03516 25.4407 4.03516 25.667C4.03516 25.8932 4.21857 26.0767 4.44482 26.0767Z" fill="#FFA263"/>
</g>
</g>
<g clip-path="url(#clip4_91_4212)">
<path d="M29.3339 9.13861L29.5792 10.2331C29.7386 10.9444 30.4019 11.4263 31.1277 11.3581L32.2443 11.2531C32.38 11.2404 32.4386 11.4206 32.3213 11.4901L31.3562 12.0616C30.729 12.433 30.4757 13.2127 30.7648 13.8819L31.2097 14.9115C31.2637 15.0366 31.1104 15.148 31.0081 15.0579L30.1664 14.3167C29.6193 13.8349 28.7994 13.8349 28.2524 14.3167L27.4106 15.0579C27.3083 15.148 27.155 15.0366 27.2091 14.9115L27.6539 13.8819C27.9431 13.2127 27.6897 12.433 27.0625 12.0616L26.0974 11.4901C25.9801 11.4206 26.0387 11.2404 26.1744 11.2531L27.2911 11.3581C28.0168 11.4263 28.6801 10.9444 28.8395 10.233L29.0848 9.13859C29.1146 9.0056 29.3041 9.0056 29.3339 9.13861Z" fill="#F74B4B"/>
<path d="M29.2094 12.4546C29.1473 12.4546 29.0896 12.4149 29.0678 12.3567C29.0455 12.297 29.0636 12.2277 29.1128 12.187C29.1597 12.1482 29.227 12.1415 29.2807 12.17C29.337 12.2 29.3693 12.265 29.3586 12.328C29.3464 12.4 29.2827 12.4546 29.2094 12.4546Z" fill="#C11C06"/>
<path d="M29.0581 11.7879C29.0581 11.7044 29.1257 11.6367 29.2094 11.6367C29.2929 11.6367 29.3607 11.7044 29.3607 11.7879C29.3607 11.8716 29.2929 11.9392 29.2094 11.9392C29.1257 11.9392 29.0581 11.8716 29.0581 11.7879ZM29.0581 11.2727C29.0581 11.1892 29.1257 11.1214 29.2094 11.1214C29.2929 11.1214 29.3607 11.1892 29.3607 11.2727C29.3607 11.3562 29.2929 11.424 29.2094 11.424C29.1257 11.424 29.0581 11.3562 29.0581 11.2727ZM29.0581 10.7573C29.0581 10.6738 29.1257 10.606 29.2094 10.606C29.2929 10.606 29.3607 10.6738 29.3607 10.7573C29.3607 10.8409 29.2929 10.9086 29.2094 10.9086C29.1257 10.9086 29.0581 10.8409 29.0581 10.7573ZM29.0581 10.242C29.0581 10.1584 29.1257 10.0907 29.2094 10.0907C29.2929 10.0907 29.3607 10.1584 29.3607 10.242C29.3607 10.3255 29.2929 10.3933 29.2094 10.3933C29.1257 10.3933 29.0581 10.3255 29.0581 10.242Z" fill="#C11C06"/>
<path d="M29.2098 9.87785C29.1476 9.87785 29.0903 9.83818 29.0683 9.78006C29.0458 9.72039 29.0639 9.65096 29.1131 9.61025C29.16 9.57147 29.2273 9.56468 29.281 9.59327C29.3379 9.62354 29.37 9.6892 29.3587 9.75266C29.3461 9.82411 29.2824 9.87785 29.2098 9.87785Z" fill="#C11C06"/>
<path d="M29.2094 12.4546C29.1473 12.4546 29.0896 12.4148 29.0678 12.3566C29.0455 12.297 29.0636 12.2276 29.1128 12.187C29.1597 12.1482 29.227 12.1414 29.2807 12.17C29.337 12.2 29.3693 12.2649 29.3586 12.328C29.3464 12.4 29.2827 12.4546 29.2094 12.4546Z" fill="#C11C06"/>
<path d="M28.6722 12.303C28.5922 12.2794 28.5464 12.1953 28.5698 12.1151C28.5934 12.035 28.6775 11.9891 28.7577 12.0127C28.8379 12.0363 28.8837 12.1204 28.8601 12.2006C28.8407 12.2664 28.7804 12.3092 28.715 12.3092C28.701 12.3092 28.6866 12.3071 28.6722 12.303C28.6866 12.3071 28.5922 12.2794 28.6722 12.303ZM28.1778 12.1575C28.0977 12.1339 28.0518 12.0498 28.0754 11.9696C28.099 11.8896 28.1831 11.8436 28.2633 11.8672C28.3435 11.8908 28.3893 11.9749 28.3657 12.0551C28.3464 12.121 28.286 12.1637 28.2206 12.1637C28.2066 12.1637 28.1921 12.1617 28.1778 12.1575C28.1921 12.1617 28.0977 12.1339 28.1778 12.1575ZM27.6834 12.012C27.6034 11.9884 27.5574 11.9044 27.581 11.8242C27.6046 11.744 27.6887 11.6982 27.7689 11.7218C27.8491 11.7454 27.8949 11.8295 27.8713 11.9095C27.852 11.9755 27.7916 12.0182 27.7263 12.0182C27.7122 12.0182 27.6978 12.0162 27.6834 12.012C27.6978 12.0162 27.6034 11.9883 27.6834 12.012ZM27.1891 11.8666C27.1089 11.843 27.063 11.7589 27.0866 11.6787C27.1102 11.5985 27.1944 11.5527 27.2745 11.5763C27.3547 11.5999 27.4006 11.684 27.377 11.7642C27.3576 11.83 27.2972 11.8728 27.2319 11.8728C27.2178 11.8728 27.2034 11.8707 27.1891 11.8666C27.2034 11.8707 27.1089 11.843 27.1891 11.8666Z" fill="#C11C06"/>
<path d="M26.7375 11.7272C26.6743 11.7272 26.6164 11.6863 26.5951 11.6268C26.5741 11.5684 26.592 11.5007 26.6396 11.4606C26.6894 11.4187 26.7619 11.4131 26.8173 11.4474C26.8702 11.4802 26.898 11.5446 26.8858 11.6055C26.8717 11.6752 26.8089 11.7272 26.7375 11.7272Z" fill="#C11C06"/>
<path d="M29.2094 12.4546C29.1473 12.4546 29.0896 12.4148 29.0678 12.3566C29.0455 12.297 29.0636 12.2276 29.1128 12.187C29.1597 12.1482 29.227 12.1414 29.2807 12.17C29.337 12.2 29.3693 12.2649 29.3586 12.328C29.3464 12.4 29.2827 12.4546 29.2094 12.4546Z" fill="#C11C06"/>
<path d="M27.9364 14.1131C27.868 14.065 27.8515 13.9707 27.8996 13.9024C27.9477 13.834 28.0421 13.8176 28.1105 13.8656C28.1787 13.9137 28.1952 14.0081 28.1471 14.0765C28.1176 14.1182 28.0709 14.1406 28.0232 14.1406C27.9933 14.1406 27.9629 14.1317 27.9364 14.1131C27.9629 14.1317 27.868 14.065 27.9364 14.1131ZM28.2329 13.6916C28.1645 13.6435 28.148 13.5491 28.1961 13.4809C28.2443 13.4125 28.3387 13.396 28.4069 13.4441C28.4753 13.4922 28.4917 13.5866 28.4436 13.6549C28.4141 13.6968 28.3674 13.7192 28.3197 13.7192C28.2896 13.7192 28.2594 13.7102 28.2329 13.6916C28.2594 13.7102 28.1645 13.6435 28.2329 13.6916ZM28.5294 13.2701C28.461 13.222 28.4445 13.1276 28.4927 13.0593C28.5408 12.991 28.635 12.9745 28.7034 13.0227C28.7718 13.0706 28.7883 13.165 28.7402 13.2334C28.7107 13.2753 28.6639 13.2977 28.6163 13.2977C28.5861 13.2977 28.5557 13.2888 28.5294 13.2701C28.5557 13.2888 28.461 13.222 28.5294 13.2701ZM28.8259 12.8485C28.7575 12.8004 28.7411 12.7062 28.7892 12.6378C28.8373 12.5694 28.9315 12.5531 28.9999 12.601C29.0683 12.6492 29.0848 12.7436 29.0367 12.8119C29.0072 12.8537 28.9604 12.8761 28.9128 12.8761C28.8827 12.8761 28.8524 12.8671 28.8259 12.8485C28.8524 12.8671 28.7575 12.8004 28.8259 12.8485Z" fill="#C11C06"/>
<path d="M27.7268 14.5623C27.6627 14.5623 27.6043 14.5201 27.5837 14.4596C27.563 14.3988 27.5839 14.33 27.6348 14.2909C27.6835 14.2534 27.7518 14.2499 27.8046 14.2813C27.8587 14.3135 27.8877 14.3786 27.8752 14.4405C27.8612 14.5103 27.7981 14.5623 27.7268 14.5623Z" fill="#C11C06"/>
<path d="M29.2094 12.4546C29.1473 12.4546 29.0896 12.4148 29.0678 12.3566C29.0455 12.297 29.0636 12.2276 29.1128 12.187C29.1597 12.1482 29.227 12.1414 29.2807 12.17C29.337 12.2 29.3693 12.2649 29.3586 12.328C29.3464 12.4 29.2827 12.4546 29.2094 12.4546Z" fill="#C11C06"/>
<path d="M29.5586 12.2006C29.5349 12.1204 29.5808 12.0363 29.661 12.0127C29.7412 11.9891 29.8253 12.0349 29.8489 12.1151C29.8725 12.1953 29.8266 12.2794 29.7465 12.303C29.7322 12.3071 29.7178 12.3092 29.7036 12.3092C29.6383 12.3092 29.5779 12.2664 29.5586 12.2006C29.5779 12.2664 29.535 12.1204 29.5586 12.2006ZM30.0529 12.0551C30.0293 11.9749 30.0752 11.8908 30.1554 11.8672C30.2356 11.8437 30.3197 11.8896 30.3433 11.9696C30.3669 12.0498 30.321 12.1339 30.2408 12.1575C30.2266 12.1617 30.2122 12.1637 30.198 12.1637C30.1327 12.1637 30.0723 12.121 30.0529 12.0551C30.0723 12.121 30.0293 11.9749 30.0529 12.0551ZM30.5473 11.9095C30.5237 11.8293 30.5696 11.7454 30.6497 11.7218C30.7299 11.6982 30.814 11.744 30.8376 11.8242C30.8612 11.9042 30.8154 11.9883 30.7352 12.0119C30.721 12.0162 30.7066 12.0181 30.6924 12.0181C30.6271 12.0182 30.5667 11.9755 30.5473 11.9095C30.5667 11.9755 30.5237 11.8293 30.5473 11.9095ZM31.0417 11.7642C31.0181 11.684 31.064 11.5999 31.1441 11.5763C31.2243 11.5527 31.3084 11.5985 31.332 11.6787C31.3556 11.7589 31.3098 11.843 31.2296 11.8666C31.2154 11.8707 31.201 11.8728 31.1868 11.8728C31.1214 11.8728 31.0611 11.83 31.0417 11.7642C31.0611 11.83 31.0181 11.684 31.0417 11.7642Z" fill="#C11C06"/>
<path d="M31.6814 11.7272C31.6182 11.7272 31.5603 11.6862 31.539 11.6269C31.5179 11.5681 31.5361 11.501 31.5835 11.4606C31.633 11.4186 31.706 11.4131 31.7612 11.4474C31.814 11.4802 31.8419 11.5445 31.8296 11.6055C31.8156 11.6753 31.7528 11.7272 31.6814 11.7272Z" fill="#C11C06"/>
<path d="M29.2094 12.4546C29.1473 12.4546 29.0896 12.4148 29.0678 12.3566C29.0455 12.297 29.0636 12.2276 29.1128 12.187C29.1597 12.1482 29.227 12.1414 29.2807 12.17C29.337 12.2 29.3693 12.2649 29.3586 12.328C29.3464 12.4 29.2827 12.4546 29.2094 12.4546Z" fill="#C11C06"/>
<path d="M30.2716 14.0765C30.2235 14.0081 30.24 13.9137 30.3084 13.8656C30.3768 13.8176 30.471 13.834 30.5191 13.9023C30.5672 13.9707 30.5507 14.065 30.4825 14.1131C30.456 14.1317 30.4256 14.1406 30.3955 14.1406C30.348 14.1406 30.3011 14.1182 30.2716 14.0765C30.3011 14.1182 30.2235 14.0081 30.2716 14.0765ZM29.9751 13.6549C29.9271 13.5866 29.9435 13.4922 30.0119 13.4441C30.0802 13.396 30.1745 13.4125 30.2226 13.4809C30.2707 13.5491 30.2542 13.6435 30.186 13.6916C30.1595 13.7102 30.1291 13.7192 30.099 13.7192C30.0515 13.7192 30.0046 13.6968 29.9751 13.6549C30.0046 13.6968 29.9271 13.5866 29.9751 13.6549ZM29.6786 13.2334C29.6306 13.165 29.647 13.0706 29.7154 13.0227C29.7837 12.9745 29.8781 12.991 29.9261 13.0593C29.9742 13.1276 29.9577 13.222 29.8895 13.2701C29.863 13.2888 29.8326 13.2977 29.8025 13.2977C29.755 13.2977 29.7081 13.2753 29.6786 13.2334C29.7081 13.2753 29.6306 13.165 29.6786 13.2334ZM29.3822 12.8119C29.3341 12.7436 29.3505 12.6492 29.4188 12.601C29.4872 12.5531 29.5816 12.5694 29.6296 12.6378C29.6777 12.7062 29.6614 12.8006 29.593 12.8485C29.5665 12.8671 29.5361 12.8761 29.506 12.8761C29.4585 12.8761 29.4116 12.8537 29.3822 12.8119C29.4116 12.8537 29.3341 12.7436 29.3822 12.8119Z" fill="#C11C06"/>
<path d="M30.6919 14.5622C30.6276 14.5622 30.5695 14.5201 30.5487 14.4595C30.5279 14.3991 30.5491 14.3297 30.5998 14.2909C30.6486 14.2535 30.7168 14.2499 30.7696 14.2812C30.8239 14.3134 30.8524 14.3787 30.8401 14.4405C30.8262 14.5103 30.7631 14.5622 30.6919 14.5622Z" fill="#C11C06"/>
</g>
<g clip-path="url(#clip5_91_4212)">
<path d="M17.1781 17.3561V18.8751L17.7289 18.9996C17.7815 19.0116 17.8335 19.0166 17.8839 19.0155C18.2859 19.0077 18.5978 18.6142 18.4754 18.2022L18.4003 17.9494C18.3855 17.8992 18.3785 17.8491 18.3785 17.7999C18.3785 17.5217 18.6039 17.279 18.9005 17.279C18.9829 17.279 19.0496 17.2124 19.0496 17.13C19.0496 17.0478 18.9829 16.981 18.9005 16.981L17.9834 17.1808L17.1781 17.3561Z" fill="#F74B4B"/>
<path d="M12.8487 20.0223H16.8952C17.3381 20.0223 17.6971 19.6632 17.6971 19.2203V17.3058C17.6971 16.9196 18.0101 16.6066 18.3963 16.6066C18.4786 16.6066 18.5453 16.5399 18.5453 16.4576C18.5453 16.3753 18.4786 16.3086 18.3963 16.3086H15.0657C14.2274 16.3086 13.5479 16.9881 13.5479 17.8264V19.0251C13.5479 19.4112 13.2349 19.7243 12.8487 19.7243C12.7664 19.7243 12.6997 19.791 12.6997 19.8732C12.6997 19.9555 12.7664 20.0223 12.8487 20.0223Z" fill="#F9D43A"/>
<path d="M14.0156 19.8179C13.8575 19.8179 13.7294 19.6897 13.7294 19.5317C13.7294 19.3736 13.8575 19.2455 14.0156 19.2455C14.1736 19.2455 14.3018 19.3736 14.3018 19.5317C14.3018 19.6897 14.1736 19.8179 14.0156 19.8179Z" fill="white"/>
<path d="M14.0156 19.7068C13.9189 19.7068 13.8405 19.6284 13.8405 19.5317C13.8405 19.435 13.9189 19.3566 14.0156 19.3566C14.1123 19.3566 14.1907 19.435 14.1907 19.5317C14.1907 19.6284 14.1123 19.7068 14.0156 19.7068Z" fill="#4D4D4D"/>
<path d="M15.8827 20.5206H16.6302V20.294C16.6302 20.0328 16.4185 19.8211 16.1573 19.8211H15.3465V19.9844C15.3465 20.2805 15.5865 20.5206 15.8827 20.5206Z" fill="#F74B4B"/>
<path d="M14.6564 19.4673C14.9856 19.4673 15.2524 19.2005 15.2524 18.8713V16.7622C14.9233 16.7622 14.6564 17.029 14.6564 17.3582V19.4673Z" fill="#D3B742"/>
<path d="M16.0968 19.4673C15.7676 19.4673 15.5008 19.2005 15.5008 18.8713V16.7622C15.8299 16.7622 16.0968 17.029 16.0968 17.3582V19.4673Z" fill="#D3B742"/>
<path d="M16.3452 19.4673C16.6744 19.4673 16.9413 19.2005 16.9413 18.8713V16.7622C16.6121 16.7622 16.3452 17.029 16.3452 17.3582V19.4673Z" fill="#D3B742"/>
</g>
<path d="M28.1848 17.1446C28.1752 17.3885 28.1631 17.633 28.1511 17.8779C28.0593 17.8685 27.9652 17.8184 27.8542 17.7342C27.6876 17.6073 27.5163 17.4068 27.3425 17.2311L27.0384 17.5503C27.1928 17.7057 27.3739 17.922 27.5935 18.0915C27.7456 18.2077 27.9338 18.3039 28.139 18.32C28.1124 19.2495 28.1293 20.1763 28.3055 21.0758C28.0424 21.4326 27.8325 21.844 27.678 22.2702C27.6538 22.3371 27.6321 22.404 27.608 22.4709C27.2846 22.3223 26.9394 22.0844 26.6039 21.8068C26.2733 20.9643 26.2515 20.1069 26.7246 19.4353C26.9611 19.2866 27.077 18.9952 27.1108 18.6966L26.6787 18.6448C26.6546 18.8763 26.5243 19.0488 26.4639 19.0686C26.4591 19.0711 26.4543 19.0711 26.4494 19.0735L26.447 19.0711C26.447 19.0735 26.4446 19.0735 26.4446 19.076C26.4205 19.081 26.3939 19.0735 26.336 19.0339C26.2636 18.9828 26.1598 18.8614 26.0488 18.6451L25.6626 18.8513C25.7929 19.1082 25.9305 19.2866 26.0874 19.4006C26.1236 19.4254 26.1598 19.4452 26.196 19.4626C25.9184 20.0102 25.8726 20.6298 25.9909 21.2468C25.9691 21.227 25.9498 21.2047 25.9281 21.1848C25.3319 20.5777 24.883 19.9904 24.562 19.6955C24.5403 19.4502 24.5258 19.252 24.5403 19.0884C24.562 18.8225 24.6296 18.6478 24.8516 18.4265L24.5475 18.1073C24.2675 18.3889 24.1348 18.706 24.1058 19.0512C24.0889 19.2817 24.1082 19.5394 24.1372 19.8194C23.6231 19.5245 23.1394 19.2941 22.5331 19.138L22.4283 19.5716C23.0342 19.7277 23.4973 19.9557 24.0382 20.2754C24.2048 20.4266 24.7454 21.0956 25.385 21.7474C25.9691 22.3421 26.6594 22.9542 27.4318 23.254C27.3546 23.8413 27.4101 24.4236 27.6707 24.9143C27.5163 25.0803 27.3811 25.2563 27.2628 25.4396C27.1977 25.5412 27.1397 25.6428 27.0842 25.7469C26.5484 25.5561 25.8267 25.0878 25.2306 24.5624C25.2137 24.5475 25.1968 24.5302 25.1775 24.5153C25.1847 24.3369 25.2547 24.1263 25.3657 23.9206C25.5057 23.6604 25.7085 23.4151 25.8871 23.249L25.595 22.917C25.3802 23.1177 25.1533 23.3928 24.9868 23.7025C24.9096 23.8463 24.842 23.9974 24.7985 24.1535C24.6272 23.9801 24.4727 23.8091 24.3472 23.653C24.1227 23.3705 23.9948 23.1028 23.9851 23.0458C23.8089 22.0893 23.7269 21.7796 23.019 20.7933L22.397 21.2641C22.5703 21.5045 22.6972 21.6879 22.7935 21.839C22.46 21.8762 22.0933 21.7845 21.8816 21.5863L21.5896 21.9183C21.9647 22.2677 22.5191 22.3718 23.0124 22.2554C23.1034 22.4883 23.1392 22.7311 23.2248 23.1945C23.2316 23.2317 23.2403 23.2664 23.2502 23.3036H23.2253C22.7448 23.3234 22.3192 23.591 21.9907 23.9627L22.3122 24.2626C22.6521 23.8785 23.0139 23.6728 23.4628 23.762C23.5434 23.8909 23.64 24.0172 23.7486 24.1535C24.0117 24.4831 24.3496 24.8325 24.7261 25.1646C24.9892 25.395 25.2692 25.6181 25.554 25.8188C25.0423 26.0195 24.2844 26.1285 23.7076 26.0294L23.6352 26.468C23.9151 26.5176 24.2144 26.5325 24.5113 26.5126C24.4799 26.6291 24.4775 26.7505 24.4992 26.862C24.5475 27.1123 24.7092 27.3254 24.9264 27.4766L25.1702 27.1098C25.0302 27.0107 24.9458 26.8819 24.924 26.7728C24.9023 26.6638 24.9192 26.5672 25.0399 26.4482C25.3947 26.3788 25.7278 26.2648 25.9981 26.1062C26.2564 26.2574 26.517 26.3863 26.7729 26.4779C26.5025 27.2858 26.4591 28.0788 26.4422 28.5744H27.2146C27.2363 27.8979 27.3256 26.7827 27.9073 25.8783C28.1438 25.5115 28.4528 25.172 28.8848 24.9044C29.4544 25.0184 30.0096 25.1448 30.5164 25.3257C30.473 25.5635 30.3257 25.685 30.1495 25.8931C30.0578 26.0046 29.9589 26.1409 29.913 26.3218C29.8647 26.5027 29.872 26.7183 29.9492 26.9636L30.3644 26.8298C30.304 26.6415 30.3088 26.5275 30.3306 26.4383C30.3547 26.3491 30.403 26.2747 30.4802 26.1855C30.6105 26.0294 30.8374 25.8287 30.9243 25.4917C31.1705 25.6032 31.4022 25.7321 31.6146 25.8882L31.8656 25.5239C31.1898 25.0283 30.3813 24.7755 29.5486 24.5897C30.094 24.3964 30.7771 24.2973 31.646 24.327C31.7763 24.612 32.0346 24.8647 32.3508 25.0704L32.5849 24.6938C32.1673 24.4212 31.9694 24.1015 31.9887 23.8859C32.0008 23.7769 32.0587 23.6654 32.2156 23.5415C32.3749 23.4176 32.6356 23.2912 33.0194 23.1945L32.9132 22.7609C32.4932 22.8674 32.1794 23.0087 31.9501 23.1871C31.8246 23.2887 31.7208 23.4052 31.6557 23.5315C31.5374 23.5291 31.4288 23.5266 31.3202 23.5291C30.9967 23.5315 30.6926 23.5538 30.4054 23.591C30.8833 22.9963 31.1729 22.3049 31.2767 21.5342L30.8495 21.4723C30.8036 21.7944 30.7264 22.0968 30.6105 22.3842C30.4778 22.3693 30.3595 22.3123 30.2582 22.2306C30.1182 22.1141 30.0192 21.9431 29.9902 21.792L29.563 21.8812C29.6161 22.1463 29.7658 22.3966 29.9854 22.5775C30.1061 22.6766 30.2557 22.7559 30.4126 22.798C30.2244 23.14 29.9758 23.4522 29.6668 23.7422C29.1238 23.8884 28.6652 24.1089 28.2814 24.3766C28.1197 23.8983 28.1607 23.2119 28.3997 22.5478C28.6555 21.844 29.1213 21.2047 29.6041 20.8949C29.7223 20.9469 29.8551 20.9717 29.983 20.9792C30.2485 20.994 30.5309 20.9469 30.7964 20.88C31.3298 20.7487 31.8005 20.5356 31.8005 20.5356L31.6267 20.1267C31.6267 20.1267 31.1802 20.3274 30.695 20.4464C30.4537 20.5058 30.2026 20.5455 30.0071 20.5331C29.814 20.5232 29.7054 20.4712 29.6547 20.3919C29.6354 20.3596 29.6258 20.2977 29.6692 20.1787C29.7127 20.0573 29.8044 19.9062 29.9082 19.7649C30.1133 19.4849 30.3571 19.2495 30.3571 19.2495L30.0627 18.9234C30.0627 18.9234 29.7947 19.1776 29.5606 19.4973C29.4424 19.6584 29.3313 19.8343 29.2637 20.0226C29.242 20.0821 29.2251 20.1441 29.2155 20.2085C29.02 20.3274 28.8365 20.4736 28.67 20.6421C28.5059 19.5394 28.5662 18.3594 28.6169 17.1649L28.1848 17.1446Z" fill="#582F91"/>
<g clip-path="url(#clip6_91_4212)">
<path d="M8.0352 10.3095C7.83098 10.0776 7.55219 9.92378 7.24679 9.87649C6.82251 9.81079 6.37689 9.79595 5.92453 9.86113C4.7831 10.0256 3.83039 10.656 3.14686 11.269C3.07103 11.3369 3.07911 11.4581 3.16253 11.5165L4.56269 12.4974L2.99435 13.5155C2.89519 13.5798 2.89833 13.7266 3.00068 13.7857C3.85614 14.2797 5.19672 14.8461 6.61342 14.642C6.92117 14.5976 7.21544 14.5186 7.49451 14.415C7.78418 14.3074 8.02765 14.1028 8.18219 13.8352L9.35353 11.807L8.0352 10.3095Z" fill="#0064BF"/>
<path d="M9.79732 11.22C8.99903 10.7108 7.52069 9.96351 5.98123 10.1853C3.70046 10.514 2.14909 12.8452 2.14909 12.8452C2.14909 12.8452 4.29552 14.6437 6.57629 14.315C8.11575 14.0932 9.32296 12.9589 9.94502 12.245C10.2199 11.9295 10.1501 11.445 9.79732 11.22Z" fill="#0055B8"/>
<path d="M5.98123 10.1853C3.70046 10.514 2.14909 12.8452 2.14909 12.8452C2.14909 12.8452 2.53951 13.1722 3.16402 13.5218L6.88655 12.9854C7.31954 12.9231 7.61995 12.5215 7.55756 12.0885L7.28645 10.2071C6.86645 10.1383 6.42648 10.1212 5.98123 10.1853ZM6.45693 12.4112C6.23262 12.4435 6.02457 12.2879 5.99225 12.0636C5.95993 11.8393 6.11557 11.6312 6.33988 11.5989C6.56419 11.5666 6.77228 11.7222 6.80461 11.9465C6.83693 12.1709 6.68124 12.3789 6.45693 12.4112Z" fill="#444D56"/>
<path d="M8.72659 12.2303C9.03543 12.1858 9.24972 11.8993 9.20522 11.5905C9.16072 11.2816 8.87428 11.0673 8.56543 11.1118C8.25659 11.1563 8.0423 11.4428 8.0868 11.7516C8.13131 12.0605 8.41775 12.2748 8.72659 12.2303Z" fill="white"/>
<path d="M8.68633 11.9506C8.84074 11.9284 8.94787 11.7852 8.92562 11.6307C8.90337 11.4763 8.76016 11.3692 8.60575 11.3914C8.45135 11.4137 8.34421 11.5569 8.36646 11.7113C8.38871 11.8657 8.53192 11.9729 8.68633 11.9506Z" fill="#814C3A"/>
<path d="M2.61336 12.1859L0.718726 11.541C0.594586 11.4987 0.469633 11.6025 0.488338 11.7323L0.820473 14.0373C0.839172 14.1671 0.988343 14.2314 1.09549 14.1558L2.73098 13.0022C3.04002 12.7843 2.97135 12.3077 2.61336 12.1859Z" fill="#444D56"/>
<path d="M2.26076 12.484L0.510864 11.8884L0.79802 13.8812L2.30856 12.8158C2.43416 12.7272 2.40626 12.5336 2.26076 12.484Z" fill="#FFD224"/>
<path d="M6.56046 12.3928L5.57285 11.6539C5.03209 12.3768 5.17969 13.4011 5.90253 13.9418L6.64137 12.9542C6.77403 12.7768 6.73781 12.5255 6.56046 12.3928Z" fill="#FFD224"/>
<path d="M6.56052 12.3928L5.76296 11.7961C5.30071 12.414 5.42689 13.2896 6.04477 13.7518L6.64143 12.9543C6.77409 12.7768 6.73787 12.5255 6.56052 12.3928Z" fill="#0063BE"/>
</g>
<g clip-path="url(#clip7_91_4212)">
<path d="M13.8984 7.19305L14.3171 7.66759L13.7543 8.22792C13.5057 8.47538 13.0157 8.44385 12.7692 8.16452C12.5227 7.88519 12.6556 7.51201 13.0363 7.4143L13.8984 7.19305Z" fill="#EA8518"/>
<path d="M15.2124 6.25818L15.4505 5.97397C15.4505 5.97397 14.2635 5.19964 12.9707 5.69148" fill="#EA8518"/>
<path d="M12.871 5.71425L12.107 5.5807C11.8886 5.54253 11.6869 5.65318 11.6564 5.82783L11.6181 6.04665" fill="#EA8518"/>
<path d="M12.556 7.51581L11.792 7.38226C11.5737 7.34409 11.4215 7.17158 11.452 6.99692L11.4902 6.77811" fill="#EA8518"/>
<path d="M16.2473 7.23281C15.8298 7.60828 15.3033 7.83396 14.7443 7.92299C14.7158 7.92762 14.6872 7.93172 14.6586 7.93559C14.6303 7.93939 14.6017 7.94278 14.5732 7.94582C14.4865 7.95533 14.3993 7.96171 14.3117 7.96487C14.2761 7.96618 14.2404 7.96699 14.2048 7.96721C14.1846 7.96732 14.1644 7.96731 14.1443 7.96707C14.0668 7.9664 13.9893 7.9633 13.9119 7.95779C13.798 7.94979 13.6841 7.93656 13.5711 7.91839C13.5494 7.91495 13.5277 7.91129 13.5061 7.90738C13.4737 7.9016 13.4415 7.89548 13.4092 7.88887C13.1126 7.82791 12.8235 7.73205 12.553 7.60337C12.529 7.59201 12.5053 7.58032 12.4815 7.56839C12.4541 7.55448 12.4266 7.54032 12.3996 7.52563C12.2218 7.43017 12.0536 7.3196 11.8984 7.19466C11.8709 7.17273 11.8439 7.15026 11.8173 7.1274C11.7955 7.10865 11.7741 7.08959 11.753 7.07035C11.6632 6.98819 11.5786 6.90074 11.5001 6.80817C11.479 6.78321 11.4583 6.75798 11.4382 6.73235C11.4126 6.69992 11.3877 6.6669 11.3637 6.63317C11.2986 6.54245 11.2391 6.44737 11.186 6.34806C11.2696 6.27277 11.3578 6.2035 11.4498 6.14013C11.4839 6.11655 11.5185 6.09382 11.5537 6.07189C11.5813 6.05461 11.6093 6.03787 11.6376 6.02168C11.7428 5.96122 11.8519 5.90764 11.9644 5.86097C11.9908 5.84991 12.0174 5.83937 12.0443 5.82912C12.077 5.81649 12.1101 5.80454 12.1434 5.7931C12.3316 5.72832 12.5275 5.68153 12.7271 5.65214C12.7575 5.64761 12.7881 5.64349 12.8187 5.63984C12.8449 5.63665 12.8714 5.63374 12.8978 5.63107C13.1958 5.60152 13.5004 5.60945 13.8001 5.65284C13.8327 5.65757 13.865 5.66262 13.8975 5.66817L13.9125 5.67079C13.9292 5.67371 13.9458 5.67673 13.9624 5.67988C14.0751 5.70103 14.1863 5.72729 14.2963 5.75842C14.371 5.77961 14.445 5.80299 14.5181 5.82854C14.5371 5.83515 14.5562 5.84199 14.5751 5.84895C14.6085 5.86123 14.6418 5.8741 14.6749 5.88741C14.7562 5.92009 14.8361 5.95557 14.9144 5.99392C14.9402 6.00645 14.9659 6.01932 14.9912 6.0325C15.0168 6.04584 15.0424 6.05955 15.0676 6.07355C15.4827 6.30261 15.8438 6.61407 16.1059 6.99985L15.9346 7.09383C15.8776 7.12506 15.8663 7.18967 15.9093 7.23837L15.9325 7.26466L16.1862 7.12553C16.2075 7.16073 16.2278 7.19648 16.2473 7.23281Z" fill="#F9993A"/>
<path d="M10.2102 5.45053C10.1793 5.44179 10.1482 5.43386 10.1169 5.42633L9.86768 6.85226C9.89963 6.85578 9.9316 6.85889 9.96363 6.86114C10.5101 6.89989 11.0632 6.75438 11.4614 6.3961C11.2084 5.92401 10.7374 5.59948 10.2102 5.45053Z" fill="#F9993A"/>
<path d="M15.3052 7.37002C15.5074 7.40538 15.6943 7.30287 15.7226 7.14106C15.7509 6.97925 15.6099 6.81941 15.4076 6.78405C15.2053 6.74869 15.0185 6.85121 14.9902 7.01302C14.9619 7.17483 15.1029 7.33467 15.3052 7.37002Z" fill="white"/>
<path d="M15.3251 7.25628C15.4488 7.27791 15.5632 7.21519 15.5805 7.1162C15.5978 7.0172 15.5115 6.91941 15.3878 6.89778C15.264 6.87615 15.1497 6.93887 15.1324 7.03786C15.1151 7.13686 15.2013 7.23465 15.3251 7.25628Z" fill="#4D4D4D"/>
<path d="M14.9912 6.0325L14.6586 7.93556C14.5089 7.95561 14.3571 7.96613 14.2048 7.96719L14.5751 5.849C14.718 5.90167 14.8572 5.96286 14.9912 6.0325Z" fill="#E6E6E6"/>
<path d="M12.0443 5.82911L11.8174 7.12733C11.6784 7.00762 11.5511 6.8758 11.4382 6.73236L11.5537 6.07184C11.7087 5.97524 11.873 5.8944 12.0443 5.82911Z" fill="#E6E6E6"/>
<path d="M13.8975 5.6682L13.5061 7.90741C13.1492 7.84363 12.8014 7.72944 12.4817 7.56837L12.8188 5.63979C13.174 5.5965 13.5402 5.60711 13.8975 5.6682Z" fill="#E6E6E6"/>
<path d="M15.0676 6.07355L14.7443 7.923C14.7158 7.92762 14.6872 7.93172 14.6585 7.93559C14.6302 7.93939 14.6017 7.94278 14.5732 7.94583L14.9144 5.99393C14.9402 6.00645 14.9659 6.01932 14.9912 6.0325C15.0168 6.04585 15.0424 6.05955 15.0676 6.07355Z" fill="#666464"/>
<path d="M14.675 5.88739L14.3118 7.96485C14.2762 7.96616 14.2405 7.96697 14.2049 7.96719C14.1847 7.9673 14.1645 7.96729 14.1444 7.96705L14.5182 5.82852C14.5372 5.83513 14.5562 5.84198 14.5752 5.84894C14.6086 5.86122 14.6419 5.87408 14.675 5.88739Z" fill="#666464"/>
<path d="M13.9625 5.67988L13.5712 7.91838C13.5494 7.91495 13.5277 7.91128 13.5061 7.90737C13.4737 7.90159 13.4415 7.89548 13.4093 7.88886L13.8001 5.65283C13.8327 5.65756 13.8651 5.66261 13.8975 5.66816L13.9126 5.67079C13.9292 5.6737 13.9458 5.67673 13.9625 5.67988Z" fill="#666464"/>
<path d="M12.8978 5.63106L12.5531 7.60336C12.5291 7.59199 12.5053 7.5803 12.4816 7.56838C12.4541 7.55446 12.4266 7.54031 12.3996 7.52562L12.7271 5.65212C12.7575 5.64759 12.7881 5.64347 12.8187 5.63982C12.8449 5.63663 12.8714 5.63373 12.8978 5.63106Z" fill="#666464"/>
<path d="M12.1434 5.79308L11.8984 7.19463C11.871 7.1727 11.8439 7.15024 11.8174 7.12737C11.7956 7.10862 11.7742 7.08957 11.7531 7.07033L11.9645 5.86094C11.9909 5.84988 12.0175 5.83934 12.0443 5.82909C12.0771 5.81647 12.1101 5.80451 12.1434 5.79308Z" fill="#666464"/>
<path d="M11.6377 6.02168L11.5002 6.80817C11.4791 6.78321 11.4584 6.75798 11.4383 6.73235C11.4127 6.69992 11.3878 6.6669 11.3637 6.63317L11.4499 6.14013C11.484 6.11655 11.5186 6.09382 11.5537 6.07189C11.5814 6.05461 11.6093 6.03787 11.6377 6.02168Z" fill="#666464"/>
<path d="M14.2028 6.93102L14.1188 7.41162L13.3174 7.44848C12.9635 7.46476 12.6621 7.20088 12.7116 6.91798C12.761 6.63509 13.134 6.48909 13.4615 6.62448L14.2028 6.93102Z" fill="#F9993A"/>
</g>
<g clip-path="url(#clip8_91_4212)">
<path d="M18.9368 3.07511C19.5981 3.07511 20.1342 2.53901 20.1342 1.8777C20.1342 1.21639 19.5981 0.680298 18.9368 0.680298C18.2755 0.680298 17.7394 1.21639 17.7394 1.8777C17.7394 2.53901 18.2755 3.07511 18.9368 3.07511Z" fill="url(#paint0_linear_91_4212)"/>
<path d="M18.9368 3.07511C19.5981 3.07511 20.1342 2.53901 20.1342 1.8777C20.1342 1.21639 19.5981 0.680298 18.9368 0.680298C18.2755 0.680298 17.7394 1.21639 17.7394 1.8777C17.7394 2.53901 18.2755 3.07511 18.9368 3.07511Z" fill="url(#paint1_radial_91_4212)"/>
<path d="M18.9368 3.07511C19.5981 3.07511 20.1342 2.53901 20.1342 1.8777C20.1342 1.21639 19.5981 0.680298 18.9368 0.680298C18.2755 0.680298 17.7394 1.21639 17.7394 1.8777C17.7394 2.53901 18.2755 3.07511 18.9368 3.07511Z" fill="url(#paint2_radial_91_4212)"/>
<path d="M19.1953 0.933344C19.33 1.13881 19.1668 1.48442 18.8307 1.70349C18.4946 1.92256 18.1136 1.93617 17.9789 1.73071C17.8442 1.52524 18.0074 1.17963 18.3436 0.960559C18.6796 0.741488 19.0606 0.727882 19.1953 0.933344Z" fill="url(#paint3_radial_91_4212)"/>
<path d="M18.9368 3.07511C19.5981 3.07511 20.1342 2.53901 20.1342 1.8777C20.1342 1.21639 19.5981 0.680298 18.9368 0.680298C18.2755 0.680298 17.7394 1.21639 17.7394 1.8777C17.7394 2.53901 18.2755 3.07511 18.9368 3.07511Z" fill="url(#paint4_radial_91_4212)"/>
<path d="M18.5531 2.50912C18.2578 2.35264 17.8238 1.86551 17.9394 1.21375C17.8129 1.40424 17.738 1.63147 17.738 1.87776C17.738 2.53906 18.2741 3.07516 18.9354 3.07516C19.2321 3.07516 19.5042 2.96631 19.7137 2.78806C19.3178 2.51048 19.0974 2.79894 18.5531 2.50912Z" fill="url(#paint5_linear_91_4212)"/>
<path d="M18.9749 0.681686C18.9925 0.683048 19.0089 0.68577 19.0265 0.689851C19.0551 0.698014 19.0837 0.710261 19.1109 0.725229C19.164 0.756525 19.2089 0.798706 19.2497 0.84497C19.3286 0.938856 19.3844 1.04907 19.4266 1.16337C19.4484 1.22052 19.466 1.27903 19.481 1.33754C19.496 1.39605 19.5082 1.45592 19.5178 1.51579C19.5273 1.57566 19.5341 1.63553 19.5395 1.69676C19.5436 1.75663 19.5463 1.81786 19.5463 1.87909C19.5463 1.94032 19.5436 2.00019 19.5395 2.06142C19.5341 2.12129 19.5286 2.18252 19.5178 2.24239C19.5082 2.30226 19.496 2.36213 19.481 2.42063C19.466 2.47916 19.4484 2.53767 19.4266 2.59482C19.3844 2.70776 19.3273 2.81796 19.2497 2.9132C19.2103 2.95947 19.164 3.00164 19.1109 3.03296C19.0851 3.04791 19.0565 3.06017 19.0265 3.06832C19.0102 3.07241 18.9925 3.07513 18.9762 3.07648C19.4089 3.04655 19.7532 2.52269 19.7532 1.88045C19.7532 1.23549 19.4075 0.711623 18.9749 0.681686Z" fill="url(#paint6_radial_91_4212)"/>
<path d="M16.8998 3.98809C17.3657 3.98809 17.7434 3.61038 17.7434 3.14448C17.7434 2.67855 17.3657 2.30084 16.8998 2.30084C16.4339 2.30084 16.0562 2.67855 16.0562 3.14448C16.0562 3.61038 16.4339 3.98809 16.8998 3.98809Z" fill="url(#paint7_linear_91_4212)"/>
<path d="M16.8998 3.98809C17.3657 3.98809 17.7434 3.61038 17.7434 3.14448C17.7434 2.67855 17.3657 2.30084 16.8998 2.30084C16.4339 2.30084 16.0562 2.67855 16.0562 3.14448C16.0562 3.61038 16.4339 3.98809 16.8998 3.98809Z" fill="url(#paint8_radial_91_4212)"/>
<path d="M16.8998 3.98809C17.3657 3.98809 17.7434 3.61038 17.7434 3.14448C17.7434 2.67855 17.3657 2.30084 16.8998 2.30084C16.4339 2.30084 16.0562 2.67855 16.0562 3.14448C16.0562 3.61038 16.4339 3.98809 16.8998 3.98809Z" fill="url(#paint9_radial_91_4212)"/>
<path d="M17.0821 2.48044C17.1774 2.62467 17.0617 2.86824 16.825 3.02335C16.5882 3.17846 16.3188 3.18663 16.2249 3.0424C16.1297 2.89817 16.2453 2.6546 16.4821 2.49949C16.7188 2.34437 16.9869 2.3362 17.0821 2.48044Z" fill="url(#paint10_radial_91_4212)"/>
<path d="M16.8998 3.98809C17.3657 3.98809 17.7434 3.61038 17.7434 3.14448C17.7434 2.67855 17.3657 2.30084 16.8998 2.30084C16.4339 2.30084 16.0562 2.67855 16.0562 3.14448C16.0562 3.61038 16.4339 3.98809 16.8998 3.98809Z" fill="url(#paint11_radial_91_4212)"/>
<path d="M16.629 3.58941C16.4208 3.47921 16.116 3.13632 16.1977 2.67639C16.1079 2.81112 16.0562 2.97166 16.0562 3.14449C16.0562 3.60982 16.4344 3.9881 16.8998 3.9881C17.1093 3.9881 17.3012 3.9119 17.4481 3.78536C17.1692 3.59077 17.0127 3.79353 16.629 3.58941Z" fill="url(#paint12_linear_91_4212)"/>
<path d="M16.927 2.30225C16.9392 2.30361 16.9515 2.30497 16.9624 2.30769C16.9828 2.31313 17.0032 2.32266 17.0209 2.33218C17.0576 2.35395 17.0903 2.38388 17.1189 2.41655C17.1746 2.48323 17.2141 2.56078 17.244 2.64105C17.259 2.68051 17.2726 2.7227 17.2821 2.76352C17.293 2.80433 17.3012 2.84653 17.308 2.8887C17.3148 2.93089 17.3189 2.97306 17.323 3.01662C17.3257 3.05879 17.327 3.10234 17.3284 3.14451C17.3284 3.18668 17.327 3.23023 17.323 3.2724C17.3189 3.3146 17.3148 3.35813 17.308 3.40032C17.3012 3.44249 17.2917 3.48469 17.2821 3.5255C17.2713 3.56767 17.259 3.60851 17.244 3.64797C17.2141 3.72824 17.1746 3.80579 17.1189 3.87247C17.0903 3.90514 17.059 3.93507 17.0209 3.95683C17.0018 3.96771 16.9828 3.97588 16.9624 3.98133C16.9501 3.98405 16.9392 3.98676 16.927 3.98676C17.2318 3.965 17.4754 3.59625 17.4754 3.14451C17.4754 2.69277 17.2318 2.32402 16.927 2.30225Z" fill="url(#paint13_radial_91_4212)"/>
<path d="M18.9136 5.03446C19.2894 5.03446 19.594 4.72985 19.594 4.35412C19.594 3.97837 19.2894 3.67377 18.9136 3.67377C18.5379 3.67377 18.2333 3.97837 18.2333 4.35412C18.2333 4.72985 18.5379 5.03446 18.9136 5.03446Z" fill="url(#paint14_linear_91_4212)"/>
<path d="M18.9136 5.03446C19.2894 5.03446 19.594 4.72985 19.594 4.35412C19.594 3.97837 19.2894 3.67377 18.9136 3.67377C18.5379 3.67377 18.2333 3.97837 18.2333 4.35412C18.2333 4.72985 18.5379 5.03446 18.9136 5.03446Z" fill="url(#paint15_radial_91_4212)"/>
<path d="M18.9136 5.03446C19.2894 5.03446 19.594 4.72985 19.594 4.35412C19.594 3.97837 19.2894 3.67377 18.9136 3.67377C18.5379 3.67377 18.2333 3.97837 18.2333 4.35412C18.2333 4.72985 18.5379 5.03446 18.9136 5.03446Z" fill="url(#paint16_radial_91_4212)"/>
<path d="M19.0606 3.818C19.1368 3.93502 19.0442 4.13096 18.8537 4.25614C18.6632 4.38132 18.4455 4.38813 18.3693 4.2711C18.2931 4.15409 18.3857 3.95814 18.5762 3.83296C18.7666 3.70778 18.9844 3.70097 19.0606 3.818Z" fill="url(#paint17_radial_91_4212)"/>
<path d="M18.9136 5.03446C19.2894 5.03446 19.594 4.72985 19.594 4.35412C19.594 3.97837 19.2894 3.67377 18.9136 3.67377C18.5379 3.67377 18.2333 3.97837 18.2333 4.35412C18.2333 4.72985 18.5379 5.03446 18.9136 5.03446Z" fill="url(#paint18_radial_91_4212)"/>
<path d="M18.6959 4.71338C18.5285 4.62492 18.2823 4.34734 18.3476 3.97723C18.2755 4.08475 18.2333 4.21535 18.2333 4.35415C18.2333 4.72969 18.5381 5.03449 18.9136 5.03449C19.0824 5.03449 19.2375 4.97327 19.3558 4.87121C19.13 4.71338 19.0048 4.87802 18.6959 4.71338Z" fill="url(#paint19_linear_91_4212)"/>
<path d="M18.9354 3.67517C18.9449 3.67653 18.9545 3.67789 18.964 3.6806C18.9803 3.68605 18.9967 3.69286 19.0116 3.70103C19.0416 3.7187 19.0674 3.7432 19.0905 3.76906C19.1354 3.82211 19.1667 3.88472 19.1912 3.95003C19.2035 3.98268 19.2144 4.01535 19.2225 4.04935C19.2307 4.08338 19.2375 4.11603 19.2429 4.15005C19.2484 4.18406 19.2525 4.21808 19.2552 4.25209C19.2579 4.28611 19.2593 4.3215 19.2593 4.3555C19.2593 4.38953 19.2579 4.42492 19.2552 4.45892C19.2525 4.49295 19.2484 4.52695 19.2429 4.56098C19.2375 4.59498 19.2307 4.62901 19.2225 4.66165C19.2144 4.69568 19.2035 4.72833 19.1912 4.761C19.1667 4.82496 19.1354 4.88753 19.0905 4.94197C19.0674 4.96783 19.0416 4.99231 19.0116 5.01C18.9967 5.01817 18.9803 5.02498 18.964 5.03041C18.9545 5.03312 18.9449 5.0345 18.9354 5.03586C19.1817 5.01817 19.3777 4.72154 19.3777 4.35686C19.3777 3.98949 19.1817 3.69151 18.9354 3.67517Z" fill="url(#paint20_radial_91_4212)"/>
</g>
<g clip-path="url(#clip9_91_4212)">
<path d="M24.4041 6.82453L24.2421 6.58164L23.5778 5.77005C23.5778 5.77005 22.9797 5.50891 22.5745 5.5228C22.2951 5.53233 21.7542 5.4347 21.1605 5.92364C20.7156 6.28995 20.6223 6.7134 20.6223 6.7134L21.0624 6.95787L20.7271 7.18131C20.7271 7.18131 21.1128 7.88853 22.1804 8.02664C23.446 8.19054 23.9096 7.53095 24.1917 7.16226C24.2211 7.12376 24.4041 6.82453 24.4041 6.82453Z" fill="url(#paint21_linear_91_4212)"/>
<path d="M22.6077 4.90646C22.5744 4.92512 22.3478 5.11244 22.2418 5.24618C22.1482 5.36445 22.049 5.53669 22.049 5.53669C22.049 5.53669 22.5518 5.52081 22.9169 5.64384C23.282 5.76687 23.694 6.03595 24.0119 6.41098C24.2559 6.69871 24.3202 6.81341 24.323 6.86619C24.3258 6.91937 24.1218 7.17614 23.9003 7.39799C23.7587 7.53967 23.619 7.67381 23.2503 7.88574C23.0768 7.98535 22.9403 8.01988 22.9403 8.01988C22.9403 8.01988 23.3435 8.09013 23.5408 8.09251C23.7606 8.09529 23.8892 8.07941 23.9039 8.02742C23.919 7.97543 23.6729 7.7889 23.6729 7.7889C23.6729 7.7889 23.9357 7.57658 24.1218 7.35791C24.1956 7.27099 24.3881 7.02533 24.3881 7.02533C24.3881 7.02533 24.5937 7.23924 24.7111 7.33806C24.8342 7.44125 25.1247 7.6623 25.1703 7.64365C25.2227 7.62222 25.1108 7.28965 25.0362 7.1559C24.9616 7.02176 24.7679 6.8392 24.7679 6.8392C24.7679 6.8392 25.0127 6.65109 25.102 6.43877C25.1913 6.22644 25.2596 5.94903 25.2036 5.92284C25.1477 5.89665 24.7798 6.27486 24.7056 6.34947C24.631 6.42408 24.427 6.67054 24.427 6.67054C24.427 6.67054 24.2539 6.48877 24.2131 6.44035C24.1722 6.39193 24.0416 6.22803 24.0416 6.22803C24.0416 6.22803 23.7626 5.66051 23.263 5.26325C22.9169 4.98822 22.6077 4.90646 22.6077 4.90646Z" fill="#1B65A6"/>
<path d="M22.2613 6.89717C22.2613 6.96424 22.2308 7.18847 22.4288 7.33571C22.6594 7.50676 23.0063 7.53573 23.1364 7.52859C23.3365 7.51748 23.4234 7.46509 23.4234 7.46509C23.4234 7.46509 23.2186 7.20792 22.857 7.0329C22.4955 6.85788 22.2613 6.89717 22.2613 6.89717Z" fill="#1B65A6"/>
<path d="M20.5294 6.69874C20.4953 6.76462 20.5406 6.79478 20.6525 6.84677C20.7644 6.89876 20.9354 6.96226 20.9354 6.96226C20.9354 6.96226 20.8275 7.00711 20.7715 7.04401C20.7156 7.08132 20.6148 7.11902 20.6414 7.1857C20.6608 7.23491 20.7084 7.23054 20.7977 7.18212C20.887 7.13371 21.0847 7.01068 21.0882 6.96226C21.0918 6.91384 20.9608 6.83368 20.8592 6.7797C20.7362 6.71462 20.5683 6.62334 20.5294 6.69874Z" fill="#1B65A6"/>
<path d="M21.7323 6.54871C21.7323 6.6257 21.6835 6.69118 21.587 6.69753C21.4751 6.70507 21.4307 6.62372 21.4307 6.54672C21.4307 6.46973 21.5033 6.40901 21.5739 6.40227C21.6664 6.39433 21.7323 6.47172 21.7323 6.54871Z" fill="#262D33"/>
<path d="M22.157 6.62332C22.1192 6.62848 22.105 6.67531 22.1085 6.74992C22.1121 6.82453 22.1308 6.88406 22.1196 6.92494C22.1085 6.96582 21.9522 7.18211 21.9224 7.22299C21.8926 7.26386 21.8553 7.32339 21.8962 7.35713C21.9371 7.39086 21.9895 7.34601 22.0192 7.31625C22.049 7.28648 22.2502 7.02217 22.2578 6.96224C22.2653 6.90271 22.2391 6.75746 22.2355 6.7277C22.2316 6.69793 22.2129 6.61578 22.157 6.62332Z" fill="#E0ECF3"/>
<path d="M22.3506 6.62332C22.347 6.68682 22.4212 6.69039 22.507 6.69039C22.5851 6.69039 23.038 6.71102 23.2836 6.72372C23.5463 6.73761 23.9019 6.80111 24.0591 6.8281C24.1524 6.84397 24.2417 6.86541 24.2417 6.80191C24.2417 6.74158 24.144 6.73206 24.048 6.71261C23.967 6.69594 23.7083 6.62609 23.2864 6.5999C22.9701 6.58046 22.5443 6.56736 22.4958 6.57093C22.4474 6.5749 22.3542 6.56299 22.3506 6.62332Z" fill="#E0ECF3"/>
</g>
<defs>
<linearGradient id="paint0_linear_91_4212" x1="17.8714" y1="0.197042" x2="22.177" y2="6.99209" gradientUnits="userSpaceOnUse">
<stop stop-color="#80DAFE" stop-opacity="0"/>
<stop offset="1" stop-color="#008EE6"/>
</linearGradient>
<radialGradient id="paint1_radial_91_4212" cx="0" cy="0" r="1" gradientUnits="userSpaceOnUse" gradientTransform="translate(18.6091 0.84826) scale(2.80331)">
<stop offset="0.5839" stop-color="#FB9DC1" stop-opacity="0"/>
<stop offset="0.6244" stop-color="#F59EC3" stop-opacity="0.0730316"/>
<stop offset="0.6809" stop-color="#E2A0C8" stop-opacity="0.1749"/>
<stop offset="0.7469" stop-color="#C5A4D0" stop-opacity="0.2938"/>
<stop offset="0.82" stop-color="#9BAADB" stop-opacity="0.4256"/>
<stop offset="0.899" stop-color="#66B1E9" stop-opacity="0.568"/>
<stop offset="0.9818" stop-color="#26B9FA" stop-opacity="0.7172"/>
<stop offset="1" stop-color="#17BBFE" stop-opacity="0.75"/>
</radialGradient>
<radialGradient id="paint2_radial_91_4212" cx="0" cy="0" r="1" gradientUnits="userSpaceOnUse" gradientTransform="translate(19.177 1.89714) scale(3.11292)">
<stop stop-color="#D1F2FF" stop-opacity="0"/>
<stop offset="0.1913" stop-color="#CBF0FF" stop-opacity="0.1435"/>
<stop offset="0.458" stop-color="#B8EBFF" stop-opacity="0.3435"/>
<stop offset="0.7676" stop-color="#9BE2FE" stop-opacity="0.5757"/>
<stop offset="1" stop-color="#80DAFE" stop-opacity="0.75"/>
</radialGradient>
<radialGradient id="paint3_radial_91_4212" cx="0" cy="0" r="1" gradientUnits="userSpaceOnUse" gradientTransform="translate(18.5873 1.33217) rotate(-33.2503) scale(0.602929 0.400875)">
<stop stop-color="white"/>
<stop offset="1" stop-color="white" stop-opacity="0"/>
</radialGradient>
<radialGradient id="paint4_radial_91_4212" cx="0" cy="0" r="1" gradientUnits="userSpaceOnUse" gradientTransform="translate(19.177 1.89714) scale(3.11292)">
<stop stop-color="#D1F2FF" stop-opacity="0"/>
<stop offset="0.1913" stop-color="#CBF0FF" stop-opacity="0.1435"/>
<stop offset="0.458" stop-color="#B8EBFF" stop-opacity="0.3435"/>
<stop offset="0.7676" stop-color="#9BE2FE" stop-opacity="0.5757"/>
<stop offset="1" stop-color="#80DAFE" stop-opacity="0.75"/>
</radialGradient>
<linearGradient id="paint5_linear_91_4212" x1="18.9939" y1="1.55606" x2="17.9762" y2="4.06743" gradientUnits="userSpaceOnUse">
<stop stop-color="#17BBFE" stop-opacity="0"/>
<stop offset="1" stop-color="#17BBFE" stop-opacity="0.75"/>
</linearGradient>
<radialGradient id="paint6_radial_91_4212" cx="0" cy="0" r="1" gradientUnits="userSpaceOnUse" gradientTransform="translate(19.527 1.27892) rotate(-1.44239) scale(0.889166 0.3723)">
<stop stop-color="white"/>
<stop offset="1" stop-color="white" stop-opacity="0"/>
</radialGradient>
<linearGradient id="paint7_linear_91_4212" x1="16.1494" y1="1.96115" x2="19.1829" y2="6.74856" gradientUnits="userSpaceOnUse">
<stop stop-color="#80DAFE" stop-opacity="0"/>
<stop offset="1" stop-color="#008EE6"/>
</linearGradient>
<radialGradient id="paint8_radial_91_4212" cx="0" cy="0" r="1" gradientUnits="userSpaceOnUse" gradientTransform="translate(16.6692 2.41995) scale(1.97506)">
<stop offset="0.5839" stop-color="#FB9DC1" stop-opacity="0"/>
<stop offset="0.6244" stop-color="#F59EC3" stop-opacity="0.0730316"/>
<stop offset="0.6809" stop-color="#E2A0C8" stop-opacity="0.1749"/>
<stop offset="0.7469" stop-color="#C5A4D0" stop-opacity="0.2938"/>
<stop offset="0.82" stop-color="#9BAADB" stop-opacity="0.4256"/>
<stop offset="0.899" stop-color="#66B1E9" stop-opacity="0.568"/>
<stop offset="0.9818" stop-color="#26B9FA" stop-opacity="0.7172"/>
<stop offset="1" stop-color="#17BBFE" stop-opacity="0.75"/>
</radialGradient>
<radialGradient id="paint9_radial_91_4212" cx="0" cy="0" r="1" gradientUnits="userSpaceOnUse" gradientTransform="translate(17.0693 3.15893) scale(2.19319)">
<stop stop-color="#D1F2FF" stop-opacity="0"/>
<stop offset="0.1913" stop-color="#CBF0FF" stop-opacity="0.1435"/>
<stop offset="0.458" stop-color="#B8EBFF" stop-opacity="0.3435"/>
<stop offset="0.7676" stop-color="#9BE2FE" stop-opacity="0.5757"/>
<stop offset="1" stop-color="#80DAFE" stop-opacity="0.75"/>
</radialGradient>
<radialGradient id="paint10_radial_91_4212" cx="0" cy="0" r="1" gradientUnits="userSpaceOnUse" gradientTransform="translate(16.6539 2.76085) rotate(-33.2504) scale(0.424792 0.282436)">
<stop stop-color="white"/>
<stop offset="1" stop-color="white" stop-opacity="0"/>
</radialGradient>
<radialGradient id="paint11_radial_91_4212" cx="0" cy="0" r="1" gradientUnits="userSpaceOnUse" gradientTransform="translate(17.0693 3.15893) scale(2.19319)">
<stop stop-color="#D1F2FF" stop-opacity="0"/>
<stop offset="0.1913" stop-color="#CBF0FF" stop-opacity="0.1435"/>
<stop offset="0.458" stop-color="#B8EBFF" stop-opacity="0.3435"/>
<stop offset="0.7676" stop-color="#9BE2FE" stop-opacity="0.5757"/>
<stop offset="1" stop-color="#80DAFE" stop-opacity="0.75"/>
</radialGradient>
<linearGradient id="paint12_linear_91_4212" x1="16.9402" y1="2.91861" x2="16.2232" y2="4.68798" gradientUnits="userSpaceOnUse">
<stop stop-color="#17BBFE" stop-opacity="0"/>
<stop offset="1" stop-color="#17BBFE" stop-opacity="0.75"/>
</linearGradient>
<radialGradient id="paint13_radial_91_4212" cx="0" cy="0" r="1" gradientUnits="userSpaceOnUse" gradientTransform="translate(17.3159 2.72349) rotate(-1.44239) scale(0.626458 0.262303)">
<stop stop-color="white"/>
<stop offset="1" stop-color="white" stop-opacity="0"/>
</radialGradient>
<linearGradient id="paint14_linear_91_4212" x1="18.3081" y1="3.39945" x2="20.7545" y2="7.26026" gradientUnits="userSpaceOnUse">
<stop stop-color="#80DAFE" stop-opacity="0"/>
<stop offset="1" stop-color="#008EE6"/>
</linearGradient>
<radialGradient id="paint15_radial_91_4212" cx="0" cy="0" r="1" gradientUnits="userSpaceOnUse" gradientTransform="translate(18.7273 3.76954) scale(1.59281)">
<stop offset="0.5839" stop-color="#FB9DC1" stop-opacity="0"/>
<stop offset="0.6244" stop-color="#F59EC3" stop-opacity="0.0730316"/>
<stop offset="0.6809" stop-color="#E2A0C8" stop-opacity="0.1749"/>
<stop offset="0.7469" stop-color="#C5A4D0" stop-opacity="0.2938"/>
<stop offset="0.82" stop-color="#9BAADB" stop-opacity="0.4256"/>
<stop offset="0.899" stop-color="#66B1E9" stop-opacity="0.568"/>
<stop offset="0.9818" stop-color="#26B9FA" stop-opacity="0.7172"/>
<stop offset="1" stop-color="#17BBFE" stop-opacity="0.75"/>
</radialGradient>
<radialGradient id="paint16_radial_91_4212" cx="0" cy="0" r="1" gradientUnits="userSpaceOnUse" gradientTransform="translate(19.0499 4.36551) scale(1.76872)">
<stop stop-color="#D1F2FF" stop-opacity="0"/>
<stop offset="0.1913" stop-color="#CBF0FF" stop-opacity="0.1435"/>
<stop offset="0.458" stop-color="#B8EBFF" stop-opacity="0.3435"/>
<stop offset="0.7676" stop-color="#9BE2FE" stop-opacity="0.5757"/>
<stop offset="1" stop-color="#80DAFE" stop-opacity="0.75"/>
</radialGradient>
<radialGradient id="paint17_radial_91_4212" cx="0" cy="0" r="1" gradientUnits="userSpaceOnUse" gradientTransform="translate(18.7165 4.04638) rotate(-33.2462) scale(0.342562 0.227748)">
<stop stop-color="white"/>
<stop offset="1" stop-color="white" stop-opacity="0"/>
</radialGradient>
<radialGradient id="paint18_radial_91_4212" cx="0" cy="0" r="1" gradientUnits="userSpaceOnUse" gradientTransform="translate(19.0499 4.36551) scale(1.76872)">
<stop stop-color="#D1F2FF" stop-opacity="0"/>
<stop offset="0.1913" stop-color="#CBF0FF" stop-opacity="0.1435"/>
<stop offset="0.458" stop-color="#B8EBFF" stop-opacity="0.3435"/>
<stop offset="0.7676" stop-color="#9BE2FE" stop-opacity="0.5757"/>
<stop offset="1" stop-color="#80DAFE" stop-opacity="0.75"/>
</radialGradient>
<linearGradient id="paint19_linear_91_4212" x1="18.9459" y1="4.17161" x2="18.3676" y2="5.59854" gradientUnits="userSpaceOnUse">
<stop stop-color="#17BBFE" stop-opacity="0"/>
<stop offset="1" stop-color="#17BBFE" stop-opacity="0.75"/>
</linearGradient>
<radialGradient id="paint20_radial_91_4212" cx="0" cy="0" r="1" gradientUnits="userSpaceOnUse" gradientTransform="translate(19.2486 4.01352) rotate(-1.44248) scale(0.505178 0.211535)">
<stop stop-color="white"/>
<stop offset="1" stop-color="white" stop-opacity="0"/>
</radialGradient>
<linearGradient id="paint21_linear_91_4212" x1="22.5131" y1="5.52066" x2="22.5131" y2="8.05243" gradientUnits="userSpaceOnUse">
<stop offset="0.079" stop-color="#1483BC"/>
<stop offset="0.189" stop-color="#1F8CC2"/>
<stop offset="0.381" stop-color="#3CA4D3"/>
<stop offset="0.585" stop-color="#62C2E8"/>
<stop offset="0.962" stop-color="#99D6EF"/>
</linearGradient>
<clipPath id="clip0_91_4212">
<rect width="13.9697" height="15.2397" fill="white" transform="matrix(-1 0 0 1 30.4794 13.3347)"/>
</clipPath>
<clipPath id="clip1_91_4212">
<rect width="13.3347" height="13.3347" fill="white" transform="translate(12.0647 15.8747)"/>
</clipPath>
<clipPath id="clip2_91_4212">
<rect width="12.6997" height="12.6997" fill="white" transform="translate(1.90491 15.8747)"/>
</clipPath>
<clipPath id="clip3_91_4212">
<rect width="5.07989" height="5.07989" fill="white" transform="translate(1.90491 22.8595)"/>
</clipPath>
<clipPath id="clip4_91_4212">
<rect width="6.34986" height="6.34986" fill="white" transform="translate(26.0344 8.8898)"/>
</clipPath>
<clipPath id="clip5_91_4212">
<rect width="6.34986" height="6.34986" fill="white" transform="matrix(-1 0 0 1 19.0496 15.2397)"/>
</clipPath>
<clipPath id="clip6_91_4212">
<rect width="9.52479" height="9.52479" fill="white" transform="translate(0 8.34329) rotate(-8.19953)"/>
</clipPath>
<clipPath id="clip7_91_4212">
<rect width="6.34986" height="5.07989" fill="white" transform="translate(10.3995 3.80994) rotate(9.9155)"/>
</clipPath>
<clipPath id="clip8_91_4212">
<rect width="5.71488" height="5.71488" fill="white" transform="translate(15.2397)"/>
</clipPath>
<clipPath id="clip9_91_4212">
<rect width="5.07989" height="5.07989" fill="white" transform="translate(20.3195 3.80994)"/>
</clipPath>
</defs>
</svg>
